G04*
G04 #@! TF.GenerationSoftware,Altium Limited,Altium Designer,20.0.13 (296)*
G04*
G04 Layer_Physical_Order=2*
G04 Layer_Color=16711680*
%FSLAX44Y44*%
%MOMM*%
G71*
G01*
G75*
%ADD12C,0.2540*%
%ADD27C,4.0000*%
%ADD28C,6.0000*%
%ADD29R,1.4000X1.4000*%
%ADD30C,1.4000*%
%ADD31R,1.4000X1.4000*%
%ADD32C,1.2700*%
G36*
X2739914Y1935708D02*
X2740257Y1933097D01*
X2741265Y1930665D01*
X2740257Y1928232D01*
X2739914Y1925622D01*
X2739914Y1887475D01*
X2589212D01*
Y1891874D01*
X2589213Y1891874D01*
X2588869Y1894484D01*
X2587861Y1896917D01*
X2586258Y1899006D01*
X2552973Y1932291D01*
X2550884Y1933894D01*
X2548451Y1934902D01*
X2545841Y1935246D01*
X2500000D01*
X2497390Y1934902D01*
X2494957Y1933894D01*
X2492868Y1932291D01*
X2491265Y1930202D01*
X2490257Y1927770D01*
X2489914Y1925159D01*
Y1887513D01*
X2489875Y1887475D01*
X2335266D01*
X2289986Y1932754D01*
X2287897Y1934357D01*
X2285464Y1935364D01*
X2282854Y1935708D01*
X2250000Y1935708D01*
X2247389Y1935364D01*
X2244957Y1934357D01*
X2242868Y1932754D01*
X2241265Y1930665D01*
X2240257Y1928232D01*
X2239914Y1925622D01*
X2239914Y1887475D01*
X2090310D01*
Y1890776D01*
X2089966Y1893387D01*
X2088959Y1895820D01*
X2087356Y1897908D01*
X2052973Y1932291D01*
X2050884Y1933894D01*
X2048451Y1934902D01*
X2045841Y1935246D01*
X2000000D01*
X1997390Y1934902D01*
X1994957Y1933894D01*
X1992868Y1932291D01*
X1991265Y1930202D01*
X1990257Y1927770D01*
X1989914Y1925159D01*
Y1887513D01*
X1989875Y1887475D01*
X1835266D01*
X1789986Y1932754D01*
X1787897Y1934357D01*
X1785464Y1935364D01*
X1782854Y1935708D01*
X1750000Y1935708D01*
X1747389Y1935364D01*
X1744957Y1934357D01*
X1742868Y1932754D01*
X1741265Y1930665D01*
X1740257Y1928232D01*
X1739914Y1925622D01*
X1739914Y1887475D01*
X1590180D01*
Y1890906D01*
X1590180Y1890906D01*
X1589836Y1893517D01*
X1588829Y1895950D01*
X1587226Y1898038D01*
X1587226Y1898038D01*
X1552973Y1932291D01*
X1550884Y1933894D01*
X1548451Y1934902D01*
X1545841Y1935246D01*
X1500000D01*
X1497390Y1934902D01*
X1494957Y1933894D01*
X1492868Y1932291D01*
X1491265Y1930202D01*
X1490257Y1927770D01*
X1489914Y1925159D01*
Y1887513D01*
X1489875Y1887475D01*
X1335266D01*
X1289986Y1932754D01*
X1287897Y1934357D01*
X1285464Y1935364D01*
X1282854Y1935708D01*
X1250000Y1935708D01*
X1247389Y1935364D01*
X1244957Y1934357D01*
X1242868Y1932754D01*
X1241265Y1930665D01*
X1240257Y1928232D01*
X1239914Y1925622D01*
X1239914Y1887475D01*
X1089436D01*
Y1891650D01*
X1089092Y1894261D01*
X1088085Y1896693D01*
X1086482Y1898782D01*
X1052973Y1932291D01*
X1050884Y1933894D01*
X1048451Y1934902D01*
X1045841Y1935246D01*
X1000000D01*
X997390Y1934902D01*
X994957Y1933894D01*
X992868Y1932291D01*
X991265Y1930202D01*
X990257Y1927770D01*
X989914Y1925159D01*
Y1887513D01*
X989875Y1887475D01*
X835266D01*
X789986Y1932754D01*
X787897Y1934357D01*
X785464Y1935364D01*
X782854Y1935708D01*
X750000Y1935708D01*
X747389Y1935364D01*
X744957Y1934357D01*
X742868Y1932754D01*
X741265Y1930665D01*
X740257Y1928232D01*
X739914Y1925622D01*
X739914Y1861765D01*
X661269Y1783120D01*
X661264Y1783113D01*
X661257Y1783108D01*
X660461Y1782068D01*
X659666Y1781031D01*
X659663Y1781023D01*
X659657Y1781016D01*
X659159Y1779807D01*
X658658Y1778598D01*
X658657Y1778590D01*
X658654Y1778582D01*
X658486Y1777290D01*
X658315Y1775988D01*
X658316Y1775979D01*
X658315Y1775971D01*
X658365Y1746651D01*
X657467Y1745752D01*
X589306Y1745752D01*
Y1891781D01*
X588962Y1894391D01*
X587954Y1896824D01*
X586352Y1898913D01*
X586352Y1898913D01*
X552973Y1932291D01*
X550884Y1933894D01*
X548451Y1934902D01*
X545841Y1935246D01*
X500000D01*
X497389Y1934902D01*
X494957Y1933894D01*
X492868Y1932291D01*
X491265Y1930202D01*
X490257Y1927770D01*
X489914Y1925159D01*
Y1887513D01*
X439717Y1837316D01*
X438544Y1837802D01*
Y2000000D01*
X2739914D01*
Y1935708D01*
D02*
G37*
G36*
X2579126Y1891874D02*
X2579126Y495514D01*
X2420803Y495514D01*
X2420803Y1804138D01*
X2500000Y1883335D01*
Y1925159D01*
X2545841D01*
X2579126Y1891874D01*
D02*
G37*
G36*
X2080224Y1890776D02*
X2080224Y495514D01*
X1920673Y495514D01*
X1920673Y1804008D01*
X2000000Y1883335D01*
Y1925159D01*
X2045841D01*
X2080224Y1890776D01*
D02*
G37*
G36*
X1580094Y1890906D02*
X1580094Y495514D01*
X1419929D01*
X1419929Y1803264D01*
X1500000Y1883335D01*
Y1925159D01*
X1545841D01*
X1580094Y1890906D01*
D02*
G37*
G36*
X1079350Y1891650D02*
X1079350Y495514D01*
X919799Y495514D01*
Y1803134D01*
X1000000Y1883335D01*
Y1925159D01*
X1045841D01*
X1079350Y1891650D01*
D02*
G37*
G36*
X579220Y1891781D02*
Y495514D01*
X420896Y495514D01*
X420896Y1804231D01*
X500000Y1883335D01*
Y1925159D01*
X545841D01*
X579220Y1891781D01*
D02*
G37*
G36*
X2829498Y1878978D02*
Y266851D01*
X2671068Y266851D01*
X2668486Y1776073D01*
X2750000Y1857587D01*
X2750000Y1925622D01*
X2782854Y1925622D01*
X2829498Y1878978D01*
D02*
G37*
G36*
X2329982Y1878495D02*
Y266851D01*
X2170940Y266851D01*
X2168358Y1775945D01*
X2250000Y1857587D01*
X2250000Y1925622D01*
X2282854Y1925622D01*
X2329982Y1878495D01*
D02*
G37*
G36*
X1829238Y1879238D02*
Y266851D01*
X1670808Y266851D01*
X1668227Y1775814D01*
X1750000Y1857587D01*
X1750000Y1925622D01*
X1782854Y1925622D01*
X1829238Y1879238D01*
D02*
G37*
G36*
X1329108Y1879368D02*
Y266851D01*
X1171359Y266851D01*
X1168777Y1776364D01*
X1250000Y1857587D01*
X1250000Y1925622D01*
X1282854Y1925622D01*
X1329108Y1879368D01*
D02*
G37*
G36*
X829592Y1878885D02*
Y266851D01*
X670982Y266851D01*
X668401Y1775988D01*
X750000Y1857587D01*
X750000Y1925622D01*
X782854Y1925622D01*
X829592Y1878885D01*
D02*
G37*
G36*
X3000000Y0D02*
X0D01*
Y2000000D01*
X428458D01*
Y1837802D01*
Y1826057D01*
X413764Y1811363D01*
X412161Y1809274D01*
X411153Y1806842D01*
X410810Y1804231D01*
X410810Y495514D01*
X411153Y492903D01*
X412161Y490471D01*
X413764Y488382D01*
X415853Y486779D01*
X418285Y485771D01*
X420896Y485428D01*
X579220Y485428D01*
X581830Y485771D01*
X584263Y486779D01*
X586352Y488382D01*
X587954Y490471D01*
X588962Y492903D01*
X589306Y495514D01*
Y1700000D01*
X658445D01*
X660896Y266834D01*
X661069Y265538D01*
X661240Y264240D01*
X661243Y264232D01*
X661244Y264224D01*
X661748Y263013D01*
X662247Y261808D01*
X662253Y261801D01*
X662256Y261793D01*
X663054Y260757D01*
X663850Y259719D01*
X663857Y259713D01*
X663862Y259707D01*
X664899Y258914D01*
X665939Y258116D01*
X665947Y258113D01*
X665954Y258107D01*
X667160Y257610D01*
X668372Y257108D01*
X668380Y257107D01*
X668388Y257104D01*
X669681Y256936D01*
X670982Y256765D01*
X829592Y256765D01*
X832202Y257108D01*
X834635Y258116D01*
X836724Y259719D01*
X838327Y261808D01*
X839334Y264240D01*
X839678Y266851D01*
Y1700000D01*
X909713D01*
Y495514D01*
X910057Y492903D01*
X911064Y490471D01*
X912667Y488382D01*
X914756Y486779D01*
X917189Y485771D01*
X919799Y485428D01*
X1079350Y485428D01*
X1081960Y485771D01*
X1084393Y486779D01*
X1086482Y488382D01*
X1088085Y490471D01*
X1089092Y492903D01*
X1089436Y495514D01*
X1089436Y1700000D01*
X1158821D01*
X1161272Y266834D01*
X1161445Y265538D01*
X1161616Y264240D01*
X1161619Y264232D01*
X1161620Y264224D01*
X1162124Y263013D01*
X1162624Y261808D01*
X1162629Y261801D01*
X1162632Y261793D01*
X1163430Y260757D01*
X1164227Y259719D01*
X1164233Y259713D01*
X1164239Y259707D01*
X1165275Y258914D01*
X1166316Y258116D01*
X1166324Y258113D01*
X1166330Y258107D01*
X1167537Y257610D01*
X1168748Y257108D01*
X1168757Y257107D01*
X1168765Y257104D01*
X1170058Y256936D01*
X1171359Y256765D01*
X1329108Y256765D01*
X1331719Y257108D01*
X1334151Y258116D01*
X1336240Y259719D01*
X1337843Y261808D01*
X1338851Y264240D01*
X1339194Y266851D01*
Y1700000D01*
X1409843D01*
X1409843Y495514D01*
X1410186Y492903D01*
X1411194Y490471D01*
X1412797Y488382D01*
X1414886Y486779D01*
X1417319Y485771D01*
X1419929Y485428D01*
X1580094D01*
X1582704Y485771D01*
X1585137Y486779D01*
X1587226Y488382D01*
X1588829Y490471D01*
X1589836Y492903D01*
X1590180Y495514D01*
X1590180Y1700000D01*
X1658270D01*
X1660721Y266834D01*
X1660894Y265538D01*
X1661065Y264240D01*
X1661069Y264232D01*
X1661070Y264224D01*
X1661574Y263013D01*
X1662073Y261808D01*
X1662078Y261801D01*
X1662081Y261793D01*
X1662879Y260757D01*
X1663676Y259719D01*
X1663683Y259713D01*
X1663688Y259707D01*
X1664724Y258914D01*
X1665765Y258116D01*
X1665773Y258113D01*
X1665780Y258107D01*
X1666986Y257610D01*
X1668197Y257108D01*
X1668206Y257107D01*
X1668214Y257104D01*
X1669507Y256936D01*
X1670808Y256765D01*
X1829238Y256765D01*
X1831849Y257108D01*
X1834281Y258116D01*
X1836370Y259719D01*
X1837973Y261808D01*
X1838981Y264240D01*
X1839324Y266851D01*
Y1700000D01*
X1910587D01*
X1910586Y495514D01*
X1910930Y492903D01*
X1911938Y490471D01*
X1913541Y488382D01*
X1915630Y486779D01*
X1918062Y485771D01*
X1920673Y485428D01*
X2080224Y485428D01*
X2082834Y485771D01*
X2085267Y486779D01*
X2087356Y488382D01*
X2088959Y490471D01*
X2089966Y492903D01*
X2090310Y495514D01*
X2090310Y1700000D01*
X2158402D01*
X2160853Y266834D01*
X2161026Y265538D01*
X2161197Y264240D01*
X2161200Y264232D01*
X2161201Y264224D01*
X2161705Y263013D01*
X2162205Y261808D01*
X2162210Y261801D01*
X2162213Y261793D01*
X2163011Y260757D01*
X2163808Y259719D01*
X2163815Y259713D01*
X2163820Y259707D01*
X2164856Y258914D01*
X2165896Y258116D01*
X2165905Y258113D01*
X2165912Y258107D01*
X2167118Y257610D01*
X2168329Y257108D01*
X2168338Y257107D01*
X2168346Y257104D01*
X2169639Y256936D01*
X2170940Y256765D01*
X2329982Y256765D01*
X2332592Y257108D01*
X2335025Y258116D01*
X2337114Y259719D01*
X2338717Y261808D01*
X2339724Y264240D01*
X2340068Y266851D01*
Y1700000D01*
X2410716D01*
X2410716Y495514D01*
X2411060Y492903D01*
X2412068Y490471D01*
X2413671Y488382D01*
X2415759Y486779D01*
X2418192Y485771D01*
X2420803Y485428D01*
X2579126Y485428D01*
X2581736Y485771D01*
X2584169Y486779D01*
X2586258Y488382D01*
X2587861Y490471D01*
X2588869Y492903D01*
X2589212Y495514D01*
X2589212Y1700000D01*
X2658530D01*
X2660981Y266834D01*
X2661154Y265538D01*
X2661325Y264240D01*
X2661328Y264232D01*
X2661330Y264224D01*
X2661833Y263013D01*
X2662333Y261808D01*
X2662338Y261801D01*
X2662341Y261793D01*
X2663139Y260757D01*
X2663936Y259719D01*
X2663943Y259713D01*
X2663948Y259707D01*
X2664984Y258914D01*
X2666024Y258116D01*
X2666033Y258113D01*
X2666039Y258107D01*
X2667246Y257610D01*
X2668457Y257108D01*
X2668466Y257107D01*
X2668474Y257104D01*
X2669767Y256936D01*
X2671068Y256765D01*
X2829498Y256765D01*
X2832108Y257108D01*
X2834541Y258116D01*
X2836630Y259719D01*
X2838233Y261808D01*
X2839240Y264240D01*
X2839584Y266851D01*
Y1878978D01*
X2839240Y1881589D01*
X2838233Y1884022D01*
X2836630Y1886111D01*
X2789986Y1932754D01*
X2787897Y1934357D01*
X2785464Y1935364D01*
X2782854Y1935708D01*
X2750996Y1935708D01*
X2750000Y1936939D01*
Y2000000D01*
X3000000D01*
Y0D01*
D02*
G37*
%LPC*%
G36*
X109540Y1746840D02*
X90460D01*
Y1727760D01*
X109540D01*
Y1746840D01*
D02*
G37*
G36*
Y1496840D02*
X90460D01*
Y1477760D01*
X109540D01*
Y1496840D01*
D02*
G37*
G36*
Y1246840D02*
X90460D01*
Y1227760D01*
X109540D01*
Y1246840D01*
D02*
G37*
G36*
Y996840D02*
X90460D01*
Y977760D01*
X109540D01*
Y996840D01*
D02*
G37*
G36*
Y746840D02*
X90460D01*
Y727760D01*
X109540D01*
Y746840D01*
D02*
G37*
G36*
Y496840D02*
X90460D01*
Y477760D01*
X109540D01*
Y496840D01*
D02*
G37*
G36*
X282854Y1935708D02*
X250000Y1935708D01*
X247389Y1935364D01*
X244957Y1934357D01*
X242868Y1932754D01*
X241265Y1930665D01*
X240257Y1928232D01*
X239914Y1925622D01*
Y1909540D01*
X227760D01*
Y1890460D01*
X239914D01*
Y1861765D01*
X162326Y1784178D01*
X162321Y1784171D01*
X162314Y1784165D01*
X161516Y1783122D01*
X160723Y1782089D01*
X160720Y1782081D01*
X160715Y1782074D01*
X160214Y1780860D01*
X159716Y1779656D01*
X159715Y1779648D01*
X159712Y1779639D01*
X159543Y1778346D01*
X159372Y1777046D01*
X159373Y1777037D01*
X159372Y1777028D01*
X161955Y266834D01*
X162128Y265538D01*
X162299Y264240D01*
X162302Y264232D01*
X162304Y264224D01*
X162808Y263013D01*
X163307Y261808D01*
X163312Y261801D01*
X163315Y261793D01*
X164113Y260757D01*
X164910Y259719D01*
X164916Y259713D01*
X164922Y259707D01*
X165958Y258914D01*
X166999Y258116D01*
X167007Y258113D01*
X167013Y258107D01*
X168220Y257610D01*
X169431Y257108D01*
X169440Y257107D01*
X169448Y257104D01*
X170741Y256936D01*
X172042Y256765D01*
X330075Y256765D01*
X332685Y257108D01*
X335118Y258116D01*
X337207Y259719D01*
X338810Y261808D01*
X339817Y264240D01*
X340161Y266851D01*
Y1878401D01*
X340161Y1878401D01*
X339817Y1881012D01*
X338810Y1883445D01*
X337207Y1885533D01*
X337207Y1885534D01*
X289986Y1932754D01*
X287897Y1934357D01*
X285464Y1935364D01*
X282854Y1935708D01*
D02*
G37*
G36*
X109540Y246840D02*
X90460D01*
Y227760D01*
X109540D01*
Y246840D01*
D02*
G37*
%LPD*%
G36*
X330075Y1878401D02*
Y266851D01*
X172042Y266851D01*
X169459Y1777046D01*
X250000Y1857587D01*
X250000Y1925622D01*
X282854Y1925622D01*
X330075Y1878401D01*
D02*
G37*
D12*
X3000000Y0D02*
Y2000000D01*
X0D02*
X3000000D01*
X0Y0D02*
X3000000D01*
X0D02*
Y2000000D01*
D27*
X625000Y1772500D02*
D03*
Y1927500D02*
D03*
X375000Y1772500D02*
D03*
Y1927500D02*
D03*
D28*
X2900000Y1900000D02*
D03*
Y100000D02*
D03*
X100000D02*
D03*
Y1900000D02*
D03*
D29*
Y1737300D02*
D03*
Y1487300D02*
D03*
Y1237300D02*
D03*
Y987300D02*
D03*
Y737300D02*
D03*
Y237300D02*
D03*
Y487300D02*
D03*
D30*
Y1762700D02*
D03*
Y1512700D02*
D03*
Y1262700D02*
D03*
Y1012700D02*
D03*
X262700Y1900000D02*
D03*
X762700D02*
D03*
X1262700D02*
D03*
X1762700D02*
D03*
X100000Y762700D02*
D03*
X2262700Y1900000D02*
D03*
X2762700D02*
D03*
X512700D02*
D03*
X1012700D02*
D03*
X100000Y262700D02*
D03*
X1512700Y1900000D02*
D03*
X2012700D02*
D03*
X2512700D02*
D03*
X100000Y512700D02*
D03*
D31*
X237300Y1900000D02*
D03*
X737300D02*
D03*
X1237300D02*
D03*
X1737300D02*
D03*
X2237300D02*
D03*
X2737300D02*
D03*
X487300D02*
D03*
X987300D02*
D03*
X1487300D02*
D03*
X1987300D02*
D03*
X2487300D02*
D03*
D32*
X1250000Y790000D02*
D03*
X2750000Y1290000D02*
D03*
X2500000Y1540000D02*
D03*
X2000000D02*
D03*
X2250000Y1290000D02*
D03*
X1750000D02*
D03*
X1500000Y1540000D02*
D03*
X1250000Y1290000D02*
D03*
X1500000Y1040000D02*
D03*
X2000000D02*
D03*
X2500000D02*
D03*
X2750000Y790000D02*
D03*
X2250000D02*
D03*
X1750000D02*
D03*
X2000000Y540000D02*
D03*
X2500000D02*
D03*
X2750000Y290000D02*
D03*
X2250000D02*
D03*
X1750000D02*
D03*
X1500000Y540000D02*
D03*
X1250000Y290000D02*
D03*
X1000000Y540000D02*
D03*
Y1040000D02*
D03*
Y1540000D02*
D03*
X750000Y1290000D02*
D03*
Y790000D02*
D03*
Y290000D02*
D03*
X500000Y540000D02*
D03*
Y1040000D02*
D03*
Y1540000D02*
D03*
X250000Y290000D02*
D03*
Y790000D02*
D03*
Y1290000D02*
D03*
M02*
