G04*
G04 #@! TF.GenerationSoftware,Altium Limited,Altium Designer,20.0.13 (296)*
G04*
G04 Layer_Color=16711935*
%FSLAX44Y44*%
%MOMM*%
G71*
G01*
G75*
%ADD12C,0.2540*%
%ADD33C,0.1000*%
%ADD34R,2.8000X0.4707*%
D12*
X3000000D02*
Y2000000D01*
X0D02*
X3000000D01*
X0Y0D02*
X3000000D01*
X0D02*
Y2000000D01*
D33*
X2757000Y189250D02*
Y210750D01*
X2743000Y189250D02*
Y210750D01*
X2757000D01*
X2743000Y189250D02*
X2757000D01*
X2736000Y232500D02*
Y267500D01*
X2764000Y232500D02*
Y267500D01*
X2736000Y232500D02*
X2764000D01*
X2736000Y267500D02*
X2764000D01*
X2757000Y689250D02*
Y710750D01*
X2743000Y689250D02*
Y710750D01*
X2757000D01*
X2743000Y689250D02*
X2757000D01*
X2736000Y732500D02*
Y767500D01*
X2764000Y732500D02*
Y767500D01*
X2736000Y732500D02*
X2764000D01*
X2736000Y767500D02*
X2764000D01*
X2757000Y1189250D02*
Y1210750D01*
X2743000Y1189250D02*
Y1210750D01*
X2757000D01*
X2743000Y1189250D02*
X2757000D01*
X2736000Y1232500D02*
Y1267500D01*
X2764000Y1232500D02*
Y1267500D01*
X2736000Y1232500D02*
X2764000D01*
X2736000Y1267500D02*
X2764000D01*
X2757000Y1689250D02*
Y1710750D01*
X2743000Y1689250D02*
Y1710750D01*
X2757000D01*
X2743000Y1689250D02*
X2757000D01*
X2736000Y1732500D02*
Y1767500D01*
X2764000Y1732500D02*
Y1767500D01*
X2736000Y1732500D02*
X2764000D01*
X2736000Y1767500D02*
X2764000D01*
X2507000Y1439250D02*
Y1460750D01*
X2493000Y1439250D02*
Y1460750D01*
X2507000D01*
X2493000Y1439250D02*
X2507000D01*
X2486000Y1482500D02*
Y1517500D01*
X2514000Y1482500D02*
Y1517500D01*
X2486000Y1482500D02*
X2514000D01*
X2486000Y1517500D02*
X2514000D01*
X2486000Y982500D02*
Y1017500D01*
X2514000Y982500D02*
Y1017500D01*
X2486000Y982500D02*
X2514000D01*
X2486000Y1017500D02*
X2514000D01*
X2486000Y517500D02*
X2514000D01*
X2486000Y482500D02*
X2514000D01*
Y517500D01*
X2486000Y482500D02*
Y517500D01*
X2493000Y439250D02*
X2507000D01*
X2493000Y460750D02*
X2507000D01*
X2493000Y439250D02*
Y460750D01*
X2507000Y439250D02*
Y460750D01*
X2257000Y189250D02*
Y210750D01*
X2243000Y189250D02*
Y210750D01*
X2257000D01*
X2243000Y189250D02*
X2257000D01*
X2236000Y232500D02*
Y267500D01*
X2264000Y232500D02*
Y267500D01*
X2236000Y232500D02*
X2264000D01*
X2236000Y267500D02*
X2264000D01*
X2257000Y689250D02*
Y710750D01*
X2243000Y689250D02*
Y710750D01*
X2257000D01*
X2243000Y689250D02*
X2257000D01*
X2236000Y732500D02*
Y767500D01*
X2264000Y732500D02*
Y767500D01*
X2236000Y732500D02*
X2264000D01*
X2236000Y767500D02*
X2264000D01*
X2257000Y1189250D02*
Y1210750D01*
X2243000Y1189250D02*
Y1210750D01*
X2257000D01*
X2243000Y1189250D02*
X2257000D01*
X2236000Y1232500D02*
Y1267500D01*
X2264000Y1232500D02*
Y1267500D01*
X2236000Y1232500D02*
X2264000D01*
X2236000Y1267500D02*
X2264000D01*
X2257000Y1689250D02*
Y1710750D01*
X2243000Y1689250D02*
Y1710750D01*
X2257000D01*
X2243000Y1689250D02*
X2257000D01*
X2236000Y1732500D02*
Y1767500D01*
X2264000Y1732500D02*
Y1767500D01*
X2236000Y1732500D02*
X2264000D01*
X2236000Y1767500D02*
X2264000D01*
X2007000Y1439250D02*
Y1460750D01*
X1993000Y1439250D02*
Y1460750D01*
X2007000D01*
X1993000Y1439250D02*
X2007000D01*
X1986000Y1482500D02*
Y1517500D01*
X2014000Y1482500D02*
Y1517500D01*
X1986000Y1482500D02*
X2014000D01*
X1986000Y1517500D02*
X2014000D01*
X2007000Y939250D02*
Y960750D01*
X1993000Y939250D02*
Y960750D01*
X2007000D01*
X1993000Y939250D02*
X2007000D01*
X1986000Y982500D02*
Y1017500D01*
X2014000Y982500D02*
Y1017500D01*
X1986000Y982500D02*
X2014000D01*
X1986000Y1017500D02*
X2014000D01*
X1986000Y517500D02*
X2014000D01*
X1986000Y482500D02*
X2014000D01*
Y517500D01*
X1986000Y482500D02*
Y517500D01*
X1993000Y439250D02*
X2007000D01*
X1993000Y460750D02*
X2007000D01*
X1993000Y439250D02*
Y460750D01*
X2007000Y439250D02*
Y460750D01*
X1757000Y189250D02*
Y210750D01*
X1743000Y189250D02*
Y210750D01*
X1757000D01*
X1743000Y189250D02*
X1757000D01*
X1736000Y232500D02*
Y267500D01*
X1764000Y232500D02*
Y267500D01*
X1736000Y232500D02*
X1764000D01*
X1736000Y267500D02*
X1764000D01*
X1757000Y689250D02*
Y710750D01*
X1743000Y689250D02*
Y710750D01*
X1757000D01*
X1743000Y689250D02*
X1757000D01*
X1736000Y732500D02*
Y767500D01*
X1764000Y732500D02*
Y767500D01*
X1736000Y732500D02*
X1764000D01*
X1736000Y767500D02*
X1764000D01*
X1757000Y1189250D02*
Y1210750D01*
X1743000Y1189250D02*
Y1210750D01*
X1757000D01*
X1743000Y1189250D02*
X1757000D01*
X1736000Y1232500D02*
Y1267500D01*
X1764000Y1232500D02*
Y1267500D01*
X1736000Y1232500D02*
X1764000D01*
X1736000Y1267500D02*
X1764000D01*
X1757000Y1689250D02*
Y1710750D01*
X1743000Y1689250D02*
Y1710750D01*
X1757000D01*
X1743000Y1689250D02*
X1757000D01*
X1736000Y1732500D02*
Y1767500D01*
X1764000Y1732500D02*
Y1767500D01*
X1736000Y1732500D02*
X1764000D01*
X1736000Y1767500D02*
X1764000D01*
X1486000Y1482500D02*
Y1517500D01*
X1514000Y1482500D02*
Y1517500D01*
X1486000Y1482500D02*
X1514000D01*
X1486000Y1517500D02*
X1514000D01*
X1507000Y1439250D02*
Y1460750D01*
X1493000Y1439250D02*
Y1460750D01*
X1507000D01*
X1493000Y1439250D02*
X1507000D01*
Y939250D02*
Y960750D01*
X1493000Y939250D02*
Y960750D01*
X1507000D01*
X1493000Y939250D02*
X1507000D01*
X1486000Y982500D02*
Y1017500D01*
X1514000Y982500D02*
Y1017500D01*
X1486000Y982500D02*
X1514000D01*
X1486000Y1017500D02*
X1514000D01*
X1486000Y517500D02*
X1514000D01*
X1486000Y482500D02*
X1514000D01*
Y517500D01*
X1486000Y482500D02*
Y517500D01*
X1493000Y439250D02*
X1507000D01*
X1493000Y460750D02*
X1507000D01*
X1493000Y439250D02*
Y460750D01*
X1507000Y439250D02*
Y460750D01*
X1257000Y189250D02*
Y210750D01*
X1243000Y189250D02*
Y210750D01*
X1257000D01*
X1243000Y189250D02*
X1257000D01*
X1236000Y232500D02*
Y267500D01*
X1264000Y232500D02*
Y267500D01*
X1236000Y232500D02*
X1264000D01*
X1236000Y267500D02*
X1264000D01*
X1257000Y689250D02*
Y710750D01*
X1243000Y689250D02*
Y710750D01*
X1257000D01*
X1243000Y689250D02*
X1257000D01*
X1236000Y732500D02*
Y767500D01*
X1264000Y732500D02*
Y767500D01*
X1236000Y732500D02*
X1264000D01*
X1236000Y767500D02*
X1264000D01*
X1257000Y1189250D02*
Y1210750D01*
X1243000Y1189250D02*
Y1210750D01*
X1257000D01*
X1243000Y1189250D02*
X1257000D01*
X1236000Y1232500D02*
Y1267500D01*
X1264000Y1232500D02*
Y1267500D01*
X1236000Y1232500D02*
X1264000D01*
X1236000Y1267500D02*
X1264000D01*
X1257000Y1689250D02*
Y1710750D01*
X1243000Y1689250D02*
Y1710750D01*
X1257000D01*
X1243000Y1689250D02*
X1257000D01*
X1236000Y1732500D02*
Y1767500D01*
X1264000Y1732500D02*
Y1767500D01*
X1236000Y1732500D02*
X1264000D01*
X1236000Y1767500D02*
X1264000D01*
X757000Y1689250D02*
Y1710750D01*
X743000Y1689250D02*
Y1710750D01*
X757000D01*
X743000Y1689250D02*
X757000D01*
X986000Y1482500D02*
Y1517500D01*
X1014000Y1482500D02*
Y1517500D01*
X986000Y1482500D02*
X1014000D01*
X986000Y1517500D02*
X1014000D01*
X1007000Y1439250D02*
Y1460750D01*
X993000Y1439250D02*
Y1460750D01*
X1007000D01*
X993000Y1439250D02*
X1007000D01*
X986000Y982500D02*
Y1017500D01*
X1014000Y982500D02*
Y1017500D01*
X986000Y982500D02*
X1014000D01*
X986000Y1017500D02*
X1014000D01*
X1007000Y939250D02*
Y960750D01*
X993000Y939250D02*
Y960750D01*
X1007000D01*
X993000Y939250D02*
X1007000D01*
X986000Y482500D02*
Y517500D01*
X1014000Y482500D02*
Y517500D01*
X986000Y482500D02*
X1014000D01*
X986000Y517500D02*
X1014000D01*
X1007000Y439250D02*
Y460750D01*
X993000Y439250D02*
Y460750D01*
X1007000D01*
X993000Y439250D02*
X1007000D01*
X757000Y189250D02*
Y210750D01*
X743000Y189250D02*
Y210750D01*
X757000D01*
X743000Y189250D02*
X757000D01*
X736000Y232500D02*
Y267500D01*
X764000Y232500D02*
Y267500D01*
X736000Y232500D02*
X764000D01*
X736000Y267500D02*
X764000D01*
X507000Y439250D02*
Y460750D01*
X493000Y439250D02*
Y460750D01*
X507000D01*
X493000Y439250D02*
X507000D01*
X257000Y689250D02*
Y710750D01*
X243000Y689250D02*
Y710750D01*
X257000D01*
X243000Y689250D02*
X257000D01*
X757000D02*
Y710750D01*
X743000Y689250D02*
Y710750D01*
X757000D01*
X743000Y689250D02*
X757000D01*
X736000Y732500D02*
Y767500D01*
X764000Y732500D02*
Y767500D01*
X736000Y732500D02*
X764000D01*
X736000Y767500D02*
X764000D01*
X736000Y1232500D02*
Y1267500D01*
X764000Y1232500D02*
Y1267500D01*
X736000Y1232500D02*
X764000D01*
X736000Y1267500D02*
X764000D01*
X257000Y1189250D02*
Y1210750D01*
X243000Y1189250D02*
Y1210750D01*
X257000D01*
X243000Y1189250D02*
X257000D01*
X757000D02*
Y1210750D01*
X743000Y1189250D02*
Y1210750D01*
X757000D01*
X743000Y1189250D02*
X757000D01*
X236000Y1732500D02*
Y1767500D01*
X264000Y1732500D02*
Y1767500D01*
X236000Y1732500D02*
X264000D01*
X236000Y1767500D02*
X264000D01*
X736000Y1732500D02*
Y1767500D01*
X764000Y1732500D02*
Y1767500D01*
X736000Y1732500D02*
X764000D01*
X736000Y1767500D02*
X764000D01*
X486000Y1482500D02*
Y1517500D01*
X514000Y1482500D02*
Y1517500D01*
X486000Y1482500D02*
X514000D01*
X486000Y1517500D02*
X514000D01*
X486000Y982500D02*
Y1017500D01*
X514000Y982500D02*
Y1017500D01*
X486000Y982500D02*
X514000D01*
X486000Y1017500D02*
X514000D01*
X486000Y482500D02*
Y517500D01*
X514000Y482500D02*
Y517500D01*
X486000Y482500D02*
X514000D01*
X486000Y517500D02*
X514000D01*
X236000Y232500D02*
Y267500D01*
X264000Y232500D02*
Y267500D01*
X236000Y232500D02*
X264000D01*
X236000Y267500D02*
X264000D01*
X236000Y732500D02*
Y767500D01*
X264000Y732500D02*
Y767500D01*
X236000Y732500D02*
X264000D01*
X236000Y767500D02*
X264000D01*
X236000Y1232500D02*
Y1267500D01*
X264000Y1232500D02*
Y1267500D01*
X236000Y1232500D02*
X264000D01*
X236000Y1267500D02*
X264000D01*
X257000Y1689250D02*
Y1710750D01*
X243000Y1689250D02*
Y1710750D01*
X257000D01*
X243000Y1689250D02*
X257000D01*
X493000Y939250D02*
X507000D01*
X493000Y960750D02*
X507000D01*
X493000Y939250D02*
Y960750D01*
X507000Y939250D02*
Y960750D01*
X2493000Y939250D02*
X2507000D01*
X2493000Y960750D02*
X2507000D01*
X2493000Y939250D02*
Y960750D01*
X2507000Y939250D02*
Y960750D01*
X493000Y1439250D02*
X507000D01*
X493000Y1460750D02*
X507000D01*
X493000Y1439250D02*
Y1460750D01*
X507000Y1439250D02*
Y1460750D01*
X111700Y1726650D02*
Y1773350D01*
X88300Y1726650D02*
X111700D01*
X88300D02*
Y1773350D01*
X111700Y1476650D02*
Y1523350D01*
X88300Y1476650D02*
X111700D01*
X88300D02*
Y1523350D01*
X111700Y1226650D02*
Y1273350D01*
X88300Y1226650D02*
X111700D01*
X88300D02*
Y1273350D01*
X111700Y976650D02*
Y1023350D01*
X88300Y976650D02*
X111700D01*
X88300D02*
Y1023350D01*
X226650Y1888300D02*
X273350D01*
X226650D02*
Y1911700D01*
X273350D01*
X726650Y1888300D02*
X773350D01*
X726650D02*
Y1911700D01*
X773350D01*
X1226650Y1888300D02*
X1273350D01*
X1226650D02*
Y1911700D01*
X1273350D01*
X1726650Y1888300D02*
X1773350D01*
X1726650D02*
Y1911700D01*
X1773350D01*
X111700Y726650D02*
Y773350D01*
X88300Y726650D02*
X111700D01*
X88300D02*
Y773350D01*
X2226650Y1888300D02*
X2273350D01*
X2226650D02*
Y1911700D01*
X2273350D01*
X2726650Y1888300D02*
X2773350D01*
X2726650D02*
Y1911700D01*
X2773350D01*
X476650Y1888300D02*
X523350D01*
X476650D02*
Y1911700D01*
X523350D01*
X243000Y189250D02*
X257000D01*
X243000Y210750D02*
X257000D01*
X243000Y189250D02*
Y210750D01*
X257000Y189250D02*
Y210750D01*
X976650Y1888300D02*
X1023350D01*
X976650D02*
Y1911700D01*
X1023350D01*
X111700Y226650D02*
Y273350D01*
X88300Y226650D02*
X111700D01*
X88300D02*
Y273350D01*
X1476650Y1888300D02*
X1523350D01*
X1476650D02*
Y1911700D01*
X1523350D01*
X1976650Y1888300D02*
X2023350D01*
X1976650D02*
Y1911700D01*
X2023350D01*
X2476650Y1888300D02*
X2523350D01*
X2476650D02*
Y1911700D01*
X2523350D01*
X111700Y476650D02*
Y523350D01*
X88300Y476650D02*
X111700D01*
X88300D02*
Y523350D01*
D34*
X2750000Y265146D02*
D03*
X2750000Y765146D02*
D03*
X2750000Y1265146D02*
D03*
Y1765146D02*
D03*
X2500000Y1515146D02*
D03*
Y1015146D02*
D03*
Y515146D02*
D03*
X2250000Y265146D02*
D03*
X2250000Y765146D02*
D03*
X2250000Y1265146D02*
D03*
Y1765146D02*
D03*
X2000000Y1515146D02*
D03*
Y1015146D02*
D03*
Y515146D02*
D03*
X1750000Y265146D02*
D03*
Y765146D02*
D03*
Y1265146D02*
D03*
Y1765146D02*
D03*
X1500000Y1515146D02*
D03*
Y1015146D02*
D03*
Y515146D02*
D03*
X1250000Y265146D02*
D03*
Y765146D02*
D03*
Y1265146D02*
D03*
Y1765146D02*
D03*
X1000000Y1515146D02*
D03*
X1000000Y1015146D02*
D03*
X1000000Y515146D02*
D03*
X750000Y265146D02*
D03*
X750000Y765146D02*
D03*
X750000Y1265146D02*
D03*
X250000Y1765146D02*
D03*
X750000D02*
D03*
X500000Y1515146D02*
D03*
X500000Y1015146D02*
D03*
X500000Y515146D02*
D03*
X250000Y265146D02*
D03*
Y765146D02*
D03*
Y1265146D02*
D03*
M02*
