G04*
G04 #@! TF.GenerationSoftware,Altium Limited,Altium Designer,20.0.13 (296)*
G04*
G04 Layer_Color=2752767*
%FSLAX44Y44*%
%MOMM*%
G71*
G01*
G75*
%ADD12C,0.2540*%
%ADD36C,0.0508*%
%ADD37C,0.0677*%
D12*
X3000000D02*
Y2000000D01*
X0D02*
X3000000D01*
X0Y0D02*
X3000000D01*
X0D02*
Y2000000D01*
D36*
X622968Y1770468D02*
Y1774532D01*
X627032D01*
Y1770468D01*
X622968D01*
Y1925468D02*
Y1929532D01*
X627032D01*
Y1925468D01*
X622968D01*
X372968Y1770468D02*
Y1774532D01*
X377032D01*
Y1770468D01*
X372968D01*
Y1925468D02*
Y1929532D01*
X377032D01*
Y1925468D01*
X372968D01*
X100000Y1735268D02*
X97968Y1739332D01*
X102032D01*
X100000Y1735268D01*
Y1760668D02*
X97968Y1764732D01*
X102032D01*
X100000Y1760668D01*
Y1485268D02*
X97968Y1489332D01*
X102032D01*
X100000Y1485268D01*
Y1510668D02*
X97968Y1514732D01*
X102032D01*
X100000Y1510668D01*
Y1235268D02*
X97968Y1239332D01*
X102032D01*
X100000Y1235268D01*
Y1260668D02*
X97968Y1264732D01*
X102032D01*
X100000Y1260668D01*
Y985268D02*
X97968Y989332D01*
X102032D01*
X100000Y985268D01*
Y1010668D02*
X97968Y1014732D01*
X102032D01*
X100000Y1010668D01*
X237300Y1897968D02*
X235268Y1902032D01*
X239332D01*
X237300Y1897968D01*
X262700D02*
X260668Y1902032D01*
X264732D01*
X262700Y1897968D01*
X737300D02*
X735268Y1902032D01*
X739332D01*
X737300Y1897968D01*
X762700D02*
X760668Y1902032D01*
X764732D01*
X762700Y1897968D01*
X1237300D02*
X1235268Y1902032D01*
X1239332D01*
X1237300Y1897968D01*
X1262700D02*
X1260668Y1902032D01*
X1264732D01*
X1262700Y1897968D01*
X1737300D02*
X1735268Y1902032D01*
X1739332D01*
X1737300Y1897968D01*
X1762700D02*
X1760668Y1902032D01*
X1764732D01*
X1762700Y1897968D01*
X100000Y735268D02*
X97968Y739332D01*
X102032D01*
X100000Y735268D01*
Y760668D02*
X97968Y764732D01*
X102032D01*
X100000Y760668D01*
X2237300Y1897968D02*
X2235268Y1902032D01*
X2239332D01*
X2237300Y1897968D01*
X2262700D02*
X2260668Y1902032D01*
X2264732D01*
X2262700Y1897968D01*
X2737300D02*
X2735268Y1902032D01*
X2739332D01*
X2737300Y1897968D01*
X2762700D02*
X2760668Y1902032D01*
X2764732D01*
X2762700Y1897968D01*
X487300D02*
X485268Y1902032D01*
X489332D01*
X487300Y1897968D01*
X512700D02*
X510668Y1902032D01*
X514732D01*
X512700Y1897968D01*
X987300D02*
X985268Y1902032D01*
X989332D01*
X987300Y1897968D01*
X1012700D02*
X1010668Y1902032D01*
X1014732D01*
X1012700Y1897968D01*
X100000Y235268D02*
X97968Y239332D01*
X102032D01*
X100000Y235268D01*
Y260668D02*
X97968Y264732D01*
X102032D01*
X100000Y260668D01*
X1487300Y1897968D02*
X1485268Y1902032D01*
X1489332D01*
X1487300Y1897968D01*
X1512700D02*
X1510668Y1902032D01*
X1514732D01*
X1512700Y1897968D01*
X1987300D02*
X1985268Y1902032D01*
X1989332D01*
X1987300Y1897968D01*
X2012700D02*
X2010668Y1902032D01*
X2014732D01*
X2012700Y1897968D01*
X2487300D02*
X2485268Y1902032D01*
X2489332D01*
X2487300Y1897968D01*
X2512700D02*
X2510668Y1902032D01*
X2514732D01*
X2512700Y1897968D01*
X100000Y485268D02*
X97968Y489332D01*
X102032D01*
X100000Y485268D01*
Y510668D02*
X97968Y514732D01*
X102032D01*
X100000Y510668D01*
X1250000Y787968D02*
X1251016Y788984D01*
X1252032D01*
X1251016Y790000D01*
X1252032Y791016D01*
X1251016D01*
X1250000Y792032D01*
X1248984Y791016D01*
X1247968D01*
X1248984Y790000D01*
X1247968Y788984D01*
X1248984D01*
X1250000Y787968D01*
X2750000Y1287968D02*
X2751016Y1288984D01*
X2752032D01*
X2751016Y1290000D01*
X2752032Y1291016D01*
X2751016D01*
X2750000Y1292032D01*
X2748984Y1291016D01*
X2747968D01*
X2748984Y1290000D01*
X2747968Y1288984D01*
X2748984D01*
X2750000Y1287968D01*
X2500000Y1537968D02*
X2501016Y1538984D01*
X2502032D01*
X2501016Y1540000D01*
X2502032Y1541016D01*
X2501016D01*
X2500000Y1542032D01*
X2498984Y1541016D01*
X2497968D01*
X2498984Y1540000D01*
X2497968Y1538984D01*
X2498984D01*
X2500000Y1537968D01*
X2000000D02*
X2001016Y1538984D01*
X2002032D01*
X2001016Y1540000D01*
X2002032Y1541016D01*
X2001016D01*
X2000000Y1542032D01*
X1998984Y1541016D01*
X1997968D01*
X1998984Y1540000D01*
X1997968Y1538984D01*
X1998984D01*
X2000000Y1537968D01*
X2250000Y1287968D02*
X2251016Y1288984D01*
X2252032D01*
X2251016Y1290000D01*
X2252032Y1291016D01*
X2251016D01*
X2250000Y1292032D01*
X2248984Y1291016D01*
X2247968D01*
X2248984Y1290000D01*
X2247968Y1288984D01*
X2248984D01*
X2250000Y1287968D01*
X1750000D02*
X1751016Y1288984D01*
X1752032D01*
X1751016Y1290000D01*
X1752032Y1291016D01*
X1751016D01*
X1750000Y1292032D01*
X1748984Y1291016D01*
X1747968D01*
X1748984Y1290000D01*
X1747968Y1288984D01*
X1748984D01*
X1750000Y1287968D01*
X1500000Y1537968D02*
X1501016Y1538984D01*
X1502032D01*
X1501016Y1540000D01*
X1502032Y1541016D01*
X1501016D01*
X1500000Y1542032D01*
X1498984Y1541016D01*
X1497968D01*
X1498984Y1540000D01*
X1497968Y1538984D01*
X1498984D01*
X1500000Y1537968D01*
X1250000Y1287968D02*
X1251016Y1288984D01*
X1252032D01*
X1251016Y1290000D01*
X1252032Y1291016D01*
X1251016D01*
X1250000Y1292032D01*
X1248984Y1291016D01*
X1247968D01*
X1248984Y1290000D01*
X1247968Y1288984D01*
X1248984D01*
X1250000Y1287968D01*
X1500000Y1037968D02*
X1501016Y1038984D01*
X1502032D01*
X1501016Y1040000D01*
X1502032Y1041016D01*
X1501016D01*
X1500000Y1042032D01*
X1498984Y1041016D01*
X1497968D01*
X1498984Y1040000D01*
X1497968Y1038984D01*
X1498984D01*
X1500000Y1037968D01*
X2000000D02*
X2001016Y1038984D01*
X2002032D01*
X2001016Y1040000D01*
X2002032Y1041016D01*
X2001016D01*
X2000000Y1042032D01*
X1998984Y1041016D01*
X1997968D01*
X1998984Y1040000D01*
X1997968Y1038984D01*
X1998984D01*
X2000000Y1037968D01*
X2500000D02*
X2501016Y1038984D01*
X2502032D01*
X2501016Y1040000D01*
X2502032Y1041016D01*
X2501016D01*
X2500000Y1042032D01*
X2498984Y1041016D01*
X2497968D01*
X2498984Y1040000D01*
X2497968Y1038984D01*
X2498984D01*
X2500000Y1037968D01*
X2750000Y787968D02*
X2751016Y788984D01*
X2752032D01*
X2751016Y790000D01*
X2752032Y791016D01*
X2751016D01*
X2750000Y792032D01*
X2748984Y791016D01*
X2747968D01*
X2748984Y790000D01*
X2747968Y788984D01*
X2748984D01*
X2750000Y787968D01*
X2250000D02*
X2251016Y788984D01*
X2252032D01*
X2251016Y790000D01*
X2252032Y791016D01*
X2251016D01*
X2250000Y792032D01*
X2248984Y791016D01*
X2247968D01*
X2248984Y790000D01*
X2247968Y788984D01*
X2248984D01*
X2250000Y787968D01*
X1750000D02*
X1751016Y788984D01*
X1752032D01*
X1751016Y790000D01*
X1752032Y791016D01*
X1751016D01*
X1750000Y792032D01*
X1748984Y791016D01*
X1747968D01*
X1748984Y790000D01*
X1747968Y788984D01*
X1748984D01*
X1750000Y787968D01*
X2000000Y537968D02*
X2001016Y538984D01*
X2002032D01*
X2001016Y540000D01*
X2002032Y541016D01*
X2001016D01*
X2000000Y542032D01*
X1998984Y541016D01*
X1997968D01*
X1998984Y540000D01*
X1997968Y538984D01*
X1998984D01*
X2000000Y537968D01*
X2500000D02*
X2501016Y538984D01*
X2502032D01*
X2501016Y540000D01*
X2502032Y541016D01*
X2501016D01*
X2500000Y542032D01*
X2498984Y541016D01*
X2497968D01*
X2498984Y540000D01*
X2497968Y538984D01*
X2498984D01*
X2500000Y537968D01*
X2750000Y287968D02*
X2751016Y288984D01*
X2752032D01*
X2751016Y290000D01*
X2752032Y291016D01*
X2751016D01*
X2750000Y292032D01*
X2748984Y291016D01*
X2747968D01*
X2748984Y290000D01*
X2747968Y288984D01*
X2748984D01*
X2750000Y287968D01*
X2250000D02*
X2251016Y288984D01*
X2252032D01*
X2251016Y290000D01*
X2252032Y291016D01*
X2251016D01*
X2250000Y292032D01*
X2248984Y291016D01*
X2247968D01*
X2248984Y290000D01*
X2247968Y288984D01*
X2248984D01*
X2250000Y287968D01*
X1750000D02*
X1751016Y288984D01*
X1752032D01*
X1751016Y290000D01*
X1752032Y291016D01*
X1751016D01*
X1750000Y292032D01*
X1748984Y291016D01*
X1747968D01*
X1748984Y290000D01*
X1747968Y288984D01*
X1748984D01*
X1750000Y287968D01*
X1500000Y537968D02*
X1501016Y538984D01*
X1502032D01*
X1501016Y540000D01*
X1502032Y541016D01*
X1501016D01*
X1500000Y542032D01*
X1498984Y541016D01*
X1497968D01*
X1498984Y540000D01*
X1497968Y538984D01*
X1498984D01*
X1500000Y537968D01*
X1250000Y287968D02*
X1251016Y288984D01*
X1252032D01*
X1251016Y290000D01*
X1252032Y291016D01*
X1251016D01*
X1250000Y292032D01*
X1248984Y291016D01*
X1247968D01*
X1248984Y290000D01*
X1247968Y288984D01*
X1248984D01*
X1250000Y287968D01*
X1000000Y537968D02*
X1001016Y538984D01*
X1002032D01*
X1001016Y540000D01*
X1002032Y541016D01*
X1001016D01*
X1000000Y542032D01*
X998984Y541016D01*
X997968D01*
X998984Y540000D01*
X997968Y538984D01*
X998984D01*
X1000000Y537968D01*
Y1037968D02*
X1001016Y1038984D01*
X1002032D01*
X1001016Y1040000D01*
X1002032Y1041016D01*
X1001016D01*
X1000000Y1042032D01*
X998984Y1041016D01*
X997968D01*
X998984Y1040000D01*
X997968Y1038984D01*
X998984D01*
X1000000Y1037968D01*
Y1537968D02*
X1001016Y1538984D01*
X1002032D01*
X1001016Y1540000D01*
X1002032Y1541016D01*
X1001016D01*
X1000000Y1542032D01*
X998984Y1541016D01*
X997968D01*
X998984Y1540000D01*
X997968Y1538984D01*
X998984D01*
X1000000Y1537968D01*
X750000Y1287968D02*
X751016Y1288984D01*
X752032D01*
X751016Y1290000D01*
X752032Y1291016D01*
X751016D01*
X750000Y1292032D01*
X748984Y1291016D01*
X747968D01*
X748984Y1290000D01*
X747968Y1288984D01*
X748984D01*
X750000Y1287968D01*
Y787968D02*
X751016Y788984D01*
X752032D01*
X751016Y790000D01*
X752032Y791016D01*
X751016D01*
X750000Y792032D01*
X748984Y791016D01*
X747968D01*
X748984Y790000D01*
X747968Y788984D01*
X748984D01*
X750000Y787968D01*
Y287968D02*
X751016Y288984D01*
X752032D01*
X751016Y290000D01*
X752032Y291016D01*
X751016D01*
X750000Y292032D01*
X748984Y291016D01*
X747968D01*
X748984Y290000D01*
X747968Y288984D01*
X748984D01*
X750000Y287968D01*
X500000Y537968D02*
X501016Y538984D01*
X502032D01*
X501016Y540000D01*
X502032Y541016D01*
X501016D01*
X500000Y542032D01*
X498984Y541016D01*
X497968D01*
X498984Y540000D01*
X497968Y538984D01*
X498984D01*
X500000Y537968D01*
Y1037968D02*
X501016Y1038984D01*
X502032D01*
X501016Y1040000D01*
X502032Y1041016D01*
X501016D01*
X500000Y1042032D01*
X498984Y1041016D01*
X497968D01*
X498984Y1040000D01*
X497968Y1038984D01*
X498984D01*
X500000Y1037968D01*
Y1537968D02*
X501016Y1538984D01*
X502032D01*
X501016Y1540000D01*
X502032Y1541016D01*
X501016D01*
X500000Y1542032D01*
X498984Y1541016D01*
X497968D01*
X498984Y1540000D01*
X497968Y1538984D01*
X498984D01*
X500000Y1537968D01*
X250000Y287968D02*
X251016Y288984D01*
X252032D01*
X251016Y290000D01*
X252032Y291016D01*
X251016D01*
X250000Y292032D01*
X248984Y291016D01*
X247968D01*
X248984Y290000D01*
X247968Y288984D01*
X248984D01*
X250000Y287968D01*
Y787968D02*
X251016Y788984D01*
X252032D01*
X251016Y790000D01*
X252032Y791016D01*
X251016D01*
X250000Y792032D01*
X248984Y791016D01*
X247968D01*
X248984Y790000D01*
X247968Y788984D01*
X248984D01*
X250000Y787968D01*
Y1287968D02*
X251016Y1288984D01*
X252032D01*
X251016Y1290000D01*
X252032Y1291016D01*
X251016D01*
X250000Y1292032D01*
X248984Y1291016D01*
X247968D01*
X248984Y1290000D01*
X247968Y1288984D01*
X248984D01*
X250000Y1287968D01*
D37*
X2902032Y1900000D02*
G03*
X2902032Y1900000I-2032J0D01*
G01*
Y100000D02*
G03*
X2902032Y100000I-2032J0D01*
G01*
X102032D02*
G03*
X102032Y100000I-2032J0D01*
G01*
Y1900000D02*
G03*
X102032Y1900000I-2032J0D01*
G01*
M02*
