M48
;Layer_Color=9474304
;FILE_FORMAT=4:4
METRIC,LZ
;TYPE=PLATED
T1F00S00C0.7112
T2F00S00C0.8900
T3F00S00C1.9000
T4F00S00C3.2000
%
T01
X0025Y0029
X0075
X0125
X0175
X0225
X0275
Y0079
X025Y0054
X0225Y0079
X02Y0054
X0175Y0079
X015Y0054
X0125Y0079
X01Y0054
X0075Y0079
X005Y0054
X0025Y0079
X005Y0104
X01
X015
X02
X025
Y0154
X0275Y0129
X0225
X02Y0154
X0175Y0129
X015Y0154
X0125Y0129
X01Y0154
X0075Y0129
X005Y0154
X0025Y0129
T02
X001Y002373
Y002627
Y004873
Y005127
Y007373
Y007627
Y009873
Y010127
Y012373
Y012627
Y014873
Y015127
Y017373
Y017627
X002373Y019
X002627
X004873
X005127
X007373
X007627
X009873
X010127
X012373
X012627
X014873
X015127
X017373
X017627
X019873
X020127
X022373
X022627
X024873
X025127
X027373
X027627
T03
X00375Y017725
Y019275
X00625
Y017725
T04
X001Y001
X029
X001Y019
X029
M30
