G04*
G04 #@! TF.GenerationSoftware,Altium Limited,Altium Designer,20.0.13 (296)*
G04*
G04 Layer_Physical_Order=1*
G04 Layer_Color=255*
%FSLAX44Y44*%
%MOMM*%
G71*
G01*
G75*
%ADD12C,0.2540*%
%ADD13R,1.4000X1.2000*%
%ADD14R,1.8000X2.2000*%
%ADD15R,1.8000X1.1000*%
%ADD25C,1.8000*%
%ADD26C,2.0000*%
%ADD27C,4.0000*%
%ADD28C,6.0000*%
%ADD29R,1.4000X1.4000*%
%ADD30C,1.4000*%
%ADD31R,1.4000X1.4000*%
%ADD32C,1.2700*%
G36*
X526791Y1998827D02*
X429319Y1901308D01*
X329542Y1901308D01*
X320764Y1910086D01*
X320763Y1910086D01*
X320763Y1910086D01*
X291234Y1939616D01*
X290737Y1939997D01*
X290734Y1940000D01*
X290722Y1940009D01*
X290713Y1940021D01*
X290685Y1940042D01*
X290242Y1940486D01*
X289748Y1940864D01*
X289746Y1940866D01*
X289173Y1941197D01*
X288645Y1941602D01*
X288631Y1941608D01*
X288619Y1941618D01*
X288617Y1941619D01*
X288023Y1941863D01*
X287467Y1942184D01*
X286823Y1942357D01*
X286213Y1942610D01*
X286199Y1942612D01*
X286181Y1942619D01*
X285544Y1942701D01*
X284925Y1942867D01*
X284297Y1942950D01*
X283636Y1942951D01*
X282981Y1943038D01*
X217528Y1943088D01*
X216870Y1943002D01*
X216207Y1943003D01*
X215582Y1942921D01*
X214947Y1942751D01*
X214917Y1942747D01*
X214888Y1942735D01*
X214321Y1942583D01*
X213042Y1942242D01*
X213041Y1942241D01*
X213039Y1942240D01*
X211921Y1941595D01*
X210761Y1940927D01*
X210280Y1940558D01*
X210277Y1940556D01*
X210274Y1940553D01*
X209348Y1939628D01*
X208417Y1938698D01*
X208415Y1938694D01*
X208412Y1938692D01*
X208043Y1938211D01*
X207394Y1937086D01*
X206728Y1935934D01*
X206728Y1935932D01*
X206727Y1935930D01*
X206387Y1934665D01*
X206232Y1934084D01*
X206220Y1934056D01*
X206216Y1934026D01*
X206046Y1933391D01*
X205963Y1932766D01*
X205963Y1932103D01*
X205876Y1931446D01*
X205876Y1874948D01*
X205963Y1874292D01*
Y1873631D01*
X206040Y1873047D01*
X206040Y1873047D01*
Y1873047D01*
X206211Y1872408D01*
X206220Y1872337D01*
X206247Y1872271D01*
X206721Y1870504D01*
X207363Y1869391D01*
X208037Y1868224D01*
X208038Y1868223D01*
X209899Y1866362D01*
X212180Y1865045D01*
X213947Y1864572D01*
X214013Y1864544D01*
X214084Y1864535D01*
X214723Y1864364D01*
X214723D01*
X214723Y1864364D01*
X215307Y1864287D01*
X215968D01*
X216624Y1864200D01*
X250716Y1864200D01*
Y1840138D01*
X241770Y1831191D01*
X239920Y1828781D01*
X238757Y1825974D01*
X238361Y1822961D01*
Y1767500D01*
X238460Y1766744D01*
Y1762483D01*
X170000Y1762483D01*
X167390Y1762140D01*
X164957Y1761132D01*
X163966Y1760371D01*
X162524Y1760968D01*
X159914Y1761312D01*
X85000Y1761312D01*
X82389Y1760968D01*
X79957Y1759961D01*
X77868Y1758358D01*
X76265Y1756269D01*
X75257Y1753836D01*
X74914Y1751226D01*
Y1750000D01*
X74799D01*
Y323167D01*
X79028Y327396D01*
X79957Y326683D01*
X82389Y325676D01*
X85000Y325332D01*
X159623D01*
Y260086D01*
X0D01*
Y2000000D01*
X526304D01*
X526791Y1998827D01*
D02*
G37*
G36*
X3000000Y1713400D02*
X2999684Y1713122D01*
X2841284D01*
X2840086Y1714246D01*
Y1752118D01*
X2839743Y1754729D01*
X2838735Y1757162D01*
X2837132Y1759250D01*
X2835043Y1760853D01*
X2832610Y1761861D01*
X2830000Y1762205D01*
X2761540Y1762205D01*
Y1770075D01*
X2761640Y1770832D01*
Y1823624D01*
X2770930Y1832914D01*
X2772780Y1835325D01*
X2773943Y1838132D01*
X2774340Y1841145D01*
X2774340Y1841145D01*
Y1900000D01*
X2773943Y1903013D01*
X2772780Y1905820D01*
X2770930Y1908230D01*
X2768520Y1910080D01*
X2765713Y1911243D01*
X2762700Y1911640D01*
X2759688Y1911243D01*
X2756880Y1910080D01*
X2754470Y1908230D01*
X2752620Y1905820D01*
X2751457Y1903013D01*
X2751060Y1900000D01*
Y1845966D01*
X2741770Y1836675D01*
X2739920Y1834265D01*
X2738757Y1831457D01*
X2738361Y1828445D01*
Y1770832D01*
X2738460Y1770075D01*
Y1762205D01*
X2670000Y1762205D01*
X2667390Y1761861D01*
X2664957Y1760853D01*
X2662868Y1759250D01*
X2661265Y1757162D01*
X2660257Y1754729D01*
X2659914Y1752118D01*
Y1713122D01*
X2341331D01*
X2340086Y1714098D01*
Y1752199D01*
X2339743Y1754809D01*
X2338735Y1757242D01*
X2337132Y1759331D01*
X2335043Y1760934D01*
X2332610Y1761942D01*
X2330000Y1762285D01*
X2261540Y1762285D01*
Y1769156D01*
X2261640Y1769912D01*
Y1812591D01*
X2270930Y1821882D01*
X2272780Y1824293D01*
X2273943Y1827100D01*
X2274340Y1830112D01*
X2274339Y1830113D01*
Y1900000D01*
X2273943Y1903013D01*
X2272780Y1905820D01*
X2270930Y1908230D01*
X2268520Y1910080D01*
X2265712Y1911243D01*
X2262700Y1911640D01*
X2259688Y1911243D01*
X2256880Y1910080D01*
X2254470Y1908230D01*
X2252620Y1905820D01*
X2251457Y1903013D01*
X2251060Y1900000D01*
Y1834934D01*
X2241770Y1825643D01*
X2239920Y1823232D01*
X2238757Y1820425D01*
X2238360Y1817413D01*
Y1769912D01*
X2238460Y1769156D01*
Y1762285D01*
X2170000Y1762285D01*
X2167390Y1761942D01*
X2164957Y1760934D01*
X2162868Y1759331D01*
X2161265Y1757242D01*
X2160257Y1754809D01*
X2159914Y1752199D01*
Y1713122D01*
X1841331D01*
X1840086Y1714097D01*
Y1752199D01*
X1839743Y1754810D01*
X1838735Y1757242D01*
X1837132Y1759331D01*
X1835043Y1760934D01*
X1832611Y1761942D01*
X1830000Y1762286D01*
X1761540Y1762286D01*
Y1769156D01*
X1761640Y1769912D01*
Y1843849D01*
X1770930Y1853140D01*
X1772780Y1855551D01*
X1773943Y1858358D01*
X1774340Y1861371D01*
X1774340Y1861371D01*
Y1900000D01*
X1773943Y1903013D01*
X1772780Y1905820D01*
X1770930Y1908230D01*
X1768520Y1910080D01*
X1765712Y1911243D01*
X1762700Y1911640D01*
X1759688Y1911243D01*
X1756880Y1910080D01*
X1754470Y1908230D01*
X1752620Y1905820D01*
X1751457Y1903013D01*
X1751060Y1900000D01*
Y1866192D01*
X1741770Y1856901D01*
X1739920Y1854491D01*
X1738757Y1851683D01*
X1738360Y1848671D01*
Y1769912D01*
X1738460Y1769156D01*
Y1762286D01*
X1670000Y1762286D01*
X1667390Y1761942D01*
X1664957Y1760934D01*
X1662868Y1759331D01*
X1661265Y1757242D01*
X1660257Y1754810D01*
X1659914Y1752199D01*
Y1713122D01*
X1341311D01*
X1340086Y1714175D01*
Y1752165D01*
X1339743Y1754775D01*
X1338735Y1757208D01*
X1337132Y1759297D01*
X1335043Y1760900D01*
X1332610Y1761907D01*
X1330000Y1762251D01*
X1261540Y1762251D01*
Y1766744D01*
X1261639Y1767500D01*
Y1824441D01*
X1270930Y1833732D01*
X1272780Y1836142D01*
X1273943Y1838949D01*
X1274340Y1841962D01*
X1274340Y1841962D01*
Y1900000D01*
X1273943Y1903013D01*
X1272780Y1905820D01*
X1270930Y1908230D01*
X1268520Y1910080D01*
X1265713Y1911243D01*
X1262700Y1911640D01*
X1259687Y1911243D01*
X1256880Y1910080D01*
X1254470Y1908230D01*
X1252620Y1905820D01*
X1251457Y1903013D01*
X1251060Y1900000D01*
Y1846783D01*
X1241770Y1837493D01*
X1239920Y1835082D01*
X1238757Y1832275D01*
X1238360Y1829262D01*
Y1767500D01*
X1238460Y1766744D01*
Y1762251D01*
X1170000Y1762251D01*
X1167390Y1761907D01*
X1164957Y1760900D01*
X1162868Y1759297D01*
X1161265Y1757208D01*
X1160257Y1754775D01*
X1159914Y1752165D01*
Y1713122D01*
X841337D01*
X840086Y1713992D01*
Y1752257D01*
X839743Y1754868D01*
X838735Y1757300D01*
X837132Y1759389D01*
X835043Y1760992D01*
X832611Y1762000D01*
X830000Y1762343D01*
X761540Y1762343D01*
Y1766744D01*
X761639Y1767500D01*
Y1828530D01*
X770930Y1837821D01*
X772780Y1840232D01*
X773943Y1843039D01*
X774340Y1846051D01*
X774340Y1846052D01*
Y1900000D01*
X773943Y1903013D01*
X772780Y1905820D01*
X770930Y1908230D01*
X768520Y1910080D01*
X765713Y1911243D01*
X762700Y1911640D01*
X759688Y1911243D01*
X756880Y1910080D01*
X754470Y1908230D01*
X752620Y1905820D01*
X751457Y1903013D01*
X751060Y1900000D01*
Y1850873D01*
X741770Y1841582D01*
X739920Y1839171D01*
X738757Y1836364D01*
X738360Y1833351D01*
Y1767500D01*
X738460Y1766744D01*
Y1762343D01*
X670000Y1762343D01*
X667390Y1762000D01*
X664957Y1760992D01*
X662868Y1759389D01*
X661265Y1757300D01*
X660257Y1754868D01*
X659914Y1752257D01*
Y1713122D01*
X587587D01*
X586948Y1713206D01*
X586766Y1713282D01*
X577394Y1722654D01*
X428716Y1871332D01*
X426627Y1872935D01*
X424194Y1873943D01*
X421584Y1874287D01*
X273995Y1874287D01*
Y1894501D01*
X274917Y1896726D01*
X275348Y1900000D01*
X274917Y1903274D01*
X273654Y1906324D01*
X271644Y1908944D01*
X269024Y1910954D01*
X265974Y1912217D01*
X262700Y1912648D01*
X259426Y1912217D01*
X256376Y1910954D01*
X253756Y1908944D01*
X253412Y1908600D01*
X251402Y1905980D01*
X250139Y1902929D01*
X249708Y1899656D01*
X250139Y1896382D01*
X250716Y1894987D01*
Y1874287D01*
X216624Y1874287D01*
X216040Y1874364D01*
X215963Y1874948D01*
X215963Y1931446D01*
X216045Y1932071D01*
X216414Y1932552D01*
X216895Y1932920D01*
X217520Y1933002D01*
X282973Y1932952D01*
X283600Y1932868D01*
X283602Y1932867D01*
X283605Y1932865D01*
X284102Y1932484D01*
X313631Y1902954D01*
X313631Y1902954D01*
X313631Y1902954D01*
X325364Y1891221D01*
X433498Y1891221D01*
X542224Y2000000D01*
X3000000Y2000000D01*
Y1713400D01*
D02*
G37*
G36*
X420922Y1864200D02*
X421549Y1864118D01*
X422051Y1863733D01*
X570166Y1715618D01*
X570118Y1715172D01*
X569777Y1714348D01*
X340086D01*
Y1752397D01*
X339743Y1755007D01*
X338735Y1757440D01*
X337132Y1759529D01*
X335043Y1761132D01*
X332611Y1762140D01*
X330000Y1762483D01*
X261540Y1762483D01*
Y1766744D01*
X261640Y1767500D01*
Y1818140D01*
X270586Y1827086D01*
X272436Y1829497D01*
X273599Y1832304D01*
X273995Y1835317D01*
X273995Y1835317D01*
Y1864200D01*
X420922Y1864200D01*
D02*
G37*
G36*
X330000Y1703043D02*
X170000Y1703044D01*
Y1752397D01*
X330000Y1752397D01*
Y1703043D01*
D02*
G37*
G36*
X830000Y1702903D02*
X670000Y1702904D01*
Y1752257D01*
X830000Y1752257D01*
Y1702903D01*
D02*
G37*
G36*
X1830000Y1702846D02*
X1670000Y1702846D01*
Y1752199D01*
X1830000Y1752199D01*
Y1702846D01*
D02*
G37*
G36*
X2330000Y1702845D02*
X2170000Y1702845D01*
Y1752199D01*
X2330000Y1752199D01*
Y1702845D01*
D02*
G37*
G36*
X1330000Y1702811D02*
X1170000Y1702811D01*
Y1752165D01*
X1330000Y1752165D01*
Y1702811D01*
D02*
G37*
G36*
X2830000Y1702765D02*
X2670000Y1702765D01*
Y1752118D01*
X2830000Y1752118D01*
Y1702765D01*
D02*
G37*
G36*
X159914Y1703044D02*
X160257Y1700433D01*
X161265Y1698000D01*
X162868Y1695911D01*
X164957Y1694308D01*
X167390Y1693301D01*
X170000Y1692957D01*
X330000Y1692957D01*
X332611Y1693301D01*
X335043Y1694308D01*
X337132Y1695911D01*
X338735Y1698000D01*
X339743Y1700433D01*
X340086Y1703043D01*
Y1704262D01*
X582185D01*
X584315Y1703380D01*
X586926Y1703036D01*
X659914D01*
Y1702904D01*
X660257Y1700293D01*
X661265Y1697861D01*
X662868Y1695772D01*
X664957Y1694169D01*
X667390Y1693161D01*
X670000Y1692817D01*
X830000Y1692817D01*
X832611Y1693161D01*
X835043Y1694169D01*
X837132Y1695771D01*
X838735Y1697860D01*
X839743Y1700293D01*
X839953Y1701889D01*
X840432Y1702940D01*
X841337Y1703036D01*
X1159914D01*
Y1702811D01*
X1160257Y1700201D01*
X1161265Y1697768D01*
X1162868Y1695679D01*
X1164957Y1694076D01*
X1167390Y1693069D01*
X1170000Y1692725D01*
X1330000Y1692725D01*
X1332610Y1693069D01*
X1335043Y1694076D01*
X1337132Y1695679D01*
X1338735Y1697768D01*
X1339743Y1700201D01*
X1340086Y1702811D01*
X1341311Y1703036D01*
X1659914D01*
Y1702846D01*
X1660257Y1700235D01*
X1661265Y1697803D01*
X1662868Y1695714D01*
X1664957Y1694111D01*
X1667390Y1693103D01*
X1670000Y1692760D01*
X1830000Y1692759D01*
X1832611Y1693103D01*
X1835043Y1694111D01*
X1837132Y1695714D01*
X1838735Y1697802D01*
X1839743Y1700235D01*
X1840086Y1702846D01*
X1841331Y1703036D01*
X2159914D01*
Y1702845D01*
X2160257Y1700235D01*
X2161265Y1697802D01*
X2162868Y1695713D01*
X2164957Y1694110D01*
X2167390Y1693103D01*
X2170000Y1692759D01*
X2330000Y1692759D01*
X2332610Y1693103D01*
X2335043Y1694110D01*
X2337132Y1695713D01*
X2338735Y1697802D01*
X2339743Y1700235D01*
X2340086Y1702845D01*
X2341331Y1703036D01*
X2659914D01*
Y1702765D01*
X2660257Y1700154D01*
X2661265Y1697722D01*
X2662868Y1695633D01*
X2664957Y1694030D01*
X2667390Y1693022D01*
X2670000Y1692679D01*
X2830000Y1692679D01*
X2832610Y1693022D01*
X2835043Y1694030D01*
X2837132Y1695633D01*
X2838735Y1697722D01*
X2839743Y1700154D01*
X2840086Y1702765D01*
X2841284Y1703036D01*
X2999684D01*
X3000000Y1702759D01*
Y1586644D01*
X85000Y1586644D01*
X85000Y1751226D01*
X159914Y1751226D01*
Y1703044D01*
D02*
G37*
G36*
X2580000Y1452880D02*
X2420000Y1452880D01*
Y1502233D01*
X2580000Y1502233D01*
Y1452880D01*
D02*
G37*
G36*
X1580000Y1452831D02*
X1420000Y1452832D01*
Y1502185D01*
X1580000Y1502185D01*
Y1452831D01*
D02*
G37*
G36*
X2080000Y1452808D02*
X1920000Y1452808D01*
Y1502162D01*
X2080000Y1502162D01*
Y1452808D01*
D02*
G37*
G36*
X1080000Y1452778D02*
X920000Y1452779D01*
Y1502132D01*
X1080000Y1502132D01*
Y1452778D01*
D02*
G37*
G36*
X580000Y1452742D02*
X420000Y1452742D01*
Y1502095D01*
X580000Y1502095D01*
Y1452742D01*
D02*
G37*
G36*
X170000Y1500925D02*
Y1454262D01*
X409914D01*
Y1452742D01*
X410257Y1450131D01*
X411265Y1447699D01*
X412868Y1445610D01*
X414957Y1444007D01*
X417389Y1442999D01*
X420000Y1442656D01*
X580000Y1442655D01*
X582611Y1442999D01*
X585043Y1444007D01*
X587132Y1445610D01*
X588735Y1447699D01*
X589743Y1450131D01*
X590086Y1452742D01*
Y1454262D01*
X909914D01*
Y1452779D01*
X910257Y1450168D01*
X911265Y1447735D01*
X912868Y1445647D01*
X914957Y1444044D01*
X917390Y1443036D01*
X920000Y1442692D01*
X1080000Y1442692D01*
X1082611Y1443036D01*
X1085043Y1444043D01*
X1087132Y1445646D01*
X1088735Y1447735D01*
X1089743Y1450168D01*
X1090086Y1452778D01*
Y1454262D01*
X1409914D01*
Y1452832D01*
X1410257Y1450221D01*
X1411265Y1447788D01*
X1412868Y1445699D01*
X1414957Y1444097D01*
X1417390Y1443089D01*
X1420000Y1442745D01*
X1580000Y1442745D01*
X1582611Y1443089D01*
X1585043Y1444096D01*
X1587132Y1445699D01*
X1588735Y1447788D01*
X1589743Y1450221D01*
X1590086Y1452831D01*
Y1454262D01*
X1909914D01*
Y1452808D01*
X1910257Y1450197D01*
X1911265Y1447765D01*
X1912868Y1445676D01*
X1914957Y1444073D01*
X1917390Y1443065D01*
X1920000Y1442722D01*
X2080000Y1442722D01*
X2082610Y1443065D01*
X2085043Y1444073D01*
X2087132Y1445676D01*
X2088735Y1447765D01*
X2089743Y1450197D01*
X2090086Y1452808D01*
Y1454262D01*
X2409914D01*
Y1452880D01*
X2410257Y1450269D01*
X2411265Y1447837D01*
X2412868Y1445748D01*
X2414957Y1444145D01*
X2417390Y1443137D01*
X2420000Y1442794D01*
X2580000Y1442793D01*
X2582610Y1443137D01*
X2585043Y1444145D01*
X2587132Y1445748D01*
X2588735Y1447837D01*
X2589743Y1450269D01*
X2590086Y1452880D01*
Y1454262D01*
X2999684D01*
X3000000Y1453946D01*
Y1336644D01*
X85000Y1336644D01*
X85000Y1501226D01*
X169876D01*
X170000Y1500925D01*
D02*
G37*
G36*
X2330000Y1202835D02*
X2170000Y1202835D01*
Y1252188D01*
X2330000Y1252188D01*
Y1202835D01*
D02*
G37*
G36*
X1330000D02*
X1170000Y1202835D01*
Y1252188D01*
X1330000Y1252188D01*
Y1202835D01*
D02*
G37*
G36*
X830000D02*
X670000Y1202835D01*
Y1252188D01*
X830000Y1252188D01*
Y1202835D01*
D02*
G37*
G36*
X330000D02*
X170000Y1202835D01*
Y1252188D01*
X330000Y1252188D01*
Y1202835D01*
D02*
G37*
G36*
X2830000Y1202747D02*
X2670000Y1202747D01*
Y1252101D01*
X2830000Y1252101D01*
Y1202747D01*
D02*
G37*
G36*
X1830000D02*
X1670000Y1202747D01*
Y1252101D01*
X1830000Y1252101D01*
Y1202747D01*
D02*
G37*
G36*
X159914Y1202835D02*
X160257Y1200225D01*
X161265Y1197792D01*
X162868Y1195703D01*
X164957Y1194100D01*
X167390Y1193092D01*
X170000Y1192749D01*
X330000Y1192748D01*
X332611Y1193092D01*
X335043Y1194100D01*
X337132Y1195703D01*
X338735Y1197792D01*
X339743Y1200224D01*
X340086Y1202835D01*
X341325Y1203036D01*
X659914D01*
Y1202835D01*
X660257Y1200225D01*
X661265Y1197792D01*
X662868Y1195703D01*
X664957Y1194100D01*
X667390Y1193092D01*
X670000Y1192749D01*
X830000Y1192748D01*
X832611Y1193092D01*
X835043Y1194100D01*
X837132Y1195703D01*
X838735Y1197792D01*
X839743Y1200224D01*
X840086Y1202835D01*
X841325Y1203036D01*
X1159914D01*
Y1202835D01*
X1160257Y1200225D01*
X1161265Y1197792D01*
X1162868Y1195703D01*
X1164957Y1194100D01*
X1167390Y1193092D01*
X1170000Y1192749D01*
X1330000Y1192748D01*
X1332610Y1193092D01*
X1335043Y1194100D01*
X1337132Y1195703D01*
X1338735Y1197792D01*
X1339743Y1200224D01*
X1340086Y1202835D01*
X1341325Y1203036D01*
X1659914D01*
Y1202747D01*
X1660257Y1200136D01*
X1661265Y1197704D01*
X1662868Y1195615D01*
X1664957Y1194012D01*
X1667390Y1193004D01*
X1670000Y1192661D01*
X1830000Y1192661D01*
X1832611Y1193004D01*
X1835043Y1194012D01*
X1837132Y1195615D01*
X1838735Y1197704D01*
X1839743Y1200136D01*
X1840086Y1202747D01*
X1841274Y1203036D01*
X2159914D01*
Y1202835D01*
X2160257Y1200225D01*
X2161265Y1197792D01*
X2162868Y1195703D01*
X2164957Y1194100D01*
X2167390Y1193092D01*
X2170000Y1192749D01*
X2330000Y1192748D01*
X2332610Y1193092D01*
X2335043Y1194100D01*
X2337132Y1195703D01*
X2338735Y1197792D01*
X2339743Y1200224D01*
X2340086Y1202835D01*
X2341325Y1203036D01*
X2659914D01*
Y1202747D01*
X2660257Y1200136D01*
X2661265Y1197704D01*
X2662868Y1195615D01*
X2664957Y1194012D01*
X2667390Y1193004D01*
X2670000Y1192661D01*
X2830000Y1192661D01*
X2832610Y1193004D01*
X2835043Y1194012D01*
X2837132Y1195615D01*
X2838735Y1197704D01*
X2839743Y1200136D01*
X2840086Y1202747D01*
X2841274Y1203036D01*
X2999684D01*
X3000000Y1202720D01*
Y1085418D01*
X85000Y1085418D01*
X85000Y1250000D01*
X159914D01*
Y1202835D01*
D02*
G37*
G36*
X2580000Y952844D02*
X2420000Y952844D01*
Y1002198D01*
X2580000Y1002198D01*
Y952844D01*
D02*
G37*
G36*
X2080000D02*
X1920000Y952844D01*
Y1002198D01*
X2080000Y1002198D01*
Y952844D01*
D02*
G37*
G36*
X580000Y952752D02*
X420000Y952753D01*
Y1002106D01*
X580000Y1002106D01*
Y952752D01*
D02*
G37*
G36*
X1580000Y952724D02*
X1420000Y952724D01*
Y1002078D01*
X1580000Y1002078D01*
Y952724D01*
D02*
G37*
G36*
X1080000D02*
X920000Y952724D01*
Y1002078D01*
X1080000Y1002078D01*
Y952724D01*
D02*
G37*
G36*
X170000Y999699D02*
Y953036D01*
X409914D01*
Y952753D01*
X410257Y950142D01*
X411265Y947710D01*
X412868Y945620D01*
X414957Y944018D01*
X417389Y943010D01*
X420000Y942666D01*
X580000Y942666D01*
X582611Y943010D01*
X585043Y944017D01*
X587132Y945620D01*
X588735Y947709D01*
X589743Y950142D01*
X590086Y952752D01*
X591277Y953036D01*
X909914D01*
Y952724D01*
X910257Y950114D01*
X911265Y947681D01*
X912868Y945592D01*
X914957Y943989D01*
X917390Y942982D01*
X920000Y942638D01*
X1080000Y942638D01*
X1082611Y942981D01*
X1085043Y943989D01*
X1087132Y945592D01*
X1088735Y947681D01*
X1089743Y950114D01*
X1090086Y952724D01*
X1091261Y953036D01*
X1409914D01*
Y952724D01*
X1410257Y950114D01*
X1411265Y947681D01*
X1412868Y945592D01*
X1414957Y943989D01*
X1417390Y942982D01*
X1420000Y942638D01*
X1580000Y942638D01*
X1582611Y942981D01*
X1585043Y943989D01*
X1587132Y945592D01*
X1588735Y947681D01*
X1589743Y950114D01*
X1590086Y952724D01*
X1591261Y953036D01*
X1909914D01*
Y952844D01*
X1910257Y950234D01*
X1911265Y947801D01*
X1912868Y945712D01*
X1914957Y944109D01*
X1917390Y943102D01*
X1920000Y942758D01*
X2080000Y942758D01*
X2082610Y943102D01*
X2085043Y944109D01*
X2087132Y945712D01*
X2088735Y947801D01*
X2089743Y950234D01*
X2090086Y952844D01*
X2091330Y953036D01*
X2409914D01*
Y952844D01*
X2410257Y950234D01*
X2411265Y947801D01*
X2412868Y945712D01*
X2414957Y944109D01*
X2417390Y943102D01*
X2420000Y942758D01*
X2580000Y942758D01*
X2582610Y943102D01*
X2585043Y944109D01*
X2587132Y945712D01*
X2588735Y947801D01*
X2589743Y950234D01*
X2590086Y952844D01*
X2591330Y953036D01*
X2999684D01*
X3000000Y952720D01*
Y835418D01*
X85000Y835418D01*
X85000Y1000000D01*
X169876D01*
X170000Y999699D01*
D02*
G37*
G36*
X2830000Y702806D02*
X2670000Y702806D01*
Y752160D01*
X2830000Y752160D01*
Y702806D01*
D02*
G37*
G36*
X2330000D02*
X2170000Y702806D01*
Y752160D01*
X2330000Y752160D01*
Y702806D01*
D02*
G37*
G36*
X1830000D02*
X1670000Y702806D01*
Y752160D01*
X1830000Y752160D01*
Y702806D01*
D02*
G37*
G36*
X1330000D02*
X1170000Y702806D01*
Y752160D01*
X1330000Y752160D01*
Y702806D01*
D02*
G37*
G36*
X830000D02*
X670000Y702806D01*
Y752160D01*
X830000Y752160D01*
Y702806D01*
D02*
G37*
G36*
X330000D02*
X170000Y702806D01*
Y752160D01*
X330000Y752160D01*
Y702806D01*
D02*
G37*
G36*
X159914Y702806D02*
X160257Y700196D01*
X161265Y697763D01*
X162868Y695674D01*
X164957Y694071D01*
X167390Y693064D01*
X170000Y692720D01*
X330000Y692720D01*
X332611Y693064D01*
X335043Y694071D01*
X337132Y695674D01*
X338735Y697763D01*
X339743Y700196D01*
X340086Y702806D01*
X341308Y703036D01*
X659914D01*
Y702806D01*
X660257Y700196D01*
X661265Y697763D01*
X662868Y695674D01*
X664957Y694071D01*
X667390Y693064D01*
X670000Y692720D01*
X830000Y692720D01*
X832611Y693064D01*
X835043Y694071D01*
X837132Y695674D01*
X838735Y697763D01*
X839743Y700196D01*
X840086Y702806D01*
X841308Y703036D01*
X1159914D01*
Y702806D01*
X1160257Y700196D01*
X1161265Y697763D01*
X1162868Y695674D01*
X1164957Y694071D01*
X1167390Y693064D01*
X1170000Y692720D01*
X1330000Y692720D01*
X1332610Y693064D01*
X1335043Y694071D01*
X1337132Y695674D01*
X1338735Y697763D01*
X1339743Y700196D01*
X1340086Y702806D01*
X1341308Y703036D01*
X1659914D01*
Y702806D01*
X1660257Y700196D01*
X1661265Y697763D01*
X1662868Y695674D01*
X1664957Y694071D01*
X1667390Y693064D01*
X1670000Y692720D01*
X1830000Y692720D01*
X1832611Y693064D01*
X1835043Y694071D01*
X1837132Y695674D01*
X1838735Y697763D01*
X1839743Y700196D01*
X1840086Y702806D01*
X1841308Y703036D01*
X2159914D01*
Y702806D01*
X2160257Y700196D01*
X2161265Y697763D01*
X2162868Y695674D01*
X2164957Y694071D01*
X2167390Y693064D01*
X2170000Y692720D01*
X2330000Y692720D01*
X2332610Y693064D01*
X2335043Y694071D01*
X2337132Y695674D01*
X2338735Y697763D01*
X2339743Y700196D01*
X2340086Y702806D01*
X2341308Y703036D01*
X2659914D01*
Y702806D01*
X2660257Y700196D01*
X2661265Y697763D01*
X2662868Y695674D01*
X2664957Y694071D01*
X2667390Y693064D01*
X2670000Y692720D01*
X2830000Y692720D01*
X2832610Y693064D01*
X2835043Y694071D01*
X2837132Y695674D01*
X2838735Y697763D01*
X2839743Y700196D01*
X2840086Y702806D01*
X2841308Y703036D01*
X2999684D01*
X3000000Y702720D01*
Y585418D01*
X85000Y585418D01*
X85000Y750000D01*
X159914D01*
Y702806D01*
D02*
G37*
G36*
X2080000Y452835D02*
X1920000Y452835D01*
Y502188D01*
X2080000Y502188D01*
Y452835D01*
D02*
G37*
G36*
X1580000D02*
X1420000Y452835D01*
Y502188D01*
X1580000Y502188D01*
Y452835D01*
D02*
G37*
G36*
X2580000Y452810D02*
X2420000Y452810D01*
Y502163D01*
X2580000Y502163D01*
Y452810D01*
D02*
G37*
G36*
X1080000Y452752D02*
X920000Y452752D01*
Y502105D01*
X1080000Y502105D01*
Y452752D01*
D02*
G37*
G36*
X580000D02*
X420000Y452752D01*
Y502105D01*
X580000Y502105D01*
Y452752D01*
D02*
G37*
G36*
X170000Y499699D02*
Y453036D01*
X409914D01*
Y452752D01*
X410257Y450141D01*
X411265Y447709D01*
X412868Y445620D01*
X414957Y444017D01*
X417389Y443009D01*
X420000Y442666D01*
X580000Y442666D01*
X582611Y443009D01*
X585043Y444017D01*
X587132Y445620D01*
X588735Y447709D01*
X589743Y450141D01*
X590086Y452752D01*
X591277Y453036D01*
X909914D01*
Y452752D01*
X910257Y450141D01*
X911265Y447709D01*
X912868Y445620D01*
X914957Y444017D01*
X917390Y443009D01*
X920000Y442666D01*
X1080000Y442666D01*
X1082611Y443009D01*
X1085043Y444017D01*
X1087132Y445620D01*
X1088735Y447709D01*
X1089743Y450141D01*
X1090086Y452752D01*
X1091277Y453036D01*
X1409914D01*
Y452835D01*
X1410257Y450224D01*
X1411265Y447792D01*
X1412868Y445703D01*
X1414957Y444100D01*
X1417390Y443092D01*
X1420000Y442749D01*
X1580000Y442748D01*
X1582611Y443092D01*
X1585043Y444100D01*
X1587132Y445703D01*
X1588735Y447792D01*
X1589743Y450224D01*
X1590086Y452835D01*
X1591325Y453036D01*
X1909914D01*
Y452835D01*
X1910257Y450224D01*
X1911265Y447792D01*
X1912868Y445703D01*
X1914957Y444100D01*
X1917390Y443092D01*
X1920000Y442749D01*
X2080000Y442748D01*
X2082610Y443092D01*
X2085043Y444100D01*
X2087132Y445703D01*
X2088735Y447792D01*
X2089743Y450224D01*
X2090086Y452835D01*
X2091325Y453036D01*
X2409914D01*
Y452810D01*
X2410257Y450199D01*
X2411265Y447767D01*
X2412868Y445678D01*
X2414957Y444075D01*
X2417390Y443067D01*
X2420000Y442724D01*
X2580000Y442723D01*
X2582610Y443067D01*
X2585043Y444075D01*
X2587132Y445678D01*
X2588735Y447767D01*
X2589743Y450199D01*
X2590086Y452810D01*
X2591310Y453036D01*
X2999684D01*
X3000000Y452720D01*
Y335418D01*
X85000Y335418D01*
X85000Y500000D01*
X169876D01*
X170000Y499699D01*
D02*
G37*
G36*
X1830000Y203036D02*
X1670000Y203036D01*
Y252390D01*
X1830000Y252390D01*
Y203036D01*
D02*
G37*
G36*
X330000D02*
X170000Y203036D01*
Y252390D01*
X330000Y252390D01*
Y203036D01*
D02*
G37*
G36*
X2830000Y202848D02*
X2670000Y202848D01*
Y252202D01*
X2830000Y252202D01*
Y202848D01*
D02*
G37*
G36*
X2330000D02*
X2170000Y202848D01*
Y252202D01*
X2330000Y252202D01*
Y202848D01*
D02*
G37*
G36*
X1330000D02*
X1170000Y202848D01*
Y252202D01*
X1330000Y252202D01*
Y202848D01*
D02*
G37*
G36*
X830000D02*
X670000Y202848D01*
Y252202D01*
X830000Y252202D01*
Y202848D01*
D02*
G37*
G36*
X159914Y203036D02*
X160257Y200426D01*
X161265Y197993D01*
X162868Y195904D01*
X164957Y194301D01*
X167390Y193293D01*
X170000Y192950D01*
X330000Y192950D01*
X332611Y193293D01*
X335043Y194301D01*
X337132Y195904D01*
X338735Y197993D01*
X339743Y200425D01*
X340086Y203036D01*
X341301Y203036D01*
X659914D01*
Y202848D01*
X660257Y200238D01*
X661265Y197805D01*
X662868Y195716D01*
X664957Y194113D01*
X667390Y193106D01*
X670000Y192762D01*
X830000Y192762D01*
X832611Y193106D01*
X835043Y194113D01*
X837132Y195716D01*
X838735Y197805D01*
X839743Y200238D01*
X840086Y202848D01*
X841333Y203036D01*
X1159914D01*
Y202848D01*
X1160257Y200238D01*
X1161265Y197805D01*
X1162868Y195716D01*
X1164957Y194113D01*
X1167390Y193106D01*
X1170000Y192762D01*
X1330000Y192762D01*
X1332610Y193106D01*
X1335043Y194113D01*
X1337132Y195716D01*
X1338735Y197805D01*
X1339743Y200238D01*
X1340086Y202848D01*
X1341333Y203036D01*
X1659914D01*
X1660257Y200426D01*
X1661265Y197993D01*
X1662868Y195904D01*
X1664957Y194301D01*
X1667390Y193293D01*
X1670000Y192950D01*
X1830000Y192950D01*
X1832611Y193293D01*
X1835043Y194301D01*
X1837132Y195904D01*
X1838735Y197993D01*
X1839743Y200425D01*
X1840086Y203036D01*
X1841301Y203036D01*
X2159914D01*
Y202848D01*
X2160257Y200238D01*
X2161265Y197805D01*
X2162868Y195716D01*
X2164957Y194113D01*
X2167390Y193106D01*
X2170000Y192762D01*
X2330000Y192762D01*
X2332610Y193106D01*
X2335043Y194113D01*
X2337132Y195716D01*
X2338735Y197805D01*
X2339743Y200238D01*
X2340086Y202848D01*
X2341333Y203036D01*
X2659914D01*
Y202848D01*
X2660257Y200238D01*
X2661265Y197805D01*
X2662868Y195716D01*
X2664957Y194113D01*
X2667390Y193106D01*
X2670000Y192762D01*
X2830000Y192762D01*
X2832610Y193106D01*
X2835043Y194113D01*
X2837132Y195716D01*
X2838735Y197805D01*
X2839743Y200238D01*
X2840086Y202848D01*
X2841333Y203036D01*
X2999684D01*
X3000000Y202720D01*
Y0D01*
X0D01*
Y250000D01*
X159914D01*
Y203036D01*
D02*
G37*
%LPC*%
G36*
X2512700Y1909622D02*
X2510210Y1909294D01*
X2507889Y1908333D01*
X2505896Y1906804D01*
X2504367Y1904811D01*
X2503406Y1902491D01*
X2503078Y1900000D01*
X2503406Y1897510D01*
X2504367Y1895189D01*
X2505896Y1893196D01*
X2507889Y1891667D01*
X2510210Y1890706D01*
X2512700Y1890378D01*
X2515190Y1890706D01*
X2517511Y1891667D01*
X2519504Y1893196D01*
X2521033Y1895189D01*
X2521994Y1897510D01*
X2522322Y1900000D01*
X2521994Y1902491D01*
X2521033Y1904811D01*
X2519504Y1906804D01*
X2517511Y1908333D01*
X2515190Y1909294D01*
X2512700Y1909622D01*
D02*
G37*
G36*
X2012700D02*
X2010210Y1909294D01*
X2007889Y1908333D01*
X2005896Y1906804D01*
X2004367Y1904811D01*
X2003405Y1902491D01*
X2003078Y1900000D01*
X2003405Y1897510D01*
X2004367Y1895189D01*
X2005896Y1893196D01*
X2007889Y1891667D01*
X2010210Y1890706D01*
X2012700Y1890378D01*
X2015190Y1890706D01*
X2017511Y1891667D01*
X2019504Y1893196D01*
X2021033Y1895189D01*
X2021994Y1897510D01*
X2022322Y1900000D01*
X2021994Y1902491D01*
X2021033Y1904811D01*
X2019504Y1906804D01*
X2017511Y1908333D01*
X2015190Y1909294D01*
X2012700Y1909622D01*
D02*
G37*
G36*
X1512700D02*
X1510210Y1909294D01*
X1507889Y1908333D01*
X1505896Y1906804D01*
X1504367Y1904811D01*
X1503406Y1902491D01*
X1503078Y1900000D01*
X1503406Y1897510D01*
X1504367Y1895189D01*
X1505896Y1893196D01*
X1507889Y1891667D01*
X1510210Y1890706D01*
X1512700Y1890378D01*
X1515190Y1890706D01*
X1517511Y1891667D01*
X1519504Y1893196D01*
X1521033Y1895189D01*
X1521994Y1897510D01*
X1522322Y1900000D01*
X1521994Y1902491D01*
X1521033Y1904811D01*
X1519504Y1906804D01*
X1517511Y1908333D01*
X1515190Y1909294D01*
X1512700Y1909622D01*
D02*
G37*
G36*
X1012700D02*
X1010210Y1909294D01*
X1007889Y1908333D01*
X1005896Y1906804D01*
X1004367Y1904811D01*
X1003406Y1902491D01*
X1003078Y1900000D01*
X1003406Y1897510D01*
X1004367Y1895189D01*
X1005896Y1893196D01*
X1007889Y1891667D01*
X1010210Y1890706D01*
X1012700Y1890378D01*
X1015191Y1890706D01*
X1017511Y1891667D01*
X1019504Y1893196D01*
X1021033Y1895189D01*
X1021994Y1897510D01*
X1022322Y1900000D01*
X1021994Y1902491D01*
X1021033Y1904811D01*
X1019504Y1906804D01*
X1017511Y1908333D01*
X1015191Y1909294D01*
X1012700Y1909622D01*
D02*
G37*
G36*
X512700D02*
X510210Y1909294D01*
X507889Y1908333D01*
X505896Y1906804D01*
X504367Y1904811D01*
X503405Y1902491D01*
X503078Y1900000D01*
X503405Y1897510D01*
X504367Y1895189D01*
X505896Y1893196D01*
X507889Y1891667D01*
X510210Y1890706D01*
X512700Y1890378D01*
X515190Y1890706D01*
X517511Y1891667D01*
X519504Y1893196D01*
X521033Y1895189D01*
X521994Y1897510D01*
X522322Y1900000D01*
X521994Y1902491D01*
X521033Y1904811D01*
X519504Y1906804D01*
X517511Y1908333D01*
X515190Y1909294D01*
X512700Y1909622D01*
D02*
G37*
G36*
X2900000Y1932641D02*
X2894894Y1932239D01*
X2889914Y1931043D01*
X2885182Y1929083D01*
X2880814Y1926407D01*
X2876920Y1923080D01*
X2873593Y1919186D01*
X2870917Y1914819D01*
X2868957Y1910087D01*
X2867761Y1905106D01*
X2867359Y1900000D01*
X2867761Y1894894D01*
X2868957Y1889913D01*
X2870917Y1885181D01*
X2873593Y1880814D01*
X2876920Y1876920D01*
X2880814Y1873593D01*
X2885182Y1870917D01*
X2889914Y1868957D01*
X2894894Y1867761D01*
X2900000Y1867359D01*
X2905106Y1867761D01*
X2910086Y1868957D01*
X2914818Y1870917D01*
X2919186Y1873593D01*
X2923080Y1876920D01*
X2926407Y1880814D01*
X2929083Y1885181D01*
X2931043Y1889913D01*
X2932239Y1894894D01*
X2932641Y1900000D01*
X2932239Y1905106D01*
X2931043Y1910087D01*
X2929083Y1914819D01*
X2926407Y1919186D01*
X2923080Y1923080D01*
X2919186Y1926407D01*
X2914818Y1929083D01*
X2910086Y1931043D01*
X2905106Y1932239D01*
X2900000Y1932641D01*
D02*
G37*
G36*
Y132641D02*
X2894894Y132239D01*
X2889914Y131043D01*
X2885182Y129083D01*
X2880814Y126407D01*
X2876920Y123080D01*
X2873593Y119186D01*
X2870917Y114818D01*
X2868957Y110086D01*
X2867761Y105106D01*
X2867359Y100000D01*
X2867761Y94894D01*
X2868957Y89914D01*
X2870917Y85182D01*
X2873593Y80814D01*
X2876920Y76920D01*
X2880814Y73593D01*
X2885182Y70917D01*
X2889914Y68957D01*
X2894894Y67761D01*
X2900000Y67359D01*
X2905106Y67761D01*
X2910086Y68957D01*
X2914818Y70917D01*
X2919186Y73593D01*
X2923080Y76920D01*
X2926407Y80814D01*
X2929083Y85182D01*
X2931043Y89914D01*
X2932239Y94894D01*
X2932641Y100000D01*
X2932239Y105106D01*
X2931043Y110086D01*
X2929083Y114818D01*
X2926407Y119186D01*
X2923080Y123080D01*
X2919186Y126407D01*
X2914818Y129083D01*
X2910086Y131043D01*
X2905106Y132239D01*
X2900000Y132641D01*
D02*
G37*
G36*
X100000D02*
X94894Y132239D01*
X89914Y131043D01*
X85182Y129083D01*
X80814Y126407D01*
X76920Y123080D01*
X73593Y119186D01*
X70917Y114818D01*
X68957Y110086D01*
X67761Y105106D01*
X67359Y100000D01*
X67761Y94894D01*
X68957Y89914D01*
X70917Y85182D01*
X73593Y80814D01*
X76920Y76920D01*
X80814Y73593D01*
X85182Y70917D01*
X89914Y68957D01*
X94894Y67761D01*
X100000Y67359D01*
X105106Y67761D01*
X110086Y68957D01*
X114818Y70917D01*
X119186Y73593D01*
X123080Y76920D01*
X126407Y80814D01*
X129083Y85182D01*
X131043Y89914D01*
X132239Y94894D01*
X132641Y100000D01*
X132239Y105106D01*
X131043Y110086D01*
X129083Y114818D01*
X126407Y119186D01*
X123080Y123080D01*
X119186Y126407D01*
X114818Y129083D01*
X110086Y131043D01*
X105106Y132239D01*
X100000Y132641D01*
D02*
G37*
%LPD*%
D12*
X250000Y1741250D02*
X250000Y1741250D01*
X3000000Y0D02*
Y2000000D01*
X0D02*
X3000000D01*
X0Y0D02*
X3000000D01*
X0D02*
Y2000000D01*
D13*
X2750000Y209000D02*
D03*
Y191000D02*
D03*
Y709000D02*
D03*
Y691000D02*
D03*
Y1209000D02*
D03*
Y1191000D02*
D03*
Y1709000D02*
D03*
Y1691000D02*
D03*
X2500000Y1459000D02*
D03*
Y1441000D02*
D03*
Y441000D02*
D03*
Y459000D02*
D03*
X2250000Y209000D02*
D03*
Y191000D02*
D03*
Y709000D02*
D03*
Y691000D02*
D03*
Y1209000D02*
D03*
Y1191000D02*
D03*
Y1709000D02*
D03*
Y1691000D02*
D03*
X2000000Y1459000D02*
D03*
Y1441000D02*
D03*
Y959000D02*
D03*
Y941000D02*
D03*
Y441000D02*
D03*
Y459000D02*
D03*
X1750000Y209000D02*
D03*
Y191000D02*
D03*
Y709000D02*
D03*
Y691000D02*
D03*
Y1209000D02*
D03*
Y1191000D02*
D03*
Y1709000D02*
D03*
Y1691000D02*
D03*
X1500000Y1459000D02*
D03*
Y1441000D02*
D03*
Y959000D02*
D03*
Y941000D02*
D03*
Y441000D02*
D03*
Y459000D02*
D03*
X1250000Y209000D02*
D03*
Y191000D02*
D03*
Y709000D02*
D03*
Y691000D02*
D03*
Y1209000D02*
D03*
Y1191000D02*
D03*
Y1709000D02*
D03*
Y1691000D02*
D03*
X750000Y1709000D02*
D03*
Y1691000D02*
D03*
X1000000Y1459000D02*
D03*
Y1441000D02*
D03*
Y959000D02*
D03*
Y941000D02*
D03*
Y459000D02*
D03*
Y441000D02*
D03*
X750000Y209000D02*
D03*
Y191000D02*
D03*
X500000Y459000D02*
D03*
Y441000D02*
D03*
X250000Y709000D02*
D03*
Y691000D02*
D03*
X750000Y709000D02*
D03*
Y691000D02*
D03*
X250000Y1209000D02*
D03*
Y1191000D02*
D03*
X750000Y1209000D02*
D03*
Y1191000D02*
D03*
X250000Y1709000D02*
D03*
Y1691000D02*
D03*
X500000Y941000D02*
D03*
Y959000D02*
D03*
X2500000Y941000D02*
D03*
Y959000D02*
D03*
X500000Y1441000D02*
D03*
Y1459000D02*
D03*
X250000Y191000D02*
D03*
Y209000D02*
D03*
D14*
X2750000Y241250D02*
D03*
Y741250D02*
D03*
Y1241250D02*
D03*
Y1741250D02*
D03*
X2500000Y1491250D02*
D03*
Y991250D02*
D03*
Y491250D02*
D03*
X2250000Y241250D02*
D03*
Y741250D02*
D03*
Y1241250D02*
D03*
Y1741250D02*
D03*
X2000000Y1491250D02*
D03*
Y991250D02*
D03*
Y491250D02*
D03*
X1750000Y241250D02*
D03*
Y741250D02*
D03*
Y1241250D02*
D03*
Y1741250D02*
D03*
X1500000Y1491250D02*
D03*
Y991250D02*
D03*
Y491250D02*
D03*
X1250000Y241250D02*
D03*
Y741250D02*
D03*
Y1241250D02*
D03*
Y1741250D02*
D03*
X1000000Y1491250D02*
D03*
Y991250D02*
D03*
Y491250D02*
D03*
X750000Y241250D02*
D03*
Y741250D02*
D03*
Y1241250D02*
D03*
X250000Y1741250D02*
D03*
X750000D02*
D03*
X500000Y1491250D02*
D03*
Y991250D02*
D03*
Y491250D02*
D03*
X250000Y241250D02*
D03*
Y741250D02*
D03*
Y1241250D02*
D03*
D15*
X2750000Y263750D02*
D03*
Y763750D02*
D03*
Y1263750D02*
D03*
Y1763750D02*
D03*
X2500000Y1513750D02*
D03*
Y1013750D02*
D03*
Y513750D02*
D03*
X2250000Y263750D02*
D03*
Y763750D02*
D03*
Y1263750D02*
D03*
Y1763750D02*
D03*
X2000000Y1513750D02*
D03*
Y1013750D02*
D03*
Y513750D02*
D03*
X1750000Y263750D02*
D03*
Y763750D02*
D03*
Y1263750D02*
D03*
Y1763750D02*
D03*
X1500000Y1513750D02*
D03*
Y1013750D02*
D03*
Y513750D02*
D03*
X1250000Y263750D02*
D03*
Y763750D02*
D03*
Y1263750D02*
D03*
Y1763750D02*
D03*
X1000000Y1513750D02*
D03*
Y1013750D02*
D03*
Y513750D02*
D03*
X750000Y263750D02*
D03*
Y763750D02*
D03*
Y1263750D02*
D03*
X250000Y1763750D02*
D03*
X750000D02*
D03*
X500000Y1513750D02*
D03*
Y1013750D02*
D03*
Y513750D02*
D03*
X250000Y263750D02*
D03*
Y763750D02*
D03*
Y1263750D02*
D03*
D25*
X2750000Y267500D02*
Y290000D01*
X2250000Y267500D02*
Y290000D01*
X1750000Y267500D02*
Y290000D01*
X1250000Y267500D02*
Y290000D01*
X750000Y267500D02*
Y290000D01*
X250000Y267500D02*
Y290000D01*
X2500000Y517500D02*
Y540000D01*
X2000000Y517500D02*
Y540000D01*
X1500000Y517500D02*
Y540000D01*
X1000000Y517500D02*
Y540000D01*
X500000Y517500D02*
Y540000D01*
X2750000Y767500D02*
Y790000D01*
X2250000Y767500D02*
Y790000D01*
X1750000Y767500D02*
Y790000D01*
X1250000Y767500D02*
Y790000D01*
X750000Y767500D02*
Y790000D01*
X250000Y767500D02*
Y790000D01*
X2500000Y1017500D02*
Y1040000D01*
X2000000Y1017500D02*
Y1040000D01*
X1500000Y1017500D02*
Y1040000D01*
X1000000Y1017500D02*
Y1040000D01*
X500000Y1017500D02*
Y1040000D01*
X2750000Y1267500D02*
Y1290000D01*
X2250000Y1267500D02*
Y1290000D01*
X1750000Y1270031D02*
Y1290000D01*
X1250000Y1269653D02*
Y1290000D01*
X750000Y1267500D02*
Y1290000D01*
X250000Y1270827D02*
Y1290000D01*
X2500000Y1520160D02*
Y1540000D01*
X2000000Y1519965D02*
Y1540000D01*
X1500000Y1520355D02*
Y1540000D01*
X1000000Y1520160D02*
Y1540000D01*
X500000Y1520272D02*
Y1540000D01*
X2750000Y1770832D02*
Y1828445D01*
X2762700Y1841145D02*
Y1900000D01*
X2750000Y1828445D02*
X2762700Y1841145D01*
X2250000Y1769912D02*
Y1817413D01*
X2262700Y1830112D02*
Y1900000D01*
X2250000Y1817413D02*
X2262700Y1830112D01*
X1750000Y1769912D02*
Y1848671D01*
X1762700Y1861371D02*
Y1900000D01*
X1750000Y1848671D02*
X1762700Y1861371D01*
X1250000Y1767500D02*
Y1829262D01*
X1262700Y1841962D02*
Y1900000D01*
X1250000Y1829262D02*
X1262700Y1841962D01*
X750000Y1767500D02*
Y1833351D01*
X762700Y1846051D02*
Y1900000D01*
X750000Y1833351D02*
X762700Y1846051D01*
X250000Y1767500D02*
Y1822961D01*
X262356Y1835317D01*
Y1899656D01*
D26*
X262700Y1900000D01*
D27*
X625000Y1772500D02*
D03*
Y1927500D02*
D03*
X375000Y1772500D02*
D03*
Y1927500D02*
D03*
D28*
X2900000Y1900000D02*
D03*
Y100000D02*
D03*
X100000D02*
D03*
Y1900000D02*
D03*
D29*
Y1737300D02*
D03*
Y1487300D02*
D03*
Y1237300D02*
D03*
Y987300D02*
D03*
Y737300D02*
D03*
Y237300D02*
D03*
Y487300D02*
D03*
D30*
Y1762700D02*
D03*
Y1512700D02*
D03*
Y1262700D02*
D03*
Y1012700D02*
D03*
X262700Y1900000D02*
D03*
X762700D02*
D03*
X1262700D02*
D03*
X1762700D02*
D03*
X100000Y762700D02*
D03*
X2262700Y1900000D02*
D03*
X2762700D02*
D03*
X512700D02*
D03*
X1012700D02*
D03*
X100000Y262700D02*
D03*
X1512700Y1900000D02*
D03*
X2012700D02*
D03*
X2512700D02*
D03*
X100000Y512700D02*
D03*
D31*
X237300Y1900000D02*
D03*
X737300D02*
D03*
X1237300D02*
D03*
X1737300D02*
D03*
X2237300D02*
D03*
X2737300D02*
D03*
X487300D02*
D03*
X987300D02*
D03*
X1487300D02*
D03*
X1987300D02*
D03*
X2487300D02*
D03*
D32*
X1250000Y790000D02*
D03*
X2750000Y1290000D02*
D03*
X2500000Y1540000D02*
D03*
X2000000D02*
D03*
X2250000Y1290000D02*
D03*
X1750000D02*
D03*
X1500000Y1540000D02*
D03*
X1250000Y1290000D02*
D03*
X1500000Y1040000D02*
D03*
X2000000D02*
D03*
X2500000D02*
D03*
X2750000Y790000D02*
D03*
X2250000D02*
D03*
X1750000D02*
D03*
X2000000Y540000D02*
D03*
X2500000D02*
D03*
X2750000Y290000D02*
D03*
X2250000D02*
D03*
X1750000D02*
D03*
X1500000Y540000D02*
D03*
X1250000Y290000D02*
D03*
X1000000Y540000D02*
D03*
Y1040000D02*
D03*
Y1540000D02*
D03*
X750000Y1290000D02*
D03*
Y790000D02*
D03*
Y290000D02*
D03*
X500000Y540000D02*
D03*
Y1040000D02*
D03*
Y1540000D02*
D03*
X250000Y290000D02*
D03*
Y790000D02*
D03*
Y1290000D02*
D03*
M02*
