G04*
G04 #@! TF.GenerationSoftware,Altium Limited,Altium Designer,20.0.13 (296)*
G04*
G04 Layer_Color=255*
%FSLAX44Y44*%
%MOMM*%
G71*
G01*
G75*
%ADD12C,0.2540*%
%ADD13R,1.4000X1.2000*%
%ADD14R,1.8000X2.2000*%
%ADD15R,1.8000X1.1000*%
%ADD27C,4.0000*%
%ADD28C,6.0000*%
%ADD29R,1.4000X1.4000*%
%ADD30C,1.4000*%
%ADD31R,1.4000X1.4000*%
D12*
X3000000D02*
Y2000000D01*
X0D02*
X3000000D01*
X0Y0D02*
X3000000D01*
X0D02*
Y2000000D01*
D13*
X2750000Y209000D02*
D03*
Y191000D02*
D03*
Y709000D02*
D03*
Y691000D02*
D03*
Y1209000D02*
D03*
Y1191000D02*
D03*
Y1709000D02*
D03*
Y1691000D02*
D03*
X2500000Y1459000D02*
D03*
Y1441000D02*
D03*
Y441000D02*
D03*
Y459000D02*
D03*
X2250000Y209000D02*
D03*
Y191000D02*
D03*
Y709000D02*
D03*
Y691000D02*
D03*
Y1209000D02*
D03*
Y1191000D02*
D03*
Y1709000D02*
D03*
Y1691000D02*
D03*
X2000000Y1459000D02*
D03*
Y1441000D02*
D03*
Y959000D02*
D03*
Y941000D02*
D03*
Y441000D02*
D03*
Y459000D02*
D03*
X1750000Y209000D02*
D03*
Y191000D02*
D03*
Y709000D02*
D03*
Y691000D02*
D03*
Y1209000D02*
D03*
Y1191000D02*
D03*
Y1709000D02*
D03*
Y1691000D02*
D03*
X1500000Y1459000D02*
D03*
Y1441000D02*
D03*
Y959000D02*
D03*
Y941000D02*
D03*
Y441000D02*
D03*
Y459000D02*
D03*
X1250000Y209000D02*
D03*
Y191000D02*
D03*
Y709000D02*
D03*
Y691000D02*
D03*
Y1209000D02*
D03*
Y1191000D02*
D03*
Y1709000D02*
D03*
Y1691000D02*
D03*
X750000Y1709000D02*
D03*
Y1691000D02*
D03*
X1000000Y1459000D02*
D03*
Y1441000D02*
D03*
Y959000D02*
D03*
Y941000D02*
D03*
Y459000D02*
D03*
Y441000D02*
D03*
X750000Y209000D02*
D03*
Y191000D02*
D03*
X500000Y459000D02*
D03*
Y441000D02*
D03*
X250000Y709000D02*
D03*
Y691000D02*
D03*
X750000Y709000D02*
D03*
Y691000D02*
D03*
X250000Y1209000D02*
D03*
Y1191000D02*
D03*
X750000Y1209000D02*
D03*
Y1191000D02*
D03*
X250000Y1709000D02*
D03*
Y1691000D02*
D03*
X500000Y941000D02*
D03*
Y959000D02*
D03*
X2500000Y941000D02*
D03*
Y959000D02*
D03*
X500000Y1441000D02*
D03*
Y1459000D02*
D03*
X250000Y191000D02*
D03*
Y209000D02*
D03*
D14*
X2750000Y241250D02*
D03*
Y741250D02*
D03*
Y1241250D02*
D03*
Y1741250D02*
D03*
X2500000Y1491250D02*
D03*
Y991250D02*
D03*
Y491250D02*
D03*
X2250000Y241250D02*
D03*
Y741250D02*
D03*
Y1241250D02*
D03*
Y1741250D02*
D03*
X2000000Y1491250D02*
D03*
Y991250D02*
D03*
Y491250D02*
D03*
X1750000Y241250D02*
D03*
Y741250D02*
D03*
Y1241250D02*
D03*
Y1741250D02*
D03*
X1500000Y1491250D02*
D03*
Y991250D02*
D03*
Y491250D02*
D03*
X1250000Y241250D02*
D03*
Y741250D02*
D03*
Y1241250D02*
D03*
Y1741250D02*
D03*
X1000000Y1491250D02*
D03*
Y991250D02*
D03*
Y491250D02*
D03*
X750000Y241250D02*
D03*
Y741250D02*
D03*
Y1241250D02*
D03*
X250000Y1741250D02*
D03*
X750000D02*
D03*
X500000Y1491250D02*
D03*
Y991250D02*
D03*
Y491250D02*
D03*
X250000Y241250D02*
D03*
Y741250D02*
D03*
Y1241250D02*
D03*
D15*
X2750000Y263750D02*
D03*
Y763750D02*
D03*
Y1263750D02*
D03*
Y1763750D02*
D03*
X2500000Y1513750D02*
D03*
Y1013750D02*
D03*
Y513750D02*
D03*
X2250000Y263750D02*
D03*
Y763750D02*
D03*
Y1263750D02*
D03*
Y1763750D02*
D03*
X2000000Y1513750D02*
D03*
Y1013750D02*
D03*
Y513750D02*
D03*
X1750000Y263750D02*
D03*
Y763750D02*
D03*
Y1263750D02*
D03*
Y1763750D02*
D03*
X1500000Y1513750D02*
D03*
Y1013750D02*
D03*
Y513750D02*
D03*
X1250000Y263750D02*
D03*
Y763750D02*
D03*
Y1263750D02*
D03*
Y1763750D02*
D03*
X1000000Y1513750D02*
D03*
Y1013750D02*
D03*
Y513750D02*
D03*
X750000Y263750D02*
D03*
Y763750D02*
D03*
Y1263750D02*
D03*
X250000Y1763750D02*
D03*
X750000D02*
D03*
X500000Y1513750D02*
D03*
Y1013750D02*
D03*
Y513750D02*
D03*
X250000Y263750D02*
D03*
Y763750D02*
D03*
Y1263750D02*
D03*
D27*
X625000Y1772500D02*
D03*
Y1927500D02*
D03*
X375000Y1772500D02*
D03*
Y1927500D02*
D03*
D28*
X2900000Y1900000D02*
D03*
Y100000D02*
D03*
X100000D02*
D03*
Y1900000D02*
D03*
D29*
Y1737300D02*
D03*
Y1487300D02*
D03*
Y1237300D02*
D03*
Y987300D02*
D03*
Y737300D02*
D03*
Y237300D02*
D03*
Y487300D02*
D03*
D30*
Y1762700D02*
D03*
Y1512700D02*
D03*
Y1262700D02*
D03*
Y1012700D02*
D03*
X262700Y1900000D02*
D03*
X762700D02*
D03*
X1262700D02*
D03*
X1762700D02*
D03*
X100000Y762700D02*
D03*
X2262700Y1900000D02*
D03*
X2762700D02*
D03*
X512700D02*
D03*
X1012700D02*
D03*
X100000Y262700D02*
D03*
X1512700Y1900000D02*
D03*
X2012700D02*
D03*
X2512700D02*
D03*
X100000Y512700D02*
D03*
D31*
X237300Y1900000D02*
D03*
X737300D02*
D03*
X1237300D02*
D03*
X1737300D02*
D03*
X2237300D02*
D03*
X2737300D02*
D03*
X487300D02*
D03*
X987300D02*
D03*
X1487300D02*
D03*
X1987300D02*
D03*
X2487300D02*
D03*
M02*
