G04*
G04 #@! TF.GenerationSoftware,Altium Limited,Altium Designer,20.0.13 (296)*
G04*
G04 Layer_Color=8421504*
%FSLAX44Y44*%
%MOMM*%
G71*
G01*
G75*
%ADD12C,0.2540*%
%ADD13R,1.4000X1.2000*%
%ADD14R,1.8000X2.2000*%
%ADD15R,1.8000X1.1000*%
D12*
X3000000D02*
Y2000000D01*
X0D02*
X3000000D01*
X0Y0D02*
X3000000D01*
X0D02*
Y2000000D01*
D13*
X2750000Y209000D02*
D03*
Y191000D02*
D03*
Y709000D02*
D03*
Y691000D02*
D03*
Y1209000D02*
D03*
Y1191000D02*
D03*
Y1709000D02*
D03*
Y1691000D02*
D03*
X2500000Y1459000D02*
D03*
Y1441000D02*
D03*
Y441000D02*
D03*
Y459000D02*
D03*
X2250000Y209000D02*
D03*
Y191000D02*
D03*
Y709000D02*
D03*
Y691000D02*
D03*
Y1209000D02*
D03*
Y1191000D02*
D03*
Y1709000D02*
D03*
Y1691000D02*
D03*
X2000000Y1459000D02*
D03*
Y1441000D02*
D03*
Y959000D02*
D03*
Y941000D02*
D03*
Y441000D02*
D03*
Y459000D02*
D03*
X1750000Y209000D02*
D03*
Y191000D02*
D03*
Y709000D02*
D03*
Y691000D02*
D03*
Y1209000D02*
D03*
Y1191000D02*
D03*
Y1709000D02*
D03*
Y1691000D02*
D03*
X1500000Y1459000D02*
D03*
Y1441000D02*
D03*
Y959000D02*
D03*
Y941000D02*
D03*
Y441000D02*
D03*
Y459000D02*
D03*
X1250000Y209000D02*
D03*
Y191000D02*
D03*
Y709000D02*
D03*
Y691000D02*
D03*
Y1209000D02*
D03*
Y1191000D02*
D03*
Y1709000D02*
D03*
Y1691000D02*
D03*
X750000Y1709000D02*
D03*
Y1691000D02*
D03*
X1000000Y1459000D02*
D03*
Y1441000D02*
D03*
Y959000D02*
D03*
Y941000D02*
D03*
Y459000D02*
D03*
Y441000D02*
D03*
X750000Y209000D02*
D03*
Y191000D02*
D03*
X500000Y459000D02*
D03*
Y441000D02*
D03*
X250000Y709000D02*
D03*
Y691000D02*
D03*
X750000Y709000D02*
D03*
Y691000D02*
D03*
X250000Y1209000D02*
D03*
Y1191000D02*
D03*
X750000Y1209000D02*
D03*
Y1191000D02*
D03*
X250000Y1709000D02*
D03*
Y1691000D02*
D03*
X500000Y941000D02*
D03*
Y959000D02*
D03*
X2500000Y941000D02*
D03*
Y959000D02*
D03*
X500000Y1441000D02*
D03*
Y1459000D02*
D03*
X250000Y191000D02*
D03*
Y209000D02*
D03*
D14*
X2750000Y241250D02*
D03*
Y741250D02*
D03*
Y1241250D02*
D03*
Y1741250D02*
D03*
X2500000Y1491250D02*
D03*
Y991250D02*
D03*
Y491250D02*
D03*
X2250000Y241250D02*
D03*
Y741250D02*
D03*
Y1241250D02*
D03*
Y1741250D02*
D03*
X2000000Y1491250D02*
D03*
Y991250D02*
D03*
Y491250D02*
D03*
X1750000Y241250D02*
D03*
Y741250D02*
D03*
Y1241250D02*
D03*
Y1741250D02*
D03*
X1500000Y1491250D02*
D03*
Y991250D02*
D03*
Y491250D02*
D03*
X1250000Y241250D02*
D03*
Y741250D02*
D03*
Y1241250D02*
D03*
Y1741250D02*
D03*
X1000000Y1491250D02*
D03*
Y991250D02*
D03*
Y491250D02*
D03*
X750000Y241250D02*
D03*
Y741250D02*
D03*
Y1241250D02*
D03*
X250000Y1741250D02*
D03*
X750000D02*
D03*
X500000Y1491250D02*
D03*
Y991250D02*
D03*
Y491250D02*
D03*
X250000Y241250D02*
D03*
Y741250D02*
D03*
Y1241250D02*
D03*
D15*
X2750000Y263750D02*
D03*
Y763750D02*
D03*
Y1263750D02*
D03*
Y1763750D02*
D03*
X2500000Y1513750D02*
D03*
Y1013750D02*
D03*
Y513750D02*
D03*
X2250000Y263750D02*
D03*
Y763750D02*
D03*
Y1263750D02*
D03*
Y1763750D02*
D03*
X2000000Y1513750D02*
D03*
Y1013750D02*
D03*
Y513750D02*
D03*
X1750000Y263750D02*
D03*
Y763750D02*
D03*
Y1263750D02*
D03*
Y1763750D02*
D03*
X1500000Y1513750D02*
D03*
Y1013750D02*
D03*
Y513750D02*
D03*
X1250000Y263750D02*
D03*
Y763750D02*
D03*
Y1263750D02*
D03*
Y1763750D02*
D03*
X1000000Y1513750D02*
D03*
Y1013750D02*
D03*
Y513750D02*
D03*
X750000Y263750D02*
D03*
Y763750D02*
D03*
Y1263750D02*
D03*
X250000Y1763750D02*
D03*
X750000D02*
D03*
X500000Y1513750D02*
D03*
Y1013750D02*
D03*
Y513750D02*
D03*
X250000Y263750D02*
D03*
Y763750D02*
D03*
Y1263750D02*
D03*
M02*
