G04*
G04 #@! TF.GenerationSoftware,Altium Limited,Altium Designer,20.0.13 (296)*
G04*
G04 Layer_Color=65535*
%FSLAX44Y44*%
%MOMM*%
G71*
G01*
G75*
%ADD10C,0.2500*%
%ADD11C,0.2000*%
%ADD12C,0.2540*%
D10*
X2766750Y274000D02*
G03*
X2766750Y274000I-1250J0D01*
G01*
Y774000D02*
G03*
X2766750Y774000I-1250J0D01*
G01*
Y1274000D02*
G03*
X2766750Y1274000I-1250J0D01*
G01*
Y1774000D02*
G03*
X2766750Y1774000I-1250J0D01*
G01*
X2516750Y1524000D02*
G03*
X2516750Y1524000I-1250J0D01*
G01*
Y1024000D02*
G03*
X2516750Y1024000I-1250J0D01*
G01*
Y524000D02*
G03*
X2516750Y524000I-1250J0D01*
G01*
X2266750Y274000D02*
G03*
X2266750Y274000I-1250J0D01*
G01*
Y774000D02*
G03*
X2266750Y774000I-1250J0D01*
G01*
Y1274000D02*
G03*
X2266750Y1274000I-1250J0D01*
G01*
Y1774000D02*
G03*
X2266750Y1774000I-1250J0D01*
G01*
X2016750Y1524000D02*
G03*
X2016750Y1524000I-1250J0D01*
G01*
Y1024000D02*
G03*
X2016750Y1024000I-1250J0D01*
G01*
Y524000D02*
G03*
X2016750Y524000I-1250J0D01*
G01*
X1766750Y274000D02*
G03*
X1766750Y274000I-1250J0D01*
G01*
Y774000D02*
G03*
X1766750Y774000I-1250J0D01*
G01*
Y1274000D02*
G03*
X1766750Y1274000I-1250J0D01*
G01*
Y1774000D02*
G03*
X1766750Y1774000I-1250J0D01*
G01*
X1516750Y1524000D02*
G03*
X1516750Y1524000I-1250J0D01*
G01*
Y1024000D02*
G03*
X1516750Y1024000I-1250J0D01*
G01*
Y524000D02*
G03*
X1516750Y524000I-1250J0D01*
G01*
X1266750Y274000D02*
G03*
X1266750Y274000I-1250J0D01*
G01*
Y774000D02*
G03*
X1266750Y774000I-1250J0D01*
G01*
Y1274000D02*
G03*
X1266750Y1274000I-1250J0D01*
G01*
Y1774000D02*
G03*
X1266750Y1774000I-1250J0D01*
G01*
X1016750Y1524000D02*
G03*
X1016750Y1524000I-1250J0D01*
G01*
Y1024000D02*
G03*
X1016750Y1024000I-1250J0D01*
G01*
Y524000D02*
G03*
X1016750Y524000I-1250J0D01*
G01*
X766750Y274000D02*
G03*
X766750Y274000I-1250J0D01*
G01*
Y774000D02*
G03*
X766750Y774000I-1250J0D01*
G01*
Y1274000D02*
G03*
X766750Y1274000I-1250J0D01*
G01*
X266750Y1774000D02*
G03*
X266750Y1774000I-1250J0D01*
G01*
X766750D02*
G03*
X766750Y1774000I-1250J0D01*
G01*
X516750Y1524000D02*
G03*
X516750Y1524000I-1250J0D01*
G01*
Y1024000D02*
G03*
X516750Y1024000I-1250J0D01*
G01*
Y524000D02*
G03*
X516750Y524000I-1250J0D01*
G01*
X266750Y274000D02*
G03*
X266750Y274000I-1250J0D01*
G01*
Y774000D02*
G03*
X266750Y774000I-1250J0D01*
G01*
Y1274000D02*
G03*
X266750Y1274000I-1250J0D01*
G01*
X83050Y1737300D02*
G03*
X83050Y1737300I-1250J0D01*
G01*
Y1487300D02*
G03*
X83050Y1487300I-1250J0D01*
G01*
Y1237300D02*
G03*
X83050Y1237300I-1250J0D01*
G01*
Y987300D02*
G03*
X83050Y987300I-1250J0D01*
G01*
X238550Y1918200D02*
G03*
X238550Y1918200I-1250J0D01*
G01*
X738550D02*
G03*
X738550Y1918200I-1250J0D01*
G01*
X1238550D02*
G03*
X1238550Y1918200I-1250J0D01*
G01*
X1738550D02*
G03*
X1738550Y1918200I-1250J0D01*
G01*
X83050Y737300D02*
G03*
X83050Y737300I-1250J0D01*
G01*
X2238550Y1918200D02*
G03*
X2238550Y1918200I-1250J0D01*
G01*
X2738550D02*
G03*
X2738550Y1918200I-1250J0D01*
G01*
X488550D02*
G03*
X488550Y1918200I-1250J0D01*
G01*
X988550D02*
G03*
X988550Y1918200I-1250J0D01*
G01*
X83050Y237300D02*
G03*
X83050Y237300I-1250J0D01*
G01*
X1488550Y1918200D02*
G03*
X1488550Y1918200I-1250J0D01*
G01*
X1988550D02*
G03*
X1988550Y1918200I-1250J0D01*
G01*
X2488550D02*
G03*
X2488550Y1918200I-1250J0D01*
G01*
X83050Y487300D02*
G03*
X83050Y487300I-1250J0D01*
G01*
D11*
X677250Y1830500D02*
Y1865500D01*
X573250Y1833250D02*
Y1868250D01*
X427250Y1830500D02*
Y1865500D01*
X323250Y1833250D02*
Y1868250D01*
X2744000Y200000D02*
X2756000D01*
X2736000Y232500D02*
Y267500D01*
X2764000Y232500D02*
Y267500D01*
X2744000Y700000D02*
X2756000D01*
X2736000Y732500D02*
Y767500D01*
X2764000Y732500D02*
Y767500D01*
X2744000Y1200000D02*
X2756000D01*
X2736000Y1232500D02*
Y1267500D01*
X2764000Y1232500D02*
Y1267500D01*
X2744000Y1700000D02*
X2756000D01*
X2736000Y1732500D02*
Y1767500D01*
X2764000Y1732500D02*
Y1767500D01*
X2494000Y1450000D02*
X2506000D01*
X2486000Y1482500D02*
Y1517500D01*
X2514000Y1482500D02*
Y1517500D01*
X2486000Y982500D02*
Y1017500D01*
X2514000Y982500D02*
Y1017500D01*
Y482500D02*
Y517500D01*
X2486000Y482500D02*
Y517500D01*
X2494000Y450000D02*
X2506000D01*
X2244000Y200000D02*
X2256000D01*
X2236000Y232500D02*
Y267500D01*
X2264000Y232500D02*
Y267500D01*
X2244000Y700000D02*
X2256000D01*
X2236000Y732500D02*
Y767500D01*
X2264000Y732500D02*
Y767500D01*
X2244000Y1200000D02*
X2256000D01*
X2236000Y1232500D02*
Y1267500D01*
X2264000Y1232500D02*
Y1267500D01*
X2244000Y1700000D02*
X2256000D01*
X2236000Y1732500D02*
Y1767500D01*
X2264000Y1732500D02*
Y1767500D01*
X1994000Y1450000D02*
X2006000D01*
X1986000Y1482500D02*
Y1517500D01*
X2014000Y1482500D02*
Y1517500D01*
X1994000Y950000D02*
X2006000D01*
X1986000Y982500D02*
Y1017500D01*
X2014000Y982500D02*
Y1017500D01*
Y482500D02*
Y517500D01*
X1986000Y482500D02*
Y517500D01*
X1994000Y450000D02*
X2006000D01*
X1744000Y200000D02*
X1756000D01*
X1736000Y232500D02*
Y267500D01*
X1764000Y232500D02*
Y267500D01*
X1744000Y700000D02*
X1756000D01*
X1736000Y732500D02*
Y767500D01*
X1764000Y732500D02*
Y767500D01*
X1744000Y1200000D02*
X1756000D01*
X1736000Y1232500D02*
Y1267500D01*
X1764000Y1232500D02*
Y1267500D01*
X1744000Y1700000D02*
X1756000D01*
X1736000Y1732500D02*
Y1767500D01*
X1764000Y1732500D02*
Y1767500D01*
X1486000Y1482500D02*
Y1517500D01*
X1514000Y1482500D02*
Y1517500D01*
X1494000Y1450000D02*
X1506000D01*
X1494000Y950000D02*
X1506000D01*
X1486000Y982500D02*
Y1017500D01*
X1514000Y982500D02*
Y1017500D01*
Y482500D02*
Y517500D01*
X1486000Y482500D02*
Y517500D01*
X1494000Y450000D02*
X1506000D01*
X1244000Y200000D02*
X1256000D01*
X1236000Y232500D02*
Y267500D01*
X1264000Y232500D02*
Y267500D01*
X1244000Y700000D02*
X1256000D01*
X1236000Y732500D02*
Y767500D01*
X1264000Y732500D02*
Y767500D01*
X1244000Y1200000D02*
X1256000D01*
X1236000Y1232500D02*
Y1267500D01*
X1264000Y1232500D02*
Y1267500D01*
X1244000Y1700000D02*
X1256000D01*
X1236000Y1732500D02*
Y1767500D01*
X1264000Y1732500D02*
Y1767500D01*
X744000Y1700000D02*
X756000D01*
X986000Y1482500D02*
Y1517500D01*
X1014000Y1482500D02*
Y1517500D01*
X994000Y1450000D02*
X1006000D01*
X986000Y982500D02*
Y1017500D01*
X1014000Y982500D02*
Y1017500D01*
X994000Y950000D02*
X1006000D01*
X986000Y482500D02*
Y517500D01*
X1014000Y482500D02*
Y517500D01*
X994000Y450000D02*
X1006000D01*
X744000Y200000D02*
X756000D01*
X736000Y232500D02*
Y267500D01*
X764000Y232500D02*
Y267500D01*
X494000Y450000D02*
X506000D01*
X244000Y700000D02*
X256000D01*
X744000D02*
X756000D01*
X736000Y732500D02*
Y767500D01*
X764000Y732500D02*
Y767500D01*
X736000Y1232500D02*
Y1267500D01*
X764000Y1232500D02*
Y1267500D01*
X244000Y1200000D02*
X256000D01*
X744000D02*
X756000D01*
X236000Y1732500D02*
Y1767500D01*
X264000Y1732500D02*
Y1767500D01*
X736000Y1732500D02*
Y1767500D01*
X764000Y1732500D02*
Y1767500D01*
X486000Y1482500D02*
Y1517500D01*
X514000Y1482500D02*
Y1517500D01*
X486000Y982500D02*
Y1017500D01*
X514000Y982500D02*
Y1017500D01*
X486000Y482500D02*
Y517500D01*
X514000Y482500D02*
Y517500D01*
X236000Y232500D02*
Y267500D01*
X264000Y232500D02*
Y267500D01*
X236000Y732500D02*
Y767500D01*
X264000Y732500D02*
Y767500D01*
X236000Y1232500D02*
Y1267500D01*
X264000Y1232500D02*
Y1267500D01*
X244000Y1700000D02*
X256000D01*
X494000Y950000D02*
X506000D01*
X2494000D02*
X2506000D01*
X494000Y1450000D02*
X506000D01*
X111700Y1726650D02*
Y1773350D01*
X88300Y1726650D02*
Y1773350D01*
X111700Y1476650D02*
Y1523350D01*
X88300Y1476650D02*
Y1523350D01*
X111700Y1226650D02*
Y1273350D01*
X88300Y1226650D02*
Y1273350D01*
X111700Y976650D02*
Y1023350D01*
X88300Y976650D02*
Y1023350D01*
X226650Y1888300D02*
X273350D01*
X226650Y1911700D02*
X273350D01*
X726650Y1888300D02*
X773350D01*
X726650Y1911700D02*
X773350D01*
X1226650Y1888300D02*
X1273350D01*
X1226650Y1911700D02*
X1273350D01*
X1726650Y1888300D02*
X1773350D01*
X1726650Y1911700D02*
X1773350D01*
X111700Y726650D02*
Y773350D01*
X88300Y726650D02*
Y773350D01*
X2226650Y1888300D02*
X2273350D01*
X2226650Y1911700D02*
X2273350D01*
X2726650Y1888300D02*
X2773350D01*
X2726650Y1911700D02*
X2773350D01*
X476650Y1888300D02*
X523350D01*
X476650Y1911700D02*
X523350D01*
X244000Y200000D02*
X256000D01*
X976650Y1888300D02*
X1023350D01*
X976650Y1911700D02*
X1023350D01*
X111700Y226650D02*
Y273350D01*
X88300Y226650D02*
Y273350D01*
X1476650Y1888300D02*
X1523350D01*
X1476650Y1911700D02*
X1523350D01*
X1976650Y1888300D02*
X2023350D01*
X1976650Y1911700D02*
X2023350D01*
X2476650Y1888300D02*
X2523350D01*
X2476650Y1911700D02*
X2523350D01*
X111700Y476650D02*
Y523350D01*
X88300Y476650D02*
Y523350D01*
D12*
X573278Y1983994D02*
Y1999229D01*
X580896D01*
X583435Y1996690D01*
Y1991611D01*
X580896Y1989072D01*
X573278D01*
X588513Y1983994D02*
Y1999229D01*
X596131D01*
X598670Y1996690D01*
Y1991611D01*
X596131Y1989072D01*
X588513D01*
X603748Y1994151D02*
Y1986533D01*
X606287Y1983994D01*
X608826Y1986533D01*
X611366Y1983994D01*
X613905Y1986533D01*
Y1994151D01*
X618983D02*
Y1983994D01*
Y1989072D01*
X621522Y1991611D01*
X624062Y1994151D01*
X626601D01*
X323342Y1983994D02*
Y1999229D01*
X330960D01*
X333499Y1996690D01*
Y1991611D01*
X330960Y1989072D01*
X323342D01*
X348734Y1996690D02*
X346195Y1999229D01*
X341116D01*
X338577Y1996690D01*
Y1986533D01*
X341116Y1983994D01*
X346195D01*
X348734Y1986533D01*
Y1991611D01*
X343655D01*
X353812Y1983994D02*
Y1994151D01*
X361430D01*
X363969Y1991611D01*
Y1983994D01*
X379204Y1999229D02*
Y1983994D01*
X371586D01*
X369047Y1986533D01*
Y1991611D01*
X371586Y1994151D01*
X379204D01*
X2444302Y442383D02*
Y457617D01*
X2451920D01*
X2454459Y455078D01*
Y450000D01*
X2451920Y447461D01*
X2444302D01*
X2449380D02*
X2454459Y442383D01*
X2459537Y455078D02*
X2462076Y457617D01*
X2467155D01*
X2469694Y455078D01*
Y452539D01*
X2467155Y450000D01*
X2464615D01*
X2467155D01*
X2469694Y447461D01*
Y444922D01*
X2467155Y442383D01*
X2462076D01*
X2459537Y444922D01*
X2474772D02*
X2477311Y442383D01*
X2482390D01*
X2484929Y444922D01*
Y455078D01*
X2482390Y457617D01*
X2477311D01*
X2474772Y455078D01*
Y452539D01*
X2477311Y450000D01*
X2484929D01*
X1944250Y442383D02*
Y457617D01*
X1951867D01*
X1954406Y455078D01*
Y450000D01*
X1951867Y447461D01*
X1944250D01*
X1949328D02*
X1954406Y442383D01*
X1959485Y455078D02*
X1962024Y457617D01*
X1967102D01*
X1969641Y455078D01*
Y452539D01*
X1967102Y450000D01*
X1964563D01*
X1967102D01*
X1969641Y447461D01*
Y444922D01*
X1967102Y442383D01*
X1962024D01*
X1959485Y444922D01*
X1974720Y455078D02*
X1977259Y457617D01*
X1982337D01*
X1984876Y455078D01*
Y452539D01*
X1982337Y450000D01*
X1984876Y447461D01*
Y444922D01*
X1982337Y442383D01*
X1977259D01*
X1974720Y444922D01*
Y447461D01*
X1977259Y450000D01*
X1974720Y452539D01*
Y455078D01*
X1977259Y450000D02*
X1982337D01*
X1442009Y442383D02*
Y457617D01*
X1449627D01*
X1452166Y455078D01*
Y450000D01*
X1449627Y447461D01*
X1442009D01*
X1447088D02*
X1452166Y442383D01*
X1457244Y455078D02*
X1459783Y457617D01*
X1464862D01*
X1467401Y455078D01*
Y452539D01*
X1464862Y450000D01*
X1462323D01*
X1464862D01*
X1467401Y447461D01*
Y444922D01*
X1464862Y442383D01*
X1459783D01*
X1457244Y444922D01*
X1472479Y457617D02*
X1482636D01*
Y455078D01*
X1472479Y444922D01*
Y442383D01*
X2524726Y523102D02*
Y507867D01*
X2532344D01*
X2534883Y510406D01*
Y520563D01*
X2532344Y523102D01*
X2524726D01*
X2539961Y520563D02*
X2542500Y523102D01*
X2547579D01*
X2550118Y520563D01*
Y518024D01*
X2547579Y515485D01*
X2545040D01*
X2547579D01*
X2550118Y512946D01*
Y510406D01*
X2547579Y507867D01*
X2542500D01*
X2539961Y510406D01*
X2555196D02*
X2557735Y507867D01*
X2562814D01*
X2565353Y510406D01*
Y520563D01*
X2562814Y523102D01*
X2557735D01*
X2555196Y520563D01*
Y518024D01*
X2557735Y515485D01*
X2565353D01*
X2024126Y523100D02*
Y507865D01*
X2031744D01*
X2034283Y510405D01*
Y520561D01*
X2031744Y523100D01*
X2024126D01*
X2039362Y520561D02*
X2041901Y523100D01*
X2046979D01*
X2049518Y520561D01*
Y518022D01*
X2046979Y515483D01*
X2044440D01*
X2046979D01*
X2049518Y512944D01*
Y510405D01*
X2046979Y507865D01*
X2041901D01*
X2039362Y510405D01*
X2054597Y520561D02*
X2057136Y523100D01*
X2062214D01*
X2064753Y520561D01*
Y518022D01*
X2062214Y515483D01*
X2064753Y512944D01*
Y510405D01*
X2062214Y507865D01*
X2057136D01*
X2054597Y510405D01*
Y512944D01*
X2057136Y515483D01*
X2054597Y518022D01*
Y520561D01*
X2057136Y515483D02*
X2062214D01*
X1524622Y522004D02*
Y506769D01*
X1532239D01*
X1534778Y509308D01*
Y519465D01*
X1532239Y522004D01*
X1524622D01*
X1539857Y519465D02*
X1542396Y522004D01*
X1547474D01*
X1550013Y519465D01*
Y516926D01*
X1547474Y514387D01*
X1544935D01*
X1547474D01*
X1550013Y511847D01*
Y509308D01*
X1547474Y506769D01*
X1542396D01*
X1539857Y509308D01*
X1555092Y522004D02*
X1565249D01*
Y519465D01*
X1555092Y509308D01*
Y506769D01*
X2696124Y192383D02*
Y207617D01*
X2703741D01*
X2706281Y205078D01*
Y200000D01*
X2703741Y197461D01*
X2696124D01*
X2701202D02*
X2706281Y192383D01*
X2711359Y205078D02*
X2713898Y207617D01*
X2718976D01*
X2721516Y205078D01*
Y202539D01*
X2718976Y200000D01*
X2716437D01*
X2718976D01*
X2721516Y197461D01*
Y194922D01*
X2718976Y192383D01*
X2713898D01*
X2711359Y194922D01*
X2736750Y207617D02*
X2731672Y205078D01*
X2726594Y200000D01*
Y194922D01*
X2729133Y192383D01*
X2734211D01*
X2736750Y194922D01*
Y197461D01*
X2734211Y200000D01*
X2726594D01*
X2193182Y192383D02*
Y207617D01*
X2200799D01*
X2203338Y205078D01*
Y200000D01*
X2200799Y197461D01*
X2193182D01*
X2198260D02*
X2203338Y192383D01*
X2208417Y205078D02*
X2210956Y207617D01*
X2216034D01*
X2218573Y205078D01*
Y202539D01*
X2216034Y200000D01*
X2213495D01*
X2216034D01*
X2218573Y197461D01*
Y194922D01*
X2216034Y192383D01*
X2210956D01*
X2208417Y194922D01*
X2233808Y207617D02*
X2223652D01*
Y200000D01*
X2228730Y202539D01*
X2231269D01*
X2233808Y200000D01*
Y194922D01*
X2231269Y192383D01*
X2226191D01*
X2223652Y194922D01*
X1692035Y192383D02*
Y207617D01*
X1699652D01*
X1702192Y205078D01*
Y200000D01*
X1699652Y197461D01*
X1692035D01*
X1697113D02*
X1702192Y192383D01*
X1707270Y205078D02*
X1709809Y207617D01*
X1714888D01*
X1717427Y205078D01*
Y202539D01*
X1714888Y200000D01*
X1712348D01*
X1714888D01*
X1717427Y197461D01*
Y194922D01*
X1714888Y192383D01*
X1709809D01*
X1707270Y194922D01*
X1730123Y192383D02*
Y207617D01*
X1722505Y200000D01*
X1732662D01*
X1189248Y192383D02*
Y207617D01*
X1196866D01*
X1199405Y205078D01*
Y200000D01*
X1196866Y197461D01*
X1189248D01*
X1194327D02*
X1199405Y192383D01*
X1204483Y205078D02*
X1207023Y207617D01*
X1212101D01*
X1214640Y205078D01*
Y202539D01*
X1212101Y200000D01*
X1209562D01*
X1212101D01*
X1214640Y197461D01*
Y194922D01*
X1212101Y192383D01*
X1207023D01*
X1204483Y194922D01*
X1219718Y205078D02*
X1222258Y207617D01*
X1227336D01*
X1229875Y205078D01*
Y202539D01*
X1227336Y200000D01*
X1224797D01*
X1227336D01*
X1229875Y197461D01*
Y194922D01*
X1227336Y192383D01*
X1222258D01*
X1219718Y194922D01*
X691385Y192383D02*
Y207617D01*
X699003D01*
X701542Y205078D01*
Y200000D01*
X699003Y197461D01*
X691385D01*
X696464D02*
X701542Y192383D01*
X706620Y205078D02*
X709160Y207617D01*
X714238D01*
X716777Y205078D01*
Y202539D01*
X714238Y200000D01*
X711699D01*
X714238D01*
X716777Y197461D01*
Y194922D01*
X714238Y192383D01*
X709160D01*
X706620Y194922D01*
X732012Y192383D02*
X721856D01*
X732012Y202539D01*
Y205078D01*
X729473Y207617D01*
X724395D01*
X721856Y205078D01*
X242634Y225654D02*
Y240889D01*
X250252D01*
X252791Y238350D01*
Y233272D01*
X250252Y230732D01*
X242634D01*
X247712D02*
X252791Y225654D01*
X257869Y238350D02*
X260408Y240889D01*
X265487D01*
X268026Y238350D01*
Y235811D01*
X265487Y233272D01*
X262947D01*
X265487D01*
X268026Y230732D01*
Y228193D01*
X265487Y225654D01*
X260408D01*
X257869Y228193D01*
X273104Y225654D02*
X278183D01*
X275643D01*
Y240889D01*
X273104Y238350D01*
X2693710Y692383D02*
Y707617D01*
X2701328D01*
X2703867Y705078D01*
Y700000D01*
X2701328Y697461D01*
X2693710D01*
X2698788D02*
X2703867Y692383D01*
X2708945Y705078D02*
X2711484Y707617D01*
X2716563D01*
X2719102Y705078D01*
Y702539D01*
X2716563Y700000D01*
X2714023D01*
X2716563D01*
X2719102Y697461D01*
Y694922D01*
X2716563Y692383D01*
X2711484D01*
X2708945Y694922D01*
X2724180Y705078D02*
X2726719Y707617D01*
X2731798D01*
X2734337Y705078D01*
Y694922D01*
X2731798Y692383D01*
X2726719D01*
X2724180Y694922D01*
Y705078D01*
X2192635Y692383D02*
Y707617D01*
X2200252D01*
X2202791Y705078D01*
Y700000D01*
X2200252Y697461D01*
X2192635D01*
X2197713D02*
X2202791Y692383D01*
X2218026D02*
X2207870D01*
X2218026Y702539D01*
Y705078D01*
X2215487Y707617D01*
X2210409D01*
X2207870Y705078D01*
X2223105Y694922D02*
X2225644Y692383D01*
X2230722D01*
X2233261Y694922D01*
Y705078D01*
X2230722Y707617D01*
X2225644D01*
X2223105Y705078D01*
Y702539D01*
X2225644Y700000D01*
X2233261D01*
X1691488Y692383D02*
Y707617D01*
X1699105D01*
X1701644Y705078D01*
Y700000D01*
X1699105Y697461D01*
X1691488D01*
X1696566D02*
X1701644Y692383D01*
X1716879D02*
X1706723D01*
X1716879Y702539D01*
Y705078D01*
X1714340Y707617D01*
X1709262D01*
X1706723Y705078D01*
X1721958D02*
X1724497Y707617D01*
X1729575D01*
X1732115Y705078D01*
Y702539D01*
X1729575Y700000D01*
X1732115Y697461D01*
Y694922D01*
X1729575Y692383D01*
X1724497D01*
X1721958Y694922D01*
Y697461D01*
X1724497Y700000D01*
X1721958Y702539D01*
Y705078D01*
X1724497Y700000D02*
X1729575D01*
X1191984Y692383D02*
Y707617D01*
X1199602D01*
X1202141Y705078D01*
Y700000D01*
X1199602Y697461D01*
X1191984D01*
X1197062D02*
X1202141Y692383D01*
X1217376D02*
X1207219D01*
X1217376Y702539D01*
Y705078D01*
X1214837Y707617D01*
X1209758D01*
X1207219Y705078D01*
X1222454Y707617D02*
X1232611D01*
Y705078D01*
X1222454Y694922D01*
Y692383D01*
X693574D02*
Y707617D01*
X701191D01*
X703730Y705078D01*
Y700000D01*
X701191Y697461D01*
X693574D01*
X698652D02*
X703730Y692383D01*
X718966D02*
X708809D01*
X718966Y702539D01*
Y705078D01*
X716426Y707617D01*
X711348D01*
X708809Y705078D01*
X734201Y707617D02*
X729122Y705078D01*
X724044Y700000D01*
Y694922D01*
X726583Y692383D01*
X731662D01*
X734201Y694922D01*
Y697461D01*
X731662Y700000D01*
X724044D01*
X194069Y692383D02*
Y707617D01*
X201687D01*
X204226Y705078D01*
Y700000D01*
X201687Y697461D01*
X194069D01*
X199147D02*
X204226Y692383D01*
X219461D02*
X209304D01*
X219461Y702539D01*
Y705078D01*
X216922Y707617D01*
X211843D01*
X209304Y705078D01*
X234696Y707617D02*
X224539D01*
Y700000D01*
X229618Y702539D01*
X232157D01*
X234696Y700000D01*
Y694922D01*
X232157Y692383D01*
X227078D01*
X224539Y694922D01*
X942506Y442383D02*
Y457617D01*
X950123D01*
X952662Y455078D01*
Y450000D01*
X950123Y447461D01*
X942506D01*
X947584D02*
X952662Y442383D01*
X967897D02*
X957741D01*
X967897Y452539D01*
Y455078D01*
X965358Y457617D01*
X960280D01*
X957741Y455078D01*
X980593Y442383D02*
Y457617D01*
X972976Y450000D01*
X983132D01*
X2443208Y942383D02*
Y957617D01*
X2450825D01*
X2453365Y955078D01*
Y950000D01*
X2450825Y947461D01*
X2443208D01*
X2448286D02*
X2453365Y942383D01*
X2468600D02*
X2458443D01*
X2468600Y952539D01*
Y955078D01*
X2466060Y957617D01*
X2460982D01*
X2458443Y955078D01*
X2473678D02*
X2476217Y957617D01*
X2481295D01*
X2483835Y955078D01*
Y952539D01*
X2481295Y950000D01*
X2478756D01*
X2481295D01*
X2483835Y947461D01*
Y944922D01*
X2481295Y942383D01*
X2476217D01*
X2473678Y944922D01*
X1942061Y942383D02*
Y957617D01*
X1949679D01*
X1952218Y955078D01*
Y950000D01*
X1949679Y947461D01*
X1942061D01*
X1947139D02*
X1952218Y942383D01*
X1967453D02*
X1957296D01*
X1967453Y952539D01*
Y955078D01*
X1964914Y957617D01*
X1959835D01*
X1957296Y955078D01*
X1982688Y942383D02*
X1972531D01*
X1982688Y952539D01*
Y955078D01*
X1980149Y957617D01*
X1975070D01*
X1972531Y955078D01*
X1447284Y942383D02*
Y957617D01*
X1454901D01*
X1457441Y955078D01*
Y950000D01*
X1454901Y947461D01*
X1447284D01*
X1452362D02*
X1457441Y942383D01*
X1472676D02*
X1462519D01*
X1472676Y952539D01*
Y955078D01*
X1470137Y957617D01*
X1465058D01*
X1462519Y955078D01*
X1477754Y942383D02*
X1482832D01*
X1480293D01*
Y957617D01*
X1477754Y955078D01*
X941411Y942383D02*
Y957617D01*
X949029D01*
X951568Y955078D01*
Y950000D01*
X949029Y947461D01*
X941411D01*
X946490D02*
X951568Y942383D01*
X966803D02*
X956646D01*
X966803Y952539D01*
Y955078D01*
X964264Y957617D01*
X959186D01*
X956646Y955078D01*
X971881D02*
X974421Y957617D01*
X979499D01*
X982038Y955078D01*
Y944922D01*
X979499Y942383D01*
X974421D01*
X971881Y944922D01*
Y955078D01*
X445365Y942383D02*
Y957617D01*
X452982D01*
X455521Y955078D01*
Y950000D01*
X452982Y947461D01*
X445365D01*
X450443D02*
X455521Y942383D01*
X460600D02*
X465678D01*
X463139D01*
Y957617D01*
X460600Y955078D01*
X473296Y944922D02*
X475835Y942383D01*
X480913D01*
X483452Y944922D01*
Y955078D01*
X480913Y957617D01*
X475835D01*
X473296Y955078D01*
Y952539D01*
X475835Y950000D01*
X483452D01*
X2690909Y1192383D02*
Y1207617D01*
X2698526D01*
X2701065Y1205078D01*
Y1200000D01*
X2698526Y1197461D01*
X2690909D01*
X2695987D02*
X2701065Y1192383D01*
X2706143D02*
X2711222D01*
X2708683D01*
Y1207617D01*
X2706143Y1205078D01*
X2718839D02*
X2721378Y1207617D01*
X2726457D01*
X2728996Y1205078D01*
Y1202539D01*
X2726457Y1200000D01*
X2728996Y1197461D01*
Y1194922D01*
X2726457Y1192383D01*
X2721378D01*
X2718839Y1194922D01*
Y1197461D01*
X2721378Y1200000D01*
X2718839Y1202539D01*
Y1205078D01*
X2721378Y1200000D02*
X2726457D01*
X2198828Y1192383D02*
Y1207617D01*
X2206446D01*
X2208985Y1205078D01*
Y1200000D01*
X2206446Y1197461D01*
X2198828D01*
X2203906D02*
X2208985Y1192383D01*
X2214063D02*
X2219142D01*
X2216602D01*
Y1207617D01*
X2214063Y1205078D01*
X2226759Y1207617D02*
X2236916D01*
Y1205078D01*
X2226759Y1194922D01*
Y1192383D01*
X1696587D02*
Y1207617D01*
X1704205D01*
X1706744Y1205078D01*
Y1200000D01*
X1704205Y1197461D01*
X1696587D01*
X1701665D02*
X1706744Y1192383D01*
X1711822D02*
X1716900D01*
X1714361D01*
Y1207617D01*
X1711822Y1205078D01*
X1734675Y1207617D02*
X1729596Y1205078D01*
X1724518Y1200000D01*
Y1194922D01*
X1727057Y1192383D01*
X1732135D01*
X1734675Y1194922D01*
Y1197461D01*
X1732135Y1200000D01*
X1724518D01*
X1197083Y1192383D02*
Y1207617D01*
X1204701D01*
X1207240Y1205078D01*
Y1200000D01*
X1204701Y1197461D01*
X1197083D01*
X1202162D02*
X1207240Y1192383D01*
X1212318D02*
X1217397D01*
X1214857D01*
Y1207617D01*
X1212318Y1205078D01*
X1235171Y1207617D02*
X1225014D01*
Y1200000D01*
X1230093Y1202539D01*
X1232632D01*
X1235171Y1200000D01*
Y1194922D01*
X1232632Y1192383D01*
X1227553D01*
X1225014Y1194922D01*
X695390Y1194474D02*
Y1209709D01*
X703008D01*
X705547Y1207170D01*
Y1202092D01*
X703008Y1199553D01*
X695390D01*
X700469D02*
X705547Y1194474D01*
X710626D02*
X715704D01*
X713165D01*
Y1209709D01*
X710626Y1207170D01*
X730939Y1194474D02*
Y1209709D01*
X723322Y1202092D01*
X733478D01*
X196433Y1194474D02*
Y1209709D01*
X204050D01*
X206590Y1207170D01*
Y1202092D01*
X204050Y1199553D01*
X196433D01*
X201511D02*
X206590Y1194474D01*
X211668D02*
X216746D01*
X214207D01*
Y1209709D01*
X211668Y1207170D01*
X224364D02*
X226903Y1209709D01*
X231981D01*
X234520Y1207170D01*
Y1204631D01*
X231981Y1202092D01*
X229442D01*
X231981D01*
X234520Y1199553D01*
Y1197014D01*
X231981Y1194474D01*
X226903D01*
X224364Y1197014D01*
X447006Y442383D02*
Y457617D01*
X454623D01*
X457163Y455078D01*
Y450000D01*
X454623Y447461D01*
X447006D01*
X452084D02*
X457163Y442383D01*
X462241D02*
X467319D01*
X464780D01*
Y457617D01*
X462241Y455078D01*
X485094Y442383D02*
X474937D01*
X485094Y452539D01*
Y455078D01*
X482554Y457617D01*
X477476D01*
X474937Y455078D01*
X2452487Y1442383D02*
Y1457617D01*
X2460105D01*
X2462644Y1455078D01*
Y1450000D01*
X2460105Y1447461D01*
X2452487D01*
X2457566D02*
X2462644Y1442383D01*
X2467723D02*
X2472801D01*
X2470262D01*
Y1457617D01*
X2467723Y1455078D01*
X2480419Y1442383D02*
X2485497D01*
X2482958D01*
Y1457617D01*
X2480419Y1455078D01*
X1945519Y1442383D02*
Y1457617D01*
X1953137D01*
X1955676Y1455078D01*
Y1450000D01*
X1953137Y1447461D01*
X1945519D01*
X1950598D02*
X1955676Y1442383D01*
X1960754D02*
X1965833D01*
X1963293D01*
Y1457617D01*
X1960754Y1455078D01*
X1973450D02*
X1975989Y1457617D01*
X1981068D01*
X1983607Y1455078D01*
Y1444922D01*
X1981068Y1442383D01*
X1975989D01*
X1973450Y1444922D01*
Y1455078D01*
X1452909Y1442383D02*
Y1457617D01*
X1460527D01*
X1463066Y1455078D01*
Y1450000D01*
X1460527Y1447461D01*
X1452909D01*
X1457988D02*
X1463066Y1442383D01*
X1468144Y1444922D02*
X1470684Y1442383D01*
X1475762D01*
X1478301Y1444922D01*
Y1455078D01*
X1475762Y1457617D01*
X1470684D01*
X1468144Y1455078D01*
Y1452539D01*
X1470684Y1450000D01*
X1478301D01*
X958330Y1442383D02*
Y1457617D01*
X965947D01*
X968486Y1455078D01*
Y1450000D01*
X965947Y1447461D01*
X958330D01*
X963408D02*
X968486Y1442383D01*
X973565Y1455078D02*
X976104Y1457617D01*
X981182D01*
X983721Y1455078D01*
Y1452539D01*
X981182Y1450000D01*
X983721Y1447461D01*
Y1444922D01*
X981182Y1442383D01*
X976104D01*
X973565Y1444922D01*
Y1447461D01*
X976104Y1450000D01*
X973565Y1452539D01*
Y1455078D01*
X976104Y1450000D02*
X981182D01*
X492538Y1475541D02*
Y1490776D01*
X500156D01*
X502695Y1488237D01*
Y1483159D01*
X500156Y1480620D01*
X492538D01*
X497617D02*
X502695Y1475541D01*
X507774Y1490776D02*
X517930D01*
Y1488237D01*
X507774Y1478080D01*
Y1475541D01*
X2703042Y1692383D02*
Y1707617D01*
X2710659D01*
X2713199Y1705078D01*
Y1700000D01*
X2710659Y1697461D01*
X2703042D01*
X2708120D02*
X2713199Y1692383D01*
X2728434Y1707617D02*
X2723355Y1705078D01*
X2718277Y1700000D01*
Y1694922D01*
X2720816Y1692383D01*
X2725894D01*
X2728434Y1694922D01*
Y1697461D01*
X2725894Y1700000D01*
X2718277D01*
X2209553Y1692383D02*
Y1707617D01*
X2217170D01*
X2219709Y1705078D01*
Y1700000D01*
X2217170Y1697461D01*
X2209553D01*
X2214631D02*
X2219709Y1692383D01*
X2234945Y1707617D02*
X2224788D01*
Y1700000D01*
X2229866Y1702539D01*
X2232405D01*
X2234945Y1700000D01*
Y1694922D01*
X2232405Y1692383D01*
X2227327D01*
X2224788Y1694922D01*
X1707859Y1692383D02*
Y1707617D01*
X1715476D01*
X1718016Y1705078D01*
Y1700000D01*
X1715476Y1697461D01*
X1707859D01*
X1712937D02*
X1718016Y1692383D01*
X1730712D02*
Y1707617D01*
X1723094Y1700000D01*
X1733251D01*
X1208902Y1692383D02*
Y1707617D01*
X1216520D01*
X1219059Y1705078D01*
Y1700000D01*
X1216520Y1697461D01*
X1208902D01*
X1213980D02*
X1219059Y1692383D01*
X1224137Y1705078D02*
X1226676Y1707617D01*
X1231755D01*
X1234294Y1705078D01*
Y1702539D01*
X1231755Y1700000D01*
X1229216D01*
X1231755D01*
X1234294Y1697461D01*
Y1694922D01*
X1231755Y1692383D01*
X1226676D01*
X1224137Y1694922D01*
X707209Y1692383D02*
Y1707617D01*
X714827D01*
X717366Y1705078D01*
Y1700000D01*
X714827Y1697461D01*
X707209D01*
X712288D02*
X717366Y1692383D01*
X732601D02*
X722445D01*
X732601Y1702539D01*
Y1705078D01*
X730062Y1707617D01*
X724984D01*
X722445Y1705078D01*
X209468Y1695890D02*
Y1711125D01*
X217085D01*
X219625Y1708586D01*
Y1703508D01*
X217085Y1700968D01*
X209468D01*
X214546D02*
X219625Y1695890D01*
X224703D02*
X229781D01*
X227242D01*
Y1711125D01*
X224703Y1708586D01*
X81842Y532172D02*
Y547407D01*
X89459D01*
X91999Y544868D01*
Y539789D01*
X89459Y537250D01*
X81842D01*
X97077Y532172D02*
X102155D01*
X99616D01*
Y547407D01*
X97077Y544868D01*
X109773D02*
X112312Y547407D01*
X117390D01*
X119930Y544868D01*
Y542328D01*
X117390Y539789D01*
X119930Y537250D01*
Y534711D01*
X117390Y532172D01*
X112312D01*
X109773Y534711D01*
Y537250D01*
X112312Y539789D01*
X109773Y542328D01*
Y544868D01*
X112312Y539789D02*
X117390D01*
X2478029Y1928321D02*
Y1943556D01*
X2485647D01*
X2488186Y1941017D01*
Y1935939D01*
X2485647Y1933399D01*
X2478029D01*
X2493264Y1928321D02*
X2498342D01*
X2495803D01*
Y1943556D01*
X2493264Y1941017D01*
X2505960Y1943556D02*
X2516117D01*
Y1941017D01*
X2505960Y1930860D01*
Y1928321D01*
X1978029D02*
Y1943556D01*
X1985647D01*
X1988186Y1941017D01*
Y1935939D01*
X1985647Y1933399D01*
X1978029D01*
X1993264Y1928321D02*
X1998342D01*
X1995803D01*
Y1943556D01*
X1993264Y1941017D01*
X2016117Y1943556D02*
X2011038Y1941017D01*
X2005960Y1935939D01*
Y1930860D01*
X2008499Y1928321D01*
X2013578D01*
X2016117Y1930860D01*
Y1933399D01*
X2013578Y1935939D01*
X2005960D01*
X1478029Y1928321D02*
Y1943556D01*
X1485647D01*
X1488186Y1941017D01*
Y1935939D01*
X1485647Y1933399D01*
X1478029D01*
X1493264Y1928321D02*
X1498342D01*
X1495803D01*
Y1943556D01*
X1493264Y1941017D01*
X1516117Y1943556D02*
X1505960D01*
Y1935939D01*
X1511038Y1938478D01*
X1513578D01*
X1516117Y1935939D01*
Y1930860D01*
X1513578Y1928321D01*
X1508499D01*
X1505960Y1930860D01*
X81957Y282299D02*
Y297534D01*
X89574D01*
X92114Y294995D01*
Y289917D01*
X89574Y287377D01*
X81957D01*
X97192Y282299D02*
X102270D01*
X99731D01*
Y297534D01*
X97192Y294995D01*
X117505Y282299D02*
Y297534D01*
X109888Y289917D01*
X120044D01*
X978029Y1928321D02*
Y1943556D01*
X985647D01*
X988186Y1941017D01*
Y1935939D01*
X985647Y1933399D01*
X978029D01*
X993264Y1928321D02*
X998342D01*
X995803D01*
Y1943556D01*
X993264Y1941017D01*
X1005960D02*
X1008499Y1943556D01*
X1013577D01*
X1016117Y1941017D01*
Y1938478D01*
X1013577Y1935939D01*
X1011038D01*
X1013577D01*
X1016117Y1933399D01*
Y1930860D01*
X1013577Y1928321D01*
X1008499D01*
X1005960Y1930860D01*
X478029Y1928321D02*
Y1943556D01*
X485647D01*
X488186Y1941017D01*
Y1935939D01*
X485647Y1933399D01*
X478029D01*
X493264Y1928321D02*
X498342D01*
X495803D01*
Y1943556D01*
X493264Y1941017D01*
X516117Y1928321D02*
X505960D01*
X516117Y1938478D01*
Y1941017D01*
X513577Y1943556D01*
X508499D01*
X505960Y1941017D01*
X2728029Y1928321D02*
Y1943556D01*
X2735646D01*
X2738186Y1941017D01*
Y1935939D01*
X2735646Y1933399D01*
X2728029D01*
X2743264Y1928321D02*
X2748342D01*
X2745803D01*
Y1943556D01*
X2743264Y1941017D01*
X2755960Y1928321D02*
X2761038D01*
X2758499D01*
Y1943556D01*
X2755960Y1941017D01*
X2228029Y1928321D02*
Y1943556D01*
X2235647D01*
X2238186Y1941017D01*
Y1935939D01*
X2235647Y1933399D01*
X2228029D01*
X2243264Y1928321D02*
X2248342D01*
X2245803D01*
Y1943556D01*
X2243264Y1941017D01*
X2255960D02*
X2258499Y1943556D01*
X2263578D01*
X2266117Y1941017D01*
Y1930860D01*
X2263578Y1928321D01*
X2258499D01*
X2255960Y1930860D01*
Y1941017D01*
X81930Y782128D02*
Y797363D01*
X89547D01*
X92086Y794824D01*
Y789746D01*
X89547Y787206D01*
X81930D01*
X97165Y784667D02*
X99704Y782128D01*
X104782D01*
X107321Y784667D01*
Y794824D01*
X104782Y797363D01*
X99704D01*
X97165Y794824D01*
Y792285D01*
X99704Y789746D01*
X107321D01*
X1728029Y1928321D02*
Y1943556D01*
X1735647D01*
X1738186Y1941017D01*
Y1935939D01*
X1735647Y1933399D01*
X1728029D01*
X1743264Y1941017D02*
X1745803Y1943556D01*
X1750882D01*
X1753421Y1941017D01*
Y1938478D01*
X1750882Y1935939D01*
X1753421Y1933399D01*
Y1930860D01*
X1750882Y1928321D01*
X1745803D01*
X1743264Y1930860D01*
Y1933399D01*
X1745803Y1935939D01*
X1743264Y1938478D01*
Y1941017D01*
X1745803Y1935939D02*
X1750882D01*
X1228029Y1928321D02*
Y1943556D01*
X1235647D01*
X1238186Y1941017D01*
Y1935939D01*
X1235647Y1933399D01*
X1228029D01*
X1243264Y1943556D02*
X1253421D01*
Y1941017D01*
X1243264Y1930860D01*
Y1928321D01*
X728029D02*
Y1943556D01*
X735647D01*
X738186Y1941017D01*
Y1935939D01*
X735647Y1933399D01*
X728029D01*
X753421Y1943556D02*
X748342Y1941017D01*
X743264Y1935939D01*
Y1930860D01*
X745803Y1928321D01*
X750882D01*
X753421Y1930860D01*
Y1933399D01*
X750882Y1935939D01*
X743264D01*
X228029Y1928321D02*
Y1943556D01*
X235646D01*
X238186Y1941017D01*
Y1935939D01*
X235646Y1933399D01*
X228029D01*
X253421Y1943556D02*
X243264D01*
Y1935939D01*
X248342Y1938478D01*
X250882D01*
X253421Y1935939D01*
Y1930860D01*
X250882Y1928321D01*
X245803D01*
X243264Y1930860D01*
X81816Y1032141D02*
Y1047376D01*
X89433D01*
X91973Y1044837D01*
Y1039759D01*
X89433Y1037220D01*
X81816D01*
X104668Y1032141D02*
Y1047376D01*
X97051Y1039759D01*
X107208D01*
X81938Y1282317D02*
Y1297552D01*
X89556D01*
X92095Y1295013D01*
Y1289935D01*
X89556Y1287396D01*
X81938D01*
X97173Y1295013D02*
X99712Y1297552D01*
X104791D01*
X107330Y1295013D01*
Y1292474D01*
X104791Y1289935D01*
X102252D01*
X104791D01*
X107330Y1287396D01*
Y1284857D01*
X104791Y1282317D01*
X99712D01*
X97173Y1284857D01*
X81816Y1532157D02*
Y1547392D01*
X89433D01*
X91973Y1544853D01*
Y1539775D01*
X89433Y1537236D01*
X81816D01*
X107208Y1532157D02*
X97051D01*
X107208Y1542314D01*
Y1544853D01*
X104668Y1547392D01*
X99590D01*
X97051Y1544853D01*
X81918Y1782147D02*
Y1797382D01*
X89535D01*
X92074Y1794843D01*
Y1789765D01*
X89535Y1787226D01*
X81918D01*
X97153Y1782147D02*
X102231D01*
X99692D01*
Y1797382D01*
X97153Y1794843D01*
X2777328Y272255D02*
Y257020D01*
X2784945D01*
X2787485Y259560D01*
Y269716D01*
X2784945Y272255D01*
X2777328D01*
X2792563Y269716D02*
X2795102Y272255D01*
X2800180D01*
X2802720Y269716D01*
Y267177D01*
X2800180Y264638D01*
X2797641D01*
X2800180D01*
X2802720Y262099D01*
Y259560D01*
X2800180Y257020D01*
X2795102D01*
X2792563Y259560D01*
X2817955Y272255D02*
X2812876Y269716D01*
X2807798Y264638D01*
Y259560D01*
X2810337Y257020D01*
X2815416D01*
X2817955Y259560D01*
Y262099D01*
X2815416Y264638D01*
X2807798D01*
X2273606Y272529D02*
Y257294D01*
X2281223D01*
X2283762Y259834D01*
Y269990D01*
X2281223Y272529D01*
X2273606D01*
X2288841Y269990D02*
X2291380Y272529D01*
X2296458D01*
X2298997Y269990D01*
Y267451D01*
X2296458Y264912D01*
X2293919D01*
X2296458D01*
X2298997Y262373D01*
Y259834D01*
X2296458Y257294D01*
X2291380D01*
X2288841Y259834D01*
X2314233Y272529D02*
X2304076D01*
Y264912D01*
X2309154Y267451D01*
X2311693D01*
X2314233Y264912D01*
Y259834D01*
X2311693Y257294D01*
X2306615D01*
X2304076Y259834D01*
X1775741Y271433D02*
Y256198D01*
X1783359D01*
X1785898Y258737D01*
Y268894D01*
X1783359Y271433D01*
X1775741D01*
X1790977Y268894D02*
X1793516Y271433D01*
X1798594D01*
X1801133Y268894D01*
Y266355D01*
X1798594Y263816D01*
X1796055D01*
X1798594D01*
X1801133Y261276D01*
Y258737D01*
X1798594Y256198D01*
X1793516D01*
X1790977Y258737D01*
X1813829Y256198D02*
Y271433D01*
X1806212Y263816D01*
X1816368D01*
X1276238Y273619D02*
Y258384D01*
X1283855D01*
X1286394Y260924D01*
Y271080D01*
X1283855Y273619D01*
X1276238D01*
X1291473Y271080D02*
X1294012Y273619D01*
X1299090D01*
X1301629Y271080D01*
Y268541D01*
X1299090Y266002D01*
X1296551D01*
X1299090D01*
X1301629Y263463D01*
Y260924D01*
X1299090Y258384D01*
X1294012D01*
X1291473Y260924D01*
X1306708Y271080D02*
X1309247Y273619D01*
X1314325D01*
X1316865Y271080D01*
Y268541D01*
X1314325Y266002D01*
X1311786D01*
X1314325D01*
X1316865Y263463D01*
Y260924D01*
X1314325Y258384D01*
X1309247D01*
X1306708Y260924D01*
X774545Y272523D02*
Y257288D01*
X782163D01*
X784702Y259827D01*
Y269984D01*
X782163Y272523D01*
X774545D01*
X789780Y269984D02*
X792319Y272523D01*
X797398D01*
X799937Y269984D01*
Y267445D01*
X797398Y264906D01*
X794858D01*
X797398D01*
X799937Y262367D01*
Y259827D01*
X797398Y257288D01*
X792319D01*
X789780Y259827D01*
X815172Y257288D02*
X805015D01*
X815172Y267445D01*
Y269984D01*
X812633Y272523D01*
X807554D01*
X805015Y269984D01*
X272656Y275257D02*
Y260022D01*
X280273D01*
X282812Y262561D01*
Y272717D01*
X280273Y275257D01*
X272656D01*
X287891Y272717D02*
X290430Y275257D01*
X295508D01*
X298047Y272717D01*
Y270178D01*
X295508Y267639D01*
X292969D01*
X295508D01*
X298047Y265100D01*
Y262561D01*
X295508Y260022D01*
X290430D01*
X287891Y262561D01*
X303126Y260022D02*
X308204D01*
X305665D01*
Y275257D01*
X303126Y272717D01*
X2774510Y772293D02*
Y757058D01*
X2782127D01*
X2784666Y759597D01*
Y769754D01*
X2782127Y772293D01*
X2774510D01*
X2789745Y769754D02*
X2792284Y772293D01*
X2797362D01*
X2799901Y769754D01*
Y767214D01*
X2797362Y764675D01*
X2794823D01*
X2797362D01*
X2799901Y762136D01*
Y759597D01*
X2797362Y757058D01*
X2792284D01*
X2789745Y759597D01*
X2804980Y769754D02*
X2807519Y772293D01*
X2812597D01*
X2815137Y769754D01*
Y759597D01*
X2812597Y757058D01*
X2807519D01*
X2804980Y759597D01*
Y769754D01*
X2275247Y772034D02*
Y756799D01*
X2282865D01*
X2285404Y759338D01*
Y769495D01*
X2282865Y772034D01*
X2275247D01*
X2300639Y756799D02*
X2290482D01*
X2300639Y766956D01*
Y769495D01*
X2298100Y772034D01*
X2293021D01*
X2290482Y769495D01*
X2305717Y759338D02*
X2308256Y756799D01*
X2313335D01*
X2315874Y759338D01*
Y769495D01*
X2313335Y772034D01*
X2308256D01*
X2305717Y769495D01*
Y766956D01*
X2308256Y764417D01*
X2315874D01*
X1774647Y772579D02*
Y757344D01*
X1782265D01*
X1784804Y759883D01*
Y770040D01*
X1782265Y772579D01*
X1774647D01*
X1800039Y757344D02*
X1789882D01*
X1800039Y767501D01*
Y770040D01*
X1797500Y772579D01*
X1792422D01*
X1789882Y770040D01*
X1805117D02*
X1807657Y772579D01*
X1812735D01*
X1815274Y770040D01*
Y767501D01*
X1812735Y764961D01*
X1815274Y762422D01*
Y759883D01*
X1812735Y757344D01*
X1807657D01*
X1805117Y759883D01*
Y762422D01*
X1807657Y764961D01*
X1805117Y767501D01*
Y770040D01*
X1807657Y764961D02*
X1812735D01*
X1275691Y772577D02*
Y757342D01*
X1283308D01*
X1285847Y759881D01*
Y770038D01*
X1283308Y772577D01*
X1275691D01*
X1301082Y757342D02*
X1290926D01*
X1301082Y767499D01*
Y770038D01*
X1298543Y772577D01*
X1293465D01*
X1290926Y770038D01*
X1306161Y772577D02*
X1316318D01*
Y770038D01*
X1306161Y759881D01*
Y757342D01*
X773451Y772028D02*
Y756793D01*
X781068D01*
X783607Y759332D01*
Y769489D01*
X781068Y772028D01*
X773451D01*
X798843Y756793D02*
X788686D01*
X798843Y766950D01*
Y769489D01*
X796303Y772028D01*
X791225D01*
X788686Y769489D01*
X814078Y772028D02*
X808999Y769489D01*
X803921Y764410D01*
Y759332D01*
X806460Y756793D01*
X811538D01*
X814078Y759332D01*
Y761871D01*
X811538Y764410D01*
X803921D01*
X273399Y773667D02*
Y758432D01*
X281017D01*
X283556Y760971D01*
Y771128D01*
X281017Y773667D01*
X273399D01*
X298791Y758432D02*
X288634D01*
X298791Y768589D01*
Y771128D01*
X296252Y773667D01*
X291173D01*
X288634Y771128D01*
X314026Y773667D02*
X303869D01*
Y766050D01*
X308947Y768589D01*
X311487D01*
X314026Y766050D01*
Y760971D01*
X311487Y758432D01*
X306408D01*
X303869Y760971D01*
X1024571Y522549D02*
Y507314D01*
X1032188D01*
X1034728Y509853D01*
Y520010D01*
X1032188Y522549D01*
X1024571D01*
X1049963Y507314D02*
X1039806D01*
X1049963Y517471D01*
Y520010D01*
X1047424Y522549D01*
X1042345D01*
X1039806Y520010D01*
X1062659Y507314D02*
Y522549D01*
X1055041Y514932D01*
X1065198D01*
X2525273Y1020966D02*
Y1005731D01*
X2532891D01*
X2535430Y1008270D01*
Y1018427D01*
X2532891Y1020966D01*
X2525273D01*
X2550665Y1005731D02*
X2540508D01*
X2550665Y1015888D01*
Y1018427D01*
X2548126Y1020966D01*
X2543047D01*
X2540508Y1018427D01*
X2555743D02*
X2558282Y1020966D01*
X2563361D01*
X2565900Y1018427D01*
Y1015888D01*
X2563361Y1013348D01*
X2560822D01*
X2563361D01*
X2565900Y1010809D01*
Y1008270D01*
X2563361Y1005731D01*
X2558282D01*
X2555743Y1008270D01*
X2023032Y1022605D02*
Y1007370D01*
X2030650D01*
X2033189Y1009910D01*
Y1020066D01*
X2030650Y1022605D01*
X2023032D01*
X2048424Y1007370D02*
X2038267D01*
X2048424Y1017527D01*
Y1020066D01*
X2045885Y1022605D01*
X2040806D01*
X2038267Y1020066D01*
X2063659Y1007370D02*
X2053502D01*
X2063659Y1017527D01*
Y1020066D01*
X2061120Y1022605D01*
X2056042D01*
X2053502Y1020066D01*
X1525520Y1020962D02*
Y1005727D01*
X1533137D01*
X1535676Y1008266D01*
Y1018423D01*
X1533137Y1020962D01*
X1525520D01*
X1550911Y1005727D02*
X1540755D01*
X1550911Y1015884D01*
Y1018423D01*
X1548372Y1020962D01*
X1543294D01*
X1540755Y1018423D01*
X1555990Y1005727D02*
X1561068D01*
X1558529D01*
Y1020962D01*
X1555990Y1018423D01*
X1022930Y1021507D02*
Y1006272D01*
X1030547D01*
X1033086Y1008811D01*
Y1018968D01*
X1030547Y1021507D01*
X1022930D01*
X1048321Y1006272D02*
X1038165D01*
X1048321Y1016429D01*
Y1018968D01*
X1045782Y1021507D01*
X1040704D01*
X1038165Y1018968D01*
X1053400D02*
X1055939Y1021507D01*
X1061017D01*
X1063557Y1018968D01*
Y1008811D01*
X1061017Y1006272D01*
X1055939D01*
X1053400Y1008811D01*
Y1018968D01*
X525242Y1022054D02*
Y1006819D01*
X532859D01*
X535398Y1009358D01*
Y1019515D01*
X532859Y1022054D01*
X525242D01*
X540477Y1006819D02*
X545555D01*
X543016D01*
Y1022054D01*
X540477Y1019515D01*
X553172Y1009358D02*
X555712Y1006819D01*
X560790D01*
X563329Y1009358D01*
Y1019515D01*
X560790Y1022054D01*
X555712D01*
X553172Y1019515D01*
Y1016975D01*
X555712Y1014436D01*
X563329D01*
X2778285Y1273689D02*
Y1258454D01*
X2785902D01*
X2788441Y1260993D01*
Y1271150D01*
X2785902Y1273689D01*
X2778285D01*
X2793520Y1258454D02*
X2798598D01*
X2796059D01*
Y1273689D01*
X2793520Y1271150D01*
X2806216D02*
X2808755Y1273689D01*
X2813833D01*
X2816372Y1271150D01*
Y1268611D01*
X2813833Y1266071D01*
X2816372Y1263532D01*
Y1260993D01*
X2813833Y1258454D01*
X2808755D01*
X2806216Y1260993D01*
Y1263532D01*
X2808755Y1266071D01*
X2806216Y1268611D01*
Y1271150D01*
X2808755Y1266071D02*
X2813833D01*
X2274328Y1273727D02*
Y1258492D01*
X2281946D01*
X2284485Y1261031D01*
Y1271187D01*
X2281946Y1273727D01*
X2274328D01*
X2289563Y1258492D02*
X2294642D01*
X2292103D01*
Y1273727D01*
X2289563Y1271187D01*
X2302259Y1273727D02*
X2312416D01*
Y1271187D01*
X2302259Y1261031D01*
Y1258492D01*
X1774823Y1273177D02*
Y1257942D01*
X1782440D01*
X1784980Y1260481D01*
Y1270638D01*
X1782440Y1273177D01*
X1774823D01*
X1790058Y1257942D02*
X1795136D01*
X1792597D01*
Y1273177D01*
X1790058Y1270638D01*
X1812910Y1273177D02*
X1807832Y1270638D01*
X1802754Y1265560D01*
Y1260481D01*
X1805293Y1257942D01*
X1810371D01*
X1812910Y1260481D01*
Y1263021D01*
X1810371Y1265560D01*
X1802754D01*
X1273678Y1273175D02*
Y1257940D01*
X1281295D01*
X1283834Y1260480D01*
Y1270636D01*
X1281295Y1273175D01*
X1273678D01*
X1288913Y1257940D02*
X1293991D01*
X1291452D01*
Y1273175D01*
X1288913Y1270636D01*
X1311765Y1273175D02*
X1301608D01*
Y1265558D01*
X1306687Y1268097D01*
X1309226D01*
X1311765Y1265558D01*
Y1260480D01*
X1309226Y1257940D01*
X1304148D01*
X1301608Y1260480D01*
X773079Y1272079D02*
Y1256844D01*
X780697D01*
X783236Y1259383D01*
Y1269540D01*
X780697Y1272079D01*
X773079D01*
X788314Y1256844D02*
X793393D01*
X790853D01*
Y1272079D01*
X788314Y1269540D01*
X808628Y1256844D02*
Y1272079D01*
X801010Y1264462D01*
X811167D01*
X274121Y1278095D02*
Y1262860D01*
X281739D01*
X284278Y1265399D01*
Y1275556D01*
X281739Y1278095D01*
X274121D01*
X289356Y1262860D02*
X294435D01*
X291896D01*
Y1278095D01*
X289356Y1275556D01*
X302052D02*
X304592Y1278095D01*
X309670D01*
X312209Y1275556D01*
Y1273017D01*
X309670Y1270478D01*
X307131D01*
X309670D01*
X312209Y1267939D01*
Y1265399D01*
X309670Y1262860D01*
X304592D01*
X302052Y1265399D01*
X525242Y522002D02*
Y506767D01*
X532859D01*
X535398Y509306D01*
Y519463D01*
X532859Y522002D01*
X525242D01*
X540477Y506767D02*
X545555D01*
X543016D01*
Y522002D01*
X540477Y519463D01*
X563329Y506767D02*
X553172D01*
X563329Y516924D01*
Y519463D01*
X560790Y522002D01*
X555712D01*
X553172Y519463D01*
X2526893Y1521566D02*
Y1506331D01*
X2534511D01*
X2537050Y1508870D01*
Y1519026D01*
X2534511Y1521566D01*
X2526893D01*
X2542128Y1506331D02*
X2547207D01*
X2544668D01*
Y1521566D01*
X2542128Y1519026D01*
X2554824Y1506331D02*
X2559903D01*
X2557364D01*
Y1521566D01*
X2554824Y1519026D01*
X2027037Y1521016D02*
Y1505781D01*
X2034655D01*
X2037194Y1508320D01*
Y1518477D01*
X2034655Y1521016D01*
X2027037D01*
X2042272Y1505781D02*
X2047351D01*
X2044812D01*
Y1521016D01*
X2042272Y1518477D01*
X2054968D02*
X2057507Y1521016D01*
X2062586D01*
X2065125Y1518477D01*
Y1508320D01*
X2062586Y1505781D01*
X2057507D01*
X2054968Y1508320D01*
Y1518477D01*
X1525674Y1521561D02*
Y1506326D01*
X1533291D01*
X1535831Y1508866D01*
Y1519022D01*
X1533291Y1521561D01*
X1525674D01*
X1540909Y1508866D02*
X1543448Y1506326D01*
X1548527D01*
X1551066Y1508866D01*
Y1519022D01*
X1548527Y1521561D01*
X1543448D01*
X1540909Y1519022D01*
Y1516483D01*
X1543448Y1513944D01*
X1551066D01*
X1023982Y1521559D02*
Y1506324D01*
X1031600D01*
X1034139Y1508864D01*
Y1519020D01*
X1031600Y1521559D01*
X1023982D01*
X1039217Y1519020D02*
X1041756Y1521559D01*
X1046835D01*
X1049374Y1519020D01*
Y1516481D01*
X1046835Y1513942D01*
X1049374Y1511403D01*
Y1508864D01*
X1046835Y1506324D01*
X1041756D01*
X1039217Y1508864D01*
Y1511403D01*
X1041756Y1513942D01*
X1039217Y1516481D01*
Y1519020D01*
X1041756Y1513942D02*
X1046835D01*
X523930Y1524293D02*
Y1509058D01*
X531548D01*
X534087Y1511597D01*
Y1521754D01*
X531548Y1524293D01*
X523930D01*
X539165D02*
X549322D01*
Y1521754D01*
X539165Y1511597D01*
Y1509058D01*
X2773722Y1769596D02*
Y1754361D01*
X2781339D01*
X2783878Y1756900D01*
Y1767057D01*
X2781339Y1769596D01*
X2773722D01*
X2799114D02*
X2794035Y1767057D01*
X2788957Y1761978D01*
Y1756900D01*
X2791496Y1754361D01*
X2796574D01*
X2799114Y1756900D01*
Y1759439D01*
X2796574Y1761978D01*
X2788957D01*
X2273017Y1771590D02*
Y1756355D01*
X2280634D01*
X2283173Y1758894D01*
Y1769051D01*
X2280634Y1771590D01*
X2273017D01*
X2298408D02*
X2288252D01*
Y1763972D01*
X2293330Y1766512D01*
X2295869D01*
X2298408Y1763972D01*
Y1758894D01*
X2295869Y1756355D01*
X2290791D01*
X2288252Y1758894D01*
X1772417Y1771041D02*
Y1755806D01*
X1780035D01*
X1782574Y1758345D01*
Y1768501D01*
X1780035Y1771041D01*
X1772417D01*
X1795270Y1755806D02*
Y1771041D01*
X1787652Y1763423D01*
X1797809D01*
X1274555Y1771039D02*
Y1755804D01*
X1282172D01*
X1284711Y1758343D01*
Y1768499D01*
X1282172Y1771039D01*
X1274555D01*
X1289790Y1768499D02*
X1292329Y1771039D01*
X1297407D01*
X1299946Y1768499D01*
Y1765960D01*
X1297407Y1763421D01*
X1294868D01*
X1297407D01*
X1299946Y1760882D01*
Y1758343D01*
X1297407Y1755804D01*
X1292329D01*
X1289790Y1758343D01*
X776144Y1773225D02*
Y1757990D01*
X783762D01*
X786301Y1760529D01*
Y1770686D01*
X783762Y1773225D01*
X776144D01*
X801536Y1757990D02*
X791379D01*
X801536Y1768147D01*
Y1770686D01*
X798997Y1773225D01*
X793919D01*
X791379Y1770686D01*
X272614Y1772131D02*
Y1756896D01*
X280231D01*
X282770Y1759435D01*
Y1769592D01*
X280231Y1772131D01*
X272614D01*
X287849Y1756896D02*
X292927D01*
X290388D01*
Y1772131D01*
X287849Y1769592D01*
X3000000Y0D02*
Y2000000D01*
X0D02*
X3000000D01*
X0Y0D02*
X3000000D01*
X0D02*
Y2000000D01*
M02*
