G04*
G04 #@! TF.GenerationSoftware,Altium Limited,Altium Designer,20.0.13 (296)*
G04*
G04 Layer_Color=128*
%FSLAX44Y44*%
%MOMM*%
G71*
G01*
G75*
%ADD12C,0.2540*%
%ADD36C,0.0508*%
D12*
X3000000D02*
Y2000000D01*
X0D02*
X3000000D01*
X0Y0D02*
X3000000D01*
X0D02*
Y2000000D01*
D36*
X615500Y1772500D02*
X634500D01*
X625000Y1763000D02*
Y1782000D01*
X615500Y1927500D02*
X634500D01*
X625000Y1918000D02*
Y1937000D01*
X365500Y1772500D02*
X384500D01*
X375000Y1763000D02*
Y1782000D01*
X365500Y1927500D02*
X384500D01*
X375000Y1918000D02*
Y1937000D01*
X2884000Y1900000D02*
X2916000D01*
X2900000Y1884000D02*
Y1916000D01*
X2884000Y100000D02*
X2916000D01*
X2900000Y84000D02*
Y116000D01*
X84000Y100000D02*
X116000D01*
X100000Y84000D02*
Y116000D01*
X84000Y1900000D02*
X116000D01*
X100000Y1884000D02*
Y1916000D01*
X95550Y1737300D02*
X104450D01*
X100000Y1732850D02*
Y1741750D01*
X95550Y1762700D02*
X104450D01*
X100000Y1758250D02*
Y1767150D01*
X95550Y1487300D02*
X104450D01*
X100000Y1482850D02*
Y1491750D01*
X95550Y1512700D02*
X104450D01*
X100000Y1508250D02*
Y1517150D01*
X95550Y1237300D02*
X104450D01*
X100000Y1232850D02*
Y1241750D01*
X95550Y1262700D02*
X104450D01*
X100000Y1258250D02*
Y1267150D01*
X95550Y987300D02*
X104450D01*
X100000Y982850D02*
Y991750D01*
X95550Y1012700D02*
X104450D01*
X100000Y1008250D02*
Y1017150D01*
X232850Y1900000D02*
X241750D01*
X237300Y1895550D02*
Y1904450D01*
X258250Y1900000D02*
X267150D01*
X262700Y1895550D02*
Y1904450D01*
X732850Y1900000D02*
X741750D01*
X737300Y1895550D02*
Y1904450D01*
X758250Y1900000D02*
X767150D01*
X762700Y1895550D02*
Y1904450D01*
X1232850Y1900000D02*
X1241750D01*
X1237300Y1895550D02*
Y1904450D01*
X1258250Y1900000D02*
X1267150D01*
X1262700Y1895550D02*
Y1904450D01*
X1732850Y1900000D02*
X1741750D01*
X1737300Y1895550D02*
Y1904450D01*
X1758250Y1900000D02*
X1767150D01*
X1762700Y1895550D02*
Y1904450D01*
X95550Y737300D02*
X104450D01*
X100000Y732850D02*
Y741750D01*
X95550Y762700D02*
X104450D01*
X100000Y758250D02*
Y767150D01*
X2232850Y1900000D02*
X2241750D01*
X2237300Y1895550D02*
Y1904450D01*
X2258250Y1900000D02*
X2267150D01*
X2262700Y1895550D02*
Y1904450D01*
X2732850Y1900000D02*
X2741750D01*
X2737300Y1895550D02*
Y1904450D01*
X2758250Y1900000D02*
X2767150D01*
X2762700Y1895550D02*
Y1904450D01*
X482850Y1900000D02*
X491750D01*
X487300Y1895550D02*
Y1904450D01*
X508250Y1900000D02*
X517150D01*
X512700Y1895550D02*
Y1904450D01*
X982850Y1900000D02*
X991750D01*
X987300Y1895550D02*
Y1904450D01*
X1008250Y1900000D02*
X1017150D01*
X1012700Y1895550D02*
Y1904450D01*
X95550Y237300D02*
X104450D01*
X100000Y232850D02*
Y241750D01*
X95550Y262700D02*
X104450D01*
X100000Y258250D02*
Y267150D01*
X1482850Y1900000D02*
X1491750D01*
X1487300Y1895550D02*
Y1904450D01*
X1508250Y1900000D02*
X1517150D01*
X1512700Y1895550D02*
Y1904450D01*
X1982850Y1900000D02*
X1991750D01*
X1987300Y1895550D02*
Y1904450D01*
X2008250Y1900000D02*
X2017150D01*
X2012700Y1895550D02*
Y1904450D01*
X2482850Y1900000D02*
X2491750D01*
X2487300Y1895550D02*
Y1904450D01*
X2508250Y1900000D02*
X2517150D01*
X2512700Y1895550D02*
Y1904450D01*
X95550Y487300D02*
X104450D01*
X100000Y482850D02*
Y491750D01*
X95550Y512700D02*
X104450D01*
X100000Y508250D02*
Y517150D01*
X1246444Y790000D02*
X1253556D01*
X1250000Y786444D02*
Y793556D01*
X2746444Y1290000D02*
X2753556D01*
X2750000Y1286444D02*
Y1293556D01*
X2496444Y1540000D02*
X2503556D01*
X2500000Y1536444D02*
Y1543556D01*
X1996444Y1540000D02*
X2003556D01*
X2000000Y1536444D02*
Y1543556D01*
X2246444Y1290000D02*
X2253556D01*
X2250000Y1286444D02*
Y1293556D01*
X1746444Y1290000D02*
X1753556D01*
X1750000Y1286444D02*
Y1293556D01*
X1496444Y1540000D02*
X1503556D01*
X1500000Y1536444D02*
Y1543556D01*
X1246444Y1290000D02*
X1253556D01*
X1250000Y1286444D02*
Y1293556D01*
X1496444Y1040000D02*
X1503556D01*
X1500000Y1036444D02*
Y1043556D01*
X1996444Y1040000D02*
X2003556D01*
X2000000Y1036444D02*
Y1043556D01*
X2496444Y1040000D02*
X2503556D01*
X2500000Y1036444D02*
Y1043556D01*
X2746444Y790000D02*
X2753556D01*
X2750000Y786444D02*
Y793556D01*
X2246444Y790000D02*
X2253556D01*
X2250000Y786444D02*
Y793556D01*
X1746444Y790000D02*
X1753556D01*
X1750000Y786444D02*
Y793556D01*
X1996444Y540000D02*
X2003556D01*
X2000000Y536444D02*
Y543556D01*
X2496444Y540000D02*
X2503556D01*
X2500000Y536444D02*
Y543556D01*
X2746444Y290000D02*
X2753556D01*
X2750000Y286444D02*
Y293556D01*
X2246444Y290000D02*
X2253556D01*
X2250000Y286444D02*
Y293556D01*
X1746444Y290000D02*
X1753556D01*
X1750000Y286444D02*
Y293556D01*
X1496444Y540000D02*
X1503556D01*
X1500000Y536444D02*
Y543556D01*
X1246444Y290000D02*
X1253556D01*
X1250000Y286444D02*
Y293556D01*
X996444Y540000D02*
X1003556D01*
X1000000Y536444D02*
Y543556D01*
X996444Y1040000D02*
X1003556D01*
X1000000Y1036444D02*
Y1043556D01*
X996444Y1540000D02*
X1003556D01*
X1000000Y1536444D02*
Y1543556D01*
X746444Y1290000D02*
X753556D01*
X750000Y1286444D02*
Y1293556D01*
X746444Y790000D02*
X753556D01*
X750000Y786444D02*
Y793556D01*
X746444Y290000D02*
X753556D01*
X750000Y286444D02*
Y293556D01*
X496444Y540000D02*
X503556D01*
X500000Y536444D02*
Y543556D01*
X496444Y1040000D02*
X503556D01*
X500000Y1036444D02*
Y1043556D01*
X496444Y1540000D02*
X503556D01*
X500000Y1536444D02*
Y1543556D01*
X246444Y290000D02*
X253556D01*
X250000Y286444D02*
Y293556D01*
X246444Y790000D02*
X253556D01*
X250000Y786444D02*
Y793556D01*
X246444Y1290000D02*
X253556D01*
X250000Y1286444D02*
Y1293556D01*
M02*
