G04*
G04 #@! TF.GenerationSoftware,Altium Limited,Altium Designer,20.0.13 (296)*
G04*
G04 Layer_Color=16711935*
%FSLAX44Y44*%
%MOMM*%
G71*
G01*
G75*
%ADD12C,0.2540*%
%ADD19C,4.2032*%
%ADD20C,6.2032*%
%ADD21R,1.6032X1.6032*%
%ADD22C,1.6032*%
%ADD23R,1.6032X1.6032*%
%ADD24C,1.4732*%
D12*
X3000000D02*
Y2000000D01*
X0D02*
X3000000D01*
X0Y0D02*
X3000000D01*
X0D02*
Y2000000D01*
D19*
X625000Y1772500D02*
D03*
Y1927500D02*
D03*
X375000Y1772500D02*
D03*
Y1927500D02*
D03*
D20*
X2900000Y1900000D02*
D03*
Y100000D02*
D03*
X100000D02*
D03*
Y1900000D02*
D03*
D21*
Y1737300D02*
D03*
Y1487300D02*
D03*
Y1237300D02*
D03*
Y987300D02*
D03*
Y737300D02*
D03*
Y237300D02*
D03*
Y487300D02*
D03*
D22*
Y1762700D02*
D03*
Y1512700D02*
D03*
Y1262700D02*
D03*
Y1012700D02*
D03*
X262700Y1900000D02*
D03*
X762700D02*
D03*
X1262700D02*
D03*
X1762700D02*
D03*
X100000Y762700D02*
D03*
X2262700Y1900000D02*
D03*
X2762700D02*
D03*
X512700D02*
D03*
X1012700D02*
D03*
X100000Y262700D02*
D03*
X1512700Y1900000D02*
D03*
X2012700D02*
D03*
X2512700D02*
D03*
X100000Y512700D02*
D03*
D23*
X237300Y1900000D02*
D03*
X737300D02*
D03*
X1237300D02*
D03*
X1737300D02*
D03*
X2237300D02*
D03*
X2737300D02*
D03*
X487300D02*
D03*
X987300D02*
D03*
X1487300D02*
D03*
X1987300D02*
D03*
X2487300D02*
D03*
D24*
X1250000Y790000D02*
D03*
X2750000Y1290000D02*
D03*
X2500000Y1540000D02*
D03*
X2000000D02*
D03*
X2250000Y1290000D02*
D03*
X1750000D02*
D03*
X1500000Y1540000D02*
D03*
X1250000Y1290000D02*
D03*
X1500000Y1040000D02*
D03*
X2000000D02*
D03*
X2500000D02*
D03*
X2750000Y790000D02*
D03*
X2250000D02*
D03*
X1750000D02*
D03*
X2000000Y540000D02*
D03*
X2500000D02*
D03*
X2750000Y290000D02*
D03*
X2250000D02*
D03*
X1750000D02*
D03*
X1500000Y540000D02*
D03*
X1250000Y290000D02*
D03*
X1000000Y540000D02*
D03*
Y1040000D02*
D03*
Y1540000D02*
D03*
X750000Y1290000D02*
D03*
Y790000D02*
D03*
Y290000D02*
D03*
X500000Y540000D02*
D03*
Y1040000D02*
D03*
Y1540000D02*
D03*
X250000Y290000D02*
D03*
Y790000D02*
D03*
Y1290000D02*
D03*
M02*
