G04*
G04 #@! TF.GenerationSoftware,Altium Limited,Altium Designer,20.0.13 (296)*
G04*
G04 Layer_Color=32768*
%FSLAX44Y44*%
%MOMM*%
G71*
G01*
G75*
%ADD12C,0.2540*%
%ADD33C,0.1000*%
%ADD35C,0.0500*%
D12*
X2000000D02*
Y2000000D01*
X0D02*
X2000000D01*
X0Y0D02*
X2000000D01*
X0D02*
Y2000000D01*
D33*
X620000Y1850000D02*
X630000D01*
X625000Y1845000D02*
Y1855000D01*
X370000Y1850000D02*
X380000D01*
X375000Y1845000D02*
Y1855000D01*
X1494987Y199664D02*
X1504987D01*
X1499987Y194664D02*
Y204664D01*
X1509487Y182164D02*
Y217164D01*
X1490487Y182164D02*
Y217164D01*
X1509487D01*
X1490487Y182164D02*
X1509487D01*
X1494987Y249664D02*
X1504987D01*
X1499987Y244664D02*
Y254664D01*
X1494987Y699664D02*
X1504987D01*
X1499987Y694664D02*
Y704664D01*
X1509487Y682164D02*
Y717164D01*
X1490487Y682164D02*
Y717164D01*
X1509487D01*
X1490487Y682164D02*
X1509487D01*
X1494987Y749664D02*
X1504987D01*
X1499987Y744664D02*
Y754664D01*
X1494987Y1199664D02*
X1504987D01*
X1499987Y1194664D02*
Y1204664D01*
X1509487Y1182164D02*
Y1217164D01*
X1490487Y1182164D02*
Y1217164D01*
X1509487D01*
X1490487Y1182164D02*
X1509487D01*
X1494987Y1249664D02*
X1504987D01*
X1499987Y1244664D02*
Y1254664D01*
X1494987Y1699664D02*
X1504987D01*
X1499987Y1694664D02*
Y1704664D01*
X1509487Y1682164D02*
Y1717164D01*
X1490487Y1682164D02*
Y1717164D01*
X1509487D01*
X1490487Y1682164D02*
X1509487D01*
X1494987Y1749664D02*
X1504987D01*
X1499987Y1744664D02*
Y1754664D01*
X1244839Y1449961D02*
X1254839D01*
X1249839Y1444961D02*
Y1454961D01*
X1259339Y1432461D02*
Y1467461D01*
X1240339Y1432461D02*
Y1467461D01*
X1259339D01*
X1240339Y1432461D02*
X1259339D01*
X1244839Y1499961D02*
X1254839D01*
X1249839Y1494961D02*
Y1504961D01*
X1244839Y999961D02*
X1254839D01*
X1249839Y994961D02*
Y1004961D01*
Y494961D02*
Y504961D01*
X1244839Y499961D02*
X1254839D01*
X1240339Y432461D02*
X1259339D01*
X1240339Y467461D02*
X1259339D01*
X1240339Y432461D02*
Y467461D01*
X1259339Y432461D02*
Y467461D01*
X1249839Y444961D02*
Y454961D01*
X1244839Y449961D02*
X1254839D01*
X994908Y199795D02*
X1004908D01*
X999908Y194795D02*
Y204795D01*
X1009408Y182295D02*
Y217295D01*
X990408Y182295D02*
Y217295D01*
X1009408D01*
X990408Y182295D02*
X1009408D01*
X994908Y249795D02*
X1004908D01*
X999908Y244795D02*
Y254795D01*
X994908Y699795D02*
X1004908D01*
X999908Y694795D02*
Y704795D01*
X1009408Y682295D02*
Y717295D01*
X990408Y682295D02*
Y717295D01*
X1009408D01*
X990408Y682295D02*
X1009408D01*
X994908Y749795D02*
X1004908D01*
X999908Y744795D02*
Y754795D01*
X994908Y1199795D02*
X1004908D01*
X999908Y1194795D02*
Y1204795D01*
X1009408Y1182295D02*
Y1217295D01*
X990408Y1182295D02*
Y1217295D01*
X1009408D01*
X990408Y1182295D02*
X1009408D01*
X994908Y1249795D02*
X1004908D01*
X999908Y1244795D02*
Y1254795D01*
X994908Y1699795D02*
X1004908D01*
X999908Y1694795D02*
Y1704795D01*
X1009408Y1682295D02*
Y1717295D01*
X990408Y1682295D02*
Y1717295D01*
X1009408D01*
X990408Y1682295D02*
X1009408D01*
X994908Y1749795D02*
X1004908D01*
X999908Y1744795D02*
Y1754795D01*
X1745341Y1451270D02*
X1755341D01*
X1750341Y1446270D02*
Y1456270D01*
X1759841Y1433770D02*
Y1468770D01*
X1740841Y1433770D02*
Y1468770D01*
X1759841D01*
X1740841Y1433770D02*
X1759841D01*
X1745341Y1501270D02*
X1755341D01*
X1750341Y1496270D02*
Y1506270D01*
X1745000Y950505D02*
X1755000D01*
X1750000Y945505D02*
Y955505D01*
X1759500Y933005D02*
Y968005D01*
X1740500Y933005D02*
Y968005D01*
X1759500D01*
X1740500Y933005D02*
X1759500D01*
X1745000Y1000505D02*
X1755000D01*
X1750000Y995505D02*
Y1005505D01*
X1750159Y494897D02*
Y504897D01*
X1745159Y499897D02*
X1755159D01*
X1740659Y432397D02*
X1759659D01*
X1740659Y467397D02*
X1759659D01*
X1740659Y432397D02*
Y467397D01*
X1759659Y432397D02*
Y467397D01*
X1750159Y444897D02*
Y454897D01*
X1745159Y449897D02*
X1755159D01*
X1745000Y200000D02*
X1755000D01*
X1750000Y195000D02*
Y205000D01*
X1759500Y182500D02*
Y217500D01*
X1740500Y182500D02*
Y217500D01*
X1759500D01*
X1740500Y182500D02*
X1759500D01*
X1745000Y250000D02*
X1755000D01*
X1750000Y245000D02*
Y255000D01*
X1745000Y700000D02*
X1755000D01*
X1750000Y695000D02*
Y705000D01*
X1759500Y682500D02*
Y717500D01*
X1740500Y682500D02*
Y717500D01*
X1759500D01*
X1740500Y682500D02*
X1759500D01*
X1745000Y750000D02*
X1755000D01*
X1750000Y745000D02*
Y755000D01*
X1745000Y1200000D02*
X1755000D01*
X1750000Y1195000D02*
Y1205000D01*
X1759500Y1182500D02*
Y1217500D01*
X1740500Y1182500D02*
Y1217500D01*
X1759500D01*
X1740500Y1182500D02*
X1759500D01*
X1745000Y1250000D02*
X1755000D01*
X1750000Y1245000D02*
Y1255000D01*
X1745000Y1700000D02*
X1755000D01*
X1750000Y1695000D02*
Y1705000D01*
X1759500Y1682500D02*
Y1717500D01*
X1740500Y1682500D02*
Y1717500D01*
X1759500D01*
X1740500Y1682500D02*
X1759500D01*
X1745000Y1750000D02*
X1755000D01*
X1750000Y1745000D02*
Y1755000D01*
X1495000Y1500000D02*
X1505000D01*
X1500000Y1495000D02*
Y1505000D01*
X1495000Y1450000D02*
X1505000D01*
X1500000Y1445000D02*
Y1455000D01*
X1509500Y1432500D02*
Y1467500D01*
X1490500Y1432500D02*
Y1467500D01*
X1509500D01*
X1490500Y1432500D02*
X1509500D01*
X1495000Y950000D02*
X1505000D01*
X1500000Y945000D02*
Y955000D01*
X1509500Y932500D02*
Y967500D01*
X1490500Y932500D02*
Y967500D01*
X1509500D01*
X1490500Y932500D02*
X1509500D01*
X1495000Y1000000D02*
X1505000D01*
X1500000Y995000D02*
Y1005000D01*
Y495000D02*
Y505000D01*
X1495000Y500000D02*
X1505000D01*
X1490500Y432500D02*
X1509500D01*
X1490500Y467500D02*
X1509500D01*
X1490500Y432500D02*
Y467500D01*
X1509500Y432500D02*
Y467500D01*
X1500000Y445000D02*
Y455000D01*
X1495000Y450000D02*
X1505000D01*
X1245000Y200000D02*
X1255000D01*
X1250000Y195000D02*
Y205000D01*
X1259500Y182500D02*
Y217500D01*
X1240500Y182500D02*
Y217500D01*
X1259500D01*
X1240500Y182500D02*
X1259500D01*
X1245000Y250000D02*
X1255000D01*
X1250000Y245000D02*
Y255000D01*
X1245000Y700000D02*
X1255000D01*
X1250000Y695000D02*
Y705000D01*
X1259500Y682500D02*
Y717500D01*
X1240500Y682500D02*
Y717500D01*
X1259500D01*
X1240500Y682500D02*
X1259500D01*
X1245000Y750000D02*
X1255000D01*
X1250000Y745000D02*
Y755000D01*
X1245000Y1200000D02*
X1255000D01*
X1250000Y1195000D02*
Y1205000D01*
X1259500Y1182500D02*
Y1217500D01*
X1240500Y1182500D02*
Y1217500D01*
X1259500D01*
X1240500Y1182500D02*
X1259500D01*
X1245000Y1250000D02*
X1255000D01*
X1250000Y1245000D02*
Y1255000D01*
X1245000Y1700000D02*
X1255000D01*
X1250000Y1695000D02*
Y1705000D01*
X1259500Y1682500D02*
Y1717500D01*
X1240500Y1682500D02*
Y1717500D01*
X1259500D01*
X1240500Y1682500D02*
X1259500D01*
X1245000Y1750000D02*
X1255000D01*
X1250000Y1745000D02*
Y1755000D01*
X745000Y1700000D02*
X755000D01*
X750000Y1695000D02*
Y1705000D01*
X759500Y1682500D02*
Y1717500D01*
X740500Y1682500D02*
Y1717500D01*
X759500D01*
X740500Y1682500D02*
X759500D01*
X995000Y1500000D02*
X1005000D01*
X1000000Y1495000D02*
Y1505000D01*
X995000Y1450000D02*
X1005000D01*
X1000000Y1445000D02*
Y1455000D01*
X1009500Y1432500D02*
Y1467500D01*
X990500Y1432500D02*
Y1467500D01*
X1009500D01*
X990500Y1432500D02*
X1009500D01*
X995000Y1000000D02*
X1005000D01*
X1000000Y995000D02*
Y1005000D01*
X995000Y950000D02*
X1005000D01*
X1000000Y945000D02*
Y955000D01*
X1009500Y932500D02*
Y967500D01*
X990500Y932500D02*
Y967500D01*
X1009500D01*
X990500Y932500D02*
X1009500D01*
X995000Y500000D02*
X1005000D01*
X1000000Y495000D02*
Y505000D01*
X995000Y450000D02*
X1005000D01*
X1000000Y445000D02*
Y455000D01*
X1009500Y432500D02*
Y467500D01*
X990500Y432500D02*
Y467500D01*
X1009500D01*
X990500Y432500D02*
X1009500D01*
X745000Y200000D02*
X755000D01*
X750000Y195000D02*
Y205000D01*
X759500Y182500D02*
Y217500D01*
X740500Y182500D02*
Y217500D01*
X759500D01*
X740500Y182500D02*
X759500D01*
X745000Y250000D02*
X755000D01*
X750000Y245000D02*
Y255000D01*
X495000Y450000D02*
X505000D01*
X500000Y445000D02*
Y455000D01*
X509500Y432500D02*
Y467500D01*
X490500Y432500D02*
Y467500D01*
X509500D01*
X490500Y432500D02*
X509500D01*
X245000Y700000D02*
X255000D01*
X250000Y695000D02*
Y705000D01*
X259500Y682500D02*
Y717500D01*
X240500Y682500D02*
Y717500D01*
X259500D01*
X240500Y682500D02*
X259500D01*
X745000Y700000D02*
X755000D01*
X750000Y695000D02*
Y705000D01*
X759500Y682500D02*
Y717500D01*
X740500Y682500D02*
Y717500D01*
X759500D01*
X740500Y682500D02*
X759500D01*
X745000Y750000D02*
X755000D01*
X750000Y745000D02*
Y755000D01*
X745000Y1250000D02*
X755000D01*
X750000Y1245000D02*
Y1255000D01*
X245000Y1200000D02*
X255000D01*
X250000Y1195000D02*
Y1205000D01*
X259500Y1182500D02*
Y1217500D01*
X240500Y1182500D02*
Y1217500D01*
X259500D01*
X240500Y1182500D02*
X259500D01*
X745000Y1200000D02*
X755000D01*
X750000Y1195000D02*
Y1205000D01*
X759500Y1182500D02*
Y1217500D01*
X740500Y1182500D02*
Y1217500D01*
X759500D01*
X740500Y1182500D02*
X759500D01*
X245000Y1750000D02*
X255000D01*
X250000Y1745000D02*
Y1755000D01*
X745000Y1750000D02*
X755000D01*
X750000Y1745000D02*
Y1755000D01*
X495000Y1500000D02*
X505000D01*
X500000Y1495000D02*
Y1505000D01*
X495000Y1000000D02*
X505000D01*
X500000Y995000D02*
Y1005000D01*
X495000Y500000D02*
X505000D01*
X500000Y495000D02*
Y505000D01*
X245000Y250000D02*
X255000D01*
X250000Y245000D02*
Y255000D01*
X245000Y750000D02*
X255000D01*
X250000Y745000D02*
Y755000D01*
X245000Y1250000D02*
X255000D01*
X250000Y1245000D02*
Y1255000D01*
X245000Y1700000D02*
X255000D01*
X250000Y1695000D02*
Y1705000D01*
X259500Y1682500D02*
Y1717500D01*
X240500Y1682500D02*
Y1717500D01*
X259500D01*
X240500Y1682500D02*
X259500D01*
X490500Y932500D02*
X509500D01*
X490500Y967500D02*
X509500D01*
X490500Y932500D02*
Y967500D01*
X509500Y932500D02*
Y967500D01*
X500000Y945000D02*
Y955000D01*
X495000Y950000D02*
X505000D01*
X1240339Y932461D02*
X1259339D01*
X1240339Y967461D02*
X1259339D01*
X1240339Y932461D02*
Y967461D01*
X1259339Y932461D02*
Y967461D01*
X1249839Y944961D02*
Y954961D01*
X1244839Y949961D02*
X1254839D01*
X490500Y1432500D02*
X509500D01*
X490500Y1467500D02*
X509500D01*
X490500Y1432500D02*
Y1467500D01*
X509500Y1432500D02*
Y1467500D01*
X500000Y1445000D02*
Y1455000D01*
X495000Y1450000D02*
X505000D01*
X100000Y1745000D02*
Y1755000D01*
X95000Y1750000D02*
X105000D01*
X100000Y1495000D02*
Y1505000D01*
X95000Y1500000D02*
X105000D01*
X100000Y1245000D02*
Y1255000D01*
X95000Y1250000D02*
X105000D01*
X100000Y995000D02*
Y1005000D01*
X95000Y1000000D02*
X105000D01*
X245000Y1900000D02*
X255000D01*
X250000Y1895000D02*
Y1905000D01*
X745000Y1900000D02*
X755000D01*
X750000Y1895000D02*
Y1905000D01*
X1195000Y1900000D02*
X1205000D01*
X1200000Y1895000D02*
Y1905000D01*
X1695000Y1900000D02*
X1705000D01*
X1700000Y1895000D02*
Y1905000D01*
X100000Y745000D02*
Y755000D01*
X95000Y750000D02*
X105000D01*
X945000Y1900000D02*
X955000D01*
X950000Y1895000D02*
Y1905000D01*
X1445000Y1900000D02*
X1455000D01*
X1450000Y1895000D02*
Y1905000D01*
X495000Y1900000D02*
X505000D01*
X500000Y1895000D02*
Y1905000D01*
X240500Y182500D02*
X259500D01*
X240500Y217500D02*
X259500D01*
X240500Y182500D02*
Y217500D01*
X259500Y182500D02*
Y217500D01*
X250000Y195000D02*
Y205000D01*
X245000Y200000D02*
X255000D01*
X1045000Y1900000D02*
X1055000D01*
X1050000Y1895000D02*
Y1905000D01*
X100000Y245000D02*
Y255000D01*
X95000Y250000D02*
X105000D01*
X1545000Y1900000D02*
X1555000D01*
X1550000Y1895000D02*
Y1905000D01*
X1795000Y1900000D02*
X1805000D01*
X1800000Y1895000D02*
Y1905000D01*
X1295000Y1900000D02*
X1305000D01*
X1300000Y1895000D02*
Y1905000D01*
X100000Y495000D02*
Y505000D01*
X95000Y500000D02*
X105000D01*
D35*
X679000Y1736250D02*
Y1976000D01*
X571000Y1736250D02*
Y1976000D01*
X679000D01*
X571000Y1736250D02*
X679000D01*
X429000D02*
Y1976000D01*
X321000Y1736250D02*
Y1976000D01*
X429000D01*
X321000Y1736250D02*
X429000D01*
X1483487Y223914D02*
Y275414D01*
X1516487Y223914D02*
Y275414D01*
X1483487Y223914D02*
X1516487D01*
X1483487Y275414D02*
X1516487D01*
X1483487Y723914D02*
Y775414D01*
X1516487Y723914D02*
Y775414D01*
X1483487Y723914D02*
X1516487D01*
X1483487Y775414D02*
X1516487D01*
X1483487Y1223914D02*
Y1275414D01*
X1516487Y1223914D02*
Y1275414D01*
X1483487Y1223914D02*
X1516487D01*
X1483487Y1275414D02*
X1516487D01*
X1483487Y1723914D02*
Y1775414D01*
X1516487Y1723914D02*
Y1775414D01*
X1483487Y1723914D02*
X1516487D01*
X1483487Y1775414D02*
X1516487D01*
X1233339Y1474211D02*
Y1525711D01*
X1266339Y1474211D02*
Y1525711D01*
X1233339Y1474211D02*
X1266339D01*
X1233339Y1525711D02*
X1266339D01*
X1233339Y974211D02*
Y1025711D01*
X1266339Y974211D02*
Y1025711D01*
X1233339Y974211D02*
X1266339D01*
X1233339Y1025711D02*
X1266339D01*
X1233339Y525711D02*
X1266339D01*
X1233339Y474211D02*
X1266339D01*
Y525711D01*
X1233339Y474211D02*
Y525711D01*
X983408Y224045D02*
Y275545D01*
X1016408Y224045D02*
Y275545D01*
X983408Y224045D02*
X1016408D01*
X983408Y275545D02*
X1016408D01*
X983408Y724045D02*
Y775545D01*
X1016408Y724045D02*
Y775545D01*
X983408Y724045D02*
X1016408D01*
X983408Y775545D02*
X1016408D01*
X983408Y1224045D02*
Y1275545D01*
X1016408Y1224045D02*
Y1275545D01*
X983408Y1224045D02*
X1016408D01*
X983408Y1275545D02*
X1016408D01*
X983408Y1724045D02*
Y1775545D01*
X1016408Y1724045D02*
Y1775545D01*
X983408Y1724045D02*
X1016408D01*
X983408Y1775545D02*
X1016408D01*
X1733841Y1475520D02*
Y1527020D01*
X1766841Y1475520D02*
Y1527020D01*
X1733841Y1475520D02*
X1766841D01*
X1733841Y1527020D02*
X1766841D01*
X1733500Y974755D02*
Y1026255D01*
X1766500Y974755D02*
Y1026255D01*
X1733500Y974755D02*
X1766500D01*
X1733500Y1026255D02*
X1766500D01*
X1733659Y525647D02*
X1766659D01*
X1733659Y474147D02*
X1766659D01*
Y525647D01*
X1733659Y474147D02*
Y525647D01*
X1733500Y224250D02*
Y275750D01*
X1766500Y224250D02*
Y275750D01*
X1733500Y224250D02*
X1766500D01*
X1733500Y275750D02*
X1766500D01*
X1733500Y724250D02*
Y775750D01*
X1766500Y724250D02*
Y775750D01*
X1733500Y724250D02*
X1766500D01*
X1733500Y775750D02*
X1766500D01*
X1733500Y1224250D02*
Y1275750D01*
X1766500Y1224250D02*
Y1275750D01*
X1733500Y1224250D02*
X1766500D01*
X1733500Y1275750D02*
X1766500D01*
X1733500Y1724250D02*
Y1775750D01*
X1766500Y1724250D02*
Y1775750D01*
X1733500Y1724250D02*
X1766500D01*
X1733500Y1775750D02*
X1766500D01*
X1483500Y1474250D02*
Y1525750D01*
X1516500Y1474250D02*
Y1525750D01*
X1483500Y1474250D02*
X1516500D01*
X1483500Y1525750D02*
X1516500D01*
X1483500Y974250D02*
Y1025750D01*
X1516500Y974250D02*
Y1025750D01*
X1483500Y974250D02*
X1516500D01*
X1483500Y1025750D02*
X1516500D01*
X1483500Y525750D02*
X1516500D01*
X1483500Y474250D02*
X1516500D01*
Y525750D01*
X1483500Y474250D02*
Y525750D01*
X1233500Y224250D02*
Y275750D01*
X1266500Y224250D02*
Y275750D01*
X1233500Y224250D02*
X1266500D01*
X1233500Y275750D02*
X1266500D01*
X1233500Y724250D02*
Y775750D01*
X1266500Y724250D02*
Y775750D01*
X1233500Y724250D02*
X1266500D01*
X1233500Y775750D02*
X1266500D01*
X1233500Y1224250D02*
Y1275750D01*
X1266500Y1224250D02*
Y1275750D01*
X1233500Y1224250D02*
X1266500D01*
X1233500Y1275750D02*
X1266500D01*
X1233500Y1724250D02*
Y1775750D01*
X1266500Y1724250D02*
Y1775750D01*
X1233500Y1724250D02*
X1266500D01*
X1233500Y1775750D02*
X1266500D01*
X983500Y1474250D02*
Y1525750D01*
X1016500Y1474250D02*
Y1525750D01*
X983500Y1474250D02*
X1016500D01*
X983500Y1525750D02*
X1016500D01*
X983500Y974250D02*
Y1025750D01*
X1016500Y974250D02*
Y1025750D01*
X983500Y974250D02*
X1016500D01*
X983500Y1025750D02*
X1016500D01*
X983500Y474250D02*
Y525750D01*
X1016500Y474250D02*
Y525750D01*
X983500Y474250D02*
X1016500D01*
X983500Y525750D02*
X1016500D01*
X733500Y224250D02*
Y275750D01*
X766500Y224250D02*
Y275750D01*
X733500Y224250D02*
X766500D01*
X733500Y275750D02*
X766500D01*
X733500Y724250D02*
Y775750D01*
X766500Y724250D02*
Y775750D01*
X733500Y724250D02*
X766500D01*
X733500Y775750D02*
X766500D01*
X733500Y1224250D02*
Y1275750D01*
X766500Y1224250D02*
Y1275750D01*
X733500Y1224250D02*
X766500D01*
X733500Y1275750D02*
X766500D01*
X233500Y1724250D02*
Y1775750D01*
X266500Y1724250D02*
Y1775750D01*
X233500Y1724250D02*
X266500D01*
X233500Y1775750D02*
X266500D01*
X733500Y1724250D02*
Y1775750D01*
X766500Y1724250D02*
Y1775750D01*
X733500Y1724250D02*
X766500D01*
X733500Y1775750D02*
X766500D01*
X483500Y1474250D02*
Y1525750D01*
X516500Y1474250D02*
Y1525750D01*
X483500Y1474250D02*
X516500D01*
X483500Y1525750D02*
X516500D01*
X483500Y974250D02*
Y1025750D01*
X516500Y974250D02*
Y1025750D01*
X483500Y974250D02*
X516500D01*
X483500Y1025750D02*
X516500D01*
X483500Y474250D02*
Y525750D01*
X516500Y474250D02*
Y525750D01*
X483500Y474250D02*
X516500D01*
X483500Y525750D02*
X516500D01*
X233500Y224250D02*
Y275750D01*
X266500Y224250D02*
Y275750D01*
X233500Y224250D02*
X266500D01*
X233500Y275750D02*
X266500D01*
X233500Y724250D02*
Y775750D01*
X266500Y724250D02*
Y775750D01*
X233500Y724250D02*
X266500D01*
X233500Y775750D02*
X266500D01*
X233500Y1224250D02*
Y1275750D01*
X266500Y1224250D02*
Y1275750D01*
X233500Y1224250D02*
X266500D01*
X233500Y1275750D02*
X266500D01*
X87300Y1725650D02*
X112700D01*
X87300Y1774350D02*
X112700D01*
X87300Y1725650D02*
Y1774350D01*
X112700Y1725650D02*
Y1774350D01*
X87300Y1475650D02*
X112700D01*
X87300Y1524350D02*
X112700D01*
X87300Y1475650D02*
Y1524350D01*
X112700Y1475650D02*
Y1524350D01*
X87300Y1225650D02*
X112700D01*
X87300Y1274350D02*
X112700D01*
X87300Y1225650D02*
Y1274350D01*
X112700Y1225650D02*
Y1274350D01*
X87300Y975650D02*
X112700D01*
X87300Y1024350D02*
X112700D01*
X87300Y975650D02*
Y1024350D01*
X112700Y975650D02*
Y1024350D01*
X225650Y1887300D02*
Y1912700D01*
X274350Y1887300D02*
Y1912700D01*
X225650D02*
X274350D01*
X225650Y1887300D02*
X274350D01*
X725650D02*
Y1912700D01*
X774350Y1887300D02*
Y1912700D01*
X725650D02*
X774350D01*
X725650Y1887300D02*
X774350D01*
X1175650D02*
Y1912700D01*
X1224350Y1887300D02*
Y1912700D01*
X1175650D02*
X1224350D01*
X1175650Y1887300D02*
X1224350D01*
X1675650D02*
Y1912700D01*
X1724350Y1887300D02*
Y1912700D01*
X1675650D02*
X1724350D01*
X1675650Y1887300D02*
X1724350D01*
X87300Y725650D02*
X112700D01*
X87300Y774350D02*
X112700D01*
X87300Y725650D02*
Y774350D01*
X112700Y725650D02*
Y774350D01*
X925650Y1887300D02*
Y1912700D01*
X974350Y1887300D02*
Y1912700D01*
X925650D02*
X974350D01*
X925650Y1887300D02*
X974350D01*
X1425650D02*
Y1912700D01*
X1474350Y1887300D02*
Y1912700D01*
X1425650D02*
X1474350D01*
X1425650Y1887300D02*
X1474350D01*
X475650D02*
Y1912700D01*
X524350Y1887300D02*
Y1912700D01*
X475650D02*
X524350D01*
X475650Y1887300D02*
X524350D01*
X1025650D02*
Y1912700D01*
X1074350Y1887300D02*
Y1912700D01*
X1025650D02*
X1074350D01*
X1025650Y1887300D02*
X1074350D01*
X87300Y225650D02*
X112700D01*
X87300Y274350D02*
X112700D01*
X87300Y225650D02*
Y274350D01*
X112700Y225650D02*
Y274350D01*
X1525650Y1887300D02*
Y1912700D01*
X1574350Y1887300D02*
Y1912700D01*
X1525650D02*
X1574350D01*
X1525650Y1887300D02*
X1574350D01*
X1775650D02*
Y1912700D01*
X1824350Y1887300D02*
Y1912700D01*
X1775650D02*
X1824350D01*
X1775650Y1887300D02*
X1824350D01*
X1275650D02*
Y1912700D01*
X1324350Y1887300D02*
Y1912700D01*
X1275650D02*
X1324350D01*
X1275650Y1887300D02*
X1324350D01*
X87300Y475650D02*
X112700D01*
X87300Y524350D02*
X112700D01*
X87300Y475650D02*
Y524350D01*
X112700Y475650D02*
Y524350D01*
M02*
