G04*
G04 #@! TF.GenerationSoftware,Altium Limited,Altium Designer,20.0.13 (296)*
G04*
G04 Layer_Color=255*
%FSLAX44Y44*%
%MOMM*%
G71*
G01*
G75*
%ADD12C,0.2540*%
%ADD13R,1.4000X1.2000*%
%ADD14R,1.8000X2.2000*%
%ADD15R,1.8000X1.1000*%
%ADD26C,1.4000*%
%ADD27R,1.4000X1.4000*%
%ADD28C,4.0000*%
%ADD29C,6.0000*%
%ADD30R,1.4000X1.4000*%
D12*
X0Y0D02*
X1750000D01*
X1750000Y1750000D02*
X1750000Y0D01*
X0D02*
Y1750000D01*
X1750000Y1750000D01*
D13*
X1374987Y83664D02*
D03*
Y65664D02*
D03*
Y583664D02*
D03*
Y565664D02*
D03*
Y1083664D02*
D03*
Y1065664D02*
D03*
Y1583664D02*
D03*
Y1565664D02*
D03*
X1124839Y1333961D02*
D03*
Y1315961D02*
D03*
Y315961D02*
D03*
Y333961D02*
D03*
X874908Y83795D02*
D03*
Y65795D02*
D03*
Y583795D02*
D03*
Y565795D02*
D03*
Y1083795D02*
D03*
Y1065795D02*
D03*
Y1583795D02*
D03*
Y1565795D02*
D03*
X1625341Y1335270D02*
D03*
Y1317270D02*
D03*
X1625000Y834505D02*
D03*
Y816505D02*
D03*
X1625159Y315897D02*
D03*
Y333897D02*
D03*
X1625000Y84000D02*
D03*
Y66000D02*
D03*
Y584000D02*
D03*
Y566000D02*
D03*
Y1084000D02*
D03*
Y1066000D02*
D03*
Y1584000D02*
D03*
Y1566000D02*
D03*
X1375000Y1334000D02*
D03*
Y1316000D02*
D03*
Y834000D02*
D03*
Y816000D02*
D03*
Y316000D02*
D03*
Y334000D02*
D03*
X1125000Y84000D02*
D03*
Y66000D02*
D03*
Y584000D02*
D03*
Y566000D02*
D03*
Y1084000D02*
D03*
Y1066000D02*
D03*
Y1584000D02*
D03*
Y1566000D02*
D03*
X625000Y1584000D02*
D03*
Y1566000D02*
D03*
X875000Y1334000D02*
D03*
Y1316000D02*
D03*
Y834000D02*
D03*
Y816000D02*
D03*
Y334000D02*
D03*
Y316000D02*
D03*
X625000Y84000D02*
D03*
Y66000D02*
D03*
X375000Y334000D02*
D03*
Y316000D02*
D03*
X125000Y584000D02*
D03*
Y566000D02*
D03*
X625000Y584000D02*
D03*
Y566000D02*
D03*
X125000Y1084000D02*
D03*
Y1066000D02*
D03*
X625000Y1084000D02*
D03*
Y1066000D02*
D03*
X125000Y1584000D02*
D03*
Y1566000D02*
D03*
X375000Y816000D02*
D03*
Y834000D02*
D03*
X1124839Y815961D02*
D03*
Y833961D02*
D03*
X375000Y1316000D02*
D03*
Y1334000D02*
D03*
X125000Y66000D02*
D03*
Y84000D02*
D03*
D14*
X1374987Y115914D02*
D03*
Y615914D02*
D03*
Y1115914D02*
D03*
Y1615914D02*
D03*
X1124839Y1366211D02*
D03*
Y866211D02*
D03*
Y366211D02*
D03*
X874908Y116045D02*
D03*
Y616045D02*
D03*
Y1116045D02*
D03*
Y1616045D02*
D03*
X1625341Y1367520D02*
D03*
X1625000Y866755D02*
D03*
X1625159Y366147D02*
D03*
X1625000Y116250D02*
D03*
Y616250D02*
D03*
Y1116250D02*
D03*
Y1616250D02*
D03*
X1375000Y1366250D02*
D03*
Y866250D02*
D03*
Y366250D02*
D03*
X1125000Y116250D02*
D03*
Y616250D02*
D03*
Y1116250D02*
D03*
Y1616250D02*
D03*
X875000Y1366250D02*
D03*
Y866250D02*
D03*
Y366250D02*
D03*
X625000Y116250D02*
D03*
Y616250D02*
D03*
Y1116250D02*
D03*
X125000Y1616250D02*
D03*
X625000D02*
D03*
X375000Y1366250D02*
D03*
Y866250D02*
D03*
Y366250D02*
D03*
X125000Y116250D02*
D03*
Y616250D02*
D03*
Y1116250D02*
D03*
D15*
X1374987Y138414D02*
D03*
Y638414D02*
D03*
Y1138414D02*
D03*
Y1638414D02*
D03*
X1124839Y1388711D02*
D03*
Y888711D02*
D03*
Y388711D02*
D03*
X874908Y138545D02*
D03*
Y638545D02*
D03*
Y1138545D02*
D03*
Y1638545D02*
D03*
X1625341Y1390020D02*
D03*
X1625000Y889255D02*
D03*
X1625159Y388647D02*
D03*
X1625000Y138750D02*
D03*
Y638750D02*
D03*
Y1138750D02*
D03*
Y1638750D02*
D03*
X1375000Y1388750D02*
D03*
Y888750D02*
D03*
Y388750D02*
D03*
X1125000Y138750D02*
D03*
Y638750D02*
D03*
Y1138750D02*
D03*
Y1638750D02*
D03*
X875000Y1388750D02*
D03*
Y888750D02*
D03*
Y388750D02*
D03*
X625000Y138750D02*
D03*
Y638750D02*
D03*
Y1138750D02*
D03*
X125000Y1638750D02*
D03*
X625000D02*
D03*
X375000Y1388750D02*
D03*
Y888750D02*
D03*
Y388750D02*
D03*
X125000Y138750D02*
D03*
Y638750D02*
D03*
Y1138750D02*
D03*
D26*
X1685242Y1660000D02*
D03*
X75000Y1637700D02*
D03*
Y1387700D02*
D03*
Y1137700D02*
D03*
Y887700D02*
D03*
X125192Y1659730D02*
D03*
X625000Y1659431D02*
D03*
X1087700Y1660000D02*
D03*
X1587700D02*
D03*
X75000Y637700D02*
D03*
X837700Y1660000D02*
D03*
X1337700D02*
D03*
X387700Y1600000D02*
D03*
X937700Y1660000D02*
D03*
X75000Y137700D02*
D03*
X1437700Y1660000D02*
D03*
X1187700D02*
D03*
X75000Y387700D02*
D03*
D27*
X1659842Y1660000D02*
D03*
X150592Y1659730D02*
D03*
X650400Y1659431D02*
D03*
X1062300Y1660000D02*
D03*
X1562300D02*
D03*
X812300D02*
D03*
X1312300D02*
D03*
X362300Y1600000D02*
D03*
X912300Y1660000D02*
D03*
X1412300D02*
D03*
X1162300D02*
D03*
D28*
X500000Y1717500D02*
D03*
Y1562500D02*
D03*
X250000Y1717500D02*
D03*
Y1562500D02*
D03*
D29*
X1710000Y1710000D02*
D03*
Y40000D02*
D03*
X40000D02*
D03*
Y1710000D02*
D03*
D30*
X75000Y1612300D02*
D03*
Y1362300D02*
D03*
Y1112300D02*
D03*
Y862300D02*
D03*
Y612300D02*
D03*
Y112300D02*
D03*
Y362300D02*
D03*
M02*
