G04*
G04 #@! TF.GenerationSoftware,Altium Limited,Altium Designer,20.0.13 (296)*
G04*
G04 Layer_Color=2752767*
%FSLAX44Y44*%
%MOMM*%
G71*
G01*
G75*
%ADD12C,0.2540*%
%ADD35C,0.0508*%
%ADD36C,0.0677*%
D12*
X0Y0D02*
X1750000D01*
X1750000Y1750000D02*
X1750000Y0D01*
X0D02*
Y1750000D01*
X1750000Y1750000D01*
D35*
X1683210Y1657968D02*
Y1662032D01*
X1687274D01*
Y1657968D01*
X1683210D01*
X1657810D02*
Y1662032D01*
X1661874D01*
Y1657968D01*
X1657810D01*
X1710000Y1707968D02*
X1707968Y1712032D01*
X1712032D01*
X1710000Y1707968D01*
Y37968D02*
X1707968Y42032D01*
X1712032D01*
X1710000Y37968D01*
X40000D02*
X37968Y42032D01*
X42032D01*
X40000Y37968D01*
Y1707968D02*
X37968Y1712032D01*
X42032D01*
X40000Y1707968D01*
X72968Y1610268D02*
Y1614332D01*
X77032D01*
Y1610268D01*
X72968D01*
Y1635668D02*
Y1639732D01*
X77032D01*
Y1635668D01*
X72968D01*
Y1360268D02*
Y1364332D01*
X77032D01*
Y1360268D01*
X72968D01*
Y1385668D02*
Y1389732D01*
X77032D01*
Y1385668D01*
X72968D01*
Y1110268D02*
Y1114332D01*
X77032D01*
Y1110268D01*
X72968D01*
Y1135668D02*
Y1139732D01*
X77032D01*
Y1135668D01*
X72968D01*
Y860268D02*
Y864332D01*
X77032D01*
Y860268D01*
X72968D01*
Y885668D02*
Y889732D01*
X77032D01*
Y885668D01*
X72968D01*
X148560Y1657698D02*
Y1661762D01*
X152624D01*
Y1657698D01*
X148560D01*
X123160D02*
Y1661762D01*
X127224D01*
Y1657698D01*
X123160D01*
X648368Y1657399D02*
Y1661463D01*
X652432D01*
Y1657399D01*
X648368D01*
X622968D02*
Y1661463D01*
X627032D01*
Y1657399D01*
X622968D01*
X1060268Y1657968D02*
Y1662032D01*
X1064332D01*
Y1657968D01*
X1060268D01*
X1085668D02*
Y1662032D01*
X1089732D01*
Y1657968D01*
X1085668D01*
X1560268D02*
Y1662032D01*
X1564332D01*
Y1657968D01*
X1560268D01*
X1585668D02*
Y1662032D01*
X1589732D01*
Y1657968D01*
X1585668D01*
X72968Y610268D02*
Y614332D01*
X77032D01*
Y610268D01*
X72968D01*
Y635668D02*
Y639732D01*
X77032D01*
Y635668D01*
X72968D01*
X810268Y1657968D02*
Y1662032D01*
X814332D01*
Y1657968D01*
X810268D01*
X835668D02*
Y1662032D01*
X839732D01*
Y1657968D01*
X835668D01*
X1310268D02*
Y1662032D01*
X1314332D01*
Y1657968D01*
X1310268D01*
X1335668D02*
Y1662032D01*
X1339732D01*
Y1657968D01*
X1335668D01*
X360268Y1597968D02*
Y1602032D01*
X364332D01*
Y1597968D01*
X360268D01*
X385668D02*
Y1602032D01*
X389732D01*
Y1597968D01*
X385668D01*
X910268Y1657968D02*
Y1662032D01*
X914332D01*
Y1657968D01*
X910268D01*
X935668D02*
Y1662032D01*
X939732D01*
Y1657968D01*
X935668D01*
X72968Y110268D02*
Y114332D01*
X77032D01*
Y110268D01*
X72968D01*
Y135668D02*
Y139732D01*
X77032D01*
Y135668D01*
X72968D01*
X1410268Y1657968D02*
Y1662032D01*
X1414332D01*
Y1657968D01*
X1410268D01*
X1435668D02*
Y1662032D01*
X1439732D01*
Y1657968D01*
X1435668D01*
X1160268D02*
Y1662032D01*
X1164332D01*
Y1657968D01*
X1160268D01*
X1185668D02*
Y1662032D01*
X1189732D01*
Y1657968D01*
X1185668D01*
X72968Y360268D02*
Y364332D01*
X77032D01*
Y360268D01*
X72968D01*
Y385668D02*
Y389732D01*
X77032D01*
Y385668D01*
X72968D01*
X1125000Y662968D02*
X1126016Y663984D01*
X1127032D01*
X1126016Y665000D01*
X1127032Y666016D01*
X1126016D01*
X1125000Y667032D01*
X1123984Y666016D01*
X1122968D01*
X1123984Y665000D01*
X1122968Y663984D01*
X1123984D01*
X1125000Y662968D01*
X1374987Y1162632D02*
X1376003Y1163648D01*
X1377019D01*
X1376003Y1164664D01*
X1377019Y1165680D01*
X1376003D01*
X1374987Y1166696D01*
X1373971Y1165680D01*
X1372955D01*
X1373971Y1164664D01*
X1372955Y1163648D01*
X1373971D01*
X1374987Y1162632D01*
X1124839Y1412929D02*
X1125855Y1413945D01*
X1126871D01*
X1125855Y1414961D01*
X1126871Y1415977D01*
X1125855D01*
X1124839Y1416993D01*
X1123823Y1415977D01*
X1122807D01*
X1123823Y1414961D01*
X1122807Y1413945D01*
X1123823D01*
X1124839Y1412929D01*
X1625341Y1414238D02*
X1626357Y1415254D01*
X1627373D01*
X1626357Y1416270D01*
X1627373Y1417286D01*
X1626357D01*
X1625341Y1418302D01*
X1624325Y1417286D01*
X1623309D01*
X1624325Y1416270D01*
X1623309Y1415254D01*
X1624325D01*
X1625341Y1414238D01*
X874908Y1162763D02*
X875924Y1163779D01*
X876940D01*
X875924Y1164795D01*
X876940Y1165811D01*
X875924D01*
X874908Y1166827D01*
X873892Y1165811D01*
X872876D01*
X873892Y1164795D01*
X872876Y1163779D01*
X873892D01*
X874908Y1162763D01*
X1625000Y1162968D02*
X1626016Y1163984D01*
X1627032D01*
X1626016Y1165000D01*
X1627032Y1166016D01*
X1626016D01*
X1625000Y1167032D01*
X1623984Y1166016D01*
X1622968D01*
X1623984Y1165000D01*
X1622968Y1163984D01*
X1623984D01*
X1625000Y1162968D01*
X1375000Y1412968D02*
X1376016Y1413984D01*
X1377032D01*
X1376016Y1415000D01*
X1377032Y1416016D01*
X1376016D01*
X1375000Y1417032D01*
X1373984Y1416016D01*
X1372968D01*
X1373984Y1415000D01*
X1372968Y1413984D01*
X1373984D01*
X1375000Y1412968D01*
X1125000Y1162968D02*
X1126016Y1163984D01*
X1127032D01*
X1126016Y1165000D01*
X1127032Y1166016D01*
X1126016D01*
X1125000Y1167032D01*
X1123984Y1166016D01*
X1122968D01*
X1123984Y1165000D01*
X1122968Y1163984D01*
X1123984D01*
X1125000Y1162968D01*
X1375000Y912968D02*
X1376016Y913984D01*
X1377032D01*
X1376016Y915000D01*
X1377032Y916016D01*
X1376016D01*
X1375000Y917032D01*
X1373984Y916016D01*
X1372968D01*
X1373984Y915000D01*
X1372968Y913984D01*
X1373984D01*
X1375000Y912968D01*
X1625000Y913473D02*
X1626016Y914489D01*
X1627032D01*
X1626016Y915505D01*
X1627032Y916521D01*
X1626016D01*
X1625000Y917537D01*
X1623984Y916521D01*
X1622968D01*
X1623984Y915505D01*
X1622968Y914489D01*
X1623984D01*
X1625000Y913473D01*
X1124839Y912929D02*
X1125855Y913945D01*
X1126871D01*
X1125855Y914961D01*
X1126871Y915977D01*
X1125855D01*
X1124839Y916993D01*
X1123823Y915977D01*
X1122807D01*
X1123823Y914961D01*
X1122807Y913945D01*
X1123823D01*
X1124839Y912929D01*
X1374987Y662632D02*
X1376003Y663648D01*
X1377019D01*
X1376003Y664664D01*
X1377019Y665680D01*
X1376003D01*
X1374987Y666696D01*
X1373971Y665680D01*
X1372955D01*
X1373971Y664664D01*
X1372955Y663648D01*
X1373971D01*
X1374987Y662632D01*
X874908Y662763D02*
X875924Y663779D01*
X876940D01*
X875924Y664795D01*
X876940Y665811D01*
X875924D01*
X874908Y666827D01*
X873892Y665811D01*
X872876D01*
X873892Y664795D01*
X872876Y663779D01*
X873892D01*
X874908Y662763D01*
X1625000Y662968D02*
X1626016Y663984D01*
X1627032D01*
X1626016Y665000D01*
X1627032Y666016D01*
X1626016D01*
X1625000Y667032D01*
X1623984Y666016D01*
X1622968D01*
X1623984Y665000D01*
X1622968Y663984D01*
X1623984D01*
X1625000Y662968D01*
X1625159Y412865D02*
X1626175Y413881D01*
X1627191D01*
X1626175Y414897D01*
X1627191Y415913D01*
X1626175D01*
X1625159Y416929D01*
X1624143Y415913D01*
X1623127D01*
X1624143Y414897D01*
X1623127Y413881D01*
X1624143D01*
X1625159Y412865D01*
X1124839Y412929D02*
X1125855Y413945D01*
X1126871D01*
X1125855Y414961D01*
X1126871Y415977D01*
X1125855D01*
X1124839Y416993D01*
X1123823Y415977D01*
X1122807D01*
X1123823Y414961D01*
X1122807Y413945D01*
X1123823D01*
X1124839Y412929D01*
X1374987Y162632D02*
X1376003Y163648D01*
X1377019D01*
X1376003Y164664D01*
X1377019Y165680D01*
X1376003D01*
X1374987Y166696D01*
X1373971Y165680D01*
X1372955D01*
X1373971Y164664D01*
X1372955Y163648D01*
X1373971D01*
X1374987Y162632D01*
X874908Y162763D02*
X875924Y163779D01*
X876940D01*
X875924Y164795D01*
X876940Y165811D01*
X875924D01*
X874908Y166827D01*
X873892Y165811D01*
X872876D01*
X873892Y164795D01*
X872876Y163779D01*
X873892D01*
X874908Y162763D01*
X1625000Y162968D02*
X1626016Y163984D01*
X1627032D01*
X1626016Y165000D01*
X1627032Y166016D01*
X1626016D01*
X1625000Y167032D01*
X1623984Y166016D01*
X1622968D01*
X1623984Y165000D01*
X1622968Y163984D01*
X1623984D01*
X1625000Y162968D01*
X1375000Y412968D02*
X1376016Y413984D01*
X1377032D01*
X1376016Y415000D01*
X1377032Y416016D01*
X1376016D01*
X1375000Y417032D01*
X1373984Y416016D01*
X1372968D01*
X1373984Y415000D01*
X1372968Y413984D01*
X1373984D01*
X1375000Y412968D01*
X1125000Y162968D02*
X1126016Y163984D01*
X1127032D01*
X1126016Y165000D01*
X1127032Y166016D01*
X1126016D01*
X1125000Y167032D01*
X1123984Y166016D01*
X1122968D01*
X1123984Y165000D01*
X1122968Y163984D01*
X1123984D01*
X1125000Y162968D01*
X875000Y412968D02*
X876016Y413984D01*
X877032D01*
X876016Y415000D01*
X877032Y416016D01*
X876016D01*
X875000Y417032D01*
X873984Y416016D01*
X872968D01*
X873984Y415000D01*
X872968Y413984D01*
X873984D01*
X875000Y412968D01*
Y912968D02*
X876016Y913984D01*
X877032D01*
X876016Y915000D01*
X877032Y916016D01*
X876016D01*
X875000Y917032D01*
X873984Y916016D01*
X872968D01*
X873984Y915000D01*
X872968Y913984D01*
X873984D01*
X875000Y912968D01*
Y1412968D02*
X876016Y1413984D01*
X877032D01*
X876016Y1415000D01*
X877032Y1416016D01*
X876016D01*
X875000Y1417032D01*
X873984Y1416016D01*
X872968D01*
X873984Y1415000D01*
X872968Y1413984D01*
X873984D01*
X875000Y1412968D01*
X625000Y1162968D02*
X626016Y1163984D01*
X627032D01*
X626016Y1165000D01*
X627032Y1166016D01*
X626016D01*
X625000Y1167032D01*
X623984Y1166016D01*
X622968D01*
X623984Y1165000D01*
X622968Y1163984D01*
X623984D01*
X625000Y1162968D01*
Y662968D02*
X626016Y663984D01*
X627032D01*
X626016Y665000D01*
X627032Y666016D01*
X626016D01*
X625000Y667032D01*
X623984Y666016D01*
X622968D01*
X623984Y665000D01*
X622968Y663984D01*
X623984D01*
X625000Y662968D01*
Y162968D02*
X626016Y163984D01*
X627032D01*
X626016Y165000D01*
X627032Y166016D01*
X626016D01*
X625000Y167032D01*
X623984Y166016D01*
X622968D01*
X623984Y165000D01*
X622968Y163984D01*
X623984D01*
X625000Y162968D01*
X375000Y412968D02*
X376016Y413984D01*
X377032D01*
X376016Y415000D01*
X377032Y416016D01*
X376016D01*
X375000Y417032D01*
X373984Y416016D01*
X372968D01*
X373984Y415000D01*
X372968Y413984D01*
X373984D01*
X375000Y412968D01*
Y912968D02*
X376016Y913984D01*
X377032D01*
X376016Y915000D01*
X377032Y916016D01*
X376016D01*
X375000Y917032D01*
X373984Y916016D01*
X372968D01*
X373984Y915000D01*
X372968Y913984D01*
X373984D01*
X375000Y912968D01*
Y1412968D02*
X376016Y1413984D01*
X377032D01*
X376016Y1415000D01*
X377032Y1416016D01*
X376016D01*
X375000Y1417032D01*
X373984Y1416016D01*
X372968D01*
X373984Y1415000D01*
X372968Y1413984D01*
X373984D01*
X375000Y1412968D01*
X125000Y162968D02*
X126016Y163984D01*
X127032D01*
X126016Y165000D01*
X127032Y166016D01*
X126016D01*
X125000Y167032D01*
X123984Y166016D01*
X122968D01*
X123984Y165000D01*
X122968Y163984D01*
X123984D01*
X125000Y162968D01*
Y662968D02*
X126016Y663984D01*
X127032D01*
X126016Y665000D01*
X127032Y666016D01*
X126016D01*
X125000Y667032D01*
X123984Y666016D01*
X122968D01*
X123984Y665000D01*
X122968Y663984D01*
X123984D01*
X125000Y662968D01*
Y1162968D02*
X126016Y1163984D01*
X127032D01*
X126016Y1165000D01*
X127032Y1166016D01*
X126016D01*
X125000Y1167032D01*
X123984Y1166016D01*
X122968D01*
X123984Y1165000D01*
X122968Y1163984D01*
X123984D01*
X125000Y1162968D01*
D36*
X502032Y1717500D02*
G03*
X502032Y1717500I-2032J0D01*
G01*
Y1562500D02*
G03*
X502032Y1562500I-2032J0D01*
G01*
X252032Y1717500D02*
G03*
X252032Y1717500I-2032J0D01*
G01*
Y1562500D02*
G03*
X252032Y1562500I-2032J0D01*
G01*
M02*
