G04*
G04 #@! TF.GenerationSoftware,Altium Limited,Altium Designer,20.0.13 (296)*
G04*
G04 Layer_Color=65535*
%FSLAX44Y44*%
%MOMM*%
G71*
G01*
G75*
%ADD10C,0.2500*%
%ADD11C,0.2000*%
%ADD12C,0.2540*%
D10*
X1661092Y1678200D02*
G03*
X1661092Y1678200I-1250J0D01*
G01*
X1391737Y148664D02*
G03*
X1391737Y148664I-1250J0D01*
G01*
Y648664D02*
G03*
X1391737Y648664I-1250J0D01*
G01*
Y1148664D02*
G03*
X1391737Y1148664I-1250J0D01*
G01*
Y1648664D02*
G03*
X1391737Y1648664I-1250J0D01*
G01*
X1141589Y1398961D02*
G03*
X1141589Y1398961I-1250J0D01*
G01*
Y898961D02*
G03*
X1141589Y898961I-1250J0D01*
G01*
Y398961D02*
G03*
X1141589Y398961I-1250J0D01*
G01*
X891658Y148795D02*
G03*
X891658Y148795I-1250J0D01*
G01*
Y648795D02*
G03*
X891658Y648795I-1250J0D01*
G01*
Y1148795D02*
G03*
X891658Y1148795I-1250J0D01*
G01*
Y1648795D02*
G03*
X891658Y1648795I-1250J0D01*
G01*
X1642091Y1400270D02*
G03*
X1642091Y1400270I-1250J0D01*
G01*
X1641750Y899505D02*
G03*
X1641750Y899505I-1250J0D01*
G01*
X1641909Y398897D02*
G03*
X1641909Y398897I-1250J0D01*
G01*
X1641750Y149000D02*
G03*
X1641750Y149000I-1250J0D01*
G01*
Y649000D02*
G03*
X1641750Y649000I-1250J0D01*
G01*
Y1149000D02*
G03*
X1641750Y1149000I-1250J0D01*
G01*
Y1649000D02*
G03*
X1641750Y1649000I-1250J0D01*
G01*
X1391750Y1399000D02*
G03*
X1391750Y1399000I-1250J0D01*
G01*
Y899000D02*
G03*
X1391750Y899000I-1250J0D01*
G01*
Y399000D02*
G03*
X1391750Y399000I-1250J0D01*
G01*
X1141750Y149000D02*
G03*
X1141750Y149000I-1250J0D01*
G01*
Y649000D02*
G03*
X1141750Y649000I-1250J0D01*
G01*
Y1149000D02*
G03*
X1141750Y1149000I-1250J0D01*
G01*
Y1649000D02*
G03*
X1141750Y1649000I-1250J0D01*
G01*
X891750Y1399000D02*
G03*
X891750Y1399000I-1250J0D01*
G01*
Y899000D02*
G03*
X891750Y899000I-1250J0D01*
G01*
Y399000D02*
G03*
X891750Y399000I-1250J0D01*
G01*
X641750Y149000D02*
G03*
X641750Y149000I-1250J0D01*
G01*
Y649000D02*
G03*
X641750Y649000I-1250J0D01*
G01*
Y1149000D02*
G03*
X641750Y1149000I-1250J0D01*
G01*
X141750Y1649000D02*
G03*
X141750Y1649000I-1250J0D01*
G01*
X641750D02*
G03*
X641750Y1649000I-1250J0D01*
G01*
X391750Y1399000D02*
G03*
X391750Y1399000I-1250J0D01*
G01*
Y899000D02*
G03*
X391750Y899000I-1250J0D01*
G01*
Y399000D02*
G03*
X391750Y399000I-1250J0D01*
G01*
X141750Y149000D02*
G03*
X141750Y149000I-1250J0D01*
G01*
Y649000D02*
G03*
X141750Y649000I-1250J0D01*
G01*
Y1149000D02*
G03*
X141750Y1149000I-1250J0D01*
G01*
X58050Y1612300D02*
G03*
X58050Y1612300I-1250J0D01*
G01*
Y1362300D02*
G03*
X58050Y1362300I-1250J0D01*
G01*
Y1112300D02*
G03*
X58050Y1112300I-1250J0D01*
G01*
Y862300D02*
G03*
X58050Y862300I-1250J0D01*
G01*
X151842Y1641530D02*
G03*
X151842Y1641530I-1250J0D01*
G01*
X651650Y1641230D02*
G03*
X651650Y1641230I-1250J0D01*
G01*
X1063550Y1678200D02*
G03*
X1063550Y1678200I-1250J0D01*
G01*
X1563550D02*
G03*
X1563550Y1678200I-1250J0D01*
G01*
X58050Y612300D02*
G03*
X58050Y612300I-1250J0D01*
G01*
X813550Y1678200D02*
G03*
X813550Y1678200I-1250J0D01*
G01*
X1313550D02*
G03*
X1313550Y1678200I-1250J0D01*
G01*
X363550Y1618200D02*
G03*
X363550Y1618200I-1250J0D01*
G01*
X913550Y1678200D02*
G03*
X913550Y1678200I-1250J0D01*
G01*
X58050Y112300D02*
G03*
X58050Y112300I-1250J0D01*
G01*
X1413550Y1678200D02*
G03*
X1413550Y1678200I-1250J0D01*
G01*
X1163550D02*
G03*
X1163550Y1678200I-1250J0D01*
G01*
X58050Y362300D02*
G03*
X58050Y362300I-1250J0D01*
G01*
D11*
X1649192Y1671700D02*
X1695892D01*
X1649192Y1648300D02*
X1695892D01*
X448250Y1623250D02*
Y1658250D01*
X552250Y1620500D02*
Y1655500D01*
X198250Y1623250D02*
Y1658250D01*
X302250Y1620500D02*
Y1655500D01*
X1368987Y74664D02*
X1380987D01*
X1360987Y107164D02*
Y142164D01*
X1388987Y107164D02*
Y142164D01*
X1368987Y574664D02*
X1380987D01*
X1360987Y607164D02*
Y642164D01*
X1388987Y607164D02*
Y642164D01*
X1368987Y1074664D02*
X1380987D01*
X1360987Y1107164D02*
Y1142164D01*
X1388987Y1107164D02*
Y1142164D01*
X1368987Y1574664D02*
X1380987D01*
X1360987Y1607164D02*
Y1642164D01*
X1388987Y1607164D02*
Y1642164D01*
X1118839Y1324961D02*
X1130839D01*
X1110839Y1357461D02*
Y1392461D01*
X1138839Y1357461D02*
Y1392461D01*
X1110839Y857461D02*
Y892461D01*
X1138839Y857461D02*
Y892461D01*
Y357461D02*
Y392461D01*
X1110839Y357461D02*
Y392461D01*
X1118839Y324961D02*
X1130839D01*
X868908Y74795D02*
X880908D01*
X860908Y107295D02*
Y142295D01*
X888908Y107295D02*
Y142295D01*
X868908Y574795D02*
X880908D01*
X860908Y607295D02*
Y642295D01*
X888908Y607295D02*
Y642295D01*
X868908Y1074795D02*
X880908D01*
X860908Y1107295D02*
Y1142295D01*
X888908Y1107295D02*
Y1142295D01*
X868908Y1574795D02*
X880908D01*
X860908Y1607295D02*
Y1642295D01*
X888908Y1607295D02*
Y1642295D01*
X1619341Y1326270D02*
X1631341D01*
X1611341Y1358770D02*
Y1393770D01*
X1639341Y1358770D02*
Y1393770D01*
X1619000Y825505D02*
X1631000D01*
X1611000Y858005D02*
Y893005D01*
X1639000Y858005D02*
Y893005D01*
X1639159Y357397D02*
Y392397D01*
X1611159Y357397D02*
Y392397D01*
X1619159Y324897D02*
X1631159D01*
X1619000Y75000D02*
X1631000D01*
X1611000Y107500D02*
Y142500D01*
X1639000Y107500D02*
Y142500D01*
X1619000Y575000D02*
X1631000D01*
X1611000Y607500D02*
Y642500D01*
X1639000Y607500D02*
Y642500D01*
X1619000Y1075000D02*
X1631000D01*
X1611000Y1107500D02*
Y1142500D01*
X1639000Y1107500D02*
Y1142500D01*
X1619000Y1575000D02*
X1631000D01*
X1611000Y1607500D02*
Y1642500D01*
X1639000Y1607500D02*
Y1642500D01*
X1361000Y1357500D02*
Y1392500D01*
X1389000Y1357500D02*
Y1392500D01*
X1369000Y1325000D02*
X1381000D01*
X1369000Y825000D02*
X1381000D01*
X1361000Y857500D02*
Y892500D01*
X1389000Y857500D02*
Y892500D01*
Y357500D02*
Y392500D01*
X1361000Y357500D02*
Y392500D01*
X1369000Y325000D02*
X1381000D01*
X1119000Y75000D02*
X1131000D01*
X1111000Y107500D02*
Y142500D01*
X1139000Y107500D02*
Y142500D01*
X1119000Y575000D02*
X1131000D01*
X1111000Y607500D02*
Y642500D01*
X1139000Y607500D02*
Y642500D01*
X1119000Y1075000D02*
X1131000D01*
X1111000Y1107500D02*
Y1142500D01*
X1139000Y1107500D02*
Y1142500D01*
X1119000Y1575000D02*
X1131000D01*
X1111000Y1607500D02*
Y1642500D01*
X1139000Y1607500D02*
Y1642500D01*
X619000Y1575000D02*
X631000D01*
X861000Y1357500D02*
Y1392500D01*
X889000Y1357500D02*
Y1392500D01*
X869000Y1325000D02*
X881000D01*
X861000Y857500D02*
Y892500D01*
X889000Y857500D02*
Y892500D01*
X869000Y825000D02*
X881000D01*
X861000Y357500D02*
Y392500D01*
X889000Y357500D02*
Y392500D01*
X869000Y325000D02*
X881000D01*
X619000Y75000D02*
X631000D01*
X611000Y107500D02*
Y142500D01*
X639000Y107500D02*
Y142500D01*
X369000Y325000D02*
X381000D01*
X119000Y575000D02*
X131000D01*
X619000D02*
X631000D01*
X611000Y607500D02*
Y642500D01*
X639000Y607500D02*
Y642500D01*
X611000Y1107500D02*
Y1142500D01*
X639000Y1107500D02*
Y1142500D01*
X119000Y1075000D02*
X131000D01*
X619000D02*
X631000D01*
X111000Y1607500D02*
Y1642500D01*
X139000Y1607500D02*
Y1642500D01*
X611000Y1607500D02*
Y1642500D01*
X639000Y1607500D02*
Y1642500D01*
X361000Y1357500D02*
Y1392500D01*
X389000Y1357500D02*
Y1392500D01*
X361000Y857500D02*
Y892500D01*
X389000Y857500D02*
Y892500D01*
X361000Y357500D02*
Y392500D01*
X389000Y357500D02*
Y392500D01*
X111000Y107500D02*
Y142500D01*
X139000Y107500D02*
Y142500D01*
X111000Y607500D02*
Y642500D01*
X139000Y607500D02*
Y642500D01*
X111000Y1107500D02*
Y1142500D01*
X139000Y1107500D02*
Y1142500D01*
X119000Y1575000D02*
X131000D01*
X369000Y825000D02*
X381000D01*
X1118839Y824961D02*
X1130839D01*
X369000Y1325000D02*
X381000D01*
X86700Y1601650D02*
Y1648350D01*
X63300Y1601650D02*
Y1648350D01*
X86700Y1351650D02*
Y1398350D01*
X63300Y1351650D02*
Y1398350D01*
X86700Y1101650D02*
Y1148350D01*
X63300Y1101650D02*
Y1148350D01*
X86700Y851650D02*
Y898350D01*
X63300Y851650D02*
Y898350D01*
X114542Y1671430D02*
X161242D01*
X114542Y1648030D02*
X161242D01*
X614350Y1671131D02*
X661050D01*
X614350Y1647731D02*
X661050D01*
X1051650Y1648300D02*
X1098350D01*
X1051650Y1671700D02*
X1098350D01*
X1551650Y1648300D02*
X1598350D01*
X1551650Y1671700D02*
X1598350D01*
X86700Y601650D02*
Y648350D01*
X63300Y601650D02*
Y648350D01*
X801650Y1648300D02*
X848350D01*
X801650Y1671700D02*
X848350D01*
X1301650Y1648300D02*
X1348350D01*
X1301650Y1671700D02*
X1348350D01*
X351650Y1588300D02*
X398350D01*
X351650Y1611700D02*
X398350D01*
X119000Y75000D02*
X131000D01*
X901650Y1648300D02*
X948350D01*
X901650Y1671700D02*
X948350D01*
X86700Y101650D02*
Y148350D01*
X63300Y101650D02*
Y148350D01*
X1401650Y1648300D02*
X1448350D01*
X1401650Y1671700D02*
X1448350D01*
X1151650Y1648300D02*
X1198350D01*
X1151650Y1671700D02*
X1198350D01*
X86700Y351650D02*
Y398350D01*
X63300Y351650D02*
Y398350D01*
D12*
X1632272Y1692208D02*
Y1707443D01*
X1639889D01*
X1642429Y1704904D01*
Y1699826D01*
X1639889Y1697286D01*
X1632272D01*
X1647507Y1692208D02*
X1652585D01*
X1650046D01*
Y1707443D01*
X1647507Y1704904D01*
X1670359Y1707443D02*
X1665281Y1704904D01*
X1660203Y1699826D01*
Y1694747D01*
X1662742Y1692208D01*
X1667820D01*
X1670359Y1694747D01*
Y1697286D01*
X1667820Y1699826D01*
X1660203D01*
X564480Y1708499D02*
Y1723734D01*
X572097D01*
X574636Y1721195D01*
Y1716116D01*
X572097Y1713577D01*
X564480D01*
X579715Y1708499D02*
Y1723734D01*
X587332D01*
X589871Y1721195D01*
Y1716116D01*
X587332Y1713577D01*
X579715D01*
X594950Y1718656D02*
Y1711038D01*
X597489Y1708499D01*
X600028Y1711038D01*
X602567Y1708499D01*
X605107Y1711038D01*
Y1718656D01*
X610185D02*
Y1708499D01*
Y1713577D01*
X612724Y1716116D01*
X615263Y1718656D01*
X617802D01*
X312154Y1709493D02*
Y1724728D01*
X319771D01*
X322310Y1722189D01*
Y1717111D01*
X319771Y1714571D01*
X312154D01*
X337546Y1722189D02*
X335006Y1724728D01*
X329928D01*
X327389Y1722189D01*
Y1712032D01*
X329928Y1709493D01*
X335006D01*
X337546Y1712032D01*
Y1717111D01*
X332467D01*
X342624Y1709493D02*
Y1719650D01*
X350241D01*
X352781Y1717111D01*
Y1709493D01*
X368016Y1724728D02*
Y1709493D01*
X360398D01*
X357859Y1712032D01*
Y1717111D01*
X360398Y1719650D01*
X368016D01*
X1069141Y317343D02*
Y332579D01*
X1076758D01*
X1079297Y330039D01*
Y324961D01*
X1076758Y322422D01*
X1069141D01*
X1074219D02*
X1079297Y317343D01*
X1084376Y330039D02*
X1086915Y332579D01*
X1091993D01*
X1094532Y330039D01*
Y327500D01*
X1091993Y324961D01*
X1089454D01*
X1091993D01*
X1094532Y322422D01*
Y319883D01*
X1091993Y317343D01*
X1086915D01*
X1084376Y319883D01*
X1099611D02*
X1102150Y317343D01*
X1107228D01*
X1109768Y319883D01*
Y330039D01*
X1107228Y332579D01*
X1102150D01*
X1099611Y330039D01*
Y327500D01*
X1102150Y324961D01*
X1109768D01*
X1569409Y317279D02*
Y332514D01*
X1577026D01*
X1579565Y329975D01*
Y324897D01*
X1577026Y322357D01*
X1569409D01*
X1574487D02*
X1579565Y317279D01*
X1584644Y329975D02*
X1587183Y332514D01*
X1592261D01*
X1594800Y329975D01*
Y327436D01*
X1592261Y324897D01*
X1589722D01*
X1592261D01*
X1594800Y322357D01*
Y319818D01*
X1592261Y317279D01*
X1587183D01*
X1584644Y319818D01*
X1599879Y329975D02*
X1602418Y332514D01*
X1607496D01*
X1610035Y329975D01*
Y327436D01*
X1607496Y324897D01*
X1610035Y322357D01*
Y319818D01*
X1607496Y317279D01*
X1602418D01*
X1599879Y319818D01*
Y322357D01*
X1602418Y324897D01*
X1599879Y327436D01*
Y329975D01*
X1602418Y324897D02*
X1607496D01*
X1317009Y317382D02*
Y332617D01*
X1324627D01*
X1327166Y330078D01*
Y325000D01*
X1324627Y322461D01*
X1317009D01*
X1322088D02*
X1327166Y317382D01*
X1332244Y330078D02*
X1334783Y332617D01*
X1339862D01*
X1342401Y330078D01*
Y327539D01*
X1339862Y325000D01*
X1337323D01*
X1339862D01*
X1342401Y322461D01*
Y319922D01*
X1339862Y317382D01*
X1334783D01*
X1332244Y319922D01*
X1347479Y332617D02*
X1357636D01*
Y330078D01*
X1347479Y319922D01*
Y317382D01*
X1149565Y398063D02*
Y382828D01*
X1157182D01*
X1159722Y385368D01*
Y395524D01*
X1157182Y398063D01*
X1149565D01*
X1164800Y395524D02*
X1167339Y398063D01*
X1172418D01*
X1174957Y395524D01*
Y392985D01*
X1172418Y390446D01*
X1169878D01*
X1172418D01*
X1174957Y387907D01*
Y385368D01*
X1172418Y382828D01*
X1167339D01*
X1164800Y385368D01*
X1180035D02*
X1182574Y382828D01*
X1187653D01*
X1190192Y385368D01*
Y395524D01*
X1187653Y398063D01*
X1182574D01*
X1180035Y395524D01*
Y392985D01*
X1182574Y390446D01*
X1190192D01*
X1649285Y397997D02*
Y382762D01*
X1656903D01*
X1659442Y385301D01*
Y395458D01*
X1656903Y397997D01*
X1649285D01*
X1664520Y395458D02*
X1667060Y397997D01*
X1672138D01*
X1674677Y395458D01*
Y392919D01*
X1672138Y390380D01*
X1669599D01*
X1672138D01*
X1674677Y387840D01*
Y385301D01*
X1672138Y382762D01*
X1667060D01*
X1664520Y385301D01*
X1679756Y395458D02*
X1682295Y397997D01*
X1687373D01*
X1689912Y395458D01*
Y392919D01*
X1687373Y390380D01*
X1689912Y387840D01*
Y385301D01*
X1687373Y382762D01*
X1682295D01*
X1679756Y385301D01*
Y387840D01*
X1682295Y390380D01*
X1679756Y392919D01*
Y395458D01*
X1682295Y390380D02*
X1687373D01*
X1399622Y397004D02*
Y381769D01*
X1407239D01*
X1409778Y384308D01*
Y394465D01*
X1407239Y397004D01*
X1399622D01*
X1414857Y394465D02*
X1417396Y397004D01*
X1422474D01*
X1425013Y394465D01*
Y391926D01*
X1422474Y389387D01*
X1419935D01*
X1422474D01*
X1425013Y386847D01*
Y384308D01*
X1422474Y381769D01*
X1417396D01*
X1414857Y384308D01*
X1430092Y397004D02*
X1440249D01*
Y394465D01*
X1430092Y384308D01*
Y381769D01*
X1321111Y67046D02*
Y82281D01*
X1328728D01*
X1331267Y79742D01*
Y74664D01*
X1328728Y72125D01*
X1321111D01*
X1326189D02*
X1331267Y67046D01*
X1336346Y79742D02*
X1338885Y82281D01*
X1343963D01*
X1346503Y79742D01*
Y77203D01*
X1343963Y74664D01*
X1341424D01*
X1343963D01*
X1346503Y72125D01*
Y69586D01*
X1343963Y67046D01*
X1338885D01*
X1336346Y69586D01*
X1361738Y82281D02*
X1356659Y79742D01*
X1351581Y74664D01*
Y69586D01*
X1354120Y67046D01*
X1359198D01*
X1361738Y69586D01*
Y72125D01*
X1359198Y74664D01*
X1351581D01*
X818090Y67177D02*
Y82413D01*
X825707D01*
X828247Y79873D01*
Y74795D01*
X825707Y72256D01*
X818090D01*
X823168D02*
X828247Y67177D01*
X833325Y79873D02*
X835864Y82413D01*
X840943D01*
X843482Y79873D01*
Y77334D01*
X840943Y74795D01*
X838403D01*
X840943D01*
X843482Y72256D01*
Y69717D01*
X840943Y67177D01*
X835864D01*
X833325Y69717D01*
X858717Y82413D02*
X848560D01*
Y74795D01*
X853638Y77334D01*
X856178D01*
X858717Y74795D01*
Y69717D01*
X856178Y67177D01*
X851099D01*
X848560Y69717D01*
X1567035Y67382D02*
Y82618D01*
X1574652D01*
X1577192Y80078D01*
Y75000D01*
X1574652Y72461D01*
X1567035D01*
X1572113D02*
X1577192Y67382D01*
X1582270Y80078D02*
X1584809Y82618D01*
X1589888D01*
X1592427Y80078D01*
Y77539D01*
X1589888Y75000D01*
X1587348D01*
X1589888D01*
X1592427Y72461D01*
Y69922D01*
X1589888Y67382D01*
X1584809D01*
X1582270Y69922D01*
X1605123Y67382D02*
Y82618D01*
X1597505Y75000D01*
X1607662D01*
X1064248Y67382D02*
Y82618D01*
X1071866D01*
X1074405Y80078D01*
Y75000D01*
X1071866Y72461D01*
X1064248D01*
X1069327D02*
X1074405Y67382D01*
X1079483Y80078D02*
X1082023Y82618D01*
X1087101D01*
X1089640Y80078D01*
Y77539D01*
X1087101Y75000D01*
X1084562D01*
X1087101D01*
X1089640Y72461D01*
Y69922D01*
X1087101Y67382D01*
X1082023D01*
X1079483Y69922D01*
X1094718Y80078D02*
X1097258Y82618D01*
X1102336D01*
X1104875Y80078D01*
Y77539D01*
X1102336Y75000D01*
X1099797D01*
X1102336D01*
X1104875Y72461D01*
Y69922D01*
X1102336Y67382D01*
X1097258D01*
X1094718Y69922D01*
X566385Y67382D02*
Y82618D01*
X574003D01*
X576542Y80078D01*
Y75000D01*
X574003Y72461D01*
X566385D01*
X571464D02*
X576542Y67382D01*
X581620Y80078D02*
X584160Y82618D01*
X589238D01*
X591777Y80078D01*
Y77539D01*
X589238Y75000D01*
X586699D01*
X589238D01*
X591777Y72461D01*
Y69922D01*
X589238Y67382D01*
X584160D01*
X581620Y69922D01*
X607012Y67382D02*
X596856D01*
X607012Y77539D01*
Y80078D01*
X604473Y82618D01*
X599395D01*
X596856Y80078D01*
X117634Y100654D02*
Y115889D01*
X125252D01*
X127791Y113350D01*
Y108272D01*
X125252Y105732D01*
X117634D01*
X122712D02*
X127791Y100654D01*
X132869Y113350D02*
X135408Y115889D01*
X140487D01*
X143026Y113350D01*
Y110811D01*
X140487Y108272D01*
X137947D01*
X140487D01*
X143026Y105732D01*
Y103193D01*
X140487Y100654D01*
X135408D01*
X132869Y103193D01*
X148104Y100654D02*
X153182D01*
X150643D01*
Y115889D01*
X148104Y113350D01*
X1318697Y567046D02*
Y582281D01*
X1326315D01*
X1328854Y579742D01*
Y574664D01*
X1326315Y572125D01*
X1318697D01*
X1323775D02*
X1328854Y567046D01*
X1333932Y579742D02*
X1336471Y582281D01*
X1341550D01*
X1344089Y579742D01*
Y577203D01*
X1341550Y574664D01*
X1339010D01*
X1341550D01*
X1344089Y572125D01*
Y569586D01*
X1341550Y567046D01*
X1336471D01*
X1333932Y569586D01*
X1349167Y579742D02*
X1351706Y582281D01*
X1356785D01*
X1359324Y579742D01*
Y569586D01*
X1356785Y567046D01*
X1351706D01*
X1349167Y569586D01*
Y579742D01*
X817543Y567177D02*
Y582412D01*
X825160D01*
X827700Y579873D01*
Y574795D01*
X825160Y572256D01*
X817543D01*
X822621D02*
X827700Y567177D01*
X842935D02*
X832778D01*
X842935Y577334D01*
Y579873D01*
X840396Y582412D01*
X835317D01*
X832778Y579873D01*
X848013Y569717D02*
X850552Y567177D01*
X855630D01*
X858170Y569717D01*
Y579873D01*
X855630Y582412D01*
X850552D01*
X848013Y579873D01*
Y577334D01*
X850552Y574795D01*
X858170D01*
X1566488Y567383D02*
Y582617D01*
X1574105D01*
X1576644Y580078D01*
Y575000D01*
X1574105Y572461D01*
X1566488D01*
X1571566D02*
X1576644Y567383D01*
X1591879D02*
X1581723D01*
X1591879Y577539D01*
Y580078D01*
X1589340Y582617D01*
X1584262D01*
X1581723Y580078D01*
X1596958D02*
X1599497Y582617D01*
X1604575D01*
X1607115Y580078D01*
Y577539D01*
X1604575Y575000D01*
X1607115Y572461D01*
Y569922D01*
X1604575Y567383D01*
X1599497D01*
X1596958Y569922D01*
Y572461D01*
X1599497Y575000D01*
X1596958Y577539D01*
Y580078D01*
X1599497Y575000D02*
X1604575D01*
X1066984Y567383D02*
Y582617D01*
X1074602D01*
X1077141Y580078D01*
Y575000D01*
X1074602Y572461D01*
X1066984D01*
X1072062D02*
X1077141Y567383D01*
X1092376D02*
X1082219D01*
X1092376Y577539D01*
Y580078D01*
X1089837Y582617D01*
X1084758D01*
X1082219Y580078D01*
X1097454Y582617D02*
X1107611D01*
Y580078D01*
X1097454Y569922D01*
Y567383D01*
X568574D02*
Y582617D01*
X576191D01*
X578731Y580078D01*
Y575000D01*
X576191Y572461D01*
X568574D01*
X573652D02*
X578731Y567383D01*
X593966D02*
X583809D01*
X593966Y577539D01*
Y580078D01*
X591426Y582617D01*
X586348D01*
X583809Y580078D01*
X609201Y582617D02*
X604122Y580078D01*
X599044Y575000D01*
Y569922D01*
X601583Y567383D01*
X606661D01*
X609201Y569922D01*
Y572461D01*
X606661Y575000D01*
X599044D01*
X69069Y567383D02*
Y582617D01*
X76687D01*
X79226Y580078D01*
Y575000D01*
X76687Y572461D01*
X69069D01*
X74147D02*
X79226Y567383D01*
X94461D02*
X84304D01*
X94461Y577539D01*
Y580078D01*
X91922Y582617D01*
X86843D01*
X84304Y580078D01*
X109696Y582617D02*
X99539D01*
Y575000D01*
X104618Y577539D01*
X107157D01*
X109696Y575000D01*
Y569922D01*
X107157Y567383D01*
X102078D01*
X99539Y569922D01*
X817506Y317382D02*
Y332617D01*
X825123D01*
X827662Y330078D01*
Y325000D01*
X825123Y322461D01*
X817506D01*
X822584D02*
X827662Y317382D01*
X842897D02*
X832741D01*
X842897Y327539D01*
Y330078D01*
X840358Y332617D01*
X835280D01*
X832741Y330078D01*
X855593Y317382D02*
Y332617D01*
X847976Y325000D01*
X858132D01*
X1068046Y817344D02*
Y832579D01*
X1075664D01*
X1078203Y830039D01*
Y824961D01*
X1075664Y822422D01*
X1068046D01*
X1073125D02*
X1078203Y817344D01*
X1093438D02*
X1083282D01*
X1093438Y827500D01*
Y830039D01*
X1090899Y832579D01*
X1085821D01*
X1083282Y830039D01*
X1098517D02*
X1101056Y832579D01*
X1106134D01*
X1108673Y830039D01*
Y827500D01*
X1106134Y824961D01*
X1103595D01*
X1106134D01*
X1108673Y822422D01*
Y819883D01*
X1106134Y817344D01*
X1101056D01*
X1098517Y819883D01*
X1567061Y817888D02*
Y833123D01*
X1574679D01*
X1577218Y830584D01*
Y825505D01*
X1574679Y822966D01*
X1567061D01*
X1572139D02*
X1577218Y817888D01*
X1592453D02*
X1582296D01*
X1592453Y828045D01*
Y830584D01*
X1589914Y833123D01*
X1584835D01*
X1582296Y830584D01*
X1607688Y817888D02*
X1597531D01*
X1607688Y828045D01*
Y830584D01*
X1605149Y833123D01*
X1600070D01*
X1597531Y830584D01*
X1322284Y817383D02*
Y832617D01*
X1329901D01*
X1332441Y830078D01*
Y825000D01*
X1329901Y822461D01*
X1322284D01*
X1327362D02*
X1332441Y817383D01*
X1347676D02*
X1337519D01*
X1347676Y827539D01*
Y830078D01*
X1345137Y832617D01*
X1340058D01*
X1337519Y830078D01*
X1352754Y817383D02*
X1357832D01*
X1355293D01*
Y832617D01*
X1352754Y830078D01*
X816411Y817383D02*
Y832617D01*
X824029D01*
X826568Y830078D01*
Y825000D01*
X824029Y822461D01*
X816411D01*
X821490D02*
X826568Y817383D01*
X841803D02*
X831646D01*
X841803Y827539D01*
Y830078D01*
X839264Y832617D01*
X834186D01*
X831646Y830078D01*
X846881D02*
X849421Y832617D01*
X854499D01*
X857038Y830078D01*
Y819922D01*
X854499Y817383D01*
X849421D01*
X846881Y819922D01*
Y830078D01*
X320365Y817383D02*
Y832617D01*
X327982D01*
X330521Y830078D01*
Y825000D01*
X327982Y822461D01*
X320365D01*
X325443D02*
X330521Y817383D01*
X335600D02*
X340678D01*
X338139D01*
Y832617D01*
X335600Y830078D01*
X348296Y819922D02*
X350835Y817383D01*
X355913D01*
X358452Y819922D01*
Y830078D01*
X355913Y832617D01*
X350835D01*
X348296Y830078D01*
Y827539D01*
X350835Y825000D01*
X358452D01*
X1315895Y1067046D02*
Y1082281D01*
X1323513D01*
X1326052Y1079742D01*
Y1074664D01*
X1323513Y1072125D01*
X1315895D01*
X1320974D02*
X1326052Y1067046D01*
X1331130D02*
X1336209D01*
X1333670D01*
Y1082281D01*
X1331130Y1079742D01*
X1343826D02*
X1346366Y1082281D01*
X1351444D01*
X1353983Y1079742D01*
Y1077203D01*
X1351444Y1074664D01*
X1353983Y1072125D01*
Y1069585D01*
X1351444Y1067046D01*
X1346366D01*
X1343826Y1069585D01*
Y1072125D01*
X1346366Y1074664D01*
X1343826Y1077203D01*
Y1079742D01*
X1346366Y1074664D02*
X1351444D01*
X823736Y1067177D02*
Y1082412D01*
X831354D01*
X833893Y1079873D01*
Y1074795D01*
X831354Y1072256D01*
X823736D01*
X828815D02*
X833893Y1067177D01*
X838971D02*
X844050D01*
X841511D01*
Y1082412D01*
X838971Y1079873D01*
X851667Y1082412D02*
X861824D01*
Y1079873D01*
X851667Y1069717D01*
Y1067177D01*
X1571587Y1067382D02*
Y1082617D01*
X1579205D01*
X1581744Y1080078D01*
Y1075000D01*
X1579205Y1072461D01*
X1571587D01*
X1576665D02*
X1581744Y1067382D01*
X1586822D02*
X1591900D01*
X1589361D01*
Y1082617D01*
X1586822Y1080078D01*
X1609675Y1082617D02*
X1604596Y1080078D01*
X1599518Y1075000D01*
Y1069922D01*
X1602057Y1067382D01*
X1607135D01*
X1609675Y1069922D01*
Y1072461D01*
X1607135Y1075000D01*
X1599518D01*
X1072083Y1067382D02*
Y1082617D01*
X1079701D01*
X1082240Y1080078D01*
Y1075000D01*
X1079701Y1072461D01*
X1072083D01*
X1077162D02*
X1082240Y1067382D01*
X1087318D02*
X1092397D01*
X1089857D01*
Y1082617D01*
X1087318Y1080078D01*
X1110171Y1082617D02*
X1100014D01*
Y1075000D01*
X1105093Y1077539D01*
X1107632D01*
X1110171Y1075000D01*
Y1069922D01*
X1107632Y1067382D01*
X1102553D01*
X1100014Y1069922D01*
X570391Y1069474D02*
Y1084709D01*
X578008D01*
X580547Y1082170D01*
Y1077092D01*
X578008Y1074553D01*
X570391D01*
X575469D02*
X580547Y1069474D01*
X585626D02*
X590704D01*
X588165D01*
Y1084709D01*
X585626Y1082170D01*
X605939Y1069474D02*
Y1084709D01*
X598321Y1077092D01*
X608478D01*
X71433Y1069474D02*
Y1084709D01*
X79050D01*
X81589Y1082170D01*
Y1077092D01*
X79050Y1074553D01*
X71433D01*
X76511D02*
X81589Y1069474D01*
X86668D02*
X91746D01*
X89207D01*
Y1084709D01*
X86668Y1082170D01*
X99364D02*
X101903Y1084709D01*
X106981D01*
X109521Y1082170D01*
Y1079631D01*
X106981Y1077092D01*
X104442D01*
X106981D01*
X109521Y1074553D01*
Y1072014D01*
X106981Y1069474D01*
X101903D01*
X99364Y1072014D01*
X322006Y317382D02*
Y332617D01*
X329623D01*
X332163Y330078D01*
Y325000D01*
X329623Y322461D01*
X322006D01*
X327084D02*
X332163Y317382D01*
X337241D02*
X342319D01*
X339780D01*
Y332617D01*
X337241Y330078D01*
X360094Y317382D02*
X349937D01*
X360094Y327539D01*
Y330078D01*
X357554Y332617D01*
X352476D01*
X349937Y330078D01*
X1077326Y1317343D02*
Y1332578D01*
X1084944D01*
X1087483Y1330039D01*
Y1324961D01*
X1084944Y1322422D01*
X1077326D01*
X1082405D02*
X1087483Y1317343D01*
X1092561D02*
X1097640D01*
X1095100D01*
Y1332578D01*
X1092561Y1330039D01*
X1105257Y1317343D02*
X1110335D01*
X1107796D01*
Y1332578D01*
X1105257Y1330039D01*
X1570860Y1318652D02*
Y1333887D01*
X1578478D01*
X1581017Y1331348D01*
Y1326270D01*
X1578478Y1323731D01*
X1570860D01*
X1575939D02*
X1581017Y1318652D01*
X1586095D02*
X1591174D01*
X1588635D01*
Y1333887D01*
X1586095Y1331348D01*
X1598791D02*
X1601331Y1333887D01*
X1606409D01*
X1608948Y1331348D01*
Y1321192D01*
X1606409Y1318652D01*
X1601331D01*
X1598791Y1321192D01*
Y1331348D01*
X1327909Y1317383D02*
Y1332617D01*
X1335527D01*
X1338066Y1330078D01*
Y1325000D01*
X1335527Y1322461D01*
X1327909D01*
X1332988D02*
X1338066Y1317383D01*
X1343144Y1319922D02*
X1345684Y1317383D01*
X1350762D01*
X1353301Y1319922D01*
Y1330078D01*
X1350762Y1332617D01*
X1345684D01*
X1343144Y1330078D01*
Y1327539D01*
X1345684Y1325000D01*
X1353301D01*
X833330Y1317383D02*
Y1332617D01*
X840947D01*
X843486Y1330078D01*
Y1325000D01*
X840947Y1322461D01*
X833330D01*
X838408D02*
X843486Y1317383D01*
X848565Y1330078D02*
X851104Y1332617D01*
X856182D01*
X858721Y1330078D01*
Y1327539D01*
X856182Y1325000D01*
X858721Y1322461D01*
Y1319922D01*
X856182Y1317383D01*
X851104D01*
X848565Y1319922D01*
Y1322461D01*
X851104Y1325000D01*
X848565Y1327539D01*
Y1330078D01*
X851104Y1325000D02*
X856182D01*
X367538Y1350541D02*
Y1365776D01*
X375156D01*
X377695Y1363237D01*
Y1358159D01*
X375156Y1355620D01*
X367538D01*
X372617D02*
X377695Y1350541D01*
X382774Y1365776D02*
X392930D01*
Y1363237D01*
X382774Y1353080D01*
Y1350541D01*
X1328029Y1567046D02*
Y1582281D01*
X1335646D01*
X1338185Y1579742D01*
Y1574664D01*
X1335646Y1572125D01*
X1328029D01*
X1333107D02*
X1338185Y1567046D01*
X1353420Y1582281D02*
X1348342Y1579742D01*
X1343264Y1574664D01*
Y1569586D01*
X1345803Y1567046D01*
X1350881D01*
X1353420Y1569586D01*
Y1572125D01*
X1350881Y1574664D01*
X1343264D01*
X834461Y1567177D02*
Y1582413D01*
X842079D01*
X844618Y1579873D01*
Y1574795D01*
X842079Y1572256D01*
X834461D01*
X839539D02*
X844618Y1567177D01*
X859853Y1582413D02*
X849696D01*
Y1574795D01*
X854774Y1577334D01*
X857314D01*
X859853Y1574795D01*
Y1569717D01*
X857314Y1567177D01*
X852235D01*
X849696Y1569717D01*
X1582859Y1567383D02*
Y1582617D01*
X1590476D01*
X1593016Y1580078D01*
Y1575000D01*
X1590476Y1572461D01*
X1582859D01*
X1587937D02*
X1593016Y1567383D01*
X1605712D02*
Y1582617D01*
X1598094Y1575000D01*
X1608251D01*
X1083902Y1567383D02*
Y1582617D01*
X1091520D01*
X1094059Y1580078D01*
Y1575000D01*
X1091520Y1572461D01*
X1083902D01*
X1088980D02*
X1094059Y1567383D01*
X1099137Y1580078D02*
X1101676Y1582617D01*
X1106755D01*
X1109294Y1580078D01*
Y1577539D01*
X1106755Y1575000D01*
X1104216D01*
X1106755D01*
X1109294Y1572461D01*
Y1569922D01*
X1106755Y1567383D01*
X1101676D01*
X1099137Y1569922D01*
X582210Y1567383D02*
Y1582617D01*
X589827D01*
X592366Y1580078D01*
Y1575000D01*
X589827Y1572461D01*
X582210D01*
X587288D02*
X592366Y1567383D01*
X607601D02*
X597444D01*
X607601Y1577539D01*
Y1580078D01*
X605062Y1582617D01*
X599984D01*
X597444Y1580078D01*
X84468Y1570890D02*
Y1586125D01*
X92086D01*
X94625Y1583586D01*
Y1578508D01*
X92086Y1575968D01*
X84468D01*
X89546D02*
X94625Y1570890D01*
X99703D02*
X104781D01*
X102242D01*
Y1586125D01*
X99703Y1583586D01*
X56864Y407130D02*
Y422365D01*
X64482D01*
X67021Y419826D01*
Y414748D01*
X64482Y412208D01*
X56864D01*
X72099Y407130D02*
X77177D01*
X74638D01*
Y422365D01*
X72099Y419826D01*
X84795D02*
X87334Y422365D01*
X92413D01*
X94952Y419826D01*
Y417287D01*
X92413Y414748D01*
X94952Y412208D01*
Y409669D01*
X92413Y407130D01*
X87334D01*
X84795Y409669D01*
Y412208D01*
X87334Y414748D01*
X84795Y417287D01*
Y419826D01*
X87334Y414748D02*
X92413D01*
X1152874Y1688306D02*
Y1703541D01*
X1160491D01*
X1163031Y1701002D01*
Y1695923D01*
X1160491Y1693384D01*
X1152874D01*
X1168109Y1688306D02*
X1173187D01*
X1170648D01*
Y1703541D01*
X1168109Y1701002D01*
X1180805Y1703541D02*
X1190962D01*
Y1701002D01*
X1180805Y1690845D01*
Y1688306D01*
X1403064D02*
Y1703541D01*
X1410681D01*
X1413221Y1701002D01*
Y1695923D01*
X1410681Y1693384D01*
X1403064D01*
X1418299Y1688306D02*
X1423377D01*
X1420838D01*
Y1703541D01*
X1418299Y1701002D01*
X1441152Y1703541D02*
X1430995D01*
Y1695923D01*
X1436073Y1698463D01*
X1438613D01*
X1441152Y1695923D01*
Y1690845D01*
X1438613Y1688306D01*
X1433534D01*
X1430995Y1690845D01*
X56864Y157194D02*
Y172429D01*
X64482D01*
X67021Y169890D01*
Y164811D01*
X64482Y162272D01*
X56864D01*
X72099Y157194D02*
X77177D01*
X74638D01*
Y172429D01*
X72099Y169890D01*
X92413Y157194D02*
Y172429D01*
X84795Y164811D01*
X94952D01*
X902938Y1688306D02*
Y1703541D01*
X910555D01*
X913095Y1701002D01*
Y1695923D01*
X910555Y1693384D01*
X902938D01*
X918173Y1688306D02*
X923251D01*
X920712D01*
Y1703541D01*
X918173Y1701002D01*
X930869D02*
X933408Y1703541D01*
X938486D01*
X941026Y1701002D01*
Y1698463D01*
X938486Y1695923D01*
X935947D01*
X938486D01*
X941026Y1693384D01*
Y1690845D01*
X938486Y1688306D01*
X933408D01*
X930869Y1690845D01*
X353028Y1628362D02*
Y1643597D01*
X360645D01*
X363185Y1641058D01*
Y1635979D01*
X360645Y1633440D01*
X353028D01*
X368263Y1628362D02*
X373341D01*
X370802D01*
Y1643597D01*
X368263Y1641058D01*
X391116Y1628362D02*
X380959D01*
X391116Y1638519D01*
Y1641058D01*
X388577Y1643597D01*
X383498D01*
X380959Y1641058D01*
X1302988Y1688306D02*
Y1703541D01*
X1310605D01*
X1313145Y1701002D01*
Y1695923D01*
X1310605Y1693384D01*
X1302988D01*
X1318223Y1688306D02*
X1323301D01*
X1320762D01*
Y1703541D01*
X1318223Y1701002D01*
X1330919Y1688306D02*
X1335997D01*
X1333458D01*
Y1703541D01*
X1330919Y1701002D01*
X802862Y1688306D02*
Y1703541D01*
X810480D01*
X813019Y1701002D01*
Y1695923D01*
X810480Y1693384D01*
X802862D01*
X818097Y1688306D02*
X823175D01*
X820636D01*
Y1703541D01*
X818097Y1701002D01*
X830793D02*
X833332Y1703541D01*
X838410D01*
X840950Y1701002D01*
Y1690845D01*
X838410Y1688306D01*
X833332D01*
X830793Y1690845D01*
Y1701002D01*
X56864Y657320D02*
Y672555D01*
X64482D01*
X67021Y670016D01*
Y664938D01*
X64482Y662398D01*
X56864D01*
X72099Y659859D02*
X74638Y657320D01*
X79717D01*
X82256Y659859D01*
Y670016D01*
X79717Y672555D01*
X74638D01*
X72099Y670016D01*
Y667477D01*
X74638Y664938D01*
X82256D01*
X1552924Y1688306D02*
Y1703541D01*
X1560542D01*
X1563081Y1701002D01*
Y1695923D01*
X1560542Y1693384D01*
X1552924D01*
X1568159Y1701002D02*
X1570698Y1703541D01*
X1575777D01*
X1578316Y1701002D01*
Y1698463D01*
X1575777Y1695923D01*
X1578316Y1693384D01*
Y1690845D01*
X1575777Y1688306D01*
X1570698D01*
X1568159Y1690845D01*
Y1693384D01*
X1570698Y1695923D01*
X1568159Y1698463D01*
Y1701002D01*
X1570698Y1695923D02*
X1575777D01*
X1053052Y1688306D02*
Y1703541D01*
X1060669D01*
X1063209Y1701002D01*
Y1695923D01*
X1060669Y1693384D01*
X1053052D01*
X1068287Y1703541D02*
X1078444D01*
Y1701002D01*
X1068287Y1690845D01*
Y1688306D01*
X615664Y1680116D02*
Y1695352D01*
X623282D01*
X625821Y1692812D01*
Y1687734D01*
X623282Y1685195D01*
X615664D01*
X641056Y1695352D02*
X635977Y1692812D01*
X630899Y1687734D01*
Y1682656D01*
X633438Y1680116D01*
X638517D01*
X641056Y1682656D01*
Y1685195D01*
X638517Y1687734D01*
X630899D01*
X115730Y1680416D02*
Y1695651D01*
X123348D01*
X125887Y1693112D01*
Y1688033D01*
X123348Y1685494D01*
X115730D01*
X141122Y1695651D02*
X130965D01*
Y1688033D01*
X136044Y1690573D01*
X138583D01*
X141122Y1688033D01*
Y1682955D01*
X138583Y1680416D01*
X133504D01*
X130965Y1682955D01*
X56864Y907256D02*
Y922491D01*
X64482D01*
X67021Y919952D01*
Y914874D01*
X64482Y912334D01*
X56864D01*
X79717Y907256D02*
Y922491D01*
X72099Y914874D01*
X82256D01*
X56864Y1157192D02*
Y1172427D01*
X64482D01*
X67021Y1169888D01*
Y1164809D01*
X64482Y1162270D01*
X56864D01*
X72099Y1169888D02*
X74638Y1172427D01*
X79717D01*
X82256Y1169888D01*
Y1167349D01*
X79717Y1164809D01*
X77177D01*
X79717D01*
X82256Y1162270D01*
Y1159731D01*
X79717Y1157192D01*
X74638D01*
X72099Y1159731D01*
X56864Y1407128D02*
Y1422363D01*
X64482D01*
X67021Y1419824D01*
Y1414745D01*
X64482Y1412206D01*
X56864D01*
X82256Y1407128D02*
X72099D01*
X82256Y1417285D01*
Y1419824D01*
X79717Y1422363D01*
X74638D01*
X72099Y1419824D01*
X56918Y1657147D02*
Y1672382D01*
X64535D01*
X67074Y1669843D01*
Y1664765D01*
X64535Y1662226D01*
X56918D01*
X72153Y1657147D02*
X77231D01*
X74692D01*
Y1672382D01*
X72153Y1669843D01*
X1402315Y146919D02*
Y131684D01*
X1409932D01*
X1412472Y134224D01*
Y144380D01*
X1409932Y146919D01*
X1402315D01*
X1417550Y144380D02*
X1420089Y146919D01*
X1425168D01*
X1427707Y144380D01*
Y141841D01*
X1425168Y139302D01*
X1422628D01*
X1425168D01*
X1427707Y136763D01*
Y134224D01*
X1425168Y131684D01*
X1420089D01*
X1417550Y134224D01*
X1442942Y146919D02*
X1437863Y144380D01*
X1432785Y139302D01*
Y134224D01*
X1435324Y131684D01*
X1440403D01*
X1442942Y134224D01*
Y136763D01*
X1440403Y139302D01*
X1432785D01*
X898514Y147324D02*
Y132089D01*
X906132D01*
X908671Y134628D01*
Y144785D01*
X906132Y147324D01*
X898514D01*
X913749Y144785D02*
X916288Y147324D01*
X921367D01*
X923906Y144785D01*
Y142246D01*
X921367Y139707D01*
X918827D01*
X921367D01*
X923906Y137168D01*
Y134628D01*
X921367Y132089D01*
X916288D01*
X913749Y134628D01*
X939141Y147324D02*
X928984D01*
Y139707D01*
X934062Y142246D01*
X936602D01*
X939141Y139707D01*
Y134628D01*
X936602Y132089D01*
X931523D01*
X928984Y134628D01*
X1650741Y146433D02*
Y131198D01*
X1658359D01*
X1660898Y133737D01*
Y143894D01*
X1658359Y146433D01*
X1650741D01*
X1665977Y143894D02*
X1668516Y146433D01*
X1673594D01*
X1676133Y143894D01*
Y141355D01*
X1673594Y138815D01*
X1671055D01*
X1673594D01*
X1676133Y136276D01*
Y133737D01*
X1673594Y131198D01*
X1668516D01*
X1665977Y133737D01*
X1688829Y131198D02*
Y146433D01*
X1681212Y138815D01*
X1691368D01*
X1151238Y148619D02*
Y133384D01*
X1158855D01*
X1161394Y135924D01*
Y146080D01*
X1158855Y148619D01*
X1151238D01*
X1166473Y146080D02*
X1169012Y148619D01*
X1174090D01*
X1176629Y146080D01*
Y143541D01*
X1174090Y141002D01*
X1171551D01*
X1174090D01*
X1176629Y138463D01*
Y135924D01*
X1174090Y133384D01*
X1169012D01*
X1166473Y135924D01*
X1181708Y146080D02*
X1184247Y148619D01*
X1189325D01*
X1191865Y146080D01*
Y143541D01*
X1189325Y141002D01*
X1186786D01*
X1189325D01*
X1191865Y138463D01*
Y135924D01*
X1189325Y133384D01*
X1184247D01*
X1181708Y135924D01*
X649545Y147523D02*
Y132288D01*
X657163D01*
X659702Y134827D01*
Y144984D01*
X657163Y147523D01*
X649545D01*
X664780Y144984D02*
X667319Y147523D01*
X672398D01*
X674937Y144984D01*
Y142445D01*
X672398Y139906D01*
X669858D01*
X672398D01*
X674937Y137367D01*
Y134827D01*
X672398Y132288D01*
X667319D01*
X664780Y134827D01*
X690172Y132288D02*
X680015D01*
X690172Y142445D01*
Y144984D01*
X687633Y147523D01*
X682554D01*
X680015Y144984D01*
X147655Y150257D02*
Y135022D01*
X155273D01*
X157812Y137561D01*
Y147718D01*
X155273Y150257D01*
X147655D01*
X162891Y147718D02*
X165430Y150257D01*
X170508D01*
X173047Y147718D01*
Y145178D01*
X170508Y142639D01*
X167969D01*
X170508D01*
X173047Y140100D01*
Y137561D01*
X170508Y135022D01*
X165430D01*
X162891Y137561D01*
X178126Y135022D02*
X183204D01*
X180665D01*
Y150257D01*
X178126Y147718D01*
X1399497Y646957D02*
Y631722D01*
X1407114D01*
X1409653Y634261D01*
Y644417D01*
X1407114Y646957D01*
X1399497D01*
X1414732Y644417D02*
X1417271Y646957D01*
X1422349D01*
X1424888Y644417D01*
Y641878D01*
X1422349Y639339D01*
X1419810D01*
X1422349D01*
X1424888Y636800D01*
Y634261D01*
X1422349Y631722D01*
X1417271D01*
X1414732Y634261D01*
X1429967Y644417D02*
X1432506Y646957D01*
X1437584D01*
X1440124Y644417D01*
Y634261D01*
X1437584Y631722D01*
X1432506D01*
X1429967Y634261D01*
Y644417D01*
X900155Y646829D02*
Y631594D01*
X907773D01*
X910312Y634133D01*
Y644290D01*
X907773Y646829D01*
X900155D01*
X925547Y631594D02*
X915390D01*
X925547Y641751D01*
Y644290D01*
X923008Y646829D01*
X917930D01*
X915390Y644290D01*
X930625Y634133D02*
X933165Y631594D01*
X938243D01*
X940782Y634133D01*
Y644290D01*
X938243Y646829D01*
X933165D01*
X930625Y644290D01*
Y641751D01*
X933165Y639212D01*
X940782D01*
X1649647Y647579D02*
Y632344D01*
X1657265D01*
X1659804Y634883D01*
Y645040D01*
X1657265Y647579D01*
X1649647D01*
X1675039Y632344D02*
X1664882D01*
X1675039Y642501D01*
Y645040D01*
X1672500Y647579D01*
X1667422D01*
X1664882Y645040D01*
X1680117D02*
X1682657Y647579D01*
X1687735D01*
X1690274Y645040D01*
Y642501D01*
X1687735Y639962D01*
X1690274Y637422D01*
Y634883D01*
X1687735Y632344D01*
X1682657D01*
X1680117Y634883D01*
Y637422D01*
X1682657Y639962D01*
X1680117Y642501D01*
Y645040D01*
X1682657Y639962D02*
X1687735D01*
X1150691Y647577D02*
Y632342D01*
X1158308D01*
X1160847Y634881D01*
Y645038D01*
X1158308Y647577D01*
X1150691D01*
X1176083Y632342D02*
X1165926D01*
X1176083Y642499D01*
Y645038D01*
X1173543Y647577D01*
X1168465D01*
X1165926Y645038D01*
X1181161Y647577D02*
X1191318D01*
Y645038D01*
X1181161Y634881D01*
Y632342D01*
X648451Y647028D02*
Y631793D01*
X656068D01*
X658607Y634332D01*
Y644489D01*
X656068Y647028D01*
X648451D01*
X673843Y631793D02*
X663686D01*
X673843Y641950D01*
Y644489D01*
X671303Y647028D01*
X666225D01*
X663686Y644489D01*
X689078Y647028D02*
X683999Y644489D01*
X678921Y639411D01*
Y634332D01*
X681460Y631793D01*
X686538D01*
X689078Y634332D01*
Y636871D01*
X686538Y639411D01*
X678921D01*
X148399Y648667D02*
Y633432D01*
X156017D01*
X158556Y635971D01*
Y646128D01*
X156017Y648667D01*
X148399D01*
X173791Y633432D02*
X163634D01*
X173791Y643589D01*
Y646128D01*
X171252Y648667D01*
X166173D01*
X163634Y646128D01*
X189026Y648667D02*
X178869D01*
Y641050D01*
X183947Y643589D01*
X186487D01*
X189026Y641050D01*
Y635971D01*
X186487Y633432D01*
X181408D01*
X178869Y635971D01*
X899571Y397549D02*
Y382314D01*
X907188D01*
X909728Y384853D01*
Y395010D01*
X907188Y397549D01*
X899571D01*
X924963Y382314D02*
X914806D01*
X924963Y392471D01*
Y395010D01*
X922424Y397549D01*
X917345D01*
X914806Y395010D01*
X937659Y382314D02*
Y397549D01*
X930041Y389932D01*
X940198D01*
X1150112Y895927D02*
Y880692D01*
X1157729D01*
X1160269Y883231D01*
Y893388D01*
X1157729Y895927D01*
X1150112D01*
X1175504Y880692D02*
X1165347D01*
X1175504Y890849D01*
Y893388D01*
X1172964Y895927D01*
X1167886D01*
X1165347Y893388D01*
X1180582D02*
X1183121Y895927D01*
X1188200D01*
X1190739Y893388D01*
Y890849D01*
X1188200Y888309D01*
X1185660D01*
X1188200D01*
X1190739Y885770D01*
Y883231D01*
X1188200Y880692D01*
X1183121D01*
X1180582Y883231D01*
X1648032Y898111D02*
Y882876D01*
X1655650D01*
X1658189Y885415D01*
Y895572D01*
X1655650Y898111D01*
X1648032D01*
X1673424Y882876D02*
X1663267D01*
X1673424Y893032D01*
Y895572D01*
X1670885Y898111D01*
X1665806D01*
X1663267Y895572D01*
X1688659Y882876D02*
X1678502D01*
X1688659Y893032D01*
Y895572D01*
X1686120Y898111D01*
X1681042D01*
X1678502Y895572D01*
X1400520Y895962D02*
Y880727D01*
X1408137D01*
X1410676Y883266D01*
Y893423D01*
X1408137Y895962D01*
X1400520D01*
X1425911Y880727D02*
X1415755D01*
X1425911Y890884D01*
Y893423D01*
X1423372Y895962D01*
X1418294D01*
X1415755Y893423D01*
X1430990Y880727D02*
X1436068D01*
X1433529D01*
Y895962D01*
X1430990Y893423D01*
X897930Y896507D02*
Y881272D01*
X905547D01*
X908086Y883811D01*
Y893968D01*
X905547Y896507D01*
X897930D01*
X923321Y881272D02*
X913165D01*
X923321Y891429D01*
Y893968D01*
X920782Y896507D01*
X915704D01*
X913165Y893968D01*
X928400D02*
X930939Y896507D01*
X936017D01*
X938557Y893968D01*
Y883811D01*
X936017Y881272D01*
X930939D01*
X928400Y883811D01*
Y893968D01*
X400242Y897054D02*
Y881819D01*
X407859D01*
X410398Y884358D01*
Y894515D01*
X407859Y897054D01*
X400242D01*
X415477Y881819D02*
X420555D01*
X418016D01*
Y897054D01*
X415477Y894515D01*
X428172Y884358D02*
X430712Y881819D01*
X435790D01*
X438329Y884358D01*
Y894515D01*
X435790Y897054D01*
X430712D01*
X428172Y894515D01*
Y891975D01*
X430712Y889436D01*
X438329D01*
X1403272Y1148353D02*
Y1133118D01*
X1410889D01*
X1413428Y1135657D01*
Y1145814D01*
X1410889Y1148353D01*
X1403272D01*
X1418507Y1133118D02*
X1423585D01*
X1421046D01*
Y1148353D01*
X1418507Y1145814D01*
X1431203D02*
X1433742Y1148353D01*
X1438820D01*
X1441359Y1145814D01*
Y1143275D01*
X1438820Y1140735D01*
X1441359Y1138196D01*
Y1135657D01*
X1438820Y1133118D01*
X1433742D01*
X1431203Y1135657D01*
Y1138196D01*
X1433742Y1140735D01*
X1431203Y1143275D01*
Y1145814D01*
X1433742Y1140735D02*
X1438820D01*
X899237Y1148521D02*
Y1133287D01*
X906854D01*
X909393Y1135826D01*
Y1145982D01*
X906854Y1148521D01*
X899237D01*
X914472Y1133287D02*
X919550D01*
X917011D01*
Y1148521D01*
X914472Y1145982D01*
X927168Y1148521D02*
X937324D01*
Y1145982D01*
X927168Y1135826D01*
Y1133287D01*
X1649823Y1148177D02*
Y1132942D01*
X1657440D01*
X1659980Y1135481D01*
Y1145638D01*
X1657440Y1148177D01*
X1649823D01*
X1665058Y1132942D02*
X1670136D01*
X1667597D01*
Y1148177D01*
X1665058Y1145638D01*
X1687910Y1148177D02*
X1682832Y1145638D01*
X1677754Y1140560D01*
Y1135481D01*
X1680293Y1132942D01*
X1685371D01*
X1687910Y1135481D01*
Y1138021D01*
X1685371Y1140560D01*
X1677754D01*
X1148678Y1148175D02*
Y1132940D01*
X1156295D01*
X1158834Y1135480D01*
Y1145636D01*
X1156295Y1148175D01*
X1148678D01*
X1163913Y1132940D02*
X1168991D01*
X1166452D01*
Y1148175D01*
X1163913Y1145636D01*
X1186765Y1148175D02*
X1176609D01*
Y1140558D01*
X1181687Y1143097D01*
X1184226D01*
X1186765Y1140558D01*
Y1135480D01*
X1184226Y1132940D01*
X1179148D01*
X1176609Y1135480D01*
X648079Y1147079D02*
Y1131844D01*
X655697D01*
X658236Y1134383D01*
Y1144540D01*
X655697Y1147079D01*
X648079D01*
X663314Y1131844D02*
X668393D01*
X665853D01*
Y1147079D01*
X663314Y1144540D01*
X683628Y1131844D02*
Y1147079D01*
X676010Y1139462D01*
X686167D01*
X149121Y1153095D02*
Y1137860D01*
X156739D01*
X159278Y1140399D01*
Y1150556D01*
X156739Y1153095D01*
X149121D01*
X164356Y1137860D02*
X169435D01*
X166896D01*
Y1153095D01*
X164356Y1150556D01*
X177052D02*
X179592Y1153095D01*
X184670D01*
X187209Y1150556D01*
Y1148017D01*
X184670Y1145478D01*
X182131D01*
X184670D01*
X187209Y1142939D01*
Y1140399D01*
X184670Y1137860D01*
X179592D01*
X177052Y1140399D01*
X400242Y397002D02*
Y381767D01*
X407859D01*
X410398Y384306D01*
Y394463D01*
X407859Y397002D01*
X400242D01*
X415477Y381767D02*
X420555D01*
X418016D01*
Y397002D01*
X415477Y394463D01*
X438329Y381767D02*
X428172D01*
X438329Y391924D01*
Y394463D01*
X435790Y397002D01*
X430712D01*
X428172Y394463D01*
X1151732Y1396526D02*
Y1381291D01*
X1159350D01*
X1161889Y1383831D01*
Y1393987D01*
X1159350Y1396526D01*
X1151732D01*
X1166967Y1381291D02*
X1172046D01*
X1169506D01*
Y1396526D01*
X1166967Y1393987D01*
X1179663Y1381291D02*
X1184742D01*
X1182202D01*
Y1396526D01*
X1179663Y1393987D01*
X1652379Y1397286D02*
Y1382051D01*
X1659996D01*
X1662535Y1384590D01*
Y1394747D01*
X1659996Y1397286D01*
X1652379D01*
X1667614Y1382051D02*
X1672692D01*
X1670153D01*
Y1397286D01*
X1667614Y1394747D01*
X1680309D02*
X1682849Y1397286D01*
X1687927D01*
X1690466Y1394747D01*
Y1384590D01*
X1687927Y1382051D01*
X1682849D01*
X1680309Y1384590D01*
Y1394747D01*
X1400674Y1396561D02*
Y1381326D01*
X1408291D01*
X1410831Y1383866D01*
Y1394022D01*
X1408291Y1396561D01*
X1400674D01*
X1415909Y1383866D02*
X1418448Y1381326D01*
X1423527D01*
X1426066Y1383866D01*
Y1394022D01*
X1423527Y1396561D01*
X1418448D01*
X1415909Y1394022D01*
Y1391483D01*
X1418448Y1388944D01*
X1426066D01*
X898982Y1396559D02*
Y1381324D01*
X906600D01*
X909139Y1383864D01*
Y1394020D01*
X906600Y1396559D01*
X898982D01*
X914217Y1394020D02*
X916756Y1396559D01*
X921835D01*
X924374Y1394020D01*
Y1391481D01*
X921835Y1388942D01*
X924374Y1386403D01*
Y1383864D01*
X921835Y1381324D01*
X916756D01*
X914217Y1383864D01*
Y1386403D01*
X916756Y1388942D01*
X914217Y1391481D01*
Y1394020D01*
X916756Y1388942D02*
X921835D01*
X398930Y1399293D02*
Y1384058D01*
X406548D01*
X409087Y1386597D01*
Y1396754D01*
X406548Y1399293D01*
X398930D01*
X414165D02*
X424322D01*
Y1396754D01*
X414165Y1386597D01*
Y1384058D01*
X1398709Y1644260D02*
Y1629025D01*
X1406326D01*
X1408866Y1631564D01*
Y1641721D01*
X1406326Y1644260D01*
X1398709D01*
X1424101D02*
X1419022Y1641721D01*
X1413944Y1636642D01*
Y1631564D01*
X1416483Y1629025D01*
X1421561D01*
X1424101Y1631564D01*
Y1634103D01*
X1421561Y1636642D01*
X1413944D01*
X897925Y1646385D02*
Y1631150D01*
X905542D01*
X908082Y1633689D01*
Y1643846D01*
X905542Y1646385D01*
X897925D01*
X923317D02*
X913160D01*
Y1638767D01*
X918238Y1641306D01*
X920778D01*
X923317Y1638767D01*
Y1633689D01*
X920778Y1631150D01*
X915699D01*
X913160Y1633689D01*
X1647417Y1646041D02*
Y1630806D01*
X1655035D01*
X1657574Y1633345D01*
Y1643501D01*
X1655035Y1646041D01*
X1647417D01*
X1670270Y1630806D02*
Y1646041D01*
X1662652Y1638423D01*
X1672809D01*
X1149555Y1646039D02*
Y1630804D01*
X1157172D01*
X1159711Y1633343D01*
Y1643499D01*
X1157172Y1646039D01*
X1149555D01*
X1164790Y1643499D02*
X1167329Y1646039D01*
X1172407D01*
X1174946Y1643499D01*
Y1640960D01*
X1172407Y1638421D01*
X1169868D01*
X1172407D01*
X1174946Y1635882D01*
Y1633343D01*
X1172407Y1630804D01*
X1167329D01*
X1164790Y1633343D01*
X651144Y1648225D02*
Y1632990D01*
X658762D01*
X661301Y1635529D01*
Y1645686D01*
X658762Y1648225D01*
X651144D01*
X676536Y1632990D02*
X666379D01*
X676536Y1643147D01*
Y1645686D01*
X673997Y1648225D01*
X668919D01*
X666379Y1645686D01*
X147614Y1647131D02*
Y1631896D01*
X155231D01*
X157770Y1634435D01*
Y1644592D01*
X155231Y1647131D01*
X147614D01*
X162849Y1631896D02*
X167927D01*
X165388D01*
Y1647131D01*
X162849Y1644592D01*
X0Y0D02*
X1750000D01*
X1750000Y1750000D02*
X1750000Y0D01*
X0D02*
Y1750000D01*
X1750000Y1750000D01*
M02*
