G04*
G04 #@! TF.GenerationSoftware,Altium Limited,Altium Designer,20.0.13 (296)*
G04*
G04 Layer_Physical_Order=1*
G04 Layer_Color=255*
%FSLAX44Y44*%
%MOMM*%
G71*
G01*
G75*
%ADD12C,0.2540*%
%ADD13R,1.4000X1.2000*%
%ADD14R,1.8000X2.2000*%
%ADD15R,1.8000X1.1000*%
%ADD25C,1.8000*%
%ADD26C,1.4000*%
%ADD27R,1.4000X1.4000*%
%ADD28C,4.0000*%
%ADD29C,6.0000*%
%ADD30R,1.4000X1.4000*%
%ADD31C,1.2700*%
G36*
X298761Y1683657D02*
X139432Y1683657D01*
X136821Y1683313D01*
X134389Y1682305D01*
X132300Y1680702D01*
X130697Y1678613D01*
X129689Y1676181D01*
X129346Y1673570D01*
Y1671690D01*
X128290Y1670984D01*
X127797Y1671189D01*
X124784Y1671585D01*
X121772Y1671189D01*
X118965Y1670026D01*
X116554Y1668176D01*
X114704Y1665765D01*
X113541Y1662958D01*
X113145Y1659946D01*
X113361Y1658307D01*
Y1642500D01*
X113460Y1641744D01*
Y1637483D01*
X105000D01*
X102389Y1637140D01*
X99957Y1636132D01*
X97928Y1634575D01*
X97524Y1634743D01*
X94914Y1635086D01*
X50387Y1635086D01*
X47776Y1634743D01*
X45344Y1633735D01*
X43255Y1632132D01*
X41652Y1630043D01*
X40644Y1627610D01*
X40301Y1625000D01*
X40301Y1460418D01*
X40644Y1457808D01*
X41652Y1455375D01*
X43255Y1453286D01*
X45344Y1451683D01*
X47776Y1450676D01*
X50387Y1450332D01*
X1750000Y1450332D01*
Y1339348D01*
X1750000Y1339348D01*
X1716676D01*
X1715428Y1340309D01*
Y1378432D01*
X1715084Y1381042D01*
X1714076Y1383475D01*
X1712473Y1385564D01*
X1710384Y1387166D01*
X1707952Y1388174D01*
X1705341Y1388518D01*
X1636881Y1388518D01*
Y1395479D01*
X1636981Y1396235D01*
Y1416270D01*
X1636584Y1419283D01*
X1635421Y1422090D01*
X1633572Y1424500D01*
X1631161Y1426350D01*
X1628354Y1427513D01*
X1625341Y1427910D01*
X1622329Y1427513D01*
X1619521Y1426350D01*
X1617111Y1424500D01*
X1615261Y1422090D01*
X1614098Y1419283D01*
X1613702Y1416270D01*
Y1396235D01*
X1613801Y1395479D01*
Y1388518D01*
X1545341Y1388518D01*
X1542731Y1388174D01*
X1540298Y1387166D01*
X1538209Y1385564D01*
X1536606Y1383475D01*
X1535599Y1381042D01*
X1535255Y1378432D01*
Y1339348D01*
X1465086D01*
Y1377185D01*
X1464743Y1379796D01*
X1463735Y1382228D01*
X1462132Y1384317D01*
X1460043Y1385920D01*
X1457610Y1386928D01*
X1455000Y1387271D01*
X1386540Y1387271D01*
Y1394598D01*
X1386640Y1395355D01*
Y1415000D01*
X1386243Y1418013D01*
X1385080Y1420820D01*
X1383230Y1423230D01*
X1380820Y1425080D01*
X1378013Y1426243D01*
X1375000Y1426640D01*
X1371987Y1426243D01*
X1369180Y1425080D01*
X1366770Y1423230D01*
X1364920Y1420820D01*
X1363757Y1418013D01*
X1363360Y1415000D01*
Y1395355D01*
X1363460Y1394598D01*
Y1387271D01*
X1295000Y1387271D01*
X1292390Y1386927D01*
X1289957Y1385920D01*
X1287868Y1384317D01*
X1286265Y1382228D01*
X1285257Y1379796D01*
X1284914Y1377185D01*
Y1339348D01*
X1214925D01*
Y1377194D01*
X1214581Y1379805D01*
X1213574Y1382238D01*
X1211971Y1384326D01*
X1209882Y1385929D01*
X1207449Y1386937D01*
X1204839Y1387281D01*
X1136379Y1387281D01*
Y1394364D01*
X1136478Y1395121D01*
Y1414961D01*
X1136082Y1417973D01*
X1134919Y1420781D01*
X1133069Y1423191D01*
X1130658Y1425041D01*
X1127851Y1426204D01*
X1124839Y1426600D01*
X1121826Y1426204D01*
X1119019Y1425041D01*
X1116608Y1423191D01*
X1114759Y1420781D01*
X1113596Y1417973D01*
X1113199Y1414961D01*
Y1395121D01*
X1113299Y1394364D01*
Y1387281D01*
X1044839Y1387281D01*
X1042228Y1386937D01*
X1039796Y1385929D01*
X1037707Y1384326D01*
X1036104Y1382238D01*
X1035096Y1379805D01*
X1034752Y1377194D01*
Y1339348D01*
X965086D01*
Y1377132D01*
X964743Y1379743D01*
X963735Y1382175D01*
X962132Y1384264D01*
X960043Y1385867D01*
X957611Y1386875D01*
X955000Y1387218D01*
X886540Y1387218D01*
Y1394404D01*
X886640Y1395160D01*
Y1415000D01*
X886243Y1418013D01*
X885080Y1420820D01*
X883230Y1423230D01*
X880820Y1425080D01*
X878012Y1426243D01*
X875000Y1426640D01*
X871988Y1426243D01*
X869180Y1425080D01*
X866770Y1423230D01*
X864920Y1420820D01*
X863757Y1418013D01*
X863361Y1415000D01*
Y1395160D01*
X863460Y1394404D01*
Y1387218D01*
X795000Y1387218D01*
X792390Y1386875D01*
X789957Y1385867D01*
X787868Y1384264D01*
X786265Y1382175D01*
X785257Y1379743D01*
X784914Y1377132D01*
Y1339348D01*
X465086D01*
Y1377095D01*
X464743Y1379706D01*
X463735Y1382139D01*
X462132Y1384228D01*
X460043Y1385831D01*
X457611Y1386838D01*
X455000Y1387182D01*
X386540Y1387182D01*
Y1394515D01*
X386640Y1395272D01*
Y1415000D01*
X386243Y1418013D01*
X385080Y1420820D01*
X383230Y1423230D01*
X380820Y1425080D01*
X378013Y1426243D01*
X375000Y1426640D01*
X371987Y1426243D01*
X369180Y1425080D01*
X366770Y1423230D01*
X364920Y1420820D01*
X363757Y1418013D01*
X363360Y1415000D01*
Y1395272D01*
X363460Y1394515D01*
Y1387182D01*
X295000Y1387182D01*
X292390Y1386838D01*
X289957Y1385830D01*
X289221Y1385266D01*
X287524Y1385969D01*
X284914Y1386312D01*
X63488Y1386312D01*
X60877Y1385968D01*
X58445Y1384961D01*
X56356Y1383358D01*
X54753Y1381269D01*
X53745Y1378836D01*
X53401Y1376226D01*
X53401Y1211644D01*
X53745Y1209034D01*
X54753Y1206601D01*
X56356Y1204512D01*
X58445Y1202909D01*
X60877Y1201902D01*
X63488Y1201558D01*
X1750000Y1201558D01*
Y1088122D01*
X1716274D01*
X1716041Y1088092D01*
X1715086Y1088929D01*
Y1127101D01*
X1714743Y1129711D01*
X1713735Y1132144D01*
X1712132Y1134233D01*
X1710043Y1135835D01*
X1707611Y1136843D01*
X1705000Y1137187D01*
X1636540Y1137187D01*
Y1144275D01*
X1636640Y1145031D01*
Y1165000D01*
X1636243Y1168012D01*
X1635080Y1170820D01*
X1633230Y1173230D01*
X1630820Y1175080D01*
X1628013Y1176243D01*
X1625000Y1176640D01*
X1621987Y1176243D01*
X1619180Y1175080D01*
X1616770Y1173230D01*
X1614920Y1170820D01*
X1613757Y1168012D01*
X1613360Y1165000D01*
Y1145031D01*
X1613460Y1144275D01*
Y1137187D01*
X1545000Y1137187D01*
X1542390Y1136843D01*
X1539957Y1135835D01*
X1537868Y1134233D01*
X1536265Y1132144D01*
X1535257Y1129711D01*
X1534914Y1127101D01*
Y1088122D01*
X1466067D01*
X1465073Y1088989D01*
Y1126764D01*
X1464730Y1129375D01*
X1463722Y1131808D01*
X1462119Y1133896D01*
X1460030Y1135499D01*
X1457598Y1136507D01*
X1454987Y1136851D01*
X1386527Y1136851D01*
Y1141408D01*
X1386626Y1142164D01*
Y1164664D01*
X1386230Y1167676D01*
X1385067Y1170484D01*
X1383217Y1172894D01*
X1380807Y1174744D01*
X1378000Y1175907D01*
X1374987Y1176303D01*
X1371974Y1175907D01*
X1369167Y1174744D01*
X1366757Y1172894D01*
X1364907Y1170484D01*
X1363744Y1167676D01*
X1363347Y1164664D01*
Y1142164D01*
X1363447Y1141408D01*
Y1136851D01*
X1294987Y1136851D01*
X1292376Y1136507D01*
X1289944Y1135499D01*
X1287855Y1133896D01*
X1286252Y1131807D01*
X1285244Y1129375D01*
X1284901Y1126764D01*
Y1088122D01*
X1216325D01*
X1215086Y1089121D01*
Y1127188D01*
X1214743Y1129799D01*
X1213735Y1132232D01*
X1212132Y1134321D01*
X1210043Y1135923D01*
X1207610Y1136931D01*
X1205000Y1137275D01*
X1136540Y1137275D01*
Y1143896D01*
X1136639Y1144653D01*
Y1165000D01*
X1136243Y1168012D01*
X1135080Y1170820D01*
X1133230Y1173230D01*
X1130820Y1175080D01*
X1128012Y1176243D01*
X1125000Y1176640D01*
X1121987Y1176243D01*
X1119180Y1175080D01*
X1116770Y1173230D01*
X1114920Y1170820D01*
X1113757Y1168012D01*
X1113360Y1165000D01*
Y1144653D01*
X1113460Y1143896D01*
Y1137275D01*
X1045000Y1137275D01*
X1042390Y1136931D01*
X1039957Y1135923D01*
X1037868Y1134321D01*
X1036265Y1132232D01*
X1035257Y1129799D01*
X1034914Y1127188D01*
Y1088122D01*
X966115D01*
X964995Y1089023D01*
Y1126983D01*
X964651Y1129594D01*
X963643Y1132027D01*
X962040Y1134116D01*
X959951Y1135719D01*
X957519Y1136726D01*
X954908Y1137070D01*
X886448Y1137070D01*
Y1141539D01*
X886548Y1142295D01*
Y1164795D01*
X886151Y1167807D01*
X884988Y1170615D01*
X883139Y1173025D01*
X880728Y1174875D01*
X877921Y1176038D01*
X874908Y1176434D01*
X871896Y1176038D01*
X869089Y1174875D01*
X866678Y1173025D01*
X864828Y1170615D01*
X863665Y1167807D01*
X863269Y1164795D01*
Y1142295D01*
X863368Y1141539D01*
Y1137070D01*
X794908Y1137070D01*
X792298Y1136726D01*
X789865Y1135718D01*
X787776Y1134116D01*
X786173Y1132027D01*
X785166Y1129594D01*
X784822Y1126983D01*
Y1088122D01*
X716325D01*
X715086Y1089121D01*
Y1127188D01*
X714743Y1129799D01*
X713735Y1132232D01*
X712132Y1134321D01*
X710043Y1135923D01*
X707610Y1136931D01*
X705000Y1137275D01*
X636540Y1137275D01*
Y1141744D01*
X636640Y1142500D01*
Y1165000D01*
X636243Y1168012D01*
X635080Y1170820D01*
X633230Y1173230D01*
X630820Y1175080D01*
X628013Y1176243D01*
X625000Y1176640D01*
X621987Y1176243D01*
X619180Y1175080D01*
X616770Y1173230D01*
X614920Y1170820D01*
X613757Y1168012D01*
X613360Y1165000D01*
Y1142500D01*
X613460Y1141744D01*
Y1137275D01*
X545000Y1137275D01*
X542389Y1136931D01*
X539957Y1135923D01*
X537868Y1134321D01*
X536265Y1132232D01*
X535257Y1129799D01*
X534914Y1127188D01*
Y1088122D01*
X215086D01*
Y1127188D01*
X214743Y1129799D01*
X213735Y1132232D01*
X212132Y1134321D01*
X210043Y1135923D01*
X207611Y1136931D01*
X205000Y1137275D01*
X136540Y1137275D01*
Y1145071D01*
X136640Y1145827D01*
Y1165000D01*
X136243Y1168012D01*
X135080Y1170820D01*
X133230Y1173230D01*
X130820Y1175080D01*
X128013Y1176243D01*
X125000Y1176640D01*
X121987Y1176243D01*
X119180Y1175080D01*
X116770Y1173230D01*
X114920Y1170820D01*
X113757Y1168012D01*
X113361Y1165000D01*
Y1145827D01*
X113460Y1145071D01*
Y1137275D01*
X105000D01*
X102389Y1136931D01*
X99957Y1135923D01*
X98105Y1134502D01*
X97524Y1134743D01*
X94914Y1135086D01*
X50000Y1135086D01*
X47389Y1134743D01*
X44957Y1133735D01*
X42868Y1132132D01*
X41265Y1130043D01*
X40257Y1127610D01*
X39914Y1125000D01*
Y960418D01*
X40257Y957808D01*
X41265Y955375D01*
X42868Y953286D01*
X44957Y951683D01*
X47389Y950676D01*
X50000Y950332D01*
X1750000Y950332D01*
Y838122D01*
X1750000Y838122D01*
X1715086D01*
Y877703D01*
X1714743Y880314D01*
X1713735Y882746D01*
X1712132Y884835D01*
X1710043Y886438D01*
X1707611Y887446D01*
X1705000Y887790D01*
X1636540Y887789D01*
Y892249D01*
X1636640Y893005D01*
Y915505D01*
X1636243Y918518D01*
X1635080Y921325D01*
X1633230Y923736D01*
X1630820Y925585D01*
X1628013Y926748D01*
X1625000Y927145D01*
X1621987Y926748D01*
X1619180Y925585D01*
X1616770Y923736D01*
X1614920Y921325D01*
X1613757Y918518D01*
X1613360Y915505D01*
Y893005D01*
X1613460Y892249D01*
Y887789D01*
X1545000Y887789D01*
X1542390Y887446D01*
X1539957Y886438D01*
X1537868Y884835D01*
X1536265Y882746D01*
X1535257Y880314D01*
X1534914Y877703D01*
Y838122D01*
X1466261D01*
X1466041Y838093D01*
X1465086Y838931D01*
Y877078D01*
X1464743Y879688D01*
X1463735Y882121D01*
X1462132Y884210D01*
X1460043Y885813D01*
X1457610Y886820D01*
X1455000Y887164D01*
X1386540Y887164D01*
Y891744D01*
X1386640Y892500D01*
Y915000D01*
X1386243Y918012D01*
X1385080Y920820D01*
X1383230Y923230D01*
X1380820Y925080D01*
X1378013Y926243D01*
X1375000Y926639D01*
X1371987Y926243D01*
X1369180Y925080D01*
X1366770Y923230D01*
X1364920Y920820D01*
X1363757Y918012D01*
X1363360Y915000D01*
Y892500D01*
X1363460Y891744D01*
Y887164D01*
X1295000Y887164D01*
X1292390Y886820D01*
X1289957Y885813D01*
X1287868Y884210D01*
X1286265Y882121D01*
X1285257Y879688D01*
X1284914Y877078D01*
Y838122D01*
X1216147D01*
X1214925Y839188D01*
Y877159D01*
X1214581Y879769D01*
X1213574Y882202D01*
X1211971Y884291D01*
X1209882Y885894D01*
X1207449Y886901D01*
X1204839Y887245D01*
X1136379Y887245D01*
Y891705D01*
X1136478Y892461D01*
Y914961D01*
X1136082Y917973D01*
X1134919Y920781D01*
X1133069Y923191D01*
X1130658Y925041D01*
X1127851Y926204D01*
X1124839Y926600D01*
X1121826Y926204D01*
X1119019Y925041D01*
X1116608Y923191D01*
X1114759Y920781D01*
X1113596Y917973D01*
X1113199Y914961D01*
Y892461D01*
X1113299Y891705D01*
Y887245D01*
X1044839Y887245D01*
X1042228Y886901D01*
X1039796Y885894D01*
X1037707Y884291D01*
X1036104Y882202D01*
X1035096Y879769D01*
X1034752Y877159D01*
Y838122D01*
X966261D01*
X966041Y838093D01*
X965086Y838931D01*
Y877078D01*
X964743Y879688D01*
X963735Y882121D01*
X962132Y884210D01*
X960043Y885813D01*
X957611Y886820D01*
X955000Y887164D01*
X886540Y887164D01*
Y891744D01*
X886640Y892500D01*
Y915000D01*
X886243Y918012D01*
X885080Y920820D01*
X883230Y923230D01*
X880820Y925080D01*
X878012Y926243D01*
X875000Y926639D01*
X871988Y926243D01*
X869180Y925080D01*
X866770Y923230D01*
X864920Y920820D01*
X863757Y918012D01*
X863361Y915000D01*
Y892500D01*
X863460Y891744D01*
Y887164D01*
X795000Y887164D01*
X792390Y886820D01*
X789957Y885813D01*
X787868Y884210D01*
X786265Y882121D01*
X785257Y879688D01*
X784914Y877078D01*
Y838122D01*
X466277Y838122D01*
X465086Y839247D01*
Y877106D01*
X464743Y879717D01*
X463735Y882149D01*
X462132Y884238D01*
X460043Y885841D01*
X457611Y886849D01*
X455000Y887192D01*
X386540Y887192D01*
Y891744D01*
X386640Y892500D01*
Y915000D01*
X386243Y918012D01*
X385080Y920820D01*
X383230Y923230D01*
X380820Y925080D01*
X378013Y926243D01*
X375000Y926639D01*
X371987Y926243D01*
X369180Y925080D01*
X366770Y923230D01*
X364920Y920820D01*
X363757Y918012D01*
X363360Y915000D01*
Y892500D01*
X363460Y891744D01*
Y887192D01*
X295000Y887192D01*
X292390Y886849D01*
X289957Y885841D01*
X288174Y884473D01*
X287524Y884743D01*
X284914Y885086D01*
X63601D01*
X60991Y884743D01*
X58558Y883735D01*
X56469Y882132D01*
X54866Y880043D01*
X53859Y877610D01*
X53515Y875000D01*
X53515Y710418D01*
X53859Y707808D01*
X54866Y705375D01*
X56469Y703286D01*
X58558Y701683D01*
X60991Y700676D01*
X63601Y700332D01*
X1750000Y700332D01*
Y588122D01*
X1750000Y588122D01*
X1716308D01*
X1715086Y589186D01*
Y627160D01*
X1714743Y629770D01*
X1713735Y632203D01*
X1712132Y634292D01*
X1710043Y635895D01*
X1707611Y636902D01*
X1705000Y637246D01*
X1636540Y637246D01*
Y641744D01*
X1636640Y642500D01*
Y665000D01*
X1636243Y668012D01*
X1635080Y670820D01*
X1633230Y673230D01*
X1630820Y675080D01*
X1628013Y676243D01*
X1625000Y676639D01*
X1621987Y676243D01*
X1619180Y675080D01*
X1616770Y673230D01*
X1614920Y670820D01*
X1613757Y668012D01*
X1613360Y665000D01*
Y642500D01*
X1613460Y641744D01*
Y637246D01*
X1545000Y637246D01*
X1542390Y636902D01*
X1539957Y635895D01*
X1537868Y634292D01*
X1536265Y632203D01*
X1535257Y629770D01*
X1534914Y627160D01*
Y588122D01*
X1466101D01*
X1466028Y588113D01*
X1465073Y588950D01*
Y626824D01*
X1464730Y629434D01*
X1463722Y631867D01*
X1462119Y633956D01*
X1460030Y635559D01*
X1457598Y636566D01*
X1454987Y636910D01*
X1386527Y636910D01*
Y641408D01*
X1386626Y642164D01*
Y664664D01*
X1386230Y667676D01*
X1385067Y670484D01*
X1383217Y672894D01*
X1380807Y674744D01*
X1378000Y675907D01*
X1374987Y676303D01*
X1371974Y675907D01*
X1369167Y674744D01*
X1366757Y672894D01*
X1364907Y670484D01*
X1363744Y667676D01*
X1363347Y664664D01*
Y642164D01*
X1363447Y641408D01*
Y636910D01*
X1294987Y636910D01*
X1292376Y636566D01*
X1289944Y635559D01*
X1287855Y633956D01*
X1286252Y631867D01*
X1285244Y629434D01*
X1284901Y626824D01*
Y588122D01*
X1216308D01*
X1215086Y589186D01*
Y627160D01*
X1214743Y629770D01*
X1213735Y632203D01*
X1212132Y634292D01*
X1210043Y635895D01*
X1207610Y636902D01*
X1205000Y637246D01*
X1136540Y637246D01*
Y641744D01*
X1136639Y642500D01*
Y665000D01*
X1136243Y668012D01*
X1135080Y670820D01*
X1133230Y673230D01*
X1130820Y675080D01*
X1128012Y676243D01*
X1125000Y676639D01*
X1121987Y676243D01*
X1119180Y675080D01*
X1116770Y673230D01*
X1114920Y670820D01*
X1113757Y668012D01*
X1113360Y665000D01*
Y642500D01*
X1113460Y641744D01*
Y637246D01*
X1045000Y637246D01*
X1042390Y636902D01*
X1039957Y635895D01*
X1037868Y634292D01*
X1036265Y632203D01*
X1035257Y629770D01*
X1034914Y627160D01*
Y588122D01*
X966098D01*
X964995Y589094D01*
Y626955D01*
X964651Y629565D01*
X963643Y631998D01*
X962040Y634087D01*
X959951Y635690D01*
X957519Y636697D01*
X954908Y637041D01*
X886448Y637041D01*
Y641539D01*
X886548Y642295D01*
Y664795D01*
X886151Y667807D01*
X884988Y670615D01*
X883139Y673025D01*
X880728Y674875D01*
X877921Y676038D01*
X874908Y676434D01*
X871896Y676038D01*
X869089Y674875D01*
X866678Y673025D01*
X864828Y670615D01*
X863665Y667807D01*
X863269Y664795D01*
Y642295D01*
X863368Y641539D01*
Y637041D01*
X794908Y637041D01*
X792298Y636697D01*
X789865Y635690D01*
X787776Y634087D01*
X786173Y631998D01*
X785166Y629565D01*
X784822Y626955D01*
Y588122D01*
X716308D01*
X715086Y589186D01*
Y627160D01*
X714743Y629770D01*
X713735Y632203D01*
X712132Y634292D01*
X710043Y635895D01*
X707610Y636902D01*
X705000Y637246D01*
X636540Y637246D01*
Y641744D01*
X636640Y642500D01*
Y665000D01*
X636243Y668012D01*
X635080Y670820D01*
X633230Y673230D01*
X630820Y675080D01*
X628013Y676243D01*
X625000Y676639D01*
X621987Y676243D01*
X619180Y675080D01*
X616770Y673230D01*
X614920Y670820D01*
X613757Y668012D01*
X613360Y665000D01*
Y642500D01*
X613460Y641744D01*
Y637246D01*
X545000Y637246D01*
X542389Y636902D01*
X539957Y635895D01*
X537868Y634292D01*
X536265Y632203D01*
X535257Y629770D01*
X534914Y627160D01*
Y588122D01*
X215086D01*
Y627160D01*
X214743Y629770D01*
X213735Y632203D01*
X212132Y634292D01*
X210043Y635895D01*
X207611Y636902D01*
X205000Y637246D01*
X136540Y637246D01*
Y641744D01*
X136640Y642500D01*
Y665000D01*
X136243Y668012D01*
X135080Y670820D01*
X133230Y673230D01*
X130820Y675080D01*
X128013Y676243D01*
X125000Y676639D01*
X121987Y676243D01*
X119180Y675080D01*
X116770Y673230D01*
X114920Y670820D01*
X113757Y668012D01*
X113361Y665000D01*
Y642500D01*
X113460Y641744D01*
Y637246D01*
X105000D01*
X102389Y636902D01*
X99957Y635895D01*
X98129Y634492D01*
X97524Y634743D01*
X94914Y635086D01*
X50000D01*
X47389Y634743D01*
X44957Y633735D01*
X42868Y632132D01*
X41265Y630043D01*
X40257Y627611D01*
X39914Y625000D01*
X39914Y460418D01*
X40257Y457808D01*
X41265Y455375D01*
X42868Y453286D01*
X44957Y451683D01*
X47389Y450676D01*
X50000Y450332D01*
X1750000Y450332D01*
Y338122D01*
X1750000Y338122D01*
X1716424D01*
X1716200Y338093D01*
X1715245Y338930D01*
Y377085D01*
X1714901Y379696D01*
X1713894Y382128D01*
X1712291Y384217D01*
X1710202Y385820D01*
X1707769Y386828D01*
X1705159Y387172D01*
X1636699Y387172D01*
Y391640D01*
X1636798Y392397D01*
Y414897D01*
X1636402Y417909D01*
X1635239Y420717D01*
X1633389Y423127D01*
X1630979Y424977D01*
X1628171Y426140D01*
X1625159Y426536D01*
X1622146Y426140D01*
X1619339Y424977D01*
X1616929Y423127D01*
X1615079Y420717D01*
X1613916Y417909D01*
X1613519Y414897D01*
Y392397D01*
X1613619Y391640D01*
Y387172D01*
X1545159Y387172D01*
X1542548Y386828D01*
X1540116Y385820D01*
X1538027Y384217D01*
X1536424Y382128D01*
X1535416Y379696D01*
X1535073Y377085D01*
Y338122D01*
X1466325D01*
X1465086Y339121D01*
Y377188D01*
X1464743Y379799D01*
X1463735Y382232D01*
X1462132Y384321D01*
X1460043Y385924D01*
X1457610Y386931D01*
X1455000Y387275D01*
X1386540Y387275D01*
Y391744D01*
X1386640Y392500D01*
Y415000D01*
X1386243Y418013D01*
X1385080Y420820D01*
X1383230Y423230D01*
X1380820Y425080D01*
X1378013Y426243D01*
X1375000Y426640D01*
X1371987Y426243D01*
X1369180Y425080D01*
X1366770Y423230D01*
X1364920Y420820D01*
X1363757Y418013D01*
X1363360Y415000D01*
Y392500D01*
X1363460Y391744D01*
Y387275D01*
X1295000Y387275D01*
X1292390Y386931D01*
X1289957Y385923D01*
X1287868Y384320D01*
X1286265Y382232D01*
X1285257Y379799D01*
X1284914Y377188D01*
Y338122D01*
X1216127D01*
X1214925Y339245D01*
Y377124D01*
X1214581Y379735D01*
X1213574Y382168D01*
X1211971Y384257D01*
X1209882Y385859D01*
X1207449Y386867D01*
X1204839Y387211D01*
X1136379Y387211D01*
Y391705D01*
X1136478Y392461D01*
Y414961D01*
X1136082Y417974D01*
X1134919Y420781D01*
X1133069Y423191D01*
X1130658Y425041D01*
X1127851Y426204D01*
X1124839Y426600D01*
X1121826Y426204D01*
X1119019Y425041D01*
X1116608Y423191D01*
X1114759Y420781D01*
X1113596Y417974D01*
X1113199Y414961D01*
Y392461D01*
X1113299Y391705D01*
Y387211D01*
X1044839Y387211D01*
X1042228Y386867D01*
X1039796Y385859D01*
X1037707Y384256D01*
X1036104Y382168D01*
X1035096Y379735D01*
X1034752Y377124D01*
Y338122D01*
X966277Y338122D01*
X965086Y339247D01*
Y377105D01*
X964743Y379716D01*
X963735Y382149D01*
X962132Y384238D01*
X960043Y385840D01*
X957611Y386848D01*
X955000Y387192D01*
X886540Y387192D01*
Y391744D01*
X886640Y392500D01*
Y415000D01*
X886243Y418013D01*
X885080Y420820D01*
X883230Y423230D01*
X880820Y425080D01*
X878012Y426243D01*
X875000Y426640D01*
X871988Y426243D01*
X869180Y425080D01*
X866770Y423230D01*
X864920Y420820D01*
X863757Y418013D01*
X863361Y415000D01*
Y392500D01*
X863460Y391744D01*
Y387192D01*
X795000Y387192D01*
X792390Y386848D01*
X789957Y385840D01*
X787868Y384238D01*
X786265Y382149D01*
X785257Y379716D01*
X784914Y377105D01*
Y338122D01*
X466277D01*
X465086Y339247D01*
Y377105D01*
X464743Y379716D01*
X463735Y382149D01*
X462132Y384238D01*
X460043Y385840D01*
X457611Y386848D01*
X455000Y387192D01*
X386540Y387192D01*
Y391744D01*
X386640Y392500D01*
Y415000D01*
X386243Y418013D01*
X385080Y420820D01*
X383230Y423230D01*
X380820Y425080D01*
X378013Y426243D01*
X375000Y426640D01*
X371987Y426243D01*
X369180Y425080D01*
X366770Y423230D01*
X364920Y420820D01*
X363757Y418013D01*
X363360Y415000D01*
Y392500D01*
X363460Y391744D01*
Y387192D01*
X295000Y387192D01*
X292390Y386848D01*
X289957Y385840D01*
X287868Y384238D01*
X287842Y384204D01*
X286542Y384743D01*
X283932Y385086D01*
X63324D01*
X60714Y384743D01*
X58281Y383735D01*
X56192Y382132D01*
X54589Y380043D01*
X53582Y377611D01*
X53238Y375000D01*
X53238Y210418D01*
X53582Y207808D01*
X54589Y205375D01*
X56192Y203286D01*
X58281Y201683D01*
X60714Y200676D01*
X63324Y200332D01*
X1750000Y200332D01*
Y88122D01*
X1716301D01*
X1715983Y88123D01*
X1715086Y89020D01*
Y127390D01*
X1714743Y130000D01*
X1713735Y132433D01*
X1712132Y134522D01*
X1710043Y136125D01*
X1707611Y137132D01*
X1705000Y137476D01*
X1636540Y137476D01*
Y141744D01*
X1636640Y142500D01*
Y165000D01*
X1636243Y168013D01*
X1635080Y170820D01*
X1633230Y173230D01*
X1630820Y175080D01*
X1628013Y176243D01*
X1625000Y176640D01*
X1621987Y176243D01*
X1619180Y175080D01*
X1616770Y173230D01*
X1614920Y170820D01*
X1613757Y168013D01*
X1613360Y165000D01*
Y142500D01*
X1613460Y141744D01*
Y137476D01*
X1545000Y137476D01*
X1542390Y137132D01*
X1539957Y136124D01*
X1537868Y134522D01*
X1536265Y132433D01*
X1535257Y130000D01*
X1534914Y127390D01*
Y88122D01*
X1466126D01*
X1465073Y89265D01*
Y126866D01*
X1464730Y129476D01*
X1463722Y131909D01*
X1462119Y133998D01*
X1460030Y135601D01*
X1457598Y136608D01*
X1454987Y136952D01*
X1386527Y136952D01*
Y141408D01*
X1386626Y142164D01*
Y164664D01*
X1386230Y167676D01*
X1385067Y170484D01*
X1383217Y172894D01*
X1380807Y174744D01*
X1378000Y175907D01*
X1374987Y176304D01*
X1371974Y175907D01*
X1369167Y174744D01*
X1366757Y172894D01*
X1364907Y170484D01*
X1363744Y167676D01*
X1363347Y164664D01*
Y142164D01*
X1363447Y141408D01*
Y136952D01*
X1294987Y136952D01*
X1292376Y136608D01*
X1289944Y135601D01*
X1287855Y133998D01*
X1286252Y131909D01*
X1285244Y129476D01*
X1284901Y126866D01*
Y88122D01*
X1216333D01*
X1215086Y89092D01*
Y127202D01*
X1214743Y129812D01*
X1213735Y132245D01*
X1212132Y134334D01*
X1210043Y135937D01*
X1207610Y136945D01*
X1205000Y137288D01*
X1136540Y137288D01*
Y141744D01*
X1136639Y142500D01*
Y165000D01*
X1136243Y168013D01*
X1135080Y170820D01*
X1133230Y173230D01*
X1130820Y175080D01*
X1128012Y176243D01*
X1125000Y176640D01*
X1121987Y176243D01*
X1119180Y175080D01*
X1116770Y173230D01*
X1114920Y170820D01*
X1113757Y168013D01*
X1113360Y165000D01*
Y142500D01*
X1113460Y141744D01*
Y137288D01*
X1045000Y137288D01*
X1042390Y136944D01*
X1039957Y135937D01*
X1037868Y134334D01*
X1036265Y132245D01*
X1035257Y129812D01*
X1034914Y127202D01*
Y88122D01*
X966123D01*
X964995Y88990D01*
Y126997D01*
X964651Y129607D01*
X963643Y132040D01*
X962040Y134129D01*
X959951Y135732D01*
X957519Y136739D01*
X954908Y137083D01*
X886448Y137083D01*
Y141539D01*
X886548Y142295D01*
Y164795D01*
X886151Y167808D01*
X884988Y170615D01*
X883139Y173025D01*
X880728Y174875D01*
X877921Y176038D01*
X874908Y176434D01*
X871896Y176038D01*
X869089Y174875D01*
X866678Y173025D01*
X864828Y170615D01*
X863665Y167808D01*
X863269Y164795D01*
Y142295D01*
X863368Y141539D01*
Y137083D01*
X794908Y137083D01*
X792298Y136739D01*
X789865Y135732D01*
X787776Y134129D01*
X786173Y132040D01*
X785166Y129607D01*
X784822Y126997D01*
Y88122D01*
X716333D01*
X715086Y89092D01*
Y127202D01*
X714743Y129812D01*
X713735Y132245D01*
X712132Y134334D01*
X710043Y135937D01*
X707610Y136945D01*
X705000Y137288D01*
X636540Y137288D01*
Y141744D01*
X636640Y142500D01*
Y165000D01*
X636243Y168013D01*
X635080Y170820D01*
X633230Y173230D01*
X630820Y175080D01*
X628013Y176243D01*
X625000Y176640D01*
X621987Y176243D01*
X619180Y175080D01*
X616770Y173230D01*
X614920Y170820D01*
X613757Y168013D01*
X613360Y165000D01*
Y142500D01*
X613460Y141744D01*
Y137288D01*
X545000Y137288D01*
X542389Y136944D01*
X539957Y135937D01*
X537868Y134334D01*
X536265Y132245D01*
X535257Y129812D01*
X534914Y127202D01*
Y88122D01*
X215086D01*
Y127390D01*
X214743Y130000D01*
X213735Y132433D01*
X212132Y134522D01*
X210043Y136125D01*
X207611Y137132D01*
X205000Y137476D01*
X136540Y137476D01*
Y141744D01*
X136640Y142500D01*
Y165000D01*
X136243Y168013D01*
X135080Y170820D01*
X133230Y173230D01*
X130820Y175080D01*
X128013Y176243D01*
X125000Y176640D01*
X121987Y176243D01*
X119180Y175080D01*
X116770Y173230D01*
X114920Y170820D01*
X113757Y168013D01*
X113361Y165000D01*
Y142500D01*
X113460Y141744D01*
Y137476D01*
X105000D01*
X102389Y137132D01*
X99957Y136124D01*
X97934Y134573D01*
X97524Y134743D01*
X94914Y135086D01*
X0D01*
Y1750000D01*
X298761D01*
X298761Y1683657D01*
D02*
G37*
G36*
X1750000Y1589393D02*
X1748730Y1588123D01*
X1716331D01*
X1715086Y1589097D01*
Y1627199D01*
X1714743Y1629810D01*
X1713735Y1632242D01*
X1712132Y1634331D01*
X1710043Y1635934D01*
X1707611Y1636942D01*
X1705000Y1637286D01*
X1636540Y1637286D01*
Y1641744D01*
X1636640Y1642500D01*
Y1649456D01*
X1636243Y1652468D01*
X1635080Y1655276D01*
X1633230Y1657686D01*
X1633230Y1657686D01*
X1622686Y1668230D01*
X1620276Y1670080D01*
X1617468Y1671243D01*
X1614456Y1671640D01*
X1587700D01*
X1584688Y1671243D01*
X1581880Y1670080D01*
X1579470Y1668230D01*
X1577620Y1665820D01*
X1576457Y1663013D01*
X1576060Y1660000D01*
X1576457Y1656987D01*
X1577620Y1654180D01*
X1579470Y1651770D01*
X1581880Y1649920D01*
X1584688Y1648757D01*
X1587700Y1648360D01*
X1609635D01*
X1613360Y1644635D01*
Y1642500D01*
X1613460Y1641744D01*
Y1637286D01*
X1545000Y1637285D01*
X1542390Y1636942D01*
X1539957Y1635934D01*
X1537868Y1634331D01*
X1536265Y1632242D01*
X1535257Y1629810D01*
X1534914Y1627199D01*
Y1588123D01*
X1466077D01*
X1465073Y1588944D01*
Y1626782D01*
X1464730Y1629393D01*
X1463722Y1631826D01*
X1462119Y1633914D01*
X1460030Y1635517D01*
X1457598Y1636525D01*
X1454987Y1636869D01*
X1386527Y1636869D01*
Y1641408D01*
X1386626Y1642164D01*
Y1649456D01*
X1386230Y1652468D01*
X1385067Y1655276D01*
X1383217Y1657686D01*
X1383217Y1657686D01*
X1372673Y1668230D01*
X1370263Y1670080D01*
X1367455Y1671243D01*
X1364443Y1671640D01*
X1337700D01*
X1334687Y1671243D01*
X1331880Y1670080D01*
X1329470Y1668230D01*
X1327620Y1665820D01*
X1326457Y1663013D01*
X1326060Y1660000D01*
X1326457Y1656987D01*
X1327620Y1654180D01*
X1329470Y1651770D01*
X1331880Y1649920D01*
X1334687Y1648757D01*
X1337700Y1648360D01*
X1359621D01*
X1363347Y1644635D01*
Y1642164D01*
X1363447Y1641408D01*
Y1636869D01*
X1294987Y1636869D01*
X1292376Y1636525D01*
X1289944Y1635517D01*
X1287855Y1633914D01*
X1286252Y1631825D01*
X1285244Y1629393D01*
X1284901Y1626782D01*
Y1588123D01*
X1216311D01*
X1215086Y1589175D01*
Y1627165D01*
X1214743Y1629775D01*
X1213735Y1632208D01*
X1212132Y1634297D01*
X1210043Y1635900D01*
X1207610Y1636907D01*
X1205000Y1637251D01*
X1136540Y1637251D01*
Y1641744D01*
X1136639Y1642500D01*
Y1649825D01*
X1136640Y1649825D01*
X1136243Y1652837D01*
X1135080Y1655645D01*
X1133230Y1658055D01*
X1133230Y1658055D01*
X1123055Y1668230D01*
X1120645Y1670080D01*
X1117837Y1671243D01*
X1114825Y1671640D01*
X1087700D01*
X1084687Y1671243D01*
X1081880Y1670080D01*
X1079470Y1668230D01*
X1077620Y1665820D01*
X1076457Y1663013D01*
X1076060Y1660000D01*
X1076457Y1656987D01*
X1077620Y1654180D01*
X1079470Y1651770D01*
X1081880Y1649920D01*
X1084687Y1648757D01*
X1087700Y1648360D01*
X1110004D01*
X1113360Y1645004D01*
Y1642500D01*
X1113460Y1641744D01*
Y1637251D01*
X1045000Y1637251D01*
X1042390Y1636907D01*
X1039957Y1635900D01*
X1037868Y1634297D01*
X1036265Y1632208D01*
X1035257Y1629775D01*
X1034914Y1627165D01*
Y1588123D01*
X966121D01*
X964995Y1588998D01*
Y1626994D01*
X964651Y1629604D01*
X963643Y1632037D01*
X962040Y1634126D01*
X959951Y1635729D01*
X957519Y1636736D01*
X954908Y1637080D01*
X886448Y1637080D01*
Y1641539D01*
X886548Y1642295D01*
Y1650604D01*
X886548Y1650605D01*
X886151Y1653617D01*
X884988Y1656424D01*
X883139Y1658835D01*
X873743Y1668230D01*
X871333Y1670080D01*
X868525Y1671243D01*
X865513Y1671640D01*
X837700D01*
X834688Y1671243D01*
X831880Y1670080D01*
X829470Y1668230D01*
X827620Y1665820D01*
X826457Y1663013D01*
X826060Y1660000D01*
X826457Y1656987D01*
X827620Y1654180D01*
X829470Y1651770D01*
X831880Y1649920D01*
X834688Y1648757D01*
X837700Y1648360D01*
X860692D01*
X863269Y1645783D01*
Y1642295D01*
X863368Y1641539D01*
Y1637080D01*
X794908Y1637080D01*
X792298Y1636736D01*
X789865Y1635729D01*
X787776Y1634126D01*
X786173Y1632037D01*
X785166Y1629604D01*
X784822Y1626994D01*
Y1588123D01*
X716337D01*
X715086Y1588992D01*
Y1627257D01*
X714743Y1629868D01*
X713735Y1632300D01*
X712132Y1634389D01*
X710043Y1635992D01*
X707610Y1637000D01*
X705000Y1637343D01*
X636540Y1637343D01*
Y1641744D01*
X636640Y1642500D01*
Y1659431D01*
X636243Y1662443D01*
X635080Y1665250D01*
X633230Y1667661D01*
X630820Y1669511D01*
X628013Y1670673D01*
X625000Y1671070D01*
X621987Y1670673D01*
X619180Y1669511D01*
X616770Y1667661D01*
X614920Y1665250D01*
X613757Y1662443D01*
X613360Y1659431D01*
Y1642500D01*
X613460Y1641744D01*
Y1637343D01*
X545000Y1637343D01*
X542389Y1637000D01*
X539957Y1635992D01*
X537868Y1634389D01*
X536265Y1632300D01*
X535257Y1629868D01*
X534914Y1627257D01*
Y1577904D01*
X535017Y1577119D01*
X533896Y1576370D01*
X533152Y1575718D01*
X532367Y1575116D01*
X532165Y1574853D01*
X531916Y1574634D01*
X531366Y1573811D01*
X530764Y1573027D01*
X530637Y1572720D01*
X530453Y1572445D01*
X530135Y1571508D01*
X529757Y1570594D01*
X529713Y1570265D01*
X529607Y1569951D01*
X529542Y1568964D01*
X529413Y1567984D01*
X529413Y1538118D01*
X474438D01*
X458610D01*
Y1578036D01*
X458266Y1580647D01*
X457259Y1583079D01*
X455656Y1585168D01*
X453567Y1586771D01*
X451134Y1587779D01*
X448524Y1588123D01*
X308848D01*
Y1633464D01*
X212949Y1633464D01*
X212132Y1634529D01*
X210043Y1636132D01*
X207610Y1637140D01*
X205000Y1637483D01*
X139432Y1637483D01*
X139432Y1673570D01*
X308848Y1673570D01*
X308848Y1750000D01*
X1750000D01*
X1750000Y1589393D01*
D02*
G37*
G36*
X298761Y1623378D02*
Y1588123D01*
X267894D01*
X267483Y1588069D01*
X267069Y1588089D01*
X266182Y1587897D01*
X265283Y1587779D01*
X264901Y1587620D01*
X264496Y1587533D01*
X263689Y1587118D01*
X262851Y1586771D01*
X262522Y1586519D01*
X262154Y1586330D01*
X261481Y1585721D01*
X260762Y1585168D01*
X260509Y1584840D01*
X260203Y1584562D01*
X259711Y1583799D01*
X259159Y1583079D01*
X259000Y1582697D01*
X258776Y1582349D01*
X258233Y1581201D01*
X258106Y1580806D01*
X257911Y1580441D01*
X257705Y1579557D01*
X257427Y1578694D01*
X257407Y1578280D01*
X257313Y1577877D01*
X257343Y1576970D01*
X257298Y1576064D01*
X257386Y1575659D01*
X257399Y1575245D01*
X257663Y1574377D01*
X257854Y1573490D01*
X258043Y1573122D01*
X258163Y1572726D01*
X258643Y1571955D01*
X259057Y1571148D01*
X259335Y1570841D01*
X259554Y1570490D01*
X260405Y1569452D01*
X261561Y1567289D01*
X262274Y1564941D01*
X262514Y1562500D01*
X262274Y1560059D01*
X261561Y1557711D01*
X260405Y1555548D01*
X258849Y1553651D01*
X256952Y1552095D01*
X254789Y1550939D01*
X252441Y1550226D01*
X250000Y1549986D01*
X247559Y1550226D01*
X245211Y1550939D01*
X243048Y1552095D01*
X241151Y1553651D01*
X239595Y1555548D01*
X238439Y1557711D01*
X237726Y1560059D01*
X237486Y1562500D01*
X237726Y1564941D01*
X238439Y1567289D01*
X239595Y1569452D01*
X240446Y1570490D01*
X240665Y1570841D01*
X240943Y1571148D01*
X241357Y1571955D01*
X241837Y1572726D01*
X241957Y1573122D01*
X242146Y1573490D01*
X242338Y1574377D01*
X242601Y1575245D01*
X242614Y1575659D01*
X242702Y1576064D01*
X242657Y1576970D01*
X242687Y1577877D01*
X242593Y1578280D01*
X242573Y1578694D01*
X242295Y1579557D01*
X242089Y1580441D01*
X241894Y1580806D01*
X241767Y1581201D01*
X241224Y1582349D01*
X241000Y1582697D01*
X240841Y1583079D01*
X240289Y1583799D01*
X239797Y1584562D01*
X239491Y1584840D01*
X239238Y1585168D01*
X238519Y1585721D01*
X237846Y1586330D01*
X237478Y1586519D01*
X237150Y1586771D01*
X236311Y1587118D01*
X235504Y1587533D01*
X235099Y1587620D01*
X234717Y1587779D01*
X233818Y1587897D01*
X232931Y1588089D01*
X232517Y1588069D01*
X232106Y1588123D01*
X215086D01*
Y1623378D01*
X298761Y1623378D01*
D02*
G37*
G36*
X205000Y1578043D02*
X105000Y1578043D01*
Y1627397D01*
X205000Y1627397D01*
Y1578043D01*
D02*
G37*
G36*
X705000Y1577903D02*
X545000Y1577904D01*
Y1627257D01*
X705000Y1627257D01*
Y1577903D01*
D02*
G37*
G36*
X1705000Y1577846D02*
X1545000Y1577846D01*
Y1627199D01*
X1705000Y1627199D01*
Y1577846D01*
D02*
G37*
G36*
X1205000Y1577811D02*
X1045000Y1577811D01*
Y1627165D01*
X1205000Y1627165D01*
Y1577811D01*
D02*
G37*
G36*
X954908Y1577640D02*
X794908Y1577640D01*
Y1626994D01*
X954908Y1626994D01*
Y1577640D01*
D02*
G37*
G36*
X1454987Y1577429D02*
X1294987Y1577429D01*
Y1626782D01*
X1454987Y1626782D01*
Y1577429D01*
D02*
G37*
G36*
X94914Y1578043D02*
X95257Y1575433D01*
X96265Y1573000D01*
X97868Y1570911D01*
X99957Y1569308D01*
X102389Y1568301D01*
X105000Y1567957D01*
X205000Y1567957D01*
X207610Y1568301D01*
X210043Y1569308D01*
X212132Y1570911D01*
X213735Y1573000D01*
X214743Y1575433D01*
X215085Y1578036D01*
X232106D01*
X232649Y1576888D01*
X231168Y1575083D01*
X229075Y1571167D01*
X227786Y1566919D01*
X227351Y1562500D01*
X227786Y1558081D01*
X229075Y1553833D01*
X231168Y1549917D01*
X233985Y1546485D01*
X237417Y1543668D01*
X241333Y1541575D01*
X245581Y1540286D01*
X250000Y1539851D01*
X254419Y1540286D01*
X258667Y1541575D01*
X262583Y1543668D01*
X266015Y1546485D01*
X268832Y1549917D01*
X270925Y1553833D01*
X272214Y1558081D01*
X272649Y1562500D01*
X272214Y1566919D01*
X270925Y1571167D01*
X268832Y1575083D01*
X267351Y1576888D01*
X267894Y1578036D01*
X448524D01*
Y1520199D01*
X539499Y1520199D01*
X539499Y1567984D01*
X540769Y1568832D01*
X542389Y1568161D01*
X545000Y1567817D01*
X705000Y1567817D01*
X707610Y1568161D01*
X710043Y1569169D01*
X712132Y1570771D01*
X713735Y1572860D01*
X714743Y1575293D01*
X715086Y1577903D01*
X716337Y1578036D01*
X784822D01*
Y1577640D01*
X785166Y1575030D01*
X786173Y1572597D01*
X787776Y1570508D01*
X789865Y1568905D01*
X792298Y1567898D01*
X794908Y1567554D01*
X954908Y1567554D01*
X957519Y1567898D01*
X959951Y1568905D01*
X962040Y1570508D01*
X963643Y1572597D01*
X964651Y1575030D01*
X964995Y1577640D01*
X966121Y1578036D01*
X1034914D01*
Y1577811D01*
X1035257Y1575201D01*
X1036265Y1572768D01*
X1037868Y1570679D01*
X1039957Y1569076D01*
X1042390Y1568069D01*
X1045000Y1567725D01*
X1205000Y1567725D01*
X1207610Y1568069D01*
X1210043Y1569076D01*
X1212132Y1570679D01*
X1213735Y1572768D01*
X1214743Y1575201D01*
X1215086Y1577811D01*
X1216311Y1578036D01*
X1284901D01*
Y1577429D01*
X1285244Y1574818D01*
X1286252Y1572386D01*
X1287855Y1570297D01*
X1289944Y1568694D01*
X1292376Y1567686D01*
X1294987Y1567343D01*
X1454987Y1567342D01*
X1457598Y1567686D01*
X1460030Y1568694D01*
X1462119Y1570297D01*
X1463722Y1572386D01*
X1464730Y1574818D01*
X1465073Y1577429D01*
X1466077Y1578036D01*
X1534914D01*
Y1577846D01*
X1535257Y1575235D01*
X1536265Y1572803D01*
X1537868Y1570714D01*
X1539957Y1569111D01*
X1542390Y1568103D01*
X1545000Y1567760D01*
X1705000Y1567759D01*
X1707611Y1568103D01*
X1710043Y1569111D01*
X1712132Y1570714D01*
X1713735Y1572802D01*
X1714743Y1575235D01*
X1715086Y1577846D01*
X1716331Y1578036D01*
X1750000D01*
X1750000Y1460418D01*
X50387Y1460418D01*
X50387Y1625000D01*
X94914Y1625000D01*
Y1578043D01*
D02*
G37*
G36*
X1705341Y1329078D02*
X1545341Y1329078D01*
Y1378432D01*
X1705341Y1378432D01*
Y1329078D01*
D02*
G37*
G36*
X1204839Y1327841D02*
X1044839Y1327841D01*
Y1377194D01*
X1204839Y1377194D01*
Y1327841D01*
D02*
G37*
G36*
X1455000Y1327831D02*
X1295000Y1327832D01*
Y1377185D01*
X1455000Y1377185D01*
Y1327831D01*
D02*
G37*
G36*
X955000Y1327778D02*
X795000Y1327779D01*
Y1377132D01*
X955000Y1377132D01*
Y1327778D01*
D02*
G37*
G36*
X455000Y1327742D02*
X295000Y1327742D01*
Y1377095D01*
X455000Y1377095D01*
Y1327742D01*
D02*
G37*
G36*
X284914Y1327742D02*
X285257Y1325131D01*
X286265Y1322699D01*
X287868Y1320610D01*
X289957Y1319007D01*
X292390Y1317999D01*
X295000Y1317656D01*
X455000Y1317655D01*
X457611Y1317999D01*
X460043Y1319007D01*
X462132Y1320610D01*
X463735Y1322699D01*
X464743Y1325131D01*
X465086Y1327742D01*
Y1329262D01*
X784914D01*
Y1327779D01*
X785257Y1325168D01*
X786265Y1322735D01*
X787868Y1320647D01*
X789957Y1319044D01*
X792390Y1318036D01*
X795000Y1317692D01*
X955000Y1317692D01*
X957611Y1318036D01*
X960043Y1319043D01*
X962132Y1320646D01*
X963735Y1322735D01*
X964743Y1325168D01*
X965086Y1327778D01*
Y1329262D01*
X1034752D01*
Y1327841D01*
X1035096Y1325230D01*
X1036104Y1322798D01*
X1037707Y1320709D01*
X1039796Y1319106D01*
X1042228Y1318098D01*
X1044839Y1317755D01*
X1204839Y1317754D01*
X1207449Y1318098D01*
X1209882Y1319106D01*
X1211971Y1320709D01*
X1213574Y1322798D01*
X1214581Y1325230D01*
X1214925Y1327841D01*
Y1329262D01*
X1284914D01*
Y1327832D01*
X1285257Y1325221D01*
X1286265Y1322788D01*
X1287868Y1320699D01*
X1289957Y1319097D01*
X1292390Y1318089D01*
X1295000Y1317745D01*
X1455000Y1317745D01*
X1457610Y1318089D01*
X1460043Y1319096D01*
X1462132Y1320699D01*
X1463735Y1322788D01*
X1464743Y1325221D01*
X1465086Y1327831D01*
Y1329262D01*
X1535255D01*
Y1329078D01*
X1535599Y1326467D01*
X1536606Y1324035D01*
X1538209Y1321946D01*
X1540298Y1320343D01*
X1542731Y1319335D01*
X1545341Y1318992D01*
X1705341Y1318992D01*
X1707952Y1319335D01*
X1710384Y1320343D01*
X1712473Y1321946D01*
X1714076Y1324035D01*
X1715084Y1326467D01*
X1715428Y1329078D01*
X1716676Y1329262D01*
X1750000D01*
X1750000Y1211644D01*
X63488Y1211644D01*
X63488Y1376226D01*
X284914Y1376226D01*
Y1327742D01*
D02*
G37*
G36*
X1205000Y1077835D02*
X1045000Y1077835D01*
Y1127188D01*
X1205000Y1127188D01*
Y1077835D01*
D02*
G37*
G36*
X705000D02*
X545000Y1077835D01*
Y1127188D01*
X705000Y1127188D01*
Y1077835D01*
D02*
G37*
G36*
X205000D02*
X105000Y1077835D01*
Y1127188D01*
X205000Y1127188D01*
Y1077835D01*
D02*
G37*
G36*
X1705000Y1077747D02*
X1545000Y1077747D01*
Y1127101D01*
X1705000Y1127101D01*
Y1077747D01*
D02*
G37*
G36*
X954908Y1077630D02*
X794908Y1077630D01*
Y1126983D01*
X954908Y1126983D01*
Y1077630D01*
D02*
G37*
G36*
X1454987Y1077411D02*
X1294987Y1077411D01*
Y1126764D01*
X1454987Y1126764D01*
Y1077411D01*
D02*
G37*
G36*
X94914Y1077835D02*
X95257Y1075224D01*
X96265Y1072792D01*
X97868Y1070703D01*
X99957Y1069100D01*
X102389Y1068092D01*
X105000Y1067749D01*
X205000Y1067748D01*
X207611Y1068092D01*
X210043Y1069100D01*
X212132Y1070703D01*
X213735Y1072792D01*
X214743Y1075224D01*
X215086Y1077835D01*
Y1078036D01*
X534914D01*
Y1077835D01*
X535257Y1075225D01*
X536265Y1072792D01*
X537868Y1070703D01*
X539957Y1069100D01*
X542389Y1068092D01*
X545000Y1067749D01*
X705000Y1067748D01*
X707610Y1068092D01*
X710043Y1069100D01*
X712132Y1070703D01*
X713735Y1072792D01*
X714743Y1075224D01*
X715086Y1077835D01*
X716325Y1078036D01*
X784822D01*
Y1077630D01*
X785166Y1075020D01*
X786173Y1072587D01*
X787776Y1070498D01*
X789865Y1068895D01*
X792298Y1067887D01*
X794908Y1067544D01*
X954908Y1067543D01*
X957519Y1067887D01*
X959951Y1068895D01*
X962040Y1070498D01*
X963643Y1072587D01*
X964651Y1075019D01*
X964995Y1077630D01*
X966115Y1078036D01*
X1034914D01*
Y1077835D01*
X1035257Y1075225D01*
X1036265Y1072792D01*
X1037868Y1070703D01*
X1039957Y1069100D01*
X1042390Y1068092D01*
X1045000Y1067749D01*
X1205000Y1067748D01*
X1207610Y1068092D01*
X1210043Y1069100D01*
X1212132Y1070703D01*
X1213735Y1072792D01*
X1214743Y1075224D01*
X1215086Y1077835D01*
X1216325Y1078036D01*
X1284901D01*
Y1077411D01*
X1285244Y1074800D01*
X1286252Y1072368D01*
X1287855Y1070279D01*
X1289944Y1068676D01*
X1292376Y1067668D01*
X1294987Y1067325D01*
X1454987Y1067325D01*
X1457598Y1067668D01*
X1460030Y1068676D01*
X1462119Y1070279D01*
X1463722Y1072368D01*
X1464730Y1074800D01*
X1465073Y1077411D01*
X1466067Y1078036D01*
X1534914D01*
Y1077747D01*
X1535257Y1075136D01*
X1536265Y1072704D01*
X1537868Y1070615D01*
X1539957Y1069012D01*
X1542390Y1068004D01*
X1545000Y1067661D01*
X1705000Y1067661D01*
X1707611Y1068004D01*
X1710043Y1069012D01*
X1712132Y1070615D01*
X1713735Y1072704D01*
X1714743Y1075136D01*
X1715086Y1077747D01*
X1716274Y1078036D01*
X1750000D01*
X1750000Y960418D01*
X50000Y960418D01*
Y1125000D01*
X94914Y1125000D01*
Y1077835D01*
D02*
G37*
G36*
X1705000Y828350D02*
X1545000Y828350D01*
Y877703D01*
X1705000Y877703D01*
Y828350D01*
D02*
G37*
G36*
X1204839Y827805D02*
X1044839Y827805D01*
Y877159D01*
X1204839Y877159D01*
Y827805D01*
D02*
G37*
G36*
X455000Y827752D02*
X295000Y827753D01*
Y877106D01*
X455000Y877106D01*
Y827752D01*
D02*
G37*
G36*
X1455000Y827724D02*
X1295000Y827724D01*
Y877078D01*
X1455000Y877078D01*
Y827724D01*
D02*
G37*
G36*
X955000D02*
X795000Y827724D01*
Y877078D01*
X955000Y877078D01*
Y827724D01*
D02*
G37*
G36*
X284914Y827753D02*
X285257Y825142D01*
X286265Y822710D01*
X287868Y820620D01*
X289957Y819018D01*
X292390Y818010D01*
X295000Y817666D01*
X455000Y817666D01*
X457611Y818010D01*
X460043Y819017D01*
X462132Y820620D01*
X463735Y822709D01*
X464743Y825142D01*
X465086Y827752D01*
X466277Y828036D01*
X784914Y828036D01*
Y827724D01*
X785257Y825114D01*
X786265Y822681D01*
X787868Y820592D01*
X789957Y818989D01*
X792390Y817982D01*
X795000Y817638D01*
X955000Y817638D01*
X957611Y817981D01*
X960043Y818989D01*
X962132Y820592D01*
X963735Y822681D01*
X964743Y825114D01*
X965086Y827724D01*
X966261Y828036D01*
X1034752D01*
Y827805D01*
X1035096Y825195D01*
X1036104Y822762D01*
X1037707Y820673D01*
X1039796Y819070D01*
X1042228Y818063D01*
X1044839Y817719D01*
X1204839Y817719D01*
X1207449Y818063D01*
X1209882Y819070D01*
X1211971Y820673D01*
X1213574Y822762D01*
X1214581Y825195D01*
X1214925Y827805D01*
X1216146Y828036D01*
X1284914D01*
Y827724D01*
X1285257Y825114D01*
X1286265Y822681D01*
X1287868Y820592D01*
X1289957Y818989D01*
X1292390Y817982D01*
X1295000Y817638D01*
X1455000Y817638D01*
X1457610Y817981D01*
X1460043Y818989D01*
X1462132Y820592D01*
X1463735Y822681D01*
X1464743Y825114D01*
X1465086Y827724D01*
X1466261Y828036D01*
X1534955D01*
X1535257Y825739D01*
X1536265Y823307D01*
X1537868Y821218D01*
X1539957Y819615D01*
X1542390Y818607D01*
X1545000Y818263D01*
X1705000Y818263D01*
X1707611Y818607D01*
X1710043Y819614D01*
X1712132Y821217D01*
X1713735Y823306D01*
X1714743Y825739D01*
X1715045Y828036D01*
X1750000D01*
X1750000Y710418D01*
X63601Y710418D01*
X63601Y875000D01*
X284914D01*
Y827753D01*
D02*
G37*
G36*
X1705000Y577806D02*
X1545000Y577806D01*
Y627160D01*
X1705000Y627160D01*
Y577806D01*
D02*
G37*
G36*
X1205000D02*
X1045000Y577806D01*
Y627160D01*
X1205000Y627160D01*
Y577806D01*
D02*
G37*
G36*
X705000D02*
X545000Y577806D01*
Y627160D01*
X705000Y627160D01*
Y577806D01*
D02*
G37*
G36*
X205000D02*
X105000Y577806D01*
Y627160D01*
X205000Y627160D01*
Y577806D01*
D02*
G37*
G36*
X954908Y577601D02*
X794908Y577601D01*
Y626955D01*
X954908Y626955D01*
Y577601D01*
D02*
G37*
G36*
X1454987Y577470D02*
X1294987Y577470D01*
Y626824D01*
X1454987Y626824D01*
Y577470D01*
D02*
G37*
G36*
X94914Y577806D02*
X95257Y575196D01*
X96265Y572763D01*
X97868Y570674D01*
X99957Y569071D01*
X102389Y568064D01*
X105000Y567720D01*
X205000Y567720D01*
X207611Y568064D01*
X210043Y569071D01*
X212132Y570674D01*
X213735Y572763D01*
X214743Y575196D01*
X215086Y577806D01*
Y578036D01*
X534914D01*
Y577806D01*
X535257Y575196D01*
X536265Y572763D01*
X537868Y570674D01*
X539957Y569071D01*
X542389Y568064D01*
X545000Y567720D01*
X705000Y567720D01*
X707610Y568064D01*
X710043Y569071D01*
X712132Y570674D01*
X713735Y572763D01*
X714743Y575196D01*
X715086Y577806D01*
X716308Y578036D01*
X784822D01*
Y577601D01*
X785166Y574991D01*
X786173Y572558D01*
X787776Y570469D01*
X789865Y568866D01*
X792298Y567859D01*
X794908Y567515D01*
X954908Y567515D01*
X957519Y567859D01*
X959951Y568866D01*
X962040Y570469D01*
X963643Y572558D01*
X964651Y574991D01*
X964995Y577601D01*
X966098Y578036D01*
X1034914D01*
Y577806D01*
X1035257Y575196D01*
X1036265Y572763D01*
X1037868Y570674D01*
X1039957Y569071D01*
X1042390Y568064D01*
X1045000Y567720D01*
X1205000Y567720D01*
X1207610Y568064D01*
X1210043Y569071D01*
X1212132Y570674D01*
X1213735Y572763D01*
X1214743Y575196D01*
X1215086Y577806D01*
X1216308Y578036D01*
X1284901D01*
Y577470D01*
X1285244Y574860D01*
X1286252Y572427D01*
X1287855Y570338D01*
X1289944Y568735D01*
X1292376Y567728D01*
X1294987Y567384D01*
X1454987Y567384D01*
X1457598Y567727D01*
X1460030Y568735D01*
X1462119Y570338D01*
X1463722Y572427D01*
X1464730Y574860D01*
X1465073Y577470D01*
X1466101Y578036D01*
X1534914D01*
Y577806D01*
X1535257Y575196D01*
X1536265Y572763D01*
X1537868Y570674D01*
X1539957Y569071D01*
X1542390Y568064D01*
X1545000Y567720D01*
X1705000Y567720D01*
X1707611Y568064D01*
X1710043Y569071D01*
X1712132Y570674D01*
X1713735Y572763D01*
X1714743Y575196D01*
X1715086Y577806D01*
X1716308Y578036D01*
X1750000D01*
X1750000Y460418D01*
X50000Y460418D01*
X50000Y625000D01*
X94914D01*
Y577806D01*
D02*
G37*
G36*
X1455000Y327835D02*
X1295000Y327835D01*
Y377188D01*
X1455000Y377188D01*
Y327835D01*
D02*
G37*
G36*
X1204839Y327771D02*
X1044839Y327771D01*
Y377124D01*
X1204839Y377124D01*
Y327771D01*
D02*
G37*
G36*
X955000Y327752D02*
X795000Y327752D01*
Y377105D01*
X955000Y377105D01*
Y327752D01*
D02*
G37*
G36*
X455000D02*
X295000Y327752D01*
Y377105D01*
X455000Y377105D01*
Y327752D01*
D02*
G37*
G36*
X1705159Y327732D02*
X1545159Y327732D01*
Y377085D01*
X1705159Y377085D01*
Y327732D01*
D02*
G37*
G36*
X283932Y328036D02*
X284914D01*
Y327752D01*
X285257Y325141D01*
X286265Y322709D01*
X287868Y320620D01*
X289957Y319017D01*
X292390Y318009D01*
X295000Y317666D01*
X455000Y317666D01*
X457611Y318009D01*
X460043Y319017D01*
X462132Y320620D01*
X463735Y322709D01*
X464743Y325141D01*
X465086Y327752D01*
X466277Y328036D01*
X784914D01*
Y327752D01*
X785257Y325141D01*
X786265Y322709D01*
X787868Y320620D01*
X789957Y319017D01*
X792390Y318009D01*
X795000Y317666D01*
X955000Y317666D01*
X957611Y318009D01*
X960043Y319017D01*
X962132Y320620D01*
X963735Y322709D01*
X964743Y325141D01*
X965086Y327752D01*
X966277Y328036D01*
X1034752Y328036D01*
Y327771D01*
X1035096Y325160D01*
X1036104Y322728D01*
X1037707Y320639D01*
X1039796Y319036D01*
X1042228Y318028D01*
X1044839Y317685D01*
X1204839Y317684D01*
X1207449Y318028D01*
X1209882Y319036D01*
X1211971Y320639D01*
X1213574Y322728D01*
X1214581Y325160D01*
X1214925Y327771D01*
X1216127Y328036D01*
X1284914D01*
Y327835D01*
X1285257Y325224D01*
X1286265Y322792D01*
X1287868Y320703D01*
X1289957Y319100D01*
X1292390Y318092D01*
X1295000Y317749D01*
X1455000Y317749D01*
X1457610Y318092D01*
X1460043Y319100D01*
X1462132Y320703D01*
X1463735Y322792D01*
X1464743Y325224D01*
X1465086Y327835D01*
X1466325Y328036D01*
X1535073D01*
Y327732D01*
X1535416Y325121D01*
X1536424Y322689D01*
X1538027Y320600D01*
X1540116Y318997D01*
X1542548Y317989D01*
X1545159Y317645D01*
X1705159Y317645D01*
X1707769Y317989D01*
X1710202Y318997D01*
X1712291Y320599D01*
X1713894Y322688D01*
X1714901Y325121D01*
X1715245Y327732D01*
X1716424Y328036D01*
X1750000D01*
X1750000Y210418D01*
X63324Y210418D01*
X63324Y375000D01*
X283932D01*
Y328036D01*
D02*
G37*
G36*
X1705000Y78036D02*
X1545000Y78036D01*
Y127390D01*
X1705000Y127390D01*
Y78036D01*
D02*
G37*
G36*
X205000D02*
X105000Y78036D01*
Y127390D01*
X205000Y127390D01*
Y78036D01*
D02*
G37*
G36*
X1205000Y77848D02*
X1045000Y77848D01*
Y127202D01*
X1205000Y127202D01*
Y77848D01*
D02*
G37*
G36*
X705000D02*
X545000Y77848D01*
Y127202D01*
X705000Y127202D01*
Y77848D01*
D02*
G37*
G36*
X954908Y77643D02*
X794908Y77643D01*
Y126997D01*
X954908Y126997D01*
Y77643D01*
D02*
G37*
G36*
X1454987Y77512D02*
X1294987Y77512D01*
Y126866D01*
X1454987Y126866D01*
Y77512D01*
D02*
G37*
G36*
X1705717Y67636D02*
X1706376Y66690D01*
X1707005Y65722D01*
X1707128Y65611D01*
X1707222Y65476D01*
X1708103Y64733D01*
X1708961Y63960D01*
X1709109Y63885D01*
X1709236Y63779D01*
X1710280Y63289D01*
X1711307Y62765D01*
X1711469Y62731D01*
X1711619Y62660D01*
X1712621Y62481D01*
X1712751Y62431D01*
X1716960Y61421D01*
X1720225Y60068D01*
X1723239Y58222D01*
X1725926Y55926D01*
X1728222Y53239D01*
X1730068Y50225D01*
X1731421Y46960D01*
X1732246Y43524D01*
X1732523Y40000D01*
X1732246Y36477D01*
X1731421Y33040D01*
X1730068Y29775D01*
X1728222Y26761D01*
X1725926Y24074D01*
X1723239Y21778D01*
X1720225Y19932D01*
X1716960Y18579D01*
X1713524Y17754D01*
X1710000Y17477D01*
X1706477Y17754D01*
X1703040Y18579D01*
X1699775Y19932D01*
X1696761Y21778D01*
X1694074Y24074D01*
X1691779Y26761D01*
X1689932Y29775D01*
X1688579Y33040D01*
X1687754Y36477D01*
X1687477Y40000D01*
X1687754Y43523D01*
X1688579Y46960D01*
X1689932Y50225D01*
X1691779Y53239D01*
X1694074Y55926D01*
X1697365Y58737D01*
X1697377Y58750D01*
X1697580Y58915D01*
X1698562Y59689D01*
X1698602Y59743D01*
X1698654Y59784D01*
X1699389Y60796D01*
X1700138Y61799D01*
X1700162Y61861D01*
X1700201Y61915D01*
X1700650Y63084D01*
X1701113Y64245D01*
X1701121Y64311D01*
X1701145Y64373D01*
X1701276Y65618D01*
X1701423Y66859D01*
X1701825Y67465D01*
X1702239Y67950D01*
X1705000D01*
X1705519Y68018D01*
X1705717Y67636D01*
D02*
G37*
G36*
X94914Y78036D02*
X95257Y75426D01*
X96265Y72993D01*
X97868Y70904D01*
X99957Y69301D01*
X102389Y68293D01*
X105000Y67950D01*
X205000Y67950D01*
X207611Y68293D01*
X210043Y69301D01*
X212132Y70904D01*
X213735Y72993D01*
X214743Y75425D01*
X215086Y78036D01*
Y78036D01*
X534914D01*
Y77848D01*
X535257Y75238D01*
X536265Y72805D01*
X537868Y70716D01*
X539957Y69113D01*
X542389Y68106D01*
X545000Y67762D01*
X705000Y67762D01*
X707610Y68106D01*
X710043Y69113D01*
X712132Y70716D01*
X713735Y72805D01*
X714743Y75238D01*
X715086Y77848D01*
X716333Y78036D01*
X784822D01*
Y77643D01*
X785166Y75033D01*
X786173Y72600D01*
X787776Y70511D01*
X789865Y68908D01*
X792298Y67901D01*
X794908Y67557D01*
X954908Y67557D01*
X957519Y67901D01*
X959951Y68908D01*
X962040Y70511D01*
X963643Y72600D01*
X964651Y75033D01*
X964995Y77643D01*
X966123Y78036D01*
X1034914D01*
Y77848D01*
X1035257Y75238D01*
X1036265Y72805D01*
X1037868Y70716D01*
X1039957Y69113D01*
X1042390Y68106D01*
X1045000Y67762D01*
X1205000Y67762D01*
X1207610Y68106D01*
X1210043Y69113D01*
X1212132Y70716D01*
X1213735Y72805D01*
X1214743Y75238D01*
X1215086Y77848D01*
X1216333Y78036D01*
X1284901D01*
Y77512D01*
X1285244Y74902D01*
X1286252Y72469D01*
X1287855Y70380D01*
X1289944Y68777D01*
X1292376Y67770D01*
X1294987Y67426D01*
X1454987Y67426D01*
X1457598Y67769D01*
X1460030Y68777D01*
X1462119Y70380D01*
X1463722Y72469D01*
X1464730Y74901D01*
X1465073Y77512D01*
X1466126Y78036D01*
X1534914D01*
X1535257Y75426D01*
X1536265Y72993D01*
X1537868Y70904D01*
X1539957Y69301D01*
X1542390Y68293D01*
X1545000Y67950D01*
X1690993Y67950D01*
X1691337Y66727D01*
X1690814Y66407D01*
X1686920Y63080D01*
X1683593Y59186D01*
X1680917Y54819D01*
X1678957Y50086D01*
X1677761Y45106D01*
X1677359Y40000D01*
X1677761Y34894D01*
X1678957Y29913D01*
X1680917Y25182D01*
X1683593Y20814D01*
X1686920Y16920D01*
X1690814Y13593D01*
X1695181Y10917D01*
X1699913Y8957D01*
X1704894Y7761D01*
X1710000Y7359D01*
X1715106Y7761D01*
X1720087Y8957D01*
X1724819Y10917D01*
X1729186Y13593D01*
X1733080Y16920D01*
X1736407Y20814D01*
X1739083Y25182D01*
X1741043Y29913D01*
X1742239Y34894D01*
X1742641Y40000D01*
X1742239Y45106D01*
X1741043Y50086D01*
X1739083Y54819D01*
X1736407Y59186D01*
X1733080Y63080D01*
X1729186Y66407D01*
X1724819Y69083D01*
X1720087Y71043D01*
X1715106Y72239D01*
X1714674Y72273D01*
X1713987Y73601D01*
X1714743Y75425D01*
X1715086Y78036D01*
X1716301Y78036D01*
X1750000D01*
X1750000Y0D01*
X-0D01*
X0Y125000D01*
X94914D01*
Y78036D01*
D02*
G37*
%LPC*%
G36*
X1710000Y1742641D02*
X1704894Y1742239D01*
X1699913Y1741043D01*
X1695181Y1739083D01*
X1690814Y1736407D01*
X1686920Y1733080D01*
X1683593Y1729186D01*
X1680917Y1724819D01*
X1678957Y1720087D01*
X1677761Y1715106D01*
X1677359Y1710000D01*
X1677761Y1704894D01*
X1678957Y1699913D01*
X1680917Y1695181D01*
X1683593Y1690814D01*
X1686920Y1686920D01*
X1690814Y1683593D01*
X1695181Y1680917D01*
X1699913Y1678957D01*
X1704894Y1677761D01*
X1710000Y1677359D01*
X1715106Y1677761D01*
X1720087Y1678957D01*
X1724819Y1680917D01*
X1729186Y1683593D01*
X1733080Y1686920D01*
X1736407Y1690814D01*
X1739083Y1695181D01*
X1741043Y1699913D01*
X1742239Y1704894D01*
X1742641Y1710000D01*
X1742239Y1715106D01*
X1741043Y1720087D01*
X1739083Y1724819D01*
X1736407Y1729186D01*
X1733080Y1733080D01*
X1729186Y1736407D01*
X1724819Y1739083D01*
X1720087Y1741043D01*
X1715106Y1742239D01*
X1710000Y1742641D01*
D02*
G37*
G36*
X1685242Y1669622D02*
X1682752Y1669294D01*
X1680431Y1668333D01*
X1678438Y1666804D01*
X1676909Y1664811D01*
X1675948Y1662491D01*
X1675620Y1660000D01*
X1675948Y1657510D01*
X1676909Y1655189D01*
X1678438Y1653196D01*
X1680431Y1651667D01*
X1682752Y1650706D01*
X1685242Y1650378D01*
X1687733Y1650706D01*
X1690053Y1651667D01*
X1692046Y1653196D01*
X1693575Y1655189D01*
X1694537Y1657510D01*
X1694865Y1660000D01*
X1694537Y1662491D01*
X1693575Y1664811D01*
X1692046Y1666804D01*
X1690053Y1668333D01*
X1687733Y1669294D01*
X1685242Y1669622D01*
D02*
G37*
G36*
X1437700D02*
X1435210Y1669294D01*
X1432889Y1668333D01*
X1430896Y1666804D01*
X1429367Y1664811D01*
X1428406Y1662491D01*
X1428078Y1660000D01*
X1428406Y1657510D01*
X1429367Y1655189D01*
X1430896Y1653196D01*
X1432889Y1651667D01*
X1435210Y1650706D01*
X1437700Y1650378D01*
X1440190Y1650706D01*
X1442511Y1651667D01*
X1444504Y1653196D01*
X1446033Y1655189D01*
X1446994Y1657510D01*
X1447322Y1660000D01*
X1446994Y1662491D01*
X1446033Y1664811D01*
X1444504Y1666804D01*
X1442511Y1668333D01*
X1440190Y1669294D01*
X1437700Y1669622D01*
D02*
G37*
G36*
X1187700D02*
X1185210Y1669294D01*
X1182889Y1668333D01*
X1180896Y1666804D01*
X1179367Y1664811D01*
X1178406Y1662491D01*
X1178078Y1660000D01*
X1178406Y1657510D01*
X1179367Y1655189D01*
X1180896Y1653196D01*
X1182889Y1651667D01*
X1185210Y1650706D01*
X1187700Y1650378D01*
X1190190Y1650706D01*
X1192511Y1651667D01*
X1194504Y1653196D01*
X1196033Y1655189D01*
X1196994Y1657510D01*
X1197322Y1660000D01*
X1196994Y1662491D01*
X1196033Y1664811D01*
X1194504Y1666804D01*
X1192511Y1668333D01*
X1190190Y1669294D01*
X1187700Y1669622D01*
D02*
G37*
G36*
X937700D02*
X935210Y1669294D01*
X932889Y1668333D01*
X930896Y1666804D01*
X929367Y1664811D01*
X928406Y1662491D01*
X928078Y1660000D01*
X928406Y1657510D01*
X929367Y1655189D01*
X930896Y1653196D01*
X932889Y1651667D01*
X935210Y1650706D01*
X937700Y1650378D01*
X940190Y1650706D01*
X942511Y1651667D01*
X944504Y1653196D01*
X946033Y1655189D01*
X946994Y1657510D01*
X947322Y1660000D01*
X946994Y1662491D01*
X946033Y1664811D01*
X944504Y1666804D01*
X942511Y1668333D01*
X940190Y1669294D01*
X937700Y1669622D01*
D02*
G37*
G36*
X387700Y1609622D02*
X385210Y1609294D01*
X382889Y1608333D01*
X380896Y1606804D01*
X379367Y1604811D01*
X378405Y1602490D01*
X378078Y1600000D01*
X378405Y1597510D01*
X379367Y1595189D01*
X380896Y1593196D01*
X382889Y1591667D01*
X385210Y1590706D01*
X387700Y1590378D01*
X390190Y1590706D01*
X392511Y1591667D01*
X394504Y1593196D01*
X396033Y1595189D01*
X396994Y1597510D01*
X397322Y1600000D01*
X396994Y1602490D01*
X396033Y1604811D01*
X394504Y1606804D01*
X392511Y1608333D01*
X390190Y1609294D01*
X387700Y1609622D01*
D02*
G37*
%LPD*%
G36*
X1713523Y1732246D02*
X1716960Y1731421D01*
X1720225Y1730068D01*
X1723239Y1728222D01*
X1725926Y1725926D01*
X1728222Y1723239D01*
X1730068Y1720225D01*
X1731421Y1716960D01*
X1732246Y1713524D01*
X1732523Y1710000D01*
X1732246Y1706477D01*
X1731421Y1703040D01*
X1730068Y1699775D01*
X1728222Y1696761D01*
X1725926Y1694074D01*
X1723239Y1691779D01*
X1720225Y1689932D01*
X1716960Y1688579D01*
X1713524Y1687754D01*
X1710000Y1687477D01*
X1706477Y1687754D01*
X1703040Y1688579D01*
X1699775Y1689932D01*
X1696761Y1691779D01*
X1694074Y1694074D01*
X1691779Y1696761D01*
X1689932Y1699775D01*
X1688579Y1703040D01*
X1687754Y1706476D01*
X1687477Y1710000D01*
X1687754Y1713523D01*
X1688579Y1716960D01*
X1689932Y1720225D01*
X1691779Y1723239D01*
X1694074Y1725926D01*
X1696761Y1728222D01*
X1699775Y1730068D01*
X1703040Y1731421D01*
X1706476Y1732246D01*
X1710000Y1732523D01*
X1713523Y1732246D01*
D02*
G37*
%LPC*%
G36*
X40000Y72641D02*
X34894Y72239D01*
X29913Y71043D01*
X25182Y69083D01*
X20814Y66407D01*
X16920Y63080D01*
X13593Y59186D01*
X10917Y54819D01*
X8957Y50086D01*
X7761Y45106D01*
X7359Y40000D01*
X7761Y34894D01*
X8957Y29913D01*
X10917Y25182D01*
X13593Y20814D01*
X16920Y16920D01*
X20814Y13593D01*
X25182Y10917D01*
X29913Y8957D01*
X34894Y7761D01*
X40000Y7359D01*
X45106Y7761D01*
X50086Y8957D01*
X54819Y10917D01*
X59186Y13593D01*
X63080Y16920D01*
X66407Y20814D01*
X69083Y25182D01*
X71043Y29913D01*
X72239Y34894D01*
X72641Y40000D01*
X72239Y45106D01*
X71043Y50086D01*
X69083Y54819D01*
X66407Y59186D01*
X63080Y63080D01*
X59186Y66407D01*
X54819Y69083D01*
X50086Y71043D01*
X45106Y72239D01*
X40000Y72641D01*
D02*
G37*
%LPD*%
G36*
X43523Y62246D02*
X46960Y61421D01*
X50225Y60068D01*
X53239Y58222D01*
X55926Y55926D01*
X58222Y53239D01*
X60068Y50225D01*
X61421Y46960D01*
X62246Y43524D01*
X62523Y40000D01*
X62246Y36477D01*
X61421Y33040D01*
X60068Y29775D01*
X58222Y26761D01*
X55926Y24074D01*
X53239Y21778D01*
X50225Y19932D01*
X46960Y18579D01*
X43524Y17754D01*
X40000Y17477D01*
X36477Y17754D01*
X33040Y18579D01*
X29775Y19932D01*
X26761Y21778D01*
X24074Y24074D01*
X21778Y26761D01*
X19932Y29775D01*
X18579Y33040D01*
X17754Y36477D01*
X17477Y40000D01*
X17754Y43523D01*
X18579Y46960D01*
X19932Y50225D01*
X21778Y53239D01*
X24074Y55926D01*
X26761Y58222D01*
X29775Y60068D01*
X33040Y61421D01*
X36477Y62246D01*
X40000Y62523D01*
X43523Y62246D01*
D02*
G37*
D12*
X125000Y1616250D02*
X125000Y1616250D01*
X0Y0D02*
X1750000D01*
X1750000Y1750000D02*
X1750000Y0D01*
X0D02*
Y1750000D01*
X1750000Y1750000D01*
D13*
X1374987Y83664D02*
D03*
Y65664D02*
D03*
Y583664D02*
D03*
Y565664D02*
D03*
Y1083664D02*
D03*
Y1065664D02*
D03*
Y1583664D02*
D03*
Y1565664D02*
D03*
X1124839Y1333961D02*
D03*
Y1315961D02*
D03*
Y315961D02*
D03*
Y333961D02*
D03*
X874908Y83795D02*
D03*
Y65795D02*
D03*
Y583795D02*
D03*
Y565795D02*
D03*
Y1083795D02*
D03*
Y1065795D02*
D03*
Y1583795D02*
D03*
Y1565795D02*
D03*
X1625341Y1335270D02*
D03*
Y1317270D02*
D03*
X1625000Y834505D02*
D03*
Y816505D02*
D03*
X1625159Y315897D02*
D03*
Y333897D02*
D03*
X1625000Y84000D02*
D03*
Y66000D02*
D03*
Y584000D02*
D03*
Y566000D02*
D03*
Y1084000D02*
D03*
Y1066000D02*
D03*
Y1584000D02*
D03*
Y1566000D02*
D03*
X1375000Y1334000D02*
D03*
Y1316000D02*
D03*
Y834000D02*
D03*
Y816000D02*
D03*
Y316000D02*
D03*
Y334000D02*
D03*
X1125000Y84000D02*
D03*
Y66000D02*
D03*
Y584000D02*
D03*
Y566000D02*
D03*
Y1084000D02*
D03*
Y1066000D02*
D03*
Y1584000D02*
D03*
Y1566000D02*
D03*
X625000Y1584000D02*
D03*
Y1566000D02*
D03*
X875000Y1334000D02*
D03*
Y1316000D02*
D03*
Y834000D02*
D03*
Y816000D02*
D03*
Y334000D02*
D03*
Y316000D02*
D03*
X625000Y84000D02*
D03*
Y66000D02*
D03*
X375000Y334000D02*
D03*
Y316000D02*
D03*
X125000Y584000D02*
D03*
Y566000D02*
D03*
X625000Y584000D02*
D03*
Y566000D02*
D03*
X125000Y1084000D02*
D03*
Y1066000D02*
D03*
X625000Y1084000D02*
D03*
Y1066000D02*
D03*
X125000Y1584000D02*
D03*
Y1566000D02*
D03*
X375000Y816000D02*
D03*
Y834000D02*
D03*
X1124839Y815961D02*
D03*
Y833961D02*
D03*
X375000Y1316000D02*
D03*
Y1334000D02*
D03*
X125000Y66000D02*
D03*
Y84000D02*
D03*
D14*
X1374987Y115914D02*
D03*
Y615914D02*
D03*
Y1115914D02*
D03*
Y1615914D02*
D03*
X1124839Y1366211D02*
D03*
Y866211D02*
D03*
Y366211D02*
D03*
X874908Y116045D02*
D03*
Y616045D02*
D03*
Y1116045D02*
D03*
Y1616045D02*
D03*
X1625341Y1367520D02*
D03*
X1625000Y866755D02*
D03*
X1625159Y366147D02*
D03*
X1625000Y116250D02*
D03*
Y616250D02*
D03*
Y1116250D02*
D03*
Y1616250D02*
D03*
X1375000Y1366250D02*
D03*
Y866250D02*
D03*
Y366250D02*
D03*
X1125000Y116250D02*
D03*
Y616250D02*
D03*
Y1116250D02*
D03*
Y1616250D02*
D03*
X875000Y1366250D02*
D03*
Y866250D02*
D03*
Y366250D02*
D03*
X625000Y116250D02*
D03*
Y616250D02*
D03*
Y1116250D02*
D03*
X125000Y1616250D02*
D03*
X625000D02*
D03*
X375000Y1366250D02*
D03*
Y866250D02*
D03*
Y366250D02*
D03*
X125000Y116250D02*
D03*
Y616250D02*
D03*
Y1116250D02*
D03*
D15*
X1374987Y138414D02*
D03*
Y638414D02*
D03*
Y1138414D02*
D03*
Y1638414D02*
D03*
X1124839Y1388711D02*
D03*
Y888711D02*
D03*
Y388711D02*
D03*
X874908Y138545D02*
D03*
Y638545D02*
D03*
Y1138545D02*
D03*
Y1638545D02*
D03*
X1625341Y1390020D02*
D03*
X1625000Y889255D02*
D03*
X1625159Y388647D02*
D03*
X1625000Y138750D02*
D03*
Y638750D02*
D03*
Y1138750D02*
D03*
Y1638750D02*
D03*
X1375000Y1388750D02*
D03*
Y888750D02*
D03*
Y388750D02*
D03*
X1125000Y138750D02*
D03*
Y638750D02*
D03*
Y1138750D02*
D03*
Y1638750D02*
D03*
X875000Y1388750D02*
D03*
Y888750D02*
D03*
Y388750D02*
D03*
X625000Y138750D02*
D03*
Y638750D02*
D03*
Y1138750D02*
D03*
X125000Y1638750D02*
D03*
X625000D02*
D03*
X375000Y1388750D02*
D03*
Y888750D02*
D03*
Y388750D02*
D03*
X125000Y138750D02*
D03*
Y638750D02*
D03*
Y1138750D02*
D03*
D25*
X1625000Y1642500D02*
Y1649456D01*
X1587700Y1660000D02*
X1614456D01*
X1625000Y1649456D01*
X1374987Y1642164D02*
Y1649456D01*
X1337700Y1660000D02*
X1364443D01*
X1374987Y1649456D01*
X1087700Y1660000D02*
X1114825D01*
X1125000Y1649825D01*
X837700Y1660000D02*
X865513D01*
X874908Y1650605D01*
Y1642295D02*
Y1650605D01*
X625000Y1642500D02*
Y1659431D01*
X125000Y1642500D02*
Y1659730D01*
X124784Y1659946D02*
X125000Y1659730D01*
X1125000Y1642500D02*
Y1649825D01*
X1374987Y142164D02*
Y164664D01*
X874908Y142295D02*
Y164795D01*
X1625000Y142500D02*
Y165000D01*
X1125000Y142500D02*
Y165000D01*
X625000Y142500D02*
Y165000D01*
X125000Y142500D02*
Y165000D01*
X1124839Y392461D02*
Y414961D01*
X1625159Y392397D02*
Y414897D01*
X1375000Y392500D02*
Y415000D01*
X875000Y392500D02*
Y415000D01*
X375000Y392500D02*
Y415000D01*
X1374987Y642164D02*
Y664664D01*
X874908Y642295D02*
Y664795D01*
X1625000Y642500D02*
Y665000D01*
X1125000Y642500D02*
Y665000D01*
X625000Y642500D02*
Y665000D01*
X125000Y642500D02*
Y665000D01*
X1124839Y892461D02*
Y914961D01*
X1625000Y893005D02*
Y915505D01*
X1375000Y892500D02*
Y915000D01*
X875000Y892500D02*
Y915000D01*
X375000Y892500D02*
Y915000D01*
X1374987Y1142164D02*
Y1164664D01*
X874908Y1142295D02*
Y1164795D01*
X1625000Y1145031D02*
Y1165000D01*
X1125000Y1144653D02*
Y1165000D01*
X625000Y1142500D02*
Y1165000D01*
X125000Y1145827D02*
Y1165000D01*
X1124839Y1395121D02*
Y1414961D01*
X1625341Y1396235D02*
Y1416270D01*
X1375000Y1395355D02*
Y1415000D01*
X875000Y1395160D02*
Y1415000D01*
X375000Y1395272D02*
Y1415000D01*
D26*
X1685242Y1660000D02*
D03*
X75000Y1637700D02*
D03*
Y1387700D02*
D03*
Y1137700D02*
D03*
Y887700D02*
D03*
X125192Y1659730D02*
D03*
X625000Y1659431D02*
D03*
X1087700Y1660000D02*
D03*
X1587700D02*
D03*
X75000Y637700D02*
D03*
X837700Y1660000D02*
D03*
X1337700D02*
D03*
X387700Y1600000D02*
D03*
X937700Y1660000D02*
D03*
X75000Y137700D02*
D03*
X1437700Y1660000D02*
D03*
X1187700D02*
D03*
X75000Y387700D02*
D03*
D27*
X1659842Y1660000D02*
D03*
X150592Y1659730D02*
D03*
X650400Y1659431D02*
D03*
X1062300Y1660000D02*
D03*
X1562300D02*
D03*
X812300D02*
D03*
X1312300D02*
D03*
X362300Y1600000D02*
D03*
X912300Y1660000D02*
D03*
X1412300D02*
D03*
X1162300D02*
D03*
D28*
X500000Y1717500D02*
D03*
Y1562500D02*
D03*
X250000Y1717500D02*
D03*
Y1562500D02*
D03*
D29*
X1710000Y1710000D02*
D03*
Y40000D02*
D03*
X40000D02*
D03*
Y1710000D02*
D03*
D30*
X75000Y1612300D02*
D03*
Y1362300D02*
D03*
Y1112300D02*
D03*
Y862300D02*
D03*
Y612300D02*
D03*
Y112300D02*
D03*
Y362300D02*
D03*
D31*
X1125000Y665000D02*
D03*
X1374987Y1164664D02*
D03*
X1124839Y1414961D02*
D03*
X1625341Y1416270D02*
D03*
X874908Y1164795D02*
D03*
X1625000Y1165000D02*
D03*
X1375000Y1415000D02*
D03*
X1125000Y1165000D02*
D03*
X1375000Y915000D02*
D03*
X1625000Y915505D02*
D03*
X1124839Y914961D02*
D03*
X1374987Y664664D02*
D03*
X874908Y664795D02*
D03*
X1625000Y665000D02*
D03*
X1625159Y414897D02*
D03*
X1124839Y414961D02*
D03*
X1374987Y164664D02*
D03*
X874908Y164795D02*
D03*
X1625000Y165000D02*
D03*
X1375000Y415000D02*
D03*
X1125000Y165000D02*
D03*
X875000Y415000D02*
D03*
Y915000D02*
D03*
Y1415000D02*
D03*
X625000Y1165000D02*
D03*
Y665000D02*
D03*
Y165000D02*
D03*
X375000Y415000D02*
D03*
Y915000D02*
D03*
Y1415000D02*
D03*
X125000Y165000D02*
D03*
Y665000D02*
D03*
Y1165000D02*
D03*
M02*
