G04*
G04 #@! TF.GenerationSoftware,Altium Limited,Altium Designer,20.0.13 (296)*
G04*
G04 Layer_Color=32768*
%FSLAX44Y44*%
%MOMM*%
G71*
G01*
G75*
%ADD12C,0.2540*%
%ADD32C,0.1000*%
%ADD34C,0.0500*%
D12*
X0Y0D02*
X1750000D01*
X1750000Y1750000D02*
X1750000Y0D01*
X0D02*
Y1750000D01*
X1750000Y1750000D01*
D32*
X1672542Y1655000D02*
Y1665000D01*
X1667542Y1660000D02*
X1677542D01*
X500000Y1635000D02*
Y1645000D01*
X495000Y1640000D02*
X505000D01*
X250000Y1635000D02*
Y1645000D01*
X245000Y1640000D02*
X255000D01*
X1369987Y74664D02*
X1379987D01*
X1374987Y69664D02*
Y79664D01*
X1384487Y57164D02*
Y92164D01*
X1365487Y57164D02*
Y92164D01*
X1384487D01*
X1365487Y57164D02*
X1384487D01*
X1369987Y124664D02*
X1379987D01*
X1374987Y119664D02*
Y129664D01*
X1369987Y574664D02*
X1379987D01*
X1374987Y569664D02*
Y579664D01*
X1384487Y557164D02*
Y592164D01*
X1365487Y557164D02*
Y592164D01*
X1384487D01*
X1365487Y557164D02*
X1384487D01*
X1369987Y624664D02*
X1379987D01*
X1374987Y619664D02*
Y629664D01*
X1369987Y1074664D02*
X1379987D01*
X1374987Y1069664D02*
Y1079664D01*
X1384487Y1057164D02*
Y1092164D01*
X1365487Y1057164D02*
Y1092164D01*
X1384487D01*
X1365487Y1057164D02*
X1384487D01*
X1369987Y1124664D02*
X1379987D01*
X1374987Y1119664D02*
Y1129664D01*
X1369987Y1574664D02*
X1379987D01*
X1374987Y1569664D02*
Y1579664D01*
X1384487Y1557164D02*
Y1592164D01*
X1365487Y1557164D02*
Y1592164D01*
X1384487D01*
X1365487Y1557164D02*
X1384487D01*
X1369987Y1624664D02*
X1379987D01*
X1374987Y1619664D02*
Y1629664D01*
X1119839Y1324961D02*
X1129839D01*
X1124839Y1319961D02*
Y1329961D01*
X1134339Y1307461D02*
Y1342461D01*
X1115339Y1307461D02*
Y1342461D01*
X1134339D01*
X1115339Y1307461D02*
X1134339D01*
X1119839Y1374961D02*
X1129839D01*
X1124839Y1369961D02*
Y1379961D01*
X1119839Y874961D02*
X1129839D01*
X1124839Y869961D02*
Y879961D01*
Y369961D02*
Y379961D01*
X1119839Y374961D02*
X1129839D01*
X1115339Y307461D02*
X1134339D01*
X1115339Y342461D02*
X1134339D01*
X1115339Y307461D02*
Y342461D01*
X1134339Y307461D02*
Y342461D01*
X1124839Y319961D02*
Y329961D01*
X1119839Y324961D02*
X1129839D01*
X869908Y74795D02*
X879908D01*
X874908Y69795D02*
Y79795D01*
X884408Y57295D02*
Y92295D01*
X865408Y57295D02*
Y92295D01*
X884408D01*
X865408Y57295D02*
X884408D01*
X869908Y124795D02*
X879908D01*
X874908Y119795D02*
Y129795D01*
X869908Y574795D02*
X879908D01*
X874908Y569795D02*
Y579795D01*
X884408Y557295D02*
Y592295D01*
X865408Y557295D02*
Y592295D01*
X884408D01*
X865408Y557295D02*
X884408D01*
X869908Y624795D02*
X879908D01*
X874908Y619795D02*
Y629795D01*
X869908Y1074795D02*
X879908D01*
X874908Y1069795D02*
Y1079795D01*
X884408Y1057295D02*
Y1092295D01*
X865408Y1057295D02*
Y1092295D01*
X884408D01*
X865408Y1057295D02*
X884408D01*
X869908Y1124795D02*
X879908D01*
X874908Y1119795D02*
Y1129795D01*
X869908Y1574795D02*
X879908D01*
X874908Y1569795D02*
Y1579795D01*
X884408Y1557295D02*
Y1592295D01*
X865408Y1557295D02*
Y1592295D01*
X884408D01*
X865408Y1557295D02*
X884408D01*
X869908Y1624795D02*
X879908D01*
X874908Y1619795D02*
Y1629795D01*
X1620341Y1326270D02*
X1630341D01*
X1625341Y1321270D02*
Y1331270D01*
X1634841Y1308770D02*
Y1343770D01*
X1615841Y1308770D02*
Y1343770D01*
X1634841D01*
X1615841Y1308770D02*
X1634841D01*
X1620341Y1376270D02*
X1630341D01*
X1625341Y1371270D02*
Y1381270D01*
X1620000Y825505D02*
X1630000D01*
X1625000Y820505D02*
Y830505D01*
X1634500Y808005D02*
Y843005D01*
X1615500Y808005D02*
Y843005D01*
X1634500D01*
X1615500Y808005D02*
X1634500D01*
X1620000Y875505D02*
X1630000D01*
X1625000Y870505D02*
Y880505D01*
X1625159Y369897D02*
Y379897D01*
X1620159Y374897D02*
X1630159D01*
X1615659Y307397D02*
X1634659D01*
X1615659Y342397D02*
X1634659D01*
X1615659Y307397D02*
Y342397D01*
X1634659Y307397D02*
Y342397D01*
X1625159Y319897D02*
Y329897D01*
X1620159Y324897D02*
X1630159D01*
X1620000Y75000D02*
X1630000D01*
X1625000Y70000D02*
Y80000D01*
X1634500Y57500D02*
Y92500D01*
X1615500Y57500D02*
Y92500D01*
X1634500D01*
X1615500Y57500D02*
X1634500D01*
X1620000Y125000D02*
X1630000D01*
X1625000Y120000D02*
Y130000D01*
X1620000Y575000D02*
X1630000D01*
X1625000Y570000D02*
Y580000D01*
X1634500Y557500D02*
Y592500D01*
X1615500Y557500D02*
Y592500D01*
X1634500D01*
X1615500Y557500D02*
X1634500D01*
X1620000Y625000D02*
X1630000D01*
X1625000Y620000D02*
Y630000D01*
X1620000Y1075000D02*
X1630000D01*
X1625000Y1070000D02*
Y1080000D01*
X1634500Y1057500D02*
Y1092500D01*
X1615500Y1057500D02*
Y1092500D01*
X1634500D01*
X1615500Y1057500D02*
X1634500D01*
X1620000Y1125000D02*
X1630000D01*
X1625000Y1120000D02*
Y1130000D01*
X1620000Y1575000D02*
X1630000D01*
X1625000Y1570000D02*
Y1580000D01*
X1634500Y1557500D02*
Y1592500D01*
X1615500Y1557500D02*
Y1592500D01*
X1634500D01*
X1615500Y1557500D02*
X1634500D01*
X1620000Y1625000D02*
X1630000D01*
X1625000Y1620000D02*
Y1630000D01*
X1370000Y1375000D02*
X1380000D01*
X1375000Y1370000D02*
Y1380000D01*
X1370000Y1325000D02*
X1380000D01*
X1375000Y1320000D02*
Y1330000D01*
X1384500Y1307500D02*
Y1342500D01*
X1365500Y1307500D02*
Y1342500D01*
X1384500D01*
X1365500Y1307500D02*
X1384500D01*
X1370000Y825000D02*
X1380000D01*
X1375000Y820000D02*
Y830000D01*
X1384500Y807500D02*
Y842500D01*
X1365500Y807500D02*
Y842500D01*
X1384500D01*
X1365500Y807500D02*
X1384500D01*
X1370000Y875000D02*
X1380000D01*
X1375000Y870000D02*
Y880000D01*
Y370000D02*
Y380000D01*
X1370000Y375000D02*
X1380000D01*
X1365500Y307500D02*
X1384500D01*
X1365500Y342500D02*
X1384500D01*
X1365500Y307500D02*
Y342500D01*
X1384500Y307500D02*
Y342500D01*
X1375000Y320000D02*
Y330000D01*
X1370000Y325000D02*
X1380000D01*
X1120000Y75000D02*
X1130000D01*
X1125000Y70000D02*
Y80000D01*
X1134500Y57500D02*
Y92500D01*
X1115500Y57500D02*
Y92500D01*
X1134500D01*
X1115500Y57500D02*
X1134500D01*
X1120000Y125000D02*
X1130000D01*
X1125000Y120000D02*
Y130000D01*
X1120000Y575000D02*
X1130000D01*
X1125000Y570000D02*
Y580000D01*
X1134500Y557500D02*
Y592500D01*
X1115500Y557500D02*
Y592500D01*
X1134500D01*
X1115500Y557500D02*
X1134500D01*
X1120000Y625000D02*
X1130000D01*
X1125000Y620000D02*
Y630000D01*
X1120000Y1075000D02*
X1130000D01*
X1125000Y1070000D02*
Y1080000D01*
X1134500Y1057500D02*
Y1092500D01*
X1115500Y1057500D02*
Y1092500D01*
X1134500D01*
X1115500Y1057500D02*
X1134500D01*
X1120000Y1125000D02*
X1130000D01*
X1125000Y1120000D02*
Y1130000D01*
X1120000Y1575000D02*
X1130000D01*
X1125000Y1570000D02*
Y1580000D01*
X1134500Y1557500D02*
Y1592500D01*
X1115500Y1557500D02*
Y1592500D01*
X1134500D01*
X1115500Y1557500D02*
X1134500D01*
X1120000Y1625000D02*
X1130000D01*
X1125000Y1620000D02*
Y1630000D01*
X620000Y1575000D02*
X630000D01*
X625000Y1570000D02*
Y1580000D01*
X634500Y1557500D02*
Y1592500D01*
X615500Y1557500D02*
Y1592500D01*
X634500D01*
X615500Y1557500D02*
X634500D01*
X870000Y1375000D02*
X880000D01*
X875000Y1370000D02*
Y1380000D01*
X870000Y1325000D02*
X880000D01*
X875000Y1320000D02*
Y1330000D01*
X884500Y1307500D02*
Y1342500D01*
X865500Y1307500D02*
Y1342500D01*
X884500D01*
X865500Y1307500D02*
X884500D01*
X870000Y875000D02*
X880000D01*
X875000Y870000D02*
Y880000D01*
X870000Y825000D02*
X880000D01*
X875000Y820000D02*
Y830000D01*
X884500Y807500D02*
Y842500D01*
X865500Y807500D02*
Y842500D01*
X884500D01*
X865500Y807500D02*
X884500D01*
X870000Y375000D02*
X880000D01*
X875000Y370000D02*
Y380000D01*
X870000Y325000D02*
X880000D01*
X875000Y320000D02*
Y330000D01*
X884500Y307500D02*
Y342500D01*
X865500Y307500D02*
Y342500D01*
X884500D01*
X865500Y307500D02*
X884500D01*
X620000Y75000D02*
X630000D01*
X625000Y70000D02*
Y80000D01*
X634500Y57500D02*
Y92500D01*
X615500Y57500D02*
Y92500D01*
X634500D01*
X615500Y57500D02*
X634500D01*
X620000Y125000D02*
X630000D01*
X625000Y120000D02*
Y130000D01*
X370000Y325000D02*
X380000D01*
X375000Y320000D02*
Y330000D01*
X384500Y307500D02*
Y342500D01*
X365500Y307500D02*
Y342500D01*
X384500D01*
X365500Y307500D02*
X384500D01*
X120000Y575000D02*
X130000D01*
X125000Y570000D02*
Y580000D01*
X134500Y557500D02*
Y592500D01*
X115500Y557500D02*
Y592500D01*
X134500D01*
X115500Y557500D02*
X134500D01*
X620000Y575000D02*
X630000D01*
X625000Y570000D02*
Y580000D01*
X634500Y557500D02*
Y592500D01*
X615500Y557500D02*
Y592500D01*
X634500D01*
X615500Y557500D02*
X634500D01*
X620000Y625000D02*
X630000D01*
X625000Y620000D02*
Y630000D01*
X620000Y1125000D02*
X630000D01*
X625000Y1120000D02*
Y1130000D01*
X120000Y1075000D02*
X130000D01*
X125000Y1070000D02*
Y1080000D01*
X134500Y1057500D02*
Y1092500D01*
X115500Y1057500D02*
Y1092500D01*
X134500D01*
X115500Y1057500D02*
X134500D01*
X620000Y1075000D02*
X630000D01*
X625000Y1070000D02*
Y1080000D01*
X634500Y1057500D02*
Y1092500D01*
X615500Y1057500D02*
Y1092500D01*
X634500D01*
X615500Y1057500D02*
X634500D01*
X120000Y1625000D02*
X130000D01*
X125000Y1620000D02*
Y1630000D01*
X620000Y1625000D02*
X630000D01*
X625000Y1620000D02*
Y1630000D01*
X370000Y1375000D02*
X380000D01*
X375000Y1370000D02*
Y1380000D01*
X370000Y875000D02*
X380000D01*
X375000Y870000D02*
Y880000D01*
X370000Y375000D02*
X380000D01*
X375000Y370000D02*
Y380000D01*
X120000Y125000D02*
X130000D01*
X125000Y120000D02*
Y130000D01*
X120000Y625000D02*
X130000D01*
X125000Y620000D02*
Y630000D01*
X120000Y1125000D02*
X130000D01*
X125000Y1120000D02*
Y1130000D01*
X120000Y1575000D02*
X130000D01*
X125000Y1570000D02*
Y1580000D01*
X134500Y1557500D02*
Y1592500D01*
X115500Y1557500D02*
Y1592500D01*
X134500D01*
X115500Y1557500D02*
X134500D01*
X365500Y807500D02*
X384500D01*
X365500Y842500D02*
X384500D01*
X365500Y807500D02*
Y842500D01*
X384500Y807500D02*
Y842500D01*
X375000Y820000D02*
Y830000D01*
X370000Y825000D02*
X380000D01*
X1115339Y807461D02*
X1134339D01*
X1115339Y842461D02*
X1134339D01*
X1115339Y807461D02*
Y842461D01*
X1134339Y807461D02*
Y842461D01*
X1124839Y819961D02*
Y829961D01*
X1119839Y824961D02*
X1129839D01*
X365500Y1307500D02*
X384500D01*
X365500Y1342500D02*
X384500D01*
X365500Y1307500D02*
Y1342500D01*
X384500Y1307500D02*
Y1342500D01*
X375000Y1320000D02*
Y1330000D01*
X370000Y1325000D02*
X380000D01*
X75000Y1620000D02*
Y1630000D01*
X70000Y1625000D02*
X80000D01*
X75000Y1370000D02*
Y1380000D01*
X70000Y1375000D02*
X80000D01*
X75000Y1120000D02*
Y1130000D01*
X70000Y1125000D02*
X80000D01*
X75000Y870000D02*
Y880000D01*
X70000Y875000D02*
X80000D01*
X132892Y1659730D02*
X142892D01*
X137892Y1654730D02*
Y1664730D01*
X632700Y1659431D02*
X642700D01*
X637700Y1654431D02*
Y1664431D01*
X1070000Y1660000D02*
X1080000D01*
X1075000Y1655000D02*
Y1665000D01*
X1570000Y1660000D02*
X1580000D01*
X1575000Y1655000D02*
Y1665000D01*
X75000Y620000D02*
Y630000D01*
X70000Y625000D02*
X80000D01*
X820000Y1660000D02*
X830000D01*
X825000Y1655000D02*
Y1665000D01*
X1320000Y1660000D02*
X1330000D01*
X1325000Y1655000D02*
Y1665000D01*
X370000Y1600000D02*
X380000D01*
X375000Y1595000D02*
Y1605000D01*
X115500Y57500D02*
X134500D01*
X115500Y92500D02*
X134500D01*
X115500Y57500D02*
Y92500D01*
X134500Y57500D02*
Y92500D01*
X125000Y70000D02*
Y80000D01*
X120000Y75000D02*
X130000D01*
X920000Y1660000D02*
X930000D01*
X925000Y1655000D02*
Y1665000D01*
X75000Y120000D02*
Y130000D01*
X70000Y125000D02*
X80000D01*
X1420000Y1660000D02*
X1430000D01*
X1425000Y1655000D02*
Y1665000D01*
X1170000Y1660000D02*
X1180000D01*
X1175000Y1655000D02*
Y1665000D01*
X75000Y370000D02*
Y380000D01*
X70000Y375000D02*
X80000D01*
D34*
X1648192Y1647300D02*
X1696892D01*
X1648192Y1672700D02*
X1696892D01*
Y1647300D02*
Y1672700D01*
X1648192Y1647300D02*
Y1672700D01*
X446000Y1526250D02*
X554000D01*
X446000Y1766000D02*
X554000D01*
X446000Y1526250D02*
Y1766000D01*
X554000Y1526250D02*
Y1766000D01*
X196000Y1526250D02*
X304000D01*
X196000Y1766000D02*
X304000D01*
X196000Y1526250D02*
Y1766000D01*
X304000Y1526250D02*
Y1766000D01*
X1358487Y98914D02*
Y150414D01*
X1391487Y98914D02*
Y150414D01*
X1358487Y98914D02*
X1391487D01*
X1358487Y150414D02*
X1391487D01*
X1358487Y598914D02*
Y650414D01*
X1391487Y598914D02*
Y650414D01*
X1358487Y598914D02*
X1391487D01*
X1358487Y650414D02*
X1391487D01*
X1358487Y1098914D02*
Y1150414D01*
X1391487Y1098914D02*
Y1150414D01*
X1358487Y1098914D02*
X1391487D01*
X1358487Y1150414D02*
X1391487D01*
X1358487Y1598914D02*
Y1650414D01*
X1391487Y1598914D02*
Y1650414D01*
X1358487Y1598914D02*
X1391487D01*
X1358487Y1650414D02*
X1391487D01*
X1108339Y1349211D02*
Y1400711D01*
X1141339Y1349211D02*
Y1400711D01*
X1108339Y1349211D02*
X1141339D01*
X1108339Y1400711D02*
X1141339D01*
X1108339Y849211D02*
Y900711D01*
X1141339Y849211D02*
Y900711D01*
X1108339Y849211D02*
X1141339D01*
X1108339Y900711D02*
X1141339D01*
X1108339Y400711D02*
X1141339D01*
X1108339Y349211D02*
X1141339D01*
Y400711D01*
X1108339Y349211D02*
Y400711D01*
X858408Y99045D02*
Y150545D01*
X891408Y99045D02*
Y150545D01*
X858408Y99045D02*
X891408D01*
X858408Y150545D02*
X891408D01*
X858408Y599045D02*
Y650545D01*
X891408Y599045D02*
Y650545D01*
X858408Y599045D02*
X891408D01*
X858408Y650545D02*
X891408D01*
X858408Y1099045D02*
Y1150545D01*
X891408Y1099045D02*
Y1150545D01*
X858408Y1099045D02*
X891408D01*
X858408Y1150545D02*
X891408D01*
X858408Y1599045D02*
Y1650545D01*
X891408Y1599045D02*
Y1650545D01*
X858408Y1599045D02*
X891408D01*
X858408Y1650545D02*
X891408D01*
X1608841Y1350520D02*
Y1402020D01*
X1641841Y1350520D02*
Y1402020D01*
X1608841Y1350520D02*
X1641841D01*
X1608841Y1402020D02*
X1641841D01*
X1608500Y849755D02*
Y901255D01*
X1641500Y849755D02*
Y901255D01*
X1608500Y849755D02*
X1641500D01*
X1608500Y901255D02*
X1641500D01*
X1608659Y400647D02*
X1641659D01*
X1608659Y349147D02*
X1641659D01*
Y400647D01*
X1608659Y349147D02*
Y400647D01*
X1608500Y99250D02*
Y150750D01*
X1641500Y99250D02*
Y150750D01*
X1608500Y99250D02*
X1641500D01*
X1608500Y150750D02*
X1641500D01*
X1608500Y599250D02*
Y650750D01*
X1641500Y599250D02*
Y650750D01*
X1608500Y599250D02*
X1641500D01*
X1608500Y650750D02*
X1641500D01*
X1608500Y1099250D02*
Y1150750D01*
X1641500Y1099250D02*
Y1150750D01*
X1608500Y1099250D02*
X1641500D01*
X1608500Y1150750D02*
X1641500D01*
X1608500Y1599250D02*
Y1650750D01*
X1641500Y1599250D02*
Y1650750D01*
X1608500Y1599250D02*
X1641500D01*
X1608500Y1650750D02*
X1641500D01*
X1358500Y1349250D02*
Y1400750D01*
X1391500Y1349250D02*
Y1400750D01*
X1358500Y1349250D02*
X1391500D01*
X1358500Y1400750D02*
X1391500D01*
X1358500Y849250D02*
Y900750D01*
X1391500Y849250D02*
Y900750D01*
X1358500Y849250D02*
X1391500D01*
X1358500Y900750D02*
X1391500D01*
X1358500Y400750D02*
X1391500D01*
X1358500Y349250D02*
X1391500D01*
Y400750D01*
X1358500Y349250D02*
Y400750D01*
X1108500Y99250D02*
Y150750D01*
X1141500Y99250D02*
Y150750D01*
X1108500Y99250D02*
X1141500D01*
X1108500Y150750D02*
X1141500D01*
X1108500Y599250D02*
Y650750D01*
X1141500Y599250D02*
Y650750D01*
X1108500Y599250D02*
X1141500D01*
X1108500Y650750D02*
X1141500D01*
X1108500Y1099250D02*
Y1150750D01*
X1141500Y1099250D02*
Y1150750D01*
X1108500Y1099250D02*
X1141500D01*
X1108500Y1150750D02*
X1141500D01*
X1108500Y1599250D02*
Y1650750D01*
X1141500Y1599250D02*
Y1650750D01*
X1108500Y1599250D02*
X1141500D01*
X1108500Y1650750D02*
X1141500D01*
X858500Y1349250D02*
Y1400750D01*
X891500Y1349250D02*
Y1400750D01*
X858500Y1349250D02*
X891500D01*
X858500Y1400750D02*
X891500D01*
X858500Y849250D02*
Y900750D01*
X891500Y849250D02*
Y900750D01*
X858500Y849250D02*
X891500D01*
X858500Y900750D02*
X891500D01*
X858500Y349250D02*
Y400750D01*
X891500Y349250D02*
Y400750D01*
X858500Y349250D02*
X891500D01*
X858500Y400750D02*
X891500D01*
X608500Y99250D02*
Y150750D01*
X641500Y99250D02*
Y150750D01*
X608500Y99250D02*
X641500D01*
X608500Y150750D02*
X641500D01*
X608500Y599250D02*
Y650750D01*
X641500Y599250D02*
Y650750D01*
X608500Y599250D02*
X641500D01*
X608500Y650750D02*
X641500D01*
X608500Y1099250D02*
Y1150750D01*
X641500Y1099250D02*
Y1150750D01*
X608500Y1099250D02*
X641500D01*
X608500Y1150750D02*
X641500D01*
X108500Y1599250D02*
Y1650750D01*
X141500Y1599250D02*
Y1650750D01*
X108500Y1599250D02*
X141500D01*
X108500Y1650750D02*
X141500D01*
X608500Y1599250D02*
Y1650750D01*
X641500Y1599250D02*
Y1650750D01*
X608500Y1599250D02*
X641500D01*
X608500Y1650750D02*
X641500D01*
X358500Y1349250D02*
Y1400750D01*
X391500Y1349250D02*
Y1400750D01*
X358500Y1349250D02*
X391500D01*
X358500Y1400750D02*
X391500D01*
X358500Y849250D02*
Y900750D01*
X391500Y849250D02*
Y900750D01*
X358500Y849250D02*
X391500D01*
X358500Y900750D02*
X391500D01*
X358500Y349250D02*
Y400750D01*
X391500Y349250D02*
Y400750D01*
X358500Y349250D02*
X391500D01*
X358500Y400750D02*
X391500D01*
X108500Y99250D02*
Y150750D01*
X141500Y99250D02*
Y150750D01*
X108500Y99250D02*
X141500D01*
X108500Y150750D02*
X141500D01*
X108500Y599250D02*
Y650750D01*
X141500Y599250D02*
Y650750D01*
X108500Y599250D02*
X141500D01*
X108500Y650750D02*
X141500D01*
X108500Y1099250D02*
Y1150750D01*
X141500Y1099250D02*
Y1150750D01*
X108500Y1099250D02*
X141500D01*
X108500Y1150750D02*
X141500D01*
X62300Y1600650D02*
X87700D01*
X62300Y1649350D02*
X87700D01*
X62300Y1600650D02*
Y1649350D01*
X87700Y1600650D02*
Y1649350D01*
X62300Y1350650D02*
X87700D01*
X62300Y1399350D02*
X87700D01*
X62300Y1350650D02*
Y1399350D01*
X87700Y1350650D02*
Y1399350D01*
X62300Y1100650D02*
X87700D01*
X62300Y1149350D02*
X87700D01*
X62300Y1100650D02*
Y1149350D01*
X87700Y1100650D02*
Y1149350D01*
X62300Y850650D02*
X87700D01*
X62300Y899350D02*
X87700D01*
X62300Y850650D02*
Y899350D01*
X87700Y850650D02*
Y899350D01*
X162242Y1647030D02*
Y1672430D01*
X113542Y1647030D02*
Y1672430D01*
Y1647030D02*
X162242D01*
X113542Y1672430D02*
X162242D01*
X662050Y1646730D02*
Y1672130D01*
X613350Y1646730D02*
Y1672130D01*
Y1646730D02*
X662050D01*
X613350Y1672130D02*
X662050D01*
X1050650Y1647300D02*
Y1672700D01*
X1099350Y1647300D02*
Y1672700D01*
X1050650D02*
X1099350D01*
X1050650Y1647300D02*
X1099350D01*
X1550650D02*
Y1672700D01*
X1599350Y1647300D02*
Y1672700D01*
X1550650D02*
X1599350D01*
X1550650Y1647300D02*
X1599350D01*
X62300Y600650D02*
X87700D01*
X62300Y649350D02*
X87700D01*
X62300Y600650D02*
Y649350D01*
X87700Y600650D02*
Y649350D01*
X800650Y1647300D02*
Y1672700D01*
X849350Y1647300D02*
Y1672700D01*
X800650D02*
X849350D01*
X800650Y1647300D02*
X849350D01*
X1300650D02*
Y1672700D01*
X1349350Y1647300D02*
Y1672700D01*
X1300650D02*
X1349350D01*
X1300650Y1647300D02*
X1349350D01*
X350650Y1587300D02*
Y1612700D01*
X399350Y1587300D02*
Y1612700D01*
X350650D02*
X399350D01*
X350650Y1587300D02*
X399350D01*
X900650Y1647300D02*
Y1672700D01*
X949350Y1647300D02*
Y1672700D01*
X900650D02*
X949350D01*
X900650Y1647300D02*
X949350D01*
X62300Y100650D02*
X87700D01*
X62300Y149350D02*
X87700D01*
X62300Y100650D02*
Y149350D01*
X87700Y100650D02*
Y149350D01*
X1400650Y1647300D02*
Y1672700D01*
X1449350Y1647300D02*
Y1672700D01*
X1400650D02*
X1449350D01*
X1400650Y1647300D02*
X1449350D01*
X1150650D02*
Y1672700D01*
X1199350Y1647300D02*
Y1672700D01*
X1150650D02*
X1199350D01*
X1150650Y1647300D02*
X1199350D01*
X62300Y350650D02*
X87700D01*
X62300Y399350D02*
X87700D01*
X62300Y350650D02*
Y399350D01*
X87700Y350650D02*
Y399350D01*
M02*
