G04*
G04 #@! TF.GenerationSoftware,Altium Limited,Altium Designer,20.0.13 (296)*
G04*
G04 Layer_Physical_Order=2*
G04 Layer_Color=16711680*
%FSLAX44Y44*%
%MOMM*%
G71*
G01*
G75*
%ADD12C,0.2540*%
%ADD26C,1.4000*%
%ADD27R,1.4000X1.4000*%
%ADD28C,4.0000*%
%ADD29C,6.0000*%
%ADD30R,1.4000X1.4000*%
%ADD31C,1.2700*%
G36*
X446613Y1749968D02*
X1750000Y1749874D01*
Y1683292D01*
X1749102Y1682455D01*
X1729507Y1682455D01*
X1729464Y1682608D01*
X1729340Y1683725D01*
X1733080Y1686920D01*
X1736407Y1690814D01*
X1739083Y1695181D01*
X1741043Y1699913D01*
X1742239Y1704894D01*
X1742641Y1710000D01*
X1742239Y1715106D01*
X1741043Y1720087D01*
X1739083Y1724819D01*
X1736407Y1729186D01*
X1733080Y1733080D01*
X1729186Y1736407D01*
X1724819Y1739083D01*
X1720087Y1741043D01*
X1715106Y1742239D01*
X1710000Y1742641D01*
X1704894Y1742239D01*
X1699913Y1741043D01*
X1695181Y1739083D01*
X1690814Y1736407D01*
X1686920Y1733080D01*
X1683593Y1729186D01*
X1680917Y1724819D01*
X1678957Y1720087D01*
X1677761Y1715106D01*
X1677359Y1710000D01*
X1677761Y1704894D01*
X1678957Y1699913D01*
X1680917Y1695181D01*
X1683593Y1690814D01*
X1686920Y1686920D01*
X1690660Y1683725D01*
X1690538Y1682614D01*
X1690493Y1682455D01*
X1674914Y1682455D01*
X1672303Y1682111D01*
X1669871Y1681104D01*
X1667782Y1679501D01*
X1666179Y1677412D01*
X1665171Y1674979D01*
X1664828Y1672368D01*
X1664828Y1635086D01*
X1625086Y1635086D01*
Y1695423D01*
X1624743Y1698034D01*
X1623735Y1700466D01*
X1622132Y1702555D01*
X1620043Y1704158D01*
X1617611Y1705166D01*
X1615000Y1705509D01*
X1575000D01*
X1572390Y1705166D01*
X1569957Y1704158D01*
X1567868Y1702555D01*
X1566265Y1700466D01*
X1565258Y1698034D01*
X1564914Y1695423D01*
X1564914Y1635086D01*
X1503691Y1635086D01*
Y1671252D01*
X1503347Y1673862D01*
X1502339Y1676295D01*
X1500737Y1678384D01*
X1499839Y1679282D01*
X1497749Y1680885D01*
X1495317Y1681893D01*
X1492706Y1682236D01*
X1424914Y1682236D01*
X1422303Y1681892D01*
X1419871Y1680884D01*
X1417782Y1679282D01*
X1416179Y1677193D01*
X1415171Y1674760D01*
X1414828Y1672150D01*
X1414828Y1635086D01*
X1375086Y1635086D01*
Y1671712D01*
X1374743Y1674322D01*
X1373735Y1676755D01*
X1372132Y1678844D01*
X1370043Y1680447D01*
X1367610Y1681454D01*
X1365000Y1681798D01*
X1325000D01*
X1322390Y1681454D01*
X1319957Y1680447D01*
X1317868Y1678844D01*
X1316265Y1676755D01*
X1315258Y1674322D01*
X1314914Y1671712D01*
X1314914Y1635086D01*
X1253691Y1635086D01*
Y1670802D01*
X1253347Y1673413D01*
X1252339Y1675845D01*
X1250737Y1677934D01*
X1249838Y1678833D01*
X1247749Y1680435D01*
X1245317Y1681443D01*
X1242706Y1681787D01*
X1174914Y1681786D01*
X1172303Y1681442D01*
X1169871Y1680435D01*
X1167782Y1678832D01*
X1166179Y1676743D01*
X1165171Y1674310D01*
X1164827Y1671700D01*
X1164827Y1635086D01*
X1125086Y1635086D01*
Y1671700D01*
X1124743Y1674310D01*
X1123735Y1676743D01*
X1122132Y1678832D01*
X1120043Y1680435D01*
X1117610Y1681443D01*
X1115000Y1681786D01*
X1075000D01*
X1072390Y1681443D01*
X1069957Y1680435D01*
X1067868Y1678832D01*
X1066265Y1676743D01*
X1065257Y1674310D01*
X1064914Y1671700D01*
X1064914Y1635086D01*
X1003691Y1635086D01*
Y1671568D01*
X1003347Y1674178D01*
X1002339Y1676611D01*
X1000737Y1678700D01*
X999838Y1679598D01*
X997749Y1681201D01*
X995317Y1682209D01*
X992706Y1682552D01*
X924914Y1682552D01*
X922303Y1682208D01*
X919871Y1681201D01*
X917782Y1679598D01*
X916179Y1677509D01*
X915171Y1675076D01*
X914827Y1672466D01*
X914827Y1635086D01*
X875086Y1635086D01*
Y1655395D01*
X874743Y1658005D01*
X873735Y1660438D01*
X872132Y1662527D01*
X856560Y1678099D01*
X855482Y1679504D01*
X853393Y1681107D01*
X850960Y1682115D01*
X848350Y1682458D01*
X825000D01*
X822390Y1682115D01*
X819957Y1681107D01*
X817868Y1679504D01*
X816265Y1677415D01*
X815257Y1674982D01*
X814914Y1672372D01*
X814914Y1635086D01*
X751890Y1635086D01*
X749279Y1634743D01*
X746846Y1633735D01*
X744758Y1632132D01*
X743155Y1630043D01*
X742147Y1627611D01*
X741803Y1625000D01*
Y1575000D01*
X714678D01*
Y1625000D01*
X714334Y1627611D01*
X713326Y1630043D01*
X711724Y1632132D01*
X709635Y1633735D01*
X707202Y1634743D01*
X704592Y1635086D01*
X647786Y1635086D01*
X647786Y1671131D01*
X647443Y1673741D01*
X646435Y1676174D01*
X644832Y1678263D01*
X642743Y1679865D01*
X640311Y1680873D01*
X637700Y1681217D01*
X614350D01*
X611740Y1680873D01*
X609307Y1679865D01*
X607218Y1678263D01*
X586772Y1657817D01*
X544305Y1657817D01*
X544301Y1657816D01*
X544296Y1657817D01*
X542999Y1657645D01*
X541695Y1657473D01*
X541690Y1657471D01*
X541686Y1657471D01*
X540484Y1656972D01*
X539262Y1656465D01*
X539258Y1656463D01*
X539254Y1656461D01*
X538229Y1655672D01*
X537173Y1654862D01*
X537170Y1654859D01*
X537167Y1654856D01*
X536270Y1653957D01*
X536267Y1653954D01*
X536264Y1653951D01*
X535464Y1652905D01*
X534669Y1651867D01*
X534667Y1651863D01*
X534664Y1651860D01*
X534168Y1650655D01*
X533663Y1649434D01*
X533662Y1649429D01*
X533661Y1649425D01*
X533494Y1648141D01*
X533322Y1646823D01*
X533322Y1646818D01*
X533322Y1646814D01*
X533542Y1518065D01*
X532645Y1517167D01*
X464306D01*
Y1625000D01*
X463962Y1627610D01*
X462954Y1630043D01*
X461352Y1632132D01*
X459263Y1633735D01*
X456830Y1634743D01*
X454220Y1635086D01*
X375000Y1635086D01*
X372389Y1634743D01*
X369957Y1633735D01*
X367868Y1632132D01*
X366265Y1630043D01*
X365257Y1627610D01*
X364914Y1625000D01*
Y1588300D01*
X321935D01*
X321038Y1589199D01*
X321358Y1750000D01*
X321626D01*
X446613Y1749968D01*
D02*
G37*
G36*
X1713523Y1732246D02*
X1716960Y1731421D01*
X1720225Y1730068D01*
X1723239Y1728222D01*
X1725926Y1725926D01*
X1728222Y1723239D01*
X1730068Y1720225D01*
X1731421Y1716960D01*
X1732246Y1713524D01*
X1732523Y1710000D01*
X1732246Y1706477D01*
X1731421Y1703040D01*
X1730068Y1699775D01*
X1728222Y1696761D01*
X1725926Y1694074D01*
X1722790Y1691395D01*
X1722155Y1690689D01*
X1721469Y1690032D01*
X1721277Y1689714D01*
X1721028Y1689438D01*
X1720597Y1688592D01*
X1720105Y1687780D01*
X1720001Y1687423D01*
X1719832Y1687092D01*
X1719635Y1686163D01*
X1719370Y1685252D01*
X1719362Y1684880D01*
X1719285Y1684517D01*
X1719327Y1683725D01*
X1718963Y1682455D01*
X1701031Y1682455D01*
X1700674Y1683725D01*
X1700715Y1684516D01*
X1700638Y1684882D01*
X1700629Y1685256D01*
X1700365Y1686165D01*
X1700168Y1687092D01*
X1699998Y1687425D01*
X1699893Y1687784D01*
X1699402Y1688594D01*
X1698972Y1689438D01*
X1698722Y1689716D01*
X1698528Y1690036D01*
X1697844Y1690691D01*
X1697211Y1691395D01*
X1694074Y1694074D01*
X1691779Y1696761D01*
X1689932Y1699775D01*
X1688579Y1703040D01*
X1687754Y1706476D01*
X1687477Y1710000D01*
X1687754Y1713523D01*
X1688579Y1716960D01*
X1689932Y1720225D01*
X1691779Y1723239D01*
X1694074Y1725926D01*
X1696761Y1728222D01*
X1699775Y1730068D01*
X1703040Y1731421D01*
X1706476Y1732246D01*
X1710000Y1732523D01*
X1713523Y1732246D01*
D02*
G37*
G36*
X637700Y1625000D02*
X704592Y1625000D01*
X704592Y141851D01*
X545982Y141851D01*
X543408Y1646832D01*
X544305Y1647730D01*
X590184Y1647730D01*
X590769Y1647549D01*
X614350Y1671131D01*
X637700D01*
X637700Y1625000D01*
D02*
G37*
G36*
X1115000Y1520981D02*
X1105000Y1510981D01*
Y1289597D01*
X1125000Y1269597D01*
X1135000Y1259597D01*
X1135000Y1023272D01*
X1105000Y993272D01*
Y789381D01*
X1135000Y759381D01*
X1135000Y518431D01*
X1105000Y488431D01*
X1105000Y297675D01*
X1135001Y267674D01*
X1135001Y143942D01*
X1001890D01*
Y377447D01*
X1002339Y378034D01*
X1003347Y380466D01*
X1003691Y383077D01*
X1003691Y1625000D01*
X1075000Y1625000D01*
X1075000Y1671700D01*
X1115000D01*
Y1520981D01*
D02*
G37*
G36*
X848350Y1672045D02*
X865000Y1655395D01*
Y1520981D01*
X855000Y1510981D01*
Y1289597D01*
X875000Y1269597D01*
X885000Y1259597D01*
X885000Y1023272D01*
X855000Y993272D01*
Y789381D01*
X885000Y759381D01*
X885000Y518431D01*
X855000Y488431D01*
X855000Y297675D01*
X885001Y267674D01*
X885001Y143942D01*
X751890D01*
X751890Y1625000D01*
X825000Y1625000D01*
X825000Y1672372D01*
X848350D01*
Y1672045D01*
D02*
G37*
G36*
X1493604Y1671252D02*
Y1630629D01*
X1493155Y1630043D01*
X1492147Y1627610D01*
X1491803Y1625000D01*
X1491803Y383077D01*
X1365086Y383077D01*
X1365086Y484169D01*
X1394914Y513997D01*
Y517119D01*
X1395086Y518431D01*
X1395086Y759381D01*
X1394914Y760693D01*
Y763735D01*
X1365086Y793563D01*
Y989010D01*
X1394914Y1018837D01*
Y1021962D01*
X1395086Y1023272D01*
X1395086Y1259597D01*
X1394914Y1260909D01*
Y1263803D01*
X1392609Y1266108D01*
X1392132Y1266729D01*
X1382132Y1276729D01*
X1365086Y1293775D01*
Y1506488D01*
X1374914Y1516316D01*
Y1519670D01*
X1375086Y1520981D01*
Y1625000D01*
X1424914Y1625000D01*
X1424914Y1672150D01*
X1492706Y1672150D01*
X1493604Y1671252D01*
D02*
G37*
G36*
X1243605Y1670802D02*
Y1630629D01*
X1243155Y1630043D01*
X1242147Y1627610D01*
X1241803Y1625000D01*
X1241803Y383077D01*
X1115086Y383077D01*
X1115086Y484169D01*
X1144914Y513997D01*
Y517119D01*
X1145086Y518431D01*
X1145086Y759381D01*
X1144914Y760693D01*
Y763735D01*
X1115086Y793563D01*
Y989010D01*
X1144914Y1018837D01*
Y1021962D01*
X1145086Y1023272D01*
X1145086Y1259597D01*
X1144914Y1260909D01*
Y1263803D01*
X1142609Y1266108D01*
X1142132Y1266729D01*
X1132132Y1276729D01*
X1115086Y1293775D01*
Y1506488D01*
X1124914Y1516316D01*
Y1519670D01*
X1125086Y1520981D01*
Y1625000D01*
X1174914Y1625000D01*
X1174914Y1671700D01*
X1242706Y1671700D01*
X1243605Y1670802D01*
D02*
G37*
G36*
X993605Y1671568D02*
X993605Y383077D01*
X865086Y383077D01*
X865086Y484169D01*
X894914Y513997D01*
Y517119D01*
X895086Y518431D01*
X895086Y759381D01*
X894914Y760693D01*
Y763735D01*
X865086Y793563D01*
Y989010D01*
X894914Y1018837D01*
Y1021962D01*
X895086Y1023272D01*
X895086Y1259597D01*
X894914Y1260909D01*
Y1263803D01*
X892609Y1266108D01*
X892132Y1266729D01*
X882132Y1276729D01*
X865086Y1293775D01*
Y1506488D01*
X874914Y1516316D01*
Y1519670D01*
X875086Y1520981D01*
Y1625000D01*
X924914Y1625000D01*
X924914Y1672466D01*
X992706Y1672466D01*
X993605Y1671568D01*
D02*
G37*
G36*
X1750000Y1671471D02*
X1750000Y383077D01*
X1615086Y383077D01*
X1615086Y484169D01*
X1644914Y513997D01*
Y517119D01*
X1645086Y518431D01*
X1645086Y759381D01*
X1644914Y760693D01*
Y763735D01*
X1615086Y793563D01*
Y989010D01*
X1644914Y1018837D01*
Y1021962D01*
X1645086Y1023272D01*
X1645086Y1259597D01*
X1644914Y1260909D01*
Y1263803D01*
X1642609Y1266108D01*
X1642132Y1266729D01*
X1632132Y1276729D01*
X1615086Y1293775D01*
Y1506488D01*
X1624914Y1516316D01*
Y1519670D01*
X1625086Y1520981D01*
X1625086Y1625000D01*
X1674914Y1625000D01*
X1674914Y1672368D01*
X1749102Y1672369D01*
X1750000Y1671471D01*
D02*
G37*
G36*
X454220Y370514D02*
X296794Y370514D01*
X295896Y371412D01*
X295961Y1575000D01*
X375000Y1575000D01*
Y1625000D01*
X454220Y1625000D01*
X454220Y370514D01*
D02*
G37*
G36*
X1615000Y1520981D02*
X1605000Y1510981D01*
Y1289597D01*
X1625000Y1269597D01*
X1635000Y1259597D01*
X1635000Y1023272D01*
X1605000Y993272D01*
Y789381D01*
X1635000Y759381D01*
X1635000Y518431D01*
X1605000Y488431D01*
X1605000Y297675D01*
X1635001Y267674D01*
X1635001Y143942D01*
X1501890D01*
X1501890Y1625000D01*
X1575000Y1625000D01*
X1575000Y1695423D01*
X1615000D01*
X1615000Y1520981D01*
D02*
G37*
G36*
X1365000D02*
X1355000Y1510981D01*
Y1289597D01*
X1375000Y1269597D01*
X1385000Y1259597D01*
X1385000Y1023272D01*
X1355000Y993272D01*
Y789381D01*
X1385000Y759381D01*
X1385000Y518431D01*
X1355000Y488431D01*
X1355000Y297675D01*
X1385001Y267674D01*
X1385001Y143942D01*
X1251890D01*
X1251889Y1625000D01*
X1325000Y1625000D01*
X1325000Y1671712D01*
X1365000D01*
Y1520981D01*
D02*
G37*
G36*
X310373Y1750000D02*
X311270Y1749101D01*
X310951Y1589220D01*
X310952Y1589215D01*
X310951Y1589210D01*
X311122Y1587903D01*
X311290Y1586608D01*
X311292Y1586604D01*
X311292Y1586599D01*
X311392Y1586356D01*
X310543Y1585086D01*
X295961D01*
X294518Y1584896D01*
X293351Y1584743D01*
X293350Y1584743D01*
X293350Y1584743D01*
X292108Y1584228D01*
X290918Y1583735D01*
X290918Y1583735D01*
X290917Y1583735D01*
X289986Y1583020D01*
X288829Y1582132D01*
X288829Y1582132D01*
X288829Y1582132D01*
X287941Y1580976D01*
X287226Y1580044D01*
X287226Y1580043D01*
X287226Y1580043D01*
X286613Y1578564D01*
X286218Y1577611D01*
X286218Y1577611D01*
X286218Y1577610D01*
X286029Y1576178D01*
X285874Y1575000D01*
X285810Y371412D01*
X285810Y371412D01*
X285810Y371412D01*
X285961Y370267D01*
X286153Y368802D01*
X286153Y368802D01*
X286153Y368802D01*
X286560Y367820D01*
X287161Y366369D01*
X287161Y366369D01*
X287161Y366369D01*
X287820Y365510D01*
X288764Y364280D01*
X288764Y364280D01*
X288764Y364280D01*
X289662Y363382D01*
X289662Y363382D01*
X289662Y363382D01*
X290694Y362590D01*
X291751Y361779D01*
X291751Y361779D01*
X291751Y361779D01*
X293032Y361248D01*
X294183Y360771D01*
X294183Y360771D01*
X294184Y360771D01*
X295587Y360587D01*
X296794Y360428D01*
X296794Y360428D01*
X296794Y360428D01*
X454220Y360428D01*
X456830Y360771D01*
X459263Y361779D01*
X461352Y363382D01*
X462954Y365471D01*
X463962Y367903D01*
X464306Y370514D01*
X464306Y1507080D01*
X532645D01*
X533562Y1506253D01*
X535896Y141834D01*
X536069Y140538D01*
X536240Y139240D01*
X536243Y139232D01*
X536244Y139224D01*
X536748Y138013D01*
X537247Y136808D01*
X537253Y136801D01*
X537256Y136793D01*
X538054Y135757D01*
X538850Y134719D01*
X538857Y134713D01*
X538862Y134707D01*
X539899Y133914D01*
X540939Y133116D01*
X540947Y133112D01*
X540954Y133107D01*
X542160Y132610D01*
X543372Y132108D01*
X543380Y132107D01*
X543388Y132104D01*
X544681Y131936D01*
X545982Y131765D01*
X704592Y131765D01*
X707202Y132108D01*
X709635Y133116D01*
X711724Y134719D01*
X713327Y136808D01*
X714334Y139240D01*
X714678Y141851D01*
X714678Y1564914D01*
X741803D01*
X741803Y143942D01*
X742147Y141332D01*
X743155Y138899D01*
X744758Y136810D01*
X746846Y135207D01*
X749279Y134199D01*
X751890Y133856D01*
X885001D01*
X887611Y134199D01*
X890044Y135207D01*
X892133Y136810D01*
X893736Y138899D01*
X894743Y141332D01*
X895087Y143942D01*
X895087Y267674D01*
X894743Y270284D01*
X893736Y272717D01*
X892133Y274806D01*
X865086Y301853D01*
Y372990D01*
X991803Y372990D01*
Y143942D01*
X992147Y141332D01*
X993155Y138899D01*
X994758Y136810D01*
X996846Y135207D01*
X999279Y134199D01*
X1001890Y133856D01*
X1135001D01*
X1137611Y134199D01*
X1140044Y135207D01*
X1142133Y136810D01*
X1143736Y138899D01*
X1144743Y141332D01*
X1145087Y143942D01*
X1145087Y267674D01*
X1144743Y270284D01*
X1143736Y272717D01*
X1142133Y274806D01*
X1115086Y301853D01*
Y372990D01*
X1241803Y372990D01*
Y143942D01*
X1242147Y141332D01*
X1243155Y138899D01*
X1244758Y136810D01*
X1246846Y135207D01*
X1249279Y134199D01*
X1251890Y133856D01*
X1385001D01*
X1387611Y134199D01*
X1390044Y135207D01*
X1392133Y136810D01*
X1393736Y138899D01*
X1394743Y141332D01*
X1395087Y143942D01*
X1395087Y267674D01*
X1394743Y270284D01*
X1393736Y272717D01*
X1392133Y274806D01*
X1365086Y301853D01*
Y372990D01*
X1491803Y372990D01*
Y143942D01*
X1492147Y141332D01*
X1493155Y138899D01*
X1494758Y136810D01*
X1496846Y135207D01*
X1499279Y134199D01*
X1501890Y133856D01*
X1635001D01*
X1637611Y134199D01*
X1640044Y135207D01*
X1642133Y136810D01*
X1643736Y138899D01*
X1644743Y141332D01*
X1645087Y143942D01*
X1645087Y267674D01*
X1644743Y270284D01*
X1643736Y272717D01*
X1642133Y274806D01*
X1615086Y301853D01*
Y372990D01*
X1750000Y372990D01*
X1750000Y0D01*
X0D01*
Y1750000D01*
X310373Y1750000D01*
D02*
G37*
%LPC*%
G36*
X111738Y1682387D02*
X111734Y1682386D01*
X111730Y1682387D01*
X110421Y1682213D01*
X109128Y1682043D01*
X109124Y1682042D01*
X109120Y1682041D01*
X107911Y1681539D01*
X106695Y1681036D01*
X106692Y1681033D01*
X106688Y1681031D01*
X105662Y1680243D01*
X104606Y1679433D01*
X104603Y1679429D01*
X104600Y1679427D01*
X103703Y1678528D01*
X103700Y1678525D01*
X103697Y1678522D01*
X102894Y1677473D01*
X102102Y1676438D01*
X102100Y1676434D01*
X102098Y1676431D01*
X101598Y1675219D01*
X101096Y1674004D01*
X101096Y1674000D01*
X101094Y1673996D01*
X100926Y1672703D01*
X100754Y1671393D01*
X100755Y1671389D01*
X100754Y1671385D01*
X103250Y141834D01*
X103423Y140539D01*
X103594Y139240D01*
X103597Y139233D01*
X103598Y139224D01*
X104103Y138011D01*
X104601Y136808D01*
X104606Y136801D01*
X104609Y136793D01*
X105412Y135751D01*
X106204Y134719D01*
X106211Y134714D01*
X106216Y134707D01*
X107257Y133911D01*
X108293Y133116D01*
X108301Y133113D01*
X108307Y133108D01*
X109513Y132610D01*
X110726Y132108D01*
X110734Y132107D01*
X110742Y132104D01*
X112034Y131936D01*
X113336Y131765D01*
X205075Y131765D01*
X207685Y132108D01*
X210118Y133116D01*
X212207Y134719D01*
X213810Y136808D01*
X214817Y139240D01*
X215161Y141851D01*
X215161Y1672301D01*
X214817Y1674911D01*
X213810Y1677344D01*
X212207Y1679433D01*
X210118Y1681035D01*
X207685Y1682043D01*
X205075Y1682387D01*
X111738Y1682387D01*
D02*
G37*
G36*
X84540Y1621840D02*
X65460D01*
Y1602760D01*
X84540D01*
Y1621840D01*
D02*
G37*
G36*
Y1371840D02*
X65460D01*
Y1352760D01*
X84540D01*
Y1371840D01*
D02*
G37*
G36*
Y1121840D02*
X65460D01*
Y1102760D01*
X84540D01*
Y1121840D01*
D02*
G37*
G36*
Y871840D02*
X65460D01*
Y852760D01*
X84540D01*
Y871840D01*
D02*
G37*
G36*
Y621840D02*
X65460D01*
Y602760D01*
X84540D01*
Y621840D01*
D02*
G37*
G36*
Y371840D02*
X65460D01*
Y352760D01*
X84540D01*
Y371840D01*
D02*
G37*
G36*
Y121840D02*
X65460D01*
Y102760D01*
X84540D01*
Y121840D01*
D02*
G37*
%LPD*%
G36*
X205075Y1672301D02*
X205075Y141851D01*
X113336Y141851D01*
X110841Y1671402D01*
X111738Y1672301D01*
X205075Y1672301D01*
D02*
G37*
%LPC*%
G36*
X160132Y1669270D02*
X141052D01*
Y1650190D01*
X160132D01*
Y1669270D01*
D02*
G37*
%LPD*%
D12*
X0Y0D02*
X1750000D01*
X1750000Y1750000D02*
X1750000Y0D01*
X0D02*
Y1750000D01*
X1750000Y1750000D01*
D26*
X1685242Y1660000D02*
D03*
X75000Y1637700D02*
D03*
Y1387700D02*
D03*
Y1137700D02*
D03*
Y887700D02*
D03*
X125192Y1659730D02*
D03*
X625000Y1659431D02*
D03*
X1087700Y1660000D02*
D03*
X1587700D02*
D03*
X75000Y637700D02*
D03*
X837700Y1660000D02*
D03*
X1337700D02*
D03*
X387700Y1600000D02*
D03*
X937700Y1660000D02*
D03*
X75000Y137700D02*
D03*
X1437700Y1660000D02*
D03*
X1187700D02*
D03*
X75000Y387700D02*
D03*
D27*
X1659842Y1660000D02*
D03*
X150592Y1659730D02*
D03*
X650400Y1659431D02*
D03*
X1062300Y1660000D02*
D03*
X1562300D02*
D03*
X812300D02*
D03*
X1312300D02*
D03*
X362300Y1600000D02*
D03*
X912300Y1660000D02*
D03*
X1412300D02*
D03*
X1162300D02*
D03*
D28*
X500000Y1717500D02*
D03*
Y1562500D02*
D03*
X250000Y1717500D02*
D03*
Y1562500D02*
D03*
D29*
X1710000Y1710000D02*
D03*
Y40000D02*
D03*
X40000D02*
D03*
Y1710000D02*
D03*
D30*
X75000Y1612300D02*
D03*
Y1362300D02*
D03*
Y1112300D02*
D03*
Y862300D02*
D03*
Y612300D02*
D03*
Y112300D02*
D03*
Y362300D02*
D03*
D31*
X1125000Y665000D02*
D03*
X1374987Y1164664D02*
D03*
X1124839Y1414961D02*
D03*
X1625341Y1416270D02*
D03*
X874908Y1164795D02*
D03*
X1625000Y1165000D02*
D03*
X1375000Y1415000D02*
D03*
X1125000Y1165000D02*
D03*
X1375000Y915000D02*
D03*
X1625000Y915505D02*
D03*
X1124839Y914961D02*
D03*
X1374987Y664664D02*
D03*
X874908Y664795D02*
D03*
X1625000Y665000D02*
D03*
X1625159Y414897D02*
D03*
X1124839Y414961D02*
D03*
X1374987Y164664D02*
D03*
X874908Y164795D02*
D03*
X1625000Y165000D02*
D03*
X1375000Y415000D02*
D03*
X1125000Y165000D02*
D03*
X875000Y415000D02*
D03*
Y915000D02*
D03*
Y1415000D02*
D03*
X625000Y1165000D02*
D03*
Y665000D02*
D03*
Y165000D02*
D03*
X375000Y415000D02*
D03*
Y915000D02*
D03*
Y1415000D02*
D03*
X125000Y165000D02*
D03*
Y665000D02*
D03*
Y1165000D02*
D03*
M02*
