G04*
G04 #@! TF.GenerationSoftware,Altium Limited,Altium Designer,20.0.13 (296)*
G04*
G04 Layer_Color=65535*
%FSLAX44Y44*%
%MOMM*%
G71*
G01*
G75*
%ADD10C,0.2500*%
%ADD11C,0.2000*%
%ADD12C,0.2540*%
D10*
X1516737Y273664D02*
G03*
X1516737Y273664I-1250J0D01*
G01*
Y773664D02*
G03*
X1516737Y773664I-1250J0D01*
G01*
Y1273664D02*
G03*
X1516737Y1273664I-1250J0D01*
G01*
Y1773664D02*
G03*
X1516737Y1773664I-1250J0D01*
G01*
X1266589Y1523961D02*
G03*
X1266589Y1523961I-1250J0D01*
G01*
Y1023961D02*
G03*
X1266589Y1023961I-1250J0D01*
G01*
Y523961D02*
G03*
X1266589Y523961I-1250J0D01*
G01*
X1016658Y273795D02*
G03*
X1016658Y273795I-1250J0D01*
G01*
Y773795D02*
G03*
X1016658Y773795I-1250J0D01*
G01*
Y1273795D02*
G03*
X1016658Y1273795I-1250J0D01*
G01*
Y1773795D02*
G03*
X1016658Y1773795I-1250J0D01*
G01*
X1767091Y1525270D02*
G03*
X1767091Y1525270I-1250J0D01*
G01*
X1766750Y1024505D02*
G03*
X1766750Y1024505I-1250J0D01*
G01*
X1766909Y523897D02*
G03*
X1766909Y523897I-1250J0D01*
G01*
X1766750Y274000D02*
G03*
X1766750Y274000I-1250J0D01*
G01*
Y774000D02*
G03*
X1766750Y774000I-1250J0D01*
G01*
Y1274000D02*
G03*
X1766750Y1274000I-1250J0D01*
G01*
Y1774000D02*
G03*
X1766750Y1774000I-1250J0D01*
G01*
X1516750Y1524000D02*
G03*
X1516750Y1524000I-1250J0D01*
G01*
Y1024000D02*
G03*
X1516750Y1024000I-1250J0D01*
G01*
Y524000D02*
G03*
X1516750Y524000I-1250J0D01*
G01*
X1266750Y274000D02*
G03*
X1266750Y274000I-1250J0D01*
G01*
Y774000D02*
G03*
X1266750Y774000I-1250J0D01*
G01*
Y1274000D02*
G03*
X1266750Y1274000I-1250J0D01*
G01*
Y1774000D02*
G03*
X1266750Y1774000I-1250J0D01*
G01*
X1016750Y1524000D02*
G03*
X1016750Y1524000I-1250J0D01*
G01*
Y1024000D02*
G03*
X1016750Y1024000I-1250J0D01*
G01*
Y524000D02*
G03*
X1016750Y524000I-1250J0D01*
G01*
X766750Y274000D02*
G03*
X766750Y274000I-1250J0D01*
G01*
Y774000D02*
G03*
X766750Y774000I-1250J0D01*
G01*
Y1274000D02*
G03*
X766750Y1274000I-1250J0D01*
G01*
X266750Y1774000D02*
G03*
X266750Y1774000I-1250J0D01*
G01*
X766750D02*
G03*
X766750Y1774000I-1250J0D01*
G01*
X516750Y1524000D02*
G03*
X516750Y1524000I-1250J0D01*
G01*
Y1024000D02*
G03*
X516750Y1024000I-1250J0D01*
G01*
Y524000D02*
G03*
X516750Y524000I-1250J0D01*
G01*
X266750Y274000D02*
G03*
X266750Y274000I-1250J0D01*
G01*
Y774000D02*
G03*
X266750Y774000I-1250J0D01*
G01*
Y1274000D02*
G03*
X266750Y1274000I-1250J0D01*
G01*
X83050Y1737300D02*
G03*
X83050Y1737300I-1250J0D01*
G01*
Y1487300D02*
G03*
X83050Y1487300I-1250J0D01*
G01*
Y1237300D02*
G03*
X83050Y1237300I-1250J0D01*
G01*
Y987300D02*
G03*
X83050Y987300I-1250J0D01*
G01*
X238550Y1918200D02*
G03*
X238550Y1918200I-1250J0D01*
G01*
X738550D02*
G03*
X738550Y1918200I-1250J0D01*
G01*
X1188550D02*
G03*
X1188550Y1918200I-1250J0D01*
G01*
X1688550D02*
G03*
X1688550Y1918200I-1250J0D01*
G01*
X83050Y737300D02*
G03*
X83050Y737300I-1250J0D01*
G01*
X938550Y1918200D02*
G03*
X938550Y1918200I-1250J0D01*
G01*
X1438550D02*
G03*
X1438550Y1918200I-1250J0D01*
G01*
X488550D02*
G03*
X488550Y1918200I-1250J0D01*
G01*
X1038550D02*
G03*
X1038550Y1918200I-1250J0D01*
G01*
X83050Y237300D02*
G03*
X83050Y237300I-1250J0D01*
G01*
X1538550Y1918200D02*
G03*
X1538550Y1918200I-1250J0D01*
G01*
X1788550D02*
G03*
X1788550Y1918200I-1250J0D01*
G01*
X1288550D02*
G03*
X1288550Y1918200I-1250J0D01*
G01*
X83050Y487300D02*
G03*
X83050Y487300I-1250J0D01*
G01*
D11*
X677250Y1830500D02*
Y1865500D01*
X573250Y1833250D02*
Y1868250D01*
X427250Y1830500D02*
Y1865500D01*
X323250Y1833250D02*
Y1868250D01*
X1493987Y199664D02*
X1505987D01*
X1485987Y232164D02*
Y267164D01*
X1513987Y232164D02*
Y267164D01*
X1493987Y699664D02*
X1505987D01*
X1485987Y732164D02*
Y767164D01*
X1513987Y732164D02*
Y767164D01*
X1493987Y1199664D02*
X1505987D01*
X1485987Y1232164D02*
Y1267164D01*
X1513987Y1232164D02*
Y1267164D01*
X1493987Y1699664D02*
X1505987D01*
X1485987Y1732164D02*
Y1767164D01*
X1513987Y1732164D02*
Y1767164D01*
X1243839Y1449961D02*
X1255839D01*
X1235839Y1482461D02*
Y1517461D01*
X1263839Y1482461D02*
Y1517461D01*
X1235839Y982461D02*
Y1017461D01*
X1263839Y982461D02*
Y1017461D01*
Y482461D02*
Y517461D01*
X1235839Y482461D02*
Y517461D01*
X1243839Y449961D02*
X1255839D01*
X993908Y199795D02*
X1005908D01*
X985908Y232295D02*
Y267295D01*
X1013908Y232295D02*
Y267295D01*
X993908Y699795D02*
X1005908D01*
X985908Y732295D02*
Y767295D01*
X1013908Y732295D02*
Y767295D01*
X993908Y1199795D02*
X1005908D01*
X985908Y1232295D02*
Y1267295D01*
X1013908Y1232295D02*
Y1267295D01*
X993908Y1699795D02*
X1005908D01*
X985908Y1732295D02*
Y1767295D01*
X1013908Y1732295D02*
Y1767295D01*
X1744341Y1451270D02*
X1756341D01*
X1736341Y1483770D02*
Y1518770D01*
X1764341Y1483770D02*
Y1518770D01*
X1744000Y950505D02*
X1756000D01*
X1736000Y983005D02*
Y1018005D01*
X1764000Y983005D02*
Y1018005D01*
X1764159Y482397D02*
Y517397D01*
X1736159Y482397D02*
Y517397D01*
X1744159Y449897D02*
X1756159D01*
X1744000Y200000D02*
X1756000D01*
X1736000Y232500D02*
Y267500D01*
X1764000Y232500D02*
Y267500D01*
X1744000Y700000D02*
X1756000D01*
X1736000Y732500D02*
Y767500D01*
X1764000Y732500D02*
Y767500D01*
X1744000Y1200000D02*
X1756000D01*
X1736000Y1232500D02*
Y1267500D01*
X1764000Y1232500D02*
Y1267500D01*
X1744000Y1700000D02*
X1756000D01*
X1736000Y1732500D02*
Y1767500D01*
X1764000Y1732500D02*
Y1767500D01*
X1486000Y1482500D02*
Y1517500D01*
X1514000Y1482500D02*
Y1517500D01*
X1494000Y1450000D02*
X1506000D01*
X1494000Y950000D02*
X1506000D01*
X1486000Y982500D02*
Y1017500D01*
X1514000Y982500D02*
Y1017500D01*
Y482500D02*
Y517500D01*
X1486000Y482500D02*
Y517500D01*
X1494000Y450000D02*
X1506000D01*
X1244000Y200000D02*
X1256000D01*
X1236000Y232500D02*
Y267500D01*
X1264000Y232500D02*
Y267500D01*
X1244000Y700000D02*
X1256000D01*
X1236000Y732500D02*
Y767500D01*
X1264000Y732500D02*
Y767500D01*
X1244000Y1200000D02*
X1256000D01*
X1236000Y1232500D02*
Y1267500D01*
X1264000Y1232500D02*
Y1267500D01*
X1244000Y1700000D02*
X1256000D01*
X1236000Y1732500D02*
Y1767500D01*
X1264000Y1732500D02*
Y1767500D01*
X744000Y1700000D02*
X756000D01*
X986000Y1482500D02*
Y1517500D01*
X1014000Y1482500D02*
Y1517500D01*
X994000Y1450000D02*
X1006000D01*
X986000Y982500D02*
Y1017500D01*
X1014000Y982500D02*
Y1017500D01*
X994000Y950000D02*
X1006000D01*
X986000Y482500D02*
Y517500D01*
X1014000Y482500D02*
Y517500D01*
X994000Y450000D02*
X1006000D01*
X744000Y200000D02*
X756000D01*
X736000Y232500D02*
Y267500D01*
X764000Y232500D02*
Y267500D01*
X494000Y450000D02*
X506000D01*
X244000Y700000D02*
X256000D01*
X744000D02*
X756000D01*
X736000Y732500D02*
Y767500D01*
X764000Y732500D02*
Y767500D01*
X736000Y1232500D02*
Y1267500D01*
X764000Y1232500D02*
Y1267500D01*
X244000Y1200000D02*
X256000D01*
X744000D02*
X756000D01*
X236000Y1732500D02*
Y1767500D01*
X264000Y1732500D02*
Y1767500D01*
X736000Y1732500D02*
Y1767500D01*
X764000Y1732500D02*
Y1767500D01*
X486000Y1482500D02*
Y1517500D01*
X514000Y1482500D02*
Y1517500D01*
X486000Y982500D02*
Y1017500D01*
X514000Y982500D02*
Y1017500D01*
X486000Y482500D02*
Y517500D01*
X514000Y482500D02*
Y517500D01*
X236000Y232500D02*
Y267500D01*
X264000Y232500D02*
Y267500D01*
X236000Y732500D02*
Y767500D01*
X264000Y732500D02*
Y767500D01*
X236000Y1232500D02*
Y1267500D01*
X264000Y1232500D02*
Y1267500D01*
X244000Y1700000D02*
X256000D01*
X494000Y950000D02*
X506000D01*
X1243839Y949961D02*
X1255839D01*
X494000Y1450000D02*
X506000D01*
X111700Y1726650D02*
Y1773350D01*
X88300Y1726650D02*
Y1773350D01*
X111700Y1476650D02*
Y1523350D01*
X88300Y1476650D02*
Y1523350D01*
X111700Y1226650D02*
Y1273350D01*
X88300Y1226650D02*
Y1273350D01*
X111700Y976650D02*
Y1023350D01*
X88300Y976650D02*
Y1023350D01*
X226650Y1888300D02*
X273350D01*
X226650Y1911700D02*
X273350D01*
X726650Y1888300D02*
X773350D01*
X726650Y1911700D02*
X773350D01*
X1176650Y1888300D02*
X1223350D01*
X1176650Y1911700D02*
X1223350D01*
X1676650Y1888300D02*
X1723350D01*
X1676650Y1911700D02*
X1723350D01*
X111700Y726650D02*
Y773350D01*
X88300Y726650D02*
Y773350D01*
X926650Y1888300D02*
X973350D01*
X926650Y1911700D02*
X973350D01*
X1426650Y1888300D02*
X1473350D01*
X1426650Y1911700D02*
X1473350D01*
X476650Y1888300D02*
X523350D01*
X476650Y1911700D02*
X523350D01*
X244000Y200000D02*
X256000D01*
X1026650Y1888300D02*
X1073350D01*
X1026650Y1911700D02*
X1073350D01*
X111700Y226650D02*
Y273350D01*
X88300Y226650D02*
Y273350D01*
X1526650Y1888300D02*
X1573350D01*
X1526650Y1911700D02*
X1573350D01*
X1776650Y1888300D02*
X1823350D01*
X1776650Y1911700D02*
X1823350D01*
X1276650Y1888300D02*
X1323350D01*
X1276650Y1911700D02*
X1323350D01*
X111700Y476650D02*
Y523350D01*
X88300Y476650D02*
Y523350D01*
D12*
X573278Y1983994D02*
Y1999229D01*
X580896D01*
X583435Y1996690D01*
Y1991611D01*
X580896Y1989072D01*
X573278D01*
X588513Y1983994D02*
Y1999229D01*
X596131D01*
X598670Y1996690D01*
Y1991611D01*
X596131Y1989072D01*
X588513D01*
X603748Y1994151D02*
Y1986533D01*
X606287Y1983994D01*
X608826Y1986533D01*
X611366Y1983994D01*
X613905Y1986533D01*
Y1994151D01*
X618983D02*
Y1983994D01*
Y1989072D01*
X621522Y1991611D01*
X624062Y1994151D01*
X626601D01*
X323342Y1983994D02*
Y1999229D01*
X330960D01*
X333499Y1996690D01*
Y1991611D01*
X330960Y1989072D01*
X323342D01*
X348734Y1996690D02*
X346195Y1999229D01*
X341116D01*
X338577Y1996690D01*
Y1986533D01*
X341116Y1983994D01*
X346195D01*
X348734Y1986533D01*
Y1991611D01*
X343655D01*
X353812Y1983994D02*
Y1994151D01*
X361430D01*
X363969Y1991611D01*
Y1983994D01*
X379204Y1999229D02*
Y1983994D01*
X371586D01*
X369047Y1986533D01*
Y1991611D01*
X371586Y1994151D01*
X379204D01*
X1194141Y442343D02*
Y457579D01*
X1201758D01*
X1204297Y455039D01*
Y449961D01*
X1201758Y447422D01*
X1194141D01*
X1199219D02*
X1204297Y442343D01*
X1209376Y455039D02*
X1211915Y457579D01*
X1216993D01*
X1219532Y455039D01*
Y452500D01*
X1216993Y449961D01*
X1214454D01*
X1216993D01*
X1219532Y447422D01*
Y444883D01*
X1216993Y442343D01*
X1211915D01*
X1209376Y444883D01*
X1224611D02*
X1227150Y442343D01*
X1232228D01*
X1234768Y444883D01*
Y455039D01*
X1232228Y457579D01*
X1227150D01*
X1224611Y455039D01*
Y452500D01*
X1227150Y449961D01*
X1234768D01*
X1694409Y442279D02*
Y457514D01*
X1702026D01*
X1704565Y454975D01*
Y449897D01*
X1702026Y447357D01*
X1694409D01*
X1699487D02*
X1704565Y442279D01*
X1709644Y454975D02*
X1712183Y457514D01*
X1717261D01*
X1719800Y454975D01*
Y452436D01*
X1717261Y449897D01*
X1714722D01*
X1717261D01*
X1719800Y447357D01*
Y444818D01*
X1717261Y442279D01*
X1712183D01*
X1709644Y444818D01*
X1724879Y454975D02*
X1727418Y457514D01*
X1732496D01*
X1735035Y454975D01*
Y452436D01*
X1732496Y449897D01*
X1735035Y447357D01*
Y444818D01*
X1732496Y442279D01*
X1727418D01*
X1724879Y444818D01*
Y447357D01*
X1727418Y449897D01*
X1724879Y452436D01*
Y454975D01*
X1727418Y449897D02*
X1732496D01*
X1442009Y442383D02*
Y457617D01*
X1449627D01*
X1452166Y455078D01*
Y450000D01*
X1449627Y447461D01*
X1442009D01*
X1447088D02*
X1452166Y442383D01*
X1457244Y455078D02*
X1459783Y457617D01*
X1464862D01*
X1467401Y455078D01*
Y452539D01*
X1464862Y450000D01*
X1462323D01*
X1464862D01*
X1467401Y447461D01*
Y444922D01*
X1464862Y442383D01*
X1459783D01*
X1457244Y444922D01*
X1472479Y457617D02*
X1482636D01*
Y455078D01*
X1472479Y444922D01*
Y442383D01*
X1274565Y523063D02*
Y507828D01*
X1282182D01*
X1284722Y510368D01*
Y520524D01*
X1282182Y523063D01*
X1274565D01*
X1289800Y520524D02*
X1292339Y523063D01*
X1297417D01*
X1299957Y520524D01*
Y517985D01*
X1297417Y515446D01*
X1294878D01*
X1297417D01*
X1299957Y512907D01*
Y510368D01*
X1297417Y507828D01*
X1292339D01*
X1289800Y510368D01*
X1305035D02*
X1307574Y507828D01*
X1312652D01*
X1315192Y510368D01*
Y520524D01*
X1312652Y523063D01*
X1307574D01*
X1305035Y520524D01*
Y517985D01*
X1307574Y515446D01*
X1315192D01*
X1774285Y522997D02*
Y507762D01*
X1781903D01*
X1784442Y510301D01*
Y520458D01*
X1781903Y522997D01*
X1774285D01*
X1789520Y520458D02*
X1792060Y522997D01*
X1797138D01*
X1799677Y520458D01*
Y517919D01*
X1797138Y515380D01*
X1794599D01*
X1797138D01*
X1799677Y512840D01*
Y510301D01*
X1797138Y507762D01*
X1792060D01*
X1789520Y510301D01*
X1804756Y520458D02*
X1807295Y522997D01*
X1812373D01*
X1814912Y520458D01*
Y517919D01*
X1812373Y515380D01*
X1814912Y512840D01*
Y510301D01*
X1812373Y507762D01*
X1807295D01*
X1804756Y510301D01*
Y512840D01*
X1807295Y515380D01*
X1804756Y517919D01*
Y520458D01*
X1807295Y515380D02*
X1812373D01*
X1524622Y522004D02*
Y506769D01*
X1532239D01*
X1534778Y509308D01*
Y519465D01*
X1532239Y522004D01*
X1524622D01*
X1539857Y519465D02*
X1542396Y522004D01*
X1547474D01*
X1550013Y519465D01*
Y516926D01*
X1547474Y514387D01*
X1544935D01*
X1547474D01*
X1550013Y511847D01*
Y509308D01*
X1547474Y506769D01*
X1542396D01*
X1539857Y509308D01*
X1555092Y522004D02*
X1565249D01*
Y519465D01*
X1555092Y509308D01*
Y506769D01*
X1446111Y192046D02*
Y207281D01*
X1453728D01*
X1456267Y204742D01*
Y199664D01*
X1453728Y197125D01*
X1446111D01*
X1451189D02*
X1456267Y192046D01*
X1461346Y204742D02*
X1463885Y207281D01*
X1468963D01*
X1471503Y204742D01*
Y202203D01*
X1468963Y199664D01*
X1466424D01*
X1468963D01*
X1471503Y197125D01*
Y194586D01*
X1468963Y192046D01*
X1463885D01*
X1461346Y194586D01*
X1486738Y207281D02*
X1481659Y204742D01*
X1476581Y199664D01*
Y194586D01*
X1479120Y192046D01*
X1484198D01*
X1486738Y194586D01*
Y197125D01*
X1484198Y199664D01*
X1476581D01*
X943090Y192177D02*
Y207412D01*
X950707D01*
X953247Y204873D01*
Y199795D01*
X950707Y197256D01*
X943090D01*
X948168D02*
X953247Y192177D01*
X958325Y204873D02*
X960864Y207412D01*
X965943D01*
X968482Y204873D01*
Y202334D01*
X965943Y199795D01*
X963403D01*
X965943D01*
X968482Y197256D01*
Y194717D01*
X965943Y192177D01*
X960864D01*
X958325Y194717D01*
X983717Y207412D02*
X973560D01*
Y199795D01*
X978638Y202334D01*
X981178D01*
X983717Y199795D01*
Y194717D01*
X981178Y192177D01*
X976099D01*
X973560Y194717D01*
X1692035Y192383D02*
Y207617D01*
X1699652D01*
X1702192Y205078D01*
Y200000D01*
X1699652Y197461D01*
X1692035D01*
X1697113D02*
X1702192Y192383D01*
X1707270Y205078D02*
X1709809Y207617D01*
X1714888D01*
X1717427Y205078D01*
Y202539D01*
X1714888Y200000D01*
X1712348D01*
X1714888D01*
X1717427Y197461D01*
Y194922D01*
X1714888Y192383D01*
X1709809D01*
X1707270Y194922D01*
X1730123Y192383D02*
Y207617D01*
X1722505Y200000D01*
X1732662D01*
X1189248Y192383D02*
Y207617D01*
X1196866D01*
X1199405Y205078D01*
Y200000D01*
X1196866Y197461D01*
X1189248D01*
X1194327D02*
X1199405Y192383D01*
X1204483Y205078D02*
X1207023Y207617D01*
X1212101D01*
X1214640Y205078D01*
Y202539D01*
X1212101Y200000D01*
X1209562D01*
X1212101D01*
X1214640Y197461D01*
Y194922D01*
X1212101Y192383D01*
X1207023D01*
X1204483Y194922D01*
X1219718Y205078D02*
X1222258Y207617D01*
X1227336D01*
X1229875Y205078D01*
Y202539D01*
X1227336Y200000D01*
X1224797D01*
X1227336D01*
X1229875Y197461D01*
Y194922D01*
X1227336Y192383D01*
X1222258D01*
X1219718Y194922D01*
X691385Y192383D02*
Y207617D01*
X699003D01*
X701542Y205078D01*
Y200000D01*
X699003Y197461D01*
X691385D01*
X696464D02*
X701542Y192383D01*
X706620Y205078D02*
X709160Y207617D01*
X714238D01*
X716777Y205078D01*
Y202539D01*
X714238Y200000D01*
X711699D01*
X714238D01*
X716777Y197461D01*
Y194922D01*
X714238Y192383D01*
X709160D01*
X706620Y194922D01*
X732012Y192383D02*
X721856D01*
X732012Y202539D01*
Y205078D01*
X729473Y207617D01*
X724395D01*
X721856Y205078D01*
X242634Y225654D02*
Y240889D01*
X250252D01*
X252791Y238350D01*
Y233272D01*
X250252Y230732D01*
X242634D01*
X247712D02*
X252791Y225654D01*
X257869Y238350D02*
X260408Y240889D01*
X265487D01*
X268026Y238350D01*
Y235811D01*
X265487Y233272D01*
X262947D01*
X265487D01*
X268026Y230732D01*
Y228193D01*
X265487Y225654D01*
X260408D01*
X257869Y228193D01*
X273104Y225654D02*
X278183D01*
X275643D01*
Y240889D01*
X273104Y238350D01*
X1443697Y692046D02*
Y707281D01*
X1451315D01*
X1453854Y704742D01*
Y699664D01*
X1451315Y697125D01*
X1443697D01*
X1448775D02*
X1453854Y692046D01*
X1458932Y704742D02*
X1461471Y707281D01*
X1466550D01*
X1469089Y704742D01*
Y702203D01*
X1466550Y699664D01*
X1464010D01*
X1466550D01*
X1469089Y697125D01*
Y694586D01*
X1466550Y692046D01*
X1461471D01*
X1458932Y694586D01*
X1474167Y704742D02*
X1476706Y707281D01*
X1481785D01*
X1484324Y704742D01*
Y694586D01*
X1481785Y692046D01*
X1476706D01*
X1474167Y694586D01*
Y704742D01*
X942543Y692177D02*
Y707412D01*
X950160D01*
X952700Y704873D01*
Y699795D01*
X950160Y697256D01*
X942543D01*
X947621D02*
X952700Y692177D01*
X967935D02*
X957778D01*
X967935Y702334D01*
Y704873D01*
X965396Y707412D01*
X960317D01*
X957778Y704873D01*
X973013Y694717D02*
X975552Y692177D01*
X980631D01*
X983170Y694717D01*
Y704873D01*
X980631Y707412D01*
X975552D01*
X973013Y704873D01*
Y702334D01*
X975552Y699795D01*
X983170D01*
X1691488Y692383D02*
Y707617D01*
X1699105D01*
X1701644Y705078D01*
Y700000D01*
X1699105Y697461D01*
X1691488D01*
X1696566D02*
X1701644Y692383D01*
X1716879D02*
X1706723D01*
X1716879Y702539D01*
Y705078D01*
X1714340Y707617D01*
X1709262D01*
X1706723Y705078D01*
X1721958D02*
X1724497Y707617D01*
X1729575D01*
X1732115Y705078D01*
Y702539D01*
X1729575Y700000D01*
X1732115Y697461D01*
Y694922D01*
X1729575Y692383D01*
X1724497D01*
X1721958Y694922D01*
Y697461D01*
X1724497Y700000D01*
X1721958Y702539D01*
Y705078D01*
X1724497Y700000D02*
X1729575D01*
X1191984Y692383D02*
Y707617D01*
X1199602D01*
X1202141Y705078D01*
Y700000D01*
X1199602Y697461D01*
X1191984D01*
X1197062D02*
X1202141Y692383D01*
X1217376D02*
X1207219D01*
X1217376Y702539D01*
Y705078D01*
X1214837Y707617D01*
X1209758D01*
X1207219Y705078D01*
X1222454Y707617D02*
X1232611D01*
Y705078D01*
X1222454Y694922D01*
Y692383D01*
X693574D02*
Y707617D01*
X701191D01*
X703730Y705078D01*
Y700000D01*
X701191Y697461D01*
X693574D01*
X698652D02*
X703730Y692383D01*
X718966D02*
X708809D01*
X718966Y702539D01*
Y705078D01*
X716426Y707617D01*
X711348D01*
X708809Y705078D01*
X734201Y707617D02*
X729122Y705078D01*
X724044Y700000D01*
Y694922D01*
X726583Y692383D01*
X731662D01*
X734201Y694922D01*
Y697461D01*
X731662Y700000D01*
X724044D01*
X194069Y692383D02*
Y707617D01*
X201687D01*
X204226Y705078D01*
Y700000D01*
X201687Y697461D01*
X194069D01*
X199147D02*
X204226Y692383D01*
X219461D02*
X209304D01*
X219461Y702539D01*
Y705078D01*
X216922Y707617D01*
X211843D01*
X209304Y705078D01*
X234696Y707617D02*
X224539D01*
Y700000D01*
X229618Y702539D01*
X232157D01*
X234696Y700000D01*
Y694922D01*
X232157Y692383D01*
X227078D01*
X224539Y694922D01*
X942506Y442383D02*
Y457617D01*
X950123D01*
X952662Y455078D01*
Y450000D01*
X950123Y447461D01*
X942506D01*
X947584D02*
X952662Y442383D01*
X967897D02*
X957741D01*
X967897Y452539D01*
Y455078D01*
X965358Y457617D01*
X960280D01*
X957741Y455078D01*
X980593Y442383D02*
Y457617D01*
X972976Y450000D01*
X983132D01*
X1193046Y942344D02*
Y957579D01*
X1200664D01*
X1203203Y955039D01*
Y949961D01*
X1200664Y947422D01*
X1193046D01*
X1198125D02*
X1203203Y942344D01*
X1218438D02*
X1208282D01*
X1218438Y952500D01*
Y955039D01*
X1215899Y957579D01*
X1210821D01*
X1208282Y955039D01*
X1223517D02*
X1226056Y957579D01*
X1231134D01*
X1233673Y955039D01*
Y952500D01*
X1231134Y949961D01*
X1228595D01*
X1231134D01*
X1233673Y947422D01*
Y944883D01*
X1231134Y942344D01*
X1226056D01*
X1223517Y944883D01*
X1692061Y942888D02*
Y958123D01*
X1699679D01*
X1702218Y955584D01*
Y950505D01*
X1699679Y947966D01*
X1692061D01*
X1697139D02*
X1702218Y942888D01*
X1717453D02*
X1707296D01*
X1717453Y953045D01*
Y955584D01*
X1714914Y958123D01*
X1709835D01*
X1707296Y955584D01*
X1732688Y942888D02*
X1722531D01*
X1732688Y953045D01*
Y955584D01*
X1730149Y958123D01*
X1725070D01*
X1722531Y955584D01*
X1447284Y942383D02*
Y957617D01*
X1454901D01*
X1457441Y955078D01*
Y950000D01*
X1454901Y947461D01*
X1447284D01*
X1452362D02*
X1457441Y942383D01*
X1472676D02*
X1462519D01*
X1472676Y952539D01*
Y955078D01*
X1470137Y957617D01*
X1465058D01*
X1462519Y955078D01*
X1477754Y942383D02*
X1482832D01*
X1480293D01*
Y957617D01*
X1477754Y955078D01*
X941411Y942383D02*
Y957617D01*
X949029D01*
X951568Y955078D01*
Y950000D01*
X949029Y947461D01*
X941411D01*
X946490D02*
X951568Y942383D01*
X966803D02*
X956646D01*
X966803Y952539D01*
Y955078D01*
X964264Y957617D01*
X959186D01*
X956646Y955078D01*
X971881D02*
X974421Y957617D01*
X979499D01*
X982038Y955078D01*
Y944922D01*
X979499Y942383D01*
X974421D01*
X971881Y944922D01*
Y955078D01*
X445365Y942383D02*
Y957617D01*
X452982D01*
X455521Y955078D01*
Y950000D01*
X452982Y947461D01*
X445365D01*
X450443D02*
X455521Y942383D01*
X460600D02*
X465678D01*
X463139D01*
Y957617D01*
X460600Y955078D01*
X473296Y944922D02*
X475835Y942383D01*
X480913D01*
X483452Y944922D01*
Y955078D01*
X480913Y957617D01*
X475835D01*
X473296Y955078D01*
Y952539D01*
X475835Y950000D01*
X483452D01*
X1440895Y1192046D02*
Y1207281D01*
X1448513D01*
X1451052Y1204742D01*
Y1199664D01*
X1448513Y1197125D01*
X1440895D01*
X1445974D02*
X1451052Y1192046D01*
X1456130D02*
X1461209D01*
X1458670D01*
Y1207281D01*
X1456130Y1204742D01*
X1468826D02*
X1471366Y1207281D01*
X1476444D01*
X1478983Y1204742D01*
Y1202203D01*
X1476444Y1199664D01*
X1478983Y1197125D01*
Y1194585D01*
X1476444Y1192046D01*
X1471366D01*
X1468826Y1194585D01*
Y1197125D01*
X1471366Y1199664D01*
X1468826Y1202203D01*
Y1204742D01*
X1471366Y1199664D02*
X1476444D01*
X948736Y1192177D02*
Y1207412D01*
X956354D01*
X958893Y1204873D01*
Y1199795D01*
X956354Y1197256D01*
X948736D01*
X953815D02*
X958893Y1192177D01*
X963971D02*
X969050D01*
X966511D01*
Y1207412D01*
X963971Y1204873D01*
X976667Y1207412D02*
X986824D01*
Y1204873D01*
X976667Y1194717D01*
Y1192177D01*
X1696587Y1192383D02*
Y1207617D01*
X1704205D01*
X1706744Y1205078D01*
Y1200000D01*
X1704205Y1197461D01*
X1696587D01*
X1701665D02*
X1706744Y1192383D01*
X1711822D02*
X1716900D01*
X1714361D01*
Y1207617D01*
X1711822Y1205078D01*
X1734675Y1207617D02*
X1729596Y1205078D01*
X1724518Y1200000D01*
Y1194922D01*
X1727057Y1192383D01*
X1732135D01*
X1734675Y1194922D01*
Y1197461D01*
X1732135Y1200000D01*
X1724518D01*
X1197083Y1192383D02*
Y1207617D01*
X1204701D01*
X1207240Y1205078D01*
Y1200000D01*
X1204701Y1197461D01*
X1197083D01*
X1202162D02*
X1207240Y1192383D01*
X1212318D02*
X1217397D01*
X1214857D01*
Y1207617D01*
X1212318Y1205078D01*
X1235171Y1207617D02*
X1225014D01*
Y1200000D01*
X1230093Y1202539D01*
X1232632D01*
X1235171Y1200000D01*
Y1194922D01*
X1232632Y1192383D01*
X1227553D01*
X1225014Y1194922D01*
X695390Y1194474D02*
Y1209709D01*
X703008D01*
X705547Y1207170D01*
Y1202092D01*
X703008Y1199553D01*
X695390D01*
X700469D02*
X705547Y1194474D01*
X710626D02*
X715704D01*
X713165D01*
Y1209709D01*
X710626Y1207170D01*
X730939Y1194474D02*
Y1209709D01*
X723322Y1202092D01*
X733478D01*
X196433Y1194474D02*
Y1209709D01*
X204050D01*
X206590Y1207170D01*
Y1202092D01*
X204050Y1199553D01*
X196433D01*
X201511D02*
X206590Y1194474D01*
X211668D02*
X216746D01*
X214207D01*
Y1209709D01*
X211668Y1207170D01*
X224364D02*
X226903Y1209709D01*
X231981D01*
X234520Y1207170D01*
Y1204631D01*
X231981Y1202092D01*
X229442D01*
X231981D01*
X234520Y1199553D01*
Y1197014D01*
X231981Y1194474D01*
X226903D01*
X224364Y1197014D01*
X447006Y442383D02*
Y457617D01*
X454623D01*
X457163Y455078D01*
Y450000D01*
X454623Y447461D01*
X447006D01*
X452084D02*
X457163Y442383D01*
X462241D02*
X467319D01*
X464780D01*
Y457617D01*
X462241Y455078D01*
X485094Y442383D02*
X474937D01*
X485094Y452539D01*
Y455078D01*
X482554Y457617D01*
X477476D01*
X474937Y455078D01*
X1202326Y1442343D02*
Y1457578D01*
X1209944D01*
X1212483Y1455039D01*
Y1449961D01*
X1209944Y1447422D01*
X1202326D01*
X1207405D02*
X1212483Y1442343D01*
X1217561D02*
X1222640D01*
X1220100D01*
Y1457578D01*
X1217561Y1455039D01*
X1230257Y1442343D02*
X1235336D01*
X1232796D01*
Y1457578D01*
X1230257Y1455039D01*
X1695860Y1443652D02*
Y1458887D01*
X1703478D01*
X1706017Y1456348D01*
Y1451270D01*
X1703478Y1448731D01*
X1695860D01*
X1700939D02*
X1706017Y1443652D01*
X1711095D02*
X1716174D01*
X1713635D01*
Y1458887D01*
X1711095Y1456348D01*
X1723791D02*
X1726331Y1458887D01*
X1731409D01*
X1733948Y1456348D01*
Y1446192D01*
X1731409Y1443652D01*
X1726331D01*
X1723791Y1446192D01*
Y1456348D01*
X1452909Y1442383D02*
Y1457617D01*
X1460527D01*
X1463066Y1455078D01*
Y1450000D01*
X1460527Y1447461D01*
X1452909D01*
X1457988D02*
X1463066Y1442383D01*
X1468144Y1444922D02*
X1470684Y1442383D01*
X1475762D01*
X1478301Y1444922D01*
Y1455078D01*
X1475762Y1457617D01*
X1470684D01*
X1468144Y1455078D01*
Y1452539D01*
X1470684Y1450000D01*
X1478301D01*
X958330Y1442383D02*
Y1457617D01*
X965947D01*
X968486Y1455078D01*
Y1450000D01*
X965947Y1447461D01*
X958330D01*
X963408D02*
X968486Y1442383D01*
X973565Y1455078D02*
X976104Y1457617D01*
X981182D01*
X983721Y1455078D01*
Y1452539D01*
X981182Y1450000D01*
X983721Y1447461D01*
Y1444922D01*
X981182Y1442383D01*
X976104D01*
X973565Y1444922D01*
Y1447461D01*
X976104Y1450000D01*
X973565Y1452539D01*
Y1455078D01*
X976104Y1450000D02*
X981182D01*
X492538Y1475541D02*
Y1490776D01*
X500156D01*
X502695Y1488237D01*
Y1483159D01*
X500156Y1480620D01*
X492538D01*
X497617D02*
X502695Y1475541D01*
X507774Y1490776D02*
X517930D01*
Y1488237D01*
X507774Y1478080D01*
Y1475541D01*
X1453029Y1692046D02*
Y1707281D01*
X1460646D01*
X1463185Y1704742D01*
Y1699664D01*
X1460646Y1697125D01*
X1453029D01*
X1458107D02*
X1463185Y1692046D01*
X1478420Y1707281D02*
X1473342Y1704742D01*
X1468264Y1699664D01*
Y1694586D01*
X1470803Y1692046D01*
X1475881D01*
X1478420Y1694586D01*
Y1697125D01*
X1475881Y1699664D01*
X1468264D01*
X959461Y1692177D02*
Y1707413D01*
X967079D01*
X969618Y1704873D01*
Y1699795D01*
X967079Y1697256D01*
X959461D01*
X964539D02*
X969618Y1692177D01*
X984853Y1707413D02*
X974696D01*
Y1699795D01*
X979774Y1702334D01*
X982314D01*
X984853Y1699795D01*
Y1694717D01*
X982314Y1692177D01*
X977235D01*
X974696Y1694717D01*
X1707859Y1692383D02*
Y1707617D01*
X1715476D01*
X1718016Y1705078D01*
Y1700000D01*
X1715476Y1697461D01*
X1707859D01*
X1712937D02*
X1718016Y1692383D01*
X1730712D02*
Y1707617D01*
X1723094Y1700000D01*
X1733251D01*
X1208902Y1692383D02*
Y1707617D01*
X1216520D01*
X1219059Y1705078D01*
Y1700000D01*
X1216520Y1697461D01*
X1208902D01*
X1213980D02*
X1219059Y1692383D01*
X1224137Y1705078D02*
X1226676Y1707617D01*
X1231755D01*
X1234294Y1705078D01*
Y1702539D01*
X1231755Y1700000D01*
X1229216D01*
X1231755D01*
X1234294Y1697461D01*
Y1694922D01*
X1231755Y1692383D01*
X1226676D01*
X1224137Y1694922D01*
X707209Y1692383D02*
Y1707617D01*
X714827D01*
X717366Y1705078D01*
Y1700000D01*
X714827Y1697461D01*
X707209D01*
X712288D02*
X717366Y1692383D01*
X732601D02*
X722445D01*
X732601Y1702539D01*
Y1705078D01*
X730062Y1707617D01*
X724984D01*
X722445Y1705078D01*
X209468Y1695890D02*
Y1711125D01*
X217085D01*
X219625Y1708586D01*
Y1703508D01*
X217085Y1700968D01*
X209468D01*
X214546D02*
X219625Y1695890D01*
X224703D02*
X229781D01*
X227242D01*
Y1711125D01*
X224703Y1708586D01*
X81842Y532172D02*
Y547407D01*
X89459D01*
X91999Y544868D01*
Y539789D01*
X89459Y537250D01*
X81842D01*
X97077Y532172D02*
X102155D01*
X99616D01*
Y547407D01*
X97077Y544868D01*
X109773D02*
X112312Y547407D01*
X117390D01*
X119930Y544868D01*
Y542328D01*
X117390Y539789D01*
X119930Y537250D01*
Y534711D01*
X117390Y532172D01*
X112312D01*
X109773Y534711D01*
Y537250D01*
X112312Y539789D01*
X109773Y542328D01*
Y544868D01*
X112312Y539789D02*
X117390D01*
X1277874Y1928368D02*
Y1943603D01*
X1285491D01*
X1288031Y1941064D01*
Y1935986D01*
X1285491Y1933446D01*
X1277874D01*
X1293109Y1928368D02*
X1298187D01*
X1295648D01*
Y1943603D01*
X1293109Y1941064D01*
X1305805Y1943603D02*
X1315962D01*
Y1941064D01*
X1305805Y1930907D01*
Y1928368D01*
X1778000D02*
Y1943603D01*
X1785618D01*
X1788157Y1941064D01*
Y1935986D01*
X1785618Y1933446D01*
X1778000D01*
X1793235Y1928368D02*
X1798313D01*
X1795774D01*
Y1943603D01*
X1793235Y1941064D01*
X1816088Y1943603D02*
X1811009Y1941064D01*
X1805931Y1935986D01*
Y1930907D01*
X1808470Y1928368D01*
X1813548D01*
X1816088Y1930907D01*
Y1933446D01*
X1813548Y1935986D01*
X1805931D01*
X1528064Y1928368D02*
Y1943603D01*
X1535681D01*
X1538221Y1941064D01*
Y1935986D01*
X1535681Y1933446D01*
X1528064D01*
X1543299Y1928368D02*
X1548377D01*
X1545838D01*
Y1943603D01*
X1543299Y1941064D01*
X1566152Y1943603D02*
X1555995D01*
Y1935986D01*
X1561073Y1938525D01*
X1563613D01*
X1566152Y1935986D01*
Y1930907D01*
X1563613Y1928368D01*
X1558534D01*
X1555995Y1930907D01*
X81957Y282299D02*
Y297534D01*
X89574D01*
X92114Y294995D01*
Y289917D01*
X89574Y287377D01*
X81957D01*
X97192Y282299D02*
X102270D01*
X99731D01*
Y297534D01*
X97192Y294995D01*
X117505Y282299D02*
Y297534D01*
X109888Y289917D01*
X120044D01*
X1027938Y1928368D02*
Y1943603D01*
X1035555D01*
X1038095Y1941064D01*
Y1935986D01*
X1035555Y1933446D01*
X1027938D01*
X1043173Y1928368D02*
X1048251D01*
X1045712D01*
Y1943603D01*
X1043173Y1941064D01*
X1055869D02*
X1058408Y1943603D01*
X1063486D01*
X1066026Y1941064D01*
Y1938525D01*
X1063486Y1935986D01*
X1060947D01*
X1063486D01*
X1066026Y1933446D01*
Y1930907D01*
X1063486Y1928368D01*
X1058408D01*
X1055869Y1930907D01*
X478029Y1928321D02*
Y1943556D01*
X485647D01*
X488186Y1941017D01*
Y1935939D01*
X485647Y1933399D01*
X478029D01*
X493264Y1928321D02*
X498342D01*
X495803D01*
Y1943556D01*
X493264Y1941017D01*
X516117Y1928321D02*
X505960D01*
X516117Y1938478D01*
Y1941017D01*
X513577Y1943556D01*
X508499D01*
X505960Y1941017D01*
X1427988Y1928368D02*
Y1943603D01*
X1435605D01*
X1438145Y1941064D01*
Y1935986D01*
X1435605Y1933446D01*
X1427988D01*
X1443223Y1928368D02*
X1448301D01*
X1445762D01*
Y1943603D01*
X1443223Y1941064D01*
X1455919Y1928368D02*
X1460997D01*
X1458458D01*
Y1943603D01*
X1455919Y1941064D01*
X927862Y1928368D02*
Y1943603D01*
X935480D01*
X938019Y1941064D01*
Y1935986D01*
X935480Y1933446D01*
X927862D01*
X943097Y1928368D02*
X948175D01*
X945636D01*
Y1943603D01*
X943097Y1941064D01*
X955793D02*
X958332Y1943603D01*
X963410D01*
X965950Y1941064D01*
Y1930907D01*
X963410Y1928368D01*
X958332D01*
X955793Y1930907D01*
Y1941064D01*
X81930Y782128D02*
Y797363D01*
X89547D01*
X92086Y794824D01*
Y789746D01*
X89547Y787206D01*
X81930D01*
X97165Y784667D02*
X99704Y782128D01*
X104782D01*
X107321Y784667D01*
Y794824D01*
X104782Y797363D01*
X99704D01*
X97165Y794824D01*
Y792285D01*
X99704Y789746D01*
X107321D01*
X1677924Y1928368D02*
Y1943603D01*
X1685542D01*
X1688081Y1941064D01*
Y1935986D01*
X1685542Y1933446D01*
X1677924D01*
X1693159Y1941064D02*
X1695698Y1943603D01*
X1700777D01*
X1703316Y1941064D01*
Y1938525D01*
X1700777Y1935986D01*
X1703316Y1933446D01*
Y1930907D01*
X1700777Y1928368D01*
X1695698D01*
X1693159Y1930907D01*
Y1933446D01*
X1695698Y1935986D01*
X1693159Y1938525D01*
Y1941064D01*
X1695698Y1935986D02*
X1700777D01*
X1178052Y1928368D02*
Y1943603D01*
X1185669D01*
X1188209Y1941064D01*
Y1935986D01*
X1185669Y1933446D01*
X1178052D01*
X1193287Y1943603D02*
X1203444D01*
Y1941064D01*
X1193287Y1930907D01*
Y1928368D01*
X728029Y1928321D02*
Y1943556D01*
X735647D01*
X738186Y1941017D01*
Y1935939D01*
X735647Y1933399D01*
X728029D01*
X753421Y1943556D02*
X748342Y1941017D01*
X743264Y1935939D01*
Y1930860D01*
X745803Y1928321D01*
X750882D01*
X753421Y1930860D01*
Y1933399D01*
X750882Y1935939D01*
X743264D01*
X228029Y1928321D02*
Y1943556D01*
X235646D01*
X238186Y1941017D01*
Y1935939D01*
X235646Y1933399D01*
X228029D01*
X253421Y1943556D02*
X243264D01*
Y1935939D01*
X248342Y1938478D01*
X250882D01*
X253421Y1935939D01*
Y1930860D01*
X250882Y1928321D01*
X245803D01*
X243264Y1930860D01*
X81816Y1032141D02*
Y1047376D01*
X89433D01*
X91973Y1044837D01*
Y1039759D01*
X89433Y1037220D01*
X81816D01*
X104668Y1032141D02*
Y1047376D01*
X97051Y1039759D01*
X107208D01*
X81938Y1282317D02*
Y1297552D01*
X89556D01*
X92095Y1295013D01*
Y1289935D01*
X89556Y1287396D01*
X81938D01*
X97173Y1295013D02*
X99712Y1297552D01*
X104791D01*
X107330Y1295013D01*
Y1292474D01*
X104791Y1289935D01*
X102252D01*
X104791D01*
X107330Y1287396D01*
Y1284857D01*
X104791Y1282317D01*
X99712D01*
X97173Y1284857D01*
X81816Y1532157D02*
Y1547392D01*
X89433D01*
X91973Y1544853D01*
Y1539775D01*
X89433Y1537236D01*
X81816D01*
X107208Y1532157D02*
X97051D01*
X107208Y1542314D01*
Y1544853D01*
X104668Y1547392D01*
X99590D01*
X97051Y1544853D01*
X81918Y1782147D02*
Y1797382D01*
X89535D01*
X92074Y1794843D01*
Y1789765D01*
X89535Y1787226D01*
X81918D01*
X97153Y1782147D02*
X102231D01*
X99692D01*
Y1797382D01*
X97153Y1794843D01*
X1527315Y271919D02*
Y256684D01*
X1534932D01*
X1537472Y259224D01*
Y269380D01*
X1534932Y271919D01*
X1527315D01*
X1542550Y269380D02*
X1545089Y271919D01*
X1550168D01*
X1552707Y269380D01*
Y266841D01*
X1550168Y264302D01*
X1547628D01*
X1550168D01*
X1552707Y261763D01*
Y259224D01*
X1550168Y256684D01*
X1545089D01*
X1542550Y259224D01*
X1567942Y271919D02*
X1562863Y269380D01*
X1557785Y264302D01*
Y259224D01*
X1560324Y256684D01*
X1565403D01*
X1567942Y259224D01*
Y261763D01*
X1565403Y264302D01*
X1557785D01*
X1023514Y272324D02*
Y257089D01*
X1031132D01*
X1033671Y259628D01*
Y269785D01*
X1031132Y272324D01*
X1023514D01*
X1038749Y269785D02*
X1041288Y272324D01*
X1046367D01*
X1048906Y269785D01*
Y267246D01*
X1046367Y264707D01*
X1043827D01*
X1046367D01*
X1048906Y262168D01*
Y259628D01*
X1046367Y257089D01*
X1041288D01*
X1038749Y259628D01*
X1064141Y272324D02*
X1053984D01*
Y264707D01*
X1059062Y267246D01*
X1061602D01*
X1064141Y264707D01*
Y259628D01*
X1061602Y257089D01*
X1056523D01*
X1053984Y259628D01*
X1775741Y271433D02*
Y256198D01*
X1783359D01*
X1785898Y258737D01*
Y268894D01*
X1783359Y271433D01*
X1775741D01*
X1790977Y268894D02*
X1793516Y271433D01*
X1798594D01*
X1801133Y268894D01*
Y266355D01*
X1798594Y263816D01*
X1796055D01*
X1798594D01*
X1801133Y261276D01*
Y258737D01*
X1798594Y256198D01*
X1793516D01*
X1790977Y258737D01*
X1813829Y256198D02*
Y271433D01*
X1806212Y263816D01*
X1816368D01*
X1276238Y273619D02*
Y258384D01*
X1283855D01*
X1286394Y260924D01*
Y271080D01*
X1283855Y273619D01*
X1276238D01*
X1291473Y271080D02*
X1294012Y273619D01*
X1299090D01*
X1301629Y271080D01*
Y268541D01*
X1299090Y266002D01*
X1296551D01*
X1299090D01*
X1301629Y263463D01*
Y260924D01*
X1299090Y258384D01*
X1294012D01*
X1291473Y260924D01*
X1306708Y271080D02*
X1309247Y273619D01*
X1314325D01*
X1316865Y271080D01*
Y268541D01*
X1314325Y266002D01*
X1311786D01*
X1314325D01*
X1316865Y263463D01*
Y260924D01*
X1314325Y258384D01*
X1309247D01*
X1306708Y260924D01*
X774545Y272523D02*
Y257288D01*
X782163D01*
X784702Y259827D01*
Y269984D01*
X782163Y272523D01*
X774545D01*
X789780Y269984D02*
X792319Y272523D01*
X797398D01*
X799937Y269984D01*
Y267445D01*
X797398Y264906D01*
X794858D01*
X797398D01*
X799937Y262367D01*
Y259827D01*
X797398Y257288D01*
X792319D01*
X789780Y259827D01*
X815172Y257288D02*
X805015D01*
X815172Y267445D01*
Y269984D01*
X812633Y272523D01*
X807554D01*
X805015Y269984D01*
X272656Y275257D02*
Y260022D01*
X280273D01*
X282812Y262561D01*
Y272717D01*
X280273Y275257D01*
X272656D01*
X287891Y272717D02*
X290430Y275257D01*
X295508D01*
X298047Y272717D01*
Y270178D01*
X295508Y267639D01*
X292969D01*
X295508D01*
X298047Y265100D01*
Y262561D01*
X295508Y260022D01*
X290430D01*
X287891Y262561D01*
X303126Y260022D02*
X308204D01*
X305665D01*
Y275257D01*
X303126Y272717D01*
X1524497Y771957D02*
Y756722D01*
X1532114D01*
X1534653Y759261D01*
Y769417D01*
X1532114Y771957D01*
X1524497D01*
X1539732Y769417D02*
X1542271Y771957D01*
X1547349D01*
X1549888Y769417D01*
Y766878D01*
X1547349Y764339D01*
X1544810D01*
X1547349D01*
X1549888Y761800D01*
Y759261D01*
X1547349Y756722D01*
X1542271D01*
X1539732Y759261D01*
X1554967Y769417D02*
X1557506Y771957D01*
X1562584D01*
X1565124Y769417D01*
Y759261D01*
X1562584Y756722D01*
X1557506D01*
X1554967Y759261D01*
Y769417D01*
X1025155Y771829D02*
Y756594D01*
X1032773D01*
X1035312Y759133D01*
Y769290D01*
X1032773Y771829D01*
X1025155D01*
X1050547Y756594D02*
X1040390D01*
X1050547Y766751D01*
Y769290D01*
X1048008Y771829D01*
X1042930D01*
X1040390Y769290D01*
X1055625Y759133D02*
X1058165Y756594D01*
X1063243D01*
X1065782Y759133D01*
Y769290D01*
X1063243Y771829D01*
X1058165D01*
X1055625Y769290D01*
Y766751D01*
X1058165Y764212D01*
X1065782D01*
X1774647Y772579D02*
Y757344D01*
X1782265D01*
X1784804Y759883D01*
Y770040D01*
X1782265Y772579D01*
X1774647D01*
X1800039Y757344D02*
X1789882D01*
X1800039Y767501D01*
Y770040D01*
X1797500Y772579D01*
X1792422D01*
X1789882Y770040D01*
X1805117D02*
X1807657Y772579D01*
X1812735D01*
X1815274Y770040D01*
Y767501D01*
X1812735Y764961D01*
X1815274Y762422D01*
Y759883D01*
X1812735Y757344D01*
X1807657D01*
X1805117Y759883D01*
Y762422D01*
X1807657Y764961D01*
X1805117Y767501D01*
Y770040D01*
X1807657Y764961D02*
X1812735D01*
X1275691Y772577D02*
Y757342D01*
X1283308D01*
X1285847Y759881D01*
Y770038D01*
X1283308Y772577D01*
X1275691D01*
X1301082Y757342D02*
X1290926D01*
X1301082Y767499D01*
Y770038D01*
X1298543Y772577D01*
X1293465D01*
X1290926Y770038D01*
X1306161Y772577D02*
X1316318D01*
Y770038D01*
X1306161Y759881D01*
Y757342D01*
X773451Y772028D02*
Y756793D01*
X781068D01*
X783607Y759332D01*
Y769489D01*
X781068Y772028D01*
X773451D01*
X798843Y756793D02*
X788686D01*
X798843Y766950D01*
Y769489D01*
X796303Y772028D01*
X791225D01*
X788686Y769489D01*
X814078Y772028D02*
X808999Y769489D01*
X803921Y764410D01*
Y759332D01*
X806460Y756793D01*
X811538D01*
X814078Y759332D01*
Y761871D01*
X811538Y764410D01*
X803921D01*
X273399Y773667D02*
Y758432D01*
X281017D01*
X283556Y760971D01*
Y771128D01*
X281017Y773667D01*
X273399D01*
X298791Y758432D02*
X288634D01*
X298791Y768589D01*
Y771128D01*
X296252Y773667D01*
X291173D01*
X288634Y771128D01*
X314026Y773667D02*
X303869D01*
Y766050D01*
X308947Y768589D01*
X311487D01*
X314026Y766050D01*
Y760971D01*
X311487Y758432D01*
X306408D01*
X303869Y760971D01*
X1024571Y522549D02*
Y507314D01*
X1032188D01*
X1034728Y509853D01*
Y520010D01*
X1032188Y522549D01*
X1024571D01*
X1049963Y507314D02*
X1039806D01*
X1049963Y517471D01*
Y520010D01*
X1047424Y522549D01*
X1042345D01*
X1039806Y520010D01*
X1062659Y507314D02*
Y522549D01*
X1055041Y514932D01*
X1065198D01*
X1275112Y1020927D02*
Y1005692D01*
X1282729D01*
X1285269Y1008231D01*
Y1018388D01*
X1282729Y1020927D01*
X1275112D01*
X1300504Y1005692D02*
X1290347D01*
X1300504Y1015849D01*
Y1018388D01*
X1297964Y1020927D01*
X1292886D01*
X1290347Y1018388D01*
X1305582D02*
X1308121Y1020927D01*
X1313200D01*
X1315739Y1018388D01*
Y1015849D01*
X1313200Y1013309D01*
X1310660D01*
X1313200D01*
X1315739Y1010770D01*
Y1008231D01*
X1313200Y1005692D01*
X1308121D01*
X1305582Y1008231D01*
X1773032Y1023111D02*
Y1007876D01*
X1780650D01*
X1783189Y1010415D01*
Y1020572D01*
X1780650Y1023111D01*
X1773032D01*
X1798424Y1007876D02*
X1788267D01*
X1798424Y1018032D01*
Y1020572D01*
X1795885Y1023111D01*
X1790806D01*
X1788267Y1020572D01*
X1813659Y1007876D02*
X1803502D01*
X1813659Y1018032D01*
Y1020572D01*
X1811120Y1023111D01*
X1806042D01*
X1803502Y1020572D01*
X1525520Y1020962D02*
Y1005727D01*
X1533137D01*
X1535676Y1008266D01*
Y1018423D01*
X1533137Y1020962D01*
X1525520D01*
X1550911Y1005727D02*
X1540755D01*
X1550911Y1015884D01*
Y1018423D01*
X1548372Y1020962D01*
X1543294D01*
X1540755Y1018423D01*
X1555990Y1005727D02*
X1561068D01*
X1558529D01*
Y1020962D01*
X1555990Y1018423D01*
X1022930Y1021507D02*
Y1006272D01*
X1030547D01*
X1033086Y1008811D01*
Y1018968D01*
X1030547Y1021507D01*
X1022930D01*
X1048321Y1006272D02*
X1038165D01*
X1048321Y1016429D01*
Y1018968D01*
X1045782Y1021507D01*
X1040704D01*
X1038165Y1018968D01*
X1053400D02*
X1055939Y1021507D01*
X1061017D01*
X1063557Y1018968D01*
Y1008811D01*
X1061017Y1006272D01*
X1055939D01*
X1053400Y1008811D01*
Y1018968D01*
X525242Y1022054D02*
Y1006819D01*
X532859D01*
X535398Y1009358D01*
Y1019515D01*
X532859Y1022054D01*
X525242D01*
X540477Y1006819D02*
X545555D01*
X543016D01*
Y1022054D01*
X540477Y1019515D01*
X553172Y1009358D02*
X555712Y1006819D01*
X560790D01*
X563329Y1009358D01*
Y1019515D01*
X560790Y1022054D01*
X555712D01*
X553172Y1019515D01*
Y1016975D01*
X555712Y1014436D01*
X563329D01*
X1528272Y1273353D02*
Y1258118D01*
X1535889D01*
X1538428Y1260657D01*
Y1270814D01*
X1535889Y1273353D01*
X1528272D01*
X1543507Y1258118D02*
X1548585D01*
X1546046D01*
Y1273353D01*
X1543507Y1270814D01*
X1556203D02*
X1558742Y1273353D01*
X1563820D01*
X1566359Y1270814D01*
Y1268275D01*
X1563820Y1265735D01*
X1566359Y1263196D01*
Y1260657D01*
X1563820Y1258118D01*
X1558742D01*
X1556203Y1260657D01*
Y1263196D01*
X1558742Y1265735D01*
X1556203Y1268275D01*
Y1270814D01*
X1558742Y1265735D02*
X1563820D01*
X1024237Y1273521D02*
Y1258287D01*
X1031854D01*
X1034393Y1260826D01*
Y1270982D01*
X1031854Y1273521D01*
X1024237D01*
X1039472Y1258287D02*
X1044550D01*
X1042011D01*
Y1273521D01*
X1039472Y1270982D01*
X1052168Y1273521D02*
X1062324D01*
Y1270982D01*
X1052168Y1260826D01*
Y1258287D01*
X1774823Y1273177D02*
Y1257942D01*
X1782440D01*
X1784980Y1260481D01*
Y1270638D01*
X1782440Y1273177D01*
X1774823D01*
X1790058Y1257942D02*
X1795136D01*
X1792597D01*
Y1273177D01*
X1790058Y1270638D01*
X1812910Y1273177D02*
X1807832Y1270638D01*
X1802754Y1265560D01*
Y1260481D01*
X1805293Y1257942D01*
X1810371D01*
X1812910Y1260481D01*
Y1263021D01*
X1810371Y1265560D01*
X1802754D01*
X1273678Y1273175D02*
Y1257940D01*
X1281295D01*
X1283834Y1260480D01*
Y1270636D01*
X1281295Y1273175D01*
X1273678D01*
X1288913Y1257940D02*
X1293991D01*
X1291452D01*
Y1273175D01*
X1288913Y1270636D01*
X1311765Y1273175D02*
X1301608D01*
Y1265558D01*
X1306687Y1268097D01*
X1309226D01*
X1311765Y1265558D01*
Y1260480D01*
X1309226Y1257940D01*
X1304148D01*
X1301608Y1260480D01*
X773079Y1272079D02*
Y1256844D01*
X780697D01*
X783236Y1259383D01*
Y1269540D01*
X780697Y1272079D01*
X773079D01*
X788314Y1256844D02*
X793393D01*
X790853D01*
Y1272079D01*
X788314Y1269540D01*
X808628Y1256844D02*
Y1272079D01*
X801010Y1264462D01*
X811167D01*
X274121Y1278095D02*
Y1262860D01*
X281739D01*
X284278Y1265399D01*
Y1275556D01*
X281739Y1278095D01*
X274121D01*
X289356Y1262860D02*
X294435D01*
X291896D01*
Y1278095D01*
X289356Y1275556D01*
X302052D02*
X304592Y1278095D01*
X309670D01*
X312209Y1275556D01*
Y1273017D01*
X309670Y1270478D01*
X307131D01*
X309670D01*
X312209Y1267939D01*
Y1265399D01*
X309670Y1262860D01*
X304592D01*
X302052Y1265399D01*
X525242Y522002D02*
Y506767D01*
X532859D01*
X535398Y509306D01*
Y519463D01*
X532859Y522002D01*
X525242D01*
X540477Y506767D02*
X545555D01*
X543016D01*
Y522002D01*
X540477Y519463D01*
X563329Y506767D02*
X553172D01*
X563329Y516924D01*
Y519463D01*
X560790Y522002D01*
X555712D01*
X553172Y519463D01*
X1276732Y1521526D02*
Y1506292D01*
X1284350D01*
X1286889Y1508831D01*
Y1518987D01*
X1284350Y1521526D01*
X1276732D01*
X1291967Y1506292D02*
X1297046D01*
X1294507D01*
Y1521526D01*
X1291967Y1518987D01*
X1304663Y1506292D02*
X1309742D01*
X1307202D01*
Y1521526D01*
X1304663Y1518987D01*
X1777379Y1522286D02*
Y1507051D01*
X1784996D01*
X1787535Y1509590D01*
Y1519747D01*
X1784996Y1522286D01*
X1777379D01*
X1792614Y1507051D02*
X1797692D01*
X1795153D01*
Y1522286D01*
X1792614Y1519747D01*
X1805309D02*
X1807849Y1522286D01*
X1812927D01*
X1815466Y1519747D01*
Y1509590D01*
X1812927Y1507051D01*
X1807849D01*
X1805309Y1509590D01*
Y1519747D01*
X1525674Y1521561D02*
Y1506326D01*
X1533291D01*
X1535831Y1508866D01*
Y1519022D01*
X1533291Y1521561D01*
X1525674D01*
X1540909Y1508866D02*
X1543448Y1506326D01*
X1548527D01*
X1551066Y1508866D01*
Y1519022D01*
X1548527Y1521561D01*
X1543448D01*
X1540909Y1519022D01*
Y1516483D01*
X1543448Y1513944D01*
X1551066D01*
X1023982Y1521559D02*
Y1506324D01*
X1031600D01*
X1034139Y1508864D01*
Y1519020D01*
X1031600Y1521559D01*
X1023982D01*
X1039217Y1519020D02*
X1041756Y1521559D01*
X1046835D01*
X1049374Y1519020D01*
Y1516481D01*
X1046835Y1513942D01*
X1049374Y1511403D01*
Y1508864D01*
X1046835Y1506324D01*
X1041756D01*
X1039217Y1508864D01*
Y1511403D01*
X1041756Y1513942D01*
X1039217Y1516481D01*
Y1519020D01*
X1041756Y1513942D02*
X1046835D01*
X523930Y1524293D02*
Y1509058D01*
X531548D01*
X534087Y1511597D01*
Y1521754D01*
X531548Y1524293D01*
X523930D01*
X539165D02*
X549322D01*
Y1521754D01*
X539165Y1511597D01*
Y1509058D01*
X1523709Y1769260D02*
Y1754025D01*
X1531326D01*
X1533866Y1756564D01*
Y1766721D01*
X1531326Y1769260D01*
X1523709D01*
X1549101D02*
X1544022Y1766721D01*
X1538944Y1761642D01*
Y1756564D01*
X1541483Y1754025D01*
X1546561D01*
X1549101Y1756564D01*
Y1759103D01*
X1546561Y1761642D01*
X1538944D01*
X1022925Y1771385D02*
Y1756150D01*
X1030542D01*
X1033082Y1758689D01*
Y1768846D01*
X1030542Y1771385D01*
X1022925D01*
X1048317D02*
X1038160D01*
Y1763767D01*
X1043238Y1766306D01*
X1045778D01*
X1048317Y1763767D01*
Y1758689D01*
X1045778Y1756150D01*
X1040699D01*
X1038160Y1758689D01*
X1772417Y1771041D02*
Y1755806D01*
X1780035D01*
X1782574Y1758345D01*
Y1768501D01*
X1780035Y1771041D01*
X1772417D01*
X1795270Y1755806D02*
Y1771041D01*
X1787652Y1763423D01*
X1797809D01*
X1274555Y1771039D02*
Y1755804D01*
X1282172D01*
X1284711Y1758343D01*
Y1768499D01*
X1282172Y1771039D01*
X1274555D01*
X1289790Y1768499D02*
X1292329Y1771039D01*
X1297407D01*
X1299946Y1768499D01*
Y1765960D01*
X1297407Y1763421D01*
X1294868D01*
X1297407D01*
X1299946Y1760882D01*
Y1758343D01*
X1297407Y1755804D01*
X1292329D01*
X1289790Y1758343D01*
X776144Y1773225D02*
Y1757990D01*
X783762D01*
X786301Y1760529D01*
Y1770686D01*
X783762Y1773225D01*
X776144D01*
X801536Y1757990D02*
X791379D01*
X801536Y1768147D01*
Y1770686D01*
X798997Y1773225D01*
X793919D01*
X791379Y1770686D01*
X272614Y1772131D02*
Y1756896D01*
X280231D01*
X282770Y1759435D01*
Y1769592D01*
X280231Y1772131D01*
X272614D01*
X287849Y1756896D02*
X292927D01*
X290388D01*
Y1772131D01*
X287849Y1769592D01*
X2000000Y0D02*
Y2000000D01*
X0D02*
X2000000D01*
X0Y0D02*
X2000000D01*
X0D02*
Y2000000D01*
M02*
