G04*
G04 #@! TF.GenerationSoftware,Altium Limited,Altium Designer,20.0.13 (296)*
G04*
G04 Layer_Color=8421504*
%FSLAX44Y44*%
%MOMM*%
G71*
G01*
G75*
%ADD12C,0.2540*%
%ADD13R,1.4000X1.2000*%
%ADD14R,1.8000X2.2000*%
%ADD15R,1.8000X1.1000*%
D12*
X0Y0D02*
X1750000D01*
X1750000Y1750000D02*
X1750000Y0D01*
X0D02*
Y1750000D01*
X1750000Y1750000D01*
D13*
X1374987Y83664D02*
D03*
Y65664D02*
D03*
Y583664D02*
D03*
Y565664D02*
D03*
Y1083664D02*
D03*
Y1065664D02*
D03*
Y1583664D02*
D03*
Y1565664D02*
D03*
X1124839Y1333961D02*
D03*
Y1315961D02*
D03*
Y315961D02*
D03*
Y333961D02*
D03*
X874908Y83795D02*
D03*
Y65795D02*
D03*
Y583795D02*
D03*
Y565795D02*
D03*
Y1083795D02*
D03*
Y1065795D02*
D03*
Y1583795D02*
D03*
Y1565795D02*
D03*
X1625341Y1335270D02*
D03*
Y1317270D02*
D03*
X1625000Y834505D02*
D03*
Y816505D02*
D03*
X1625159Y315897D02*
D03*
Y333897D02*
D03*
X1625000Y84000D02*
D03*
Y66000D02*
D03*
Y584000D02*
D03*
Y566000D02*
D03*
Y1084000D02*
D03*
Y1066000D02*
D03*
Y1584000D02*
D03*
Y1566000D02*
D03*
X1375000Y1334000D02*
D03*
Y1316000D02*
D03*
Y834000D02*
D03*
Y816000D02*
D03*
Y316000D02*
D03*
Y334000D02*
D03*
X1125000Y84000D02*
D03*
Y66000D02*
D03*
Y584000D02*
D03*
Y566000D02*
D03*
Y1084000D02*
D03*
Y1066000D02*
D03*
Y1584000D02*
D03*
Y1566000D02*
D03*
X625000Y1584000D02*
D03*
Y1566000D02*
D03*
X875000Y1334000D02*
D03*
Y1316000D02*
D03*
Y834000D02*
D03*
Y816000D02*
D03*
Y334000D02*
D03*
Y316000D02*
D03*
X625000Y84000D02*
D03*
Y66000D02*
D03*
X375000Y334000D02*
D03*
Y316000D02*
D03*
X125000Y584000D02*
D03*
Y566000D02*
D03*
X625000Y584000D02*
D03*
Y566000D02*
D03*
X125000Y1084000D02*
D03*
Y1066000D02*
D03*
X625000Y1084000D02*
D03*
Y1066000D02*
D03*
X125000Y1584000D02*
D03*
Y1566000D02*
D03*
X375000Y816000D02*
D03*
Y834000D02*
D03*
X1124839Y815961D02*
D03*
Y833961D02*
D03*
X375000Y1316000D02*
D03*
Y1334000D02*
D03*
X125000Y66000D02*
D03*
Y84000D02*
D03*
D14*
X1374987Y115914D02*
D03*
Y615914D02*
D03*
Y1115914D02*
D03*
Y1615914D02*
D03*
X1124839Y1366211D02*
D03*
Y866211D02*
D03*
Y366211D02*
D03*
X874908Y116045D02*
D03*
Y616045D02*
D03*
Y1116045D02*
D03*
Y1616045D02*
D03*
X1625341Y1367520D02*
D03*
X1625000Y866755D02*
D03*
X1625159Y366147D02*
D03*
X1625000Y116250D02*
D03*
Y616250D02*
D03*
Y1116250D02*
D03*
Y1616250D02*
D03*
X1375000Y1366250D02*
D03*
Y866250D02*
D03*
Y366250D02*
D03*
X1125000Y116250D02*
D03*
Y616250D02*
D03*
Y1116250D02*
D03*
Y1616250D02*
D03*
X875000Y1366250D02*
D03*
Y866250D02*
D03*
Y366250D02*
D03*
X625000Y116250D02*
D03*
Y616250D02*
D03*
Y1116250D02*
D03*
X125000Y1616250D02*
D03*
X625000D02*
D03*
X375000Y1366250D02*
D03*
Y866250D02*
D03*
Y366250D02*
D03*
X125000Y116250D02*
D03*
Y616250D02*
D03*
Y1116250D02*
D03*
D15*
X1374987Y138414D02*
D03*
Y638414D02*
D03*
Y1138414D02*
D03*
Y1638414D02*
D03*
X1124839Y1388711D02*
D03*
Y888711D02*
D03*
Y388711D02*
D03*
X874908Y138545D02*
D03*
Y638545D02*
D03*
Y1138545D02*
D03*
Y1638545D02*
D03*
X1625341Y1390020D02*
D03*
X1625000Y889255D02*
D03*
X1625159Y388647D02*
D03*
X1625000Y138750D02*
D03*
Y638750D02*
D03*
Y1138750D02*
D03*
Y1638750D02*
D03*
X1375000Y1388750D02*
D03*
Y888750D02*
D03*
Y388750D02*
D03*
X1125000Y138750D02*
D03*
Y638750D02*
D03*
Y1138750D02*
D03*
Y1638750D02*
D03*
X875000Y1388750D02*
D03*
Y888750D02*
D03*
Y388750D02*
D03*
X625000Y138750D02*
D03*
Y638750D02*
D03*
Y1138750D02*
D03*
X125000Y1638750D02*
D03*
X625000D02*
D03*
X375000Y1388750D02*
D03*
Y888750D02*
D03*
Y388750D02*
D03*
X125000Y138750D02*
D03*
Y638750D02*
D03*
Y1138750D02*
D03*
M02*
