G04*
G04 #@! TF.GenerationSoftware,Altium Limited,Altium Designer,20.0.13 (296)*
G04*
G04 Layer_Color=255*
%FSLAX44Y44*%
%MOMM*%
G71*
G01*
G75*
%ADD12C,0.2540*%
%ADD26C,1.4000*%
%ADD27R,1.4000X1.4000*%
%ADD28C,4.0000*%
%ADD29C,6.0000*%
%ADD30R,1.4000X1.4000*%
D12*
X0Y0D02*
X1750000D01*
X1750000Y1750000D02*
X1750000Y0D01*
X0D02*
Y1750000D01*
X1750000Y1750000D01*
D26*
X1685242Y1660000D02*
D03*
X75000Y1637700D02*
D03*
Y1387700D02*
D03*
Y1137700D02*
D03*
Y887700D02*
D03*
X125192Y1659730D02*
D03*
X625000Y1659431D02*
D03*
X1087700Y1660000D02*
D03*
X1587700D02*
D03*
X75000Y637700D02*
D03*
X837700Y1660000D02*
D03*
X1337700D02*
D03*
X387700Y1600000D02*
D03*
X937700Y1660000D02*
D03*
X75000Y137700D02*
D03*
X1437700Y1660000D02*
D03*
X1187700D02*
D03*
X75000Y387700D02*
D03*
D27*
X1659842Y1660000D02*
D03*
X150592Y1659730D02*
D03*
X650400Y1659431D02*
D03*
X1062300Y1660000D02*
D03*
X1562300D02*
D03*
X812300D02*
D03*
X1312300D02*
D03*
X362300Y1600000D02*
D03*
X912300Y1660000D02*
D03*
X1412300D02*
D03*
X1162300D02*
D03*
D28*
X500000Y1717500D02*
D03*
Y1562500D02*
D03*
X250000Y1717500D02*
D03*
Y1562500D02*
D03*
D29*
X1710000Y1710000D02*
D03*
Y40000D02*
D03*
X40000D02*
D03*
Y1710000D02*
D03*
D30*
X75000Y1612300D02*
D03*
Y1362300D02*
D03*
Y1112300D02*
D03*
Y862300D02*
D03*
Y612300D02*
D03*
Y112300D02*
D03*
Y362300D02*
D03*
M02*
