G04*
G04 #@! TF.GenerationSoftware,Altium Limited,Altium Designer,20.0.13 (296)*
G04*
G04 Layer_Color=255*
%FSLAX44Y44*%
%MOMM*%
G71*
G01*
G75*
%ADD12C,0.2540*%
%ADD13R,1.4000X1.2000*%
%ADD14R,1.8000X2.2000*%
%ADD15R,1.8000X1.1000*%
%ADD27C,6.0000*%
%ADD28C,4.0000*%
%ADD29R,1.4000X1.4000*%
%ADD30C,1.4000*%
%ADD31R,1.4000X1.4000*%
D12*
X2000000D02*
Y2000000D01*
X0D02*
X2000000D01*
X0Y0D02*
X2000000D01*
X0D02*
Y2000000D01*
D13*
X1499987Y208664D02*
D03*
Y190664D02*
D03*
Y708664D02*
D03*
Y690664D02*
D03*
Y1208664D02*
D03*
Y1190664D02*
D03*
Y1708664D02*
D03*
Y1690664D02*
D03*
X1249839Y1458961D02*
D03*
Y1440961D02*
D03*
Y440961D02*
D03*
Y458961D02*
D03*
X999908Y208795D02*
D03*
Y190795D02*
D03*
Y708795D02*
D03*
Y690795D02*
D03*
Y1208795D02*
D03*
Y1190795D02*
D03*
Y1708795D02*
D03*
Y1690795D02*
D03*
X1750341Y1460270D02*
D03*
Y1442270D02*
D03*
X1750000Y959505D02*
D03*
Y941505D02*
D03*
X1750159Y440897D02*
D03*
Y458897D02*
D03*
X1750000Y209000D02*
D03*
Y191000D02*
D03*
Y709000D02*
D03*
Y691000D02*
D03*
Y1209000D02*
D03*
Y1191000D02*
D03*
Y1709000D02*
D03*
Y1691000D02*
D03*
X1500000Y1459000D02*
D03*
Y1441000D02*
D03*
Y959000D02*
D03*
Y941000D02*
D03*
Y441000D02*
D03*
Y459000D02*
D03*
X1250000Y209000D02*
D03*
Y191000D02*
D03*
Y709000D02*
D03*
Y691000D02*
D03*
Y1209000D02*
D03*
Y1191000D02*
D03*
Y1709000D02*
D03*
Y1691000D02*
D03*
X750000Y1709000D02*
D03*
Y1691000D02*
D03*
X1000000Y1459000D02*
D03*
Y1441000D02*
D03*
Y959000D02*
D03*
Y941000D02*
D03*
Y459000D02*
D03*
Y441000D02*
D03*
X750000Y209000D02*
D03*
Y191000D02*
D03*
X500000Y459000D02*
D03*
Y441000D02*
D03*
X250000Y709000D02*
D03*
Y691000D02*
D03*
X750000Y709000D02*
D03*
Y691000D02*
D03*
X250000Y1209000D02*
D03*
Y1191000D02*
D03*
X750000Y1209000D02*
D03*
Y1191000D02*
D03*
X250000Y1709000D02*
D03*
Y1691000D02*
D03*
X500000Y941000D02*
D03*
Y959000D02*
D03*
X1249839Y940961D02*
D03*
Y958961D02*
D03*
X500000Y1441000D02*
D03*
Y1459000D02*
D03*
X250000Y191000D02*
D03*
Y209000D02*
D03*
D14*
X1499987Y240914D02*
D03*
Y740914D02*
D03*
Y1240914D02*
D03*
Y1740914D02*
D03*
X1249839Y1491211D02*
D03*
Y991211D02*
D03*
Y491211D02*
D03*
X999908Y241045D02*
D03*
Y741045D02*
D03*
Y1241045D02*
D03*
Y1741045D02*
D03*
X1750341Y1492520D02*
D03*
X1750000Y991755D02*
D03*
X1750159Y491147D02*
D03*
X1750000Y241250D02*
D03*
Y741250D02*
D03*
Y1241250D02*
D03*
Y1741250D02*
D03*
X1500000Y1491250D02*
D03*
Y991250D02*
D03*
Y491250D02*
D03*
X1250000Y241250D02*
D03*
Y741250D02*
D03*
Y1241250D02*
D03*
Y1741250D02*
D03*
X1000000Y1491250D02*
D03*
Y991250D02*
D03*
Y491250D02*
D03*
X750000Y241250D02*
D03*
Y741250D02*
D03*
Y1241250D02*
D03*
X250000Y1741250D02*
D03*
X750000D02*
D03*
X500000Y1491250D02*
D03*
Y991250D02*
D03*
Y491250D02*
D03*
X250000Y241250D02*
D03*
Y741250D02*
D03*
Y1241250D02*
D03*
D15*
X1499987Y263414D02*
D03*
Y763414D02*
D03*
Y1263414D02*
D03*
Y1763414D02*
D03*
X1249839Y1513711D02*
D03*
Y1013711D02*
D03*
Y513711D02*
D03*
X999908Y263545D02*
D03*
Y763545D02*
D03*
Y1263545D02*
D03*
Y1763545D02*
D03*
X1750341Y1515020D02*
D03*
X1750000Y1014255D02*
D03*
X1750159Y513647D02*
D03*
X1750000Y263750D02*
D03*
Y763750D02*
D03*
Y1263750D02*
D03*
Y1763750D02*
D03*
X1500000Y1513750D02*
D03*
Y1013750D02*
D03*
Y513750D02*
D03*
X1250000Y263750D02*
D03*
Y763750D02*
D03*
Y1263750D02*
D03*
Y1763750D02*
D03*
X1000000Y1513750D02*
D03*
Y1013750D02*
D03*
Y513750D02*
D03*
X750000Y263750D02*
D03*
Y763750D02*
D03*
Y1263750D02*
D03*
X250000Y1763750D02*
D03*
X750000D02*
D03*
X500000Y1513750D02*
D03*
Y1013750D02*
D03*
Y513750D02*
D03*
X250000Y263750D02*
D03*
Y763750D02*
D03*
Y1263750D02*
D03*
D27*
X40000Y900000D02*
D03*
X1950000D02*
D03*
X1000000Y100000D02*
D03*
X1900000Y1900000D02*
D03*
Y100000D02*
D03*
X100000D02*
D03*
Y1900000D02*
D03*
D28*
X625000Y1772500D02*
D03*
Y1927500D02*
D03*
X375000Y1772500D02*
D03*
Y1927500D02*
D03*
D29*
X100000Y1737300D02*
D03*
Y1487300D02*
D03*
Y1237300D02*
D03*
Y987300D02*
D03*
Y737300D02*
D03*
Y237300D02*
D03*
Y487300D02*
D03*
D30*
Y1762700D02*
D03*
Y1512700D02*
D03*
Y1262700D02*
D03*
Y1012700D02*
D03*
X262700Y1900000D02*
D03*
X762700D02*
D03*
X1212700D02*
D03*
X1712700D02*
D03*
X100000Y762700D02*
D03*
X962700Y1900000D02*
D03*
X1462700D02*
D03*
X512700D02*
D03*
X1062700D02*
D03*
X100000Y262700D02*
D03*
X1562700Y1900000D02*
D03*
X1812700D02*
D03*
X1312700D02*
D03*
X100000Y512700D02*
D03*
D31*
X237300Y1900000D02*
D03*
X737300D02*
D03*
X1187300D02*
D03*
X1687300D02*
D03*
X937300D02*
D03*
X1437300D02*
D03*
X487300D02*
D03*
X1037300D02*
D03*
X1537300D02*
D03*
X1787300D02*
D03*
X1287300D02*
D03*
M02*
