G04*
G04 #@! TF.GenerationSoftware,Altium Limited,Altium Designer,20.0.13 (296)*
G04*
G04 Layer_Physical_Order=2*
G04 Layer_Color=16711680*
%FSLAX44Y44*%
%MOMM*%
G71*
G01*
G75*
%ADD12C,0.2540*%
%ADD27C,6.0000*%
%ADD28C,4.0000*%
%ADD29R,1.4000X1.4000*%
%ADD30C,1.4000*%
%ADD31R,1.4000X1.4000*%
%ADD32C,1.2700*%
G36*
X1800000Y1999902D02*
X1800000Y1921868D01*
X1799914D01*
X1797303Y1921525D01*
X1794871Y1920517D01*
X1792782Y1918914D01*
X1791179Y1916825D01*
X1790171Y1914393D01*
X1789827Y1911782D01*
X1789827Y1897967D01*
X1750086Y1897967D01*
X1749640Y1897908D01*
X1748735Y1900093D01*
X1747132Y1902182D01*
X1730482Y1918832D01*
X1728393Y1920435D01*
X1725961Y1921443D01*
X1723350Y1921786D01*
X1700000D01*
X1697390Y1921443D01*
X1694957Y1920435D01*
X1692868Y1918832D01*
X1691265Y1916743D01*
X1690257Y1914310D01*
X1689914Y1911700D01*
X1689914Y1898436D01*
X1626890Y1898436D01*
X1624279Y1898093D01*
X1622822Y1897489D01*
X1606155D01*
X1584730Y1918914D01*
X1584730Y1918914D01*
X1583624Y1919763D01*
X1582641Y1920517D01*
X1580208Y1921525D01*
X1577598Y1921869D01*
X1549914Y1921868D01*
X1547303Y1921525D01*
X1544870Y1920517D01*
X1542782Y1918914D01*
X1541179Y1916825D01*
X1540171Y1914393D01*
X1539827Y1911782D01*
X1539827Y1897967D01*
X1500086Y1897967D01*
X1499640Y1897908D01*
X1498735Y1900093D01*
X1497132Y1902182D01*
X1480482Y1918832D01*
X1478393Y1920435D01*
X1475961Y1921443D01*
X1473350Y1921786D01*
X1450000D01*
X1447390Y1921443D01*
X1444957Y1920435D01*
X1442868Y1918832D01*
X1441265Y1916743D01*
X1440257Y1914310D01*
X1439914Y1911700D01*
X1439914Y1898436D01*
X1376889Y1898436D01*
X1374279Y1898093D01*
X1372822Y1897489D01*
X1356155D01*
X1334730Y1918914D01*
X1334730Y1918914D01*
X1333624Y1919763D01*
X1332641Y1920517D01*
X1330208Y1921525D01*
X1327598Y1921869D01*
X1299914Y1921868D01*
X1297303Y1921525D01*
X1294870Y1920517D01*
X1292782Y1918914D01*
X1291179Y1916825D01*
X1290171Y1914393D01*
X1289827Y1911782D01*
X1289827Y1897967D01*
X1250086Y1897967D01*
X1249640Y1897908D01*
X1248735Y1900093D01*
X1247132Y1902182D01*
X1230482Y1918832D01*
X1228393Y1920435D01*
X1225960Y1921443D01*
X1223350Y1921786D01*
X1200000D01*
X1197390Y1921443D01*
X1194957Y1920435D01*
X1192868Y1918832D01*
X1191265Y1916743D01*
X1190257Y1914310D01*
X1189914Y1911700D01*
X1189914Y1898436D01*
X1126889Y1898436D01*
X1124279Y1898093D01*
X1122822Y1897489D01*
X1106155D01*
X1084730Y1918914D01*
X1084730Y1918914D01*
X1083624Y1919763D01*
X1082641Y1920517D01*
X1080209Y1921525D01*
X1077598Y1921869D01*
X1049914Y1921868D01*
X1047303Y1921525D01*
X1044871Y1920517D01*
X1042782Y1918914D01*
X1041179Y1916825D01*
X1040171Y1914393D01*
X1039827Y1911782D01*
X1039827Y1897967D01*
X1000086Y1897967D01*
X999640Y1897908D01*
X998735Y1900093D01*
X997132Y1902182D01*
X980482Y1918832D01*
X978393Y1920435D01*
X975960Y1921443D01*
X973350Y1921786D01*
X950000D01*
X947390Y1921443D01*
X944957Y1920435D01*
X942868Y1918832D01*
X941265Y1916743D01*
X940257Y1914310D01*
X939914Y1911700D01*
X939914Y1898436D01*
X876890Y1898436D01*
X874279Y1898093D01*
X872822Y1897489D01*
X825251D01*
X789986Y1932754D01*
X787897Y1934357D01*
X785464Y1935364D01*
X782854Y1935708D01*
X750000Y1935708D01*
X747389Y1935364D01*
X744957Y1934357D01*
X742868Y1932754D01*
X741265Y1930665D01*
X740257Y1928232D01*
X739914Y1925622D01*
X739914Y1861765D01*
X661269Y1783120D01*
X661264Y1783113D01*
X661257Y1783108D01*
X660461Y1782068D01*
X659666Y1781031D01*
X659663Y1781023D01*
X659657Y1781016D01*
X659158Y1779804D01*
X658658Y1778598D01*
X658657Y1778590D01*
X658654Y1778582D01*
X658486Y1777288D01*
X658315Y1775988D01*
X658316Y1775979D01*
X658315Y1775971D01*
X658357Y1750899D01*
X657460Y1750000D01*
X589306D01*
Y1891781D01*
X588962Y1894391D01*
X587954Y1896824D01*
X586352Y1898913D01*
X586352Y1898913D01*
X552973Y1932291D01*
X550884Y1933894D01*
X548451Y1934902D01*
X545841Y1935246D01*
X500000D01*
X497389Y1934902D01*
X494957Y1933894D01*
X492868Y1932291D01*
X491265Y1930202D01*
X490257Y1927770D01*
X489914Y1925159D01*
Y1889794D01*
X446036D01*
Y1998956D01*
X447265Y2000000D01*
X1800000Y1999902D01*
D02*
G37*
G36*
X1616803Y1872577D02*
X1616803Y508077D01*
X1490086Y508077D01*
X1490086Y609169D01*
X1519914Y638997D01*
Y642119D01*
X1520086Y643431D01*
X1520086Y884381D01*
X1519914Y885693D01*
Y888735D01*
X1490086Y918563D01*
Y1114010D01*
X1519914Y1143837D01*
Y1146962D01*
X1520086Y1148272D01*
X1520086Y1384597D01*
D01*
D01*
Y1384597D01*
X1519914Y1385909D01*
Y1388803D01*
X1517609Y1391108D01*
X1517132Y1391729D01*
X1507132Y1401729D01*
X1507132D01*
Y1401729D01*
X1490086Y1418775D01*
Y1631488D01*
X1499914Y1641316D01*
Y1644670D01*
X1500086Y1645981D01*
Y1645981D01*
Y1645981D01*
Y1887880D01*
X1549914Y1887881D01*
X1549914Y1911782D01*
X1577598Y1911782D01*
X1616803Y1872577D01*
D02*
G37*
G36*
X1366803D02*
X1366803Y508077D01*
X1240086Y508077D01*
X1240086Y609169D01*
X1269914Y638997D01*
Y642119D01*
X1270086Y643431D01*
X1270086Y884381D01*
X1269914Y885693D01*
Y888735D01*
X1240086Y918563D01*
Y1114010D01*
X1269914Y1143837D01*
Y1146962D01*
X1270086Y1148272D01*
X1270086Y1384597D01*
D01*
D01*
Y1384597D01*
X1269914Y1385909D01*
Y1388803D01*
X1267609Y1391108D01*
X1267132Y1391729D01*
X1257132Y1401729D01*
X1257132D01*
Y1401729D01*
X1240086Y1418775D01*
Y1631488D01*
X1249914Y1641316D01*
Y1644670D01*
X1250086Y1645981D01*
Y1645981D01*
Y1645981D01*
Y1887880D01*
X1299914Y1887881D01*
X1299914Y1911782D01*
X1327598Y1911782D01*
X1366803Y1872577D01*
D02*
G37*
G36*
X1868604Y1870776D02*
X1868604Y508077D01*
X1740086Y508077D01*
X1740086Y609169D01*
X1769914Y638997D01*
Y642119D01*
X1770086Y643431D01*
X1770086Y884381D01*
X1769914Y885693D01*
Y888735D01*
X1740086Y918563D01*
Y1114010D01*
X1769914Y1143837D01*
Y1146962D01*
X1770086Y1148272D01*
X1770086Y1384597D01*
D01*
D01*
Y1384597D01*
X1769914Y1385909D01*
Y1388803D01*
X1767609Y1391108D01*
X1767132Y1391729D01*
X1757132Y1401729D01*
X1757132D01*
Y1401729D01*
X1740086Y1418775D01*
Y1631488D01*
X1749914Y1641316D01*
Y1644670D01*
X1750086Y1645981D01*
Y1645981D01*
Y1645981D01*
Y1887880D01*
X1799914Y1887881D01*
X1799914Y1911782D01*
X1827598Y1911782D01*
X1868604Y1870776D01*
D02*
G37*
G36*
X1118605D02*
X1118605Y508077D01*
X990086Y508077D01*
X990086Y609169D01*
X1019914Y638997D01*
Y642119D01*
X1020086Y643431D01*
X1020086Y884381D01*
X1019914Y885693D01*
Y888735D01*
X990086Y918563D01*
Y1114010D01*
X1019914Y1143837D01*
Y1146962D01*
X1020086Y1148272D01*
X1020086Y1384597D01*
D01*
D01*
Y1384597D01*
X1019914Y1385909D01*
Y1388803D01*
X1017609Y1391108D01*
X1017132Y1391729D01*
X1007132Y1401729D01*
X1007132D01*
Y1401729D01*
X990086Y1418775D01*
Y1631488D01*
X999914Y1641316D01*
Y1644670D01*
X1000086Y1645981D01*
Y1645981D01*
Y1645981D01*
Y1887880D01*
X1049914Y1887881D01*
X1049914Y1911782D01*
X1077598Y1911782D01*
X1118605Y1870776D01*
D02*
G37*
G36*
X2000000Y0D02*
X0D01*
Y2000000D01*
X435016D01*
X435950Y1998956D01*
Y1889794D01*
X436293Y1887183D01*
X437301Y1884751D01*
X438904Y1882662D01*
X440993Y1881059D01*
X443425Y1880051D01*
X446036Y1879708D01*
X480449D01*
X480935Y1878534D01*
X413764Y1811363D01*
X412161Y1809274D01*
X411153Y1806842D01*
X410810Y1804231D01*
X410810Y495514D01*
X411153Y492903D01*
X412161Y490471D01*
X413764Y488382D01*
X415853Y486779D01*
X418285Y485771D01*
X420896Y485428D01*
X579220Y485428D01*
X581830Y485771D01*
X584263Y486779D01*
X586352Y488382D01*
X587954Y490471D01*
X588962Y492903D01*
X589306Y495514D01*
Y1739914D01*
X657460D01*
X658378Y1739087D01*
X660896Y266834D01*
X661069Y265538D01*
X661240Y264240D01*
X661243Y264232D01*
X661244Y264224D01*
X661748Y263013D01*
X662247Y261808D01*
X662253Y261801D01*
X662256Y261793D01*
X663054Y260757D01*
X663850Y259719D01*
X663857Y259713D01*
X663862Y259707D01*
X664899Y258914D01*
X665939Y258116D01*
X665947Y258113D01*
X665954Y258107D01*
X667160Y257610D01*
X668372Y257108D01*
X668380Y257107D01*
X668388Y257104D01*
X669681Y256936D01*
X670982Y256765D01*
X829592Y256765D01*
X832202Y257108D01*
X834635Y258116D01*
X836724Y259719D01*
X838327Y261808D01*
X839334Y264240D01*
X839678Y266851D01*
Y1878885D01*
X839334Y1881495D01*
X838327Y1883928D01*
X836724Y1886017D01*
X836511Y1886229D01*
X836997Y1887403D01*
X866803D01*
X866803Y268942D01*
X867147Y266332D01*
X868155Y263899D01*
X869758Y261810D01*
X871846Y260207D01*
X874279Y259200D01*
X876890Y258856D01*
X1010001D01*
X1012611Y259200D01*
X1015044Y260207D01*
X1017133Y261810D01*
X1018736Y263899D01*
X1019743Y266332D01*
X1020087Y268942D01*
X1020087Y392674D01*
X1019743Y395284D01*
X1018736Y397717D01*
X1017133Y399806D01*
X990086Y426853D01*
Y497990D01*
X1116803Y497990D01*
Y268942D01*
X1117147Y266332D01*
X1118155Y263899D01*
X1119758Y261810D01*
X1121846Y260207D01*
X1124279Y259200D01*
X1126890Y258856D01*
X1260001D01*
X1262611Y259200D01*
X1265044Y260207D01*
X1267133Y261810D01*
X1268736Y263899D01*
X1269743Y266332D01*
X1270087Y268942D01*
X1270087Y392674D01*
X1269743Y395284D01*
X1268736Y397717D01*
X1267133Y399806D01*
X1240086Y426853D01*
Y497990D01*
X1366803Y497990D01*
Y268942D01*
X1367147Y266332D01*
X1368155Y263899D01*
X1369758Y261810D01*
X1371846Y260207D01*
X1374279Y259200D01*
X1376890Y258856D01*
X1510001D01*
X1512611Y259200D01*
X1515044Y260207D01*
X1517133Y261810D01*
X1518736Y263899D01*
X1519743Y266332D01*
X1520087Y268942D01*
X1520087Y392674D01*
X1519743Y395284D01*
X1518736Y397717D01*
X1517133Y399806D01*
X1490086Y426853D01*
Y497990D01*
X1616803Y497990D01*
Y268942D01*
X1617147Y266332D01*
X1618155Y263899D01*
X1619758Y261810D01*
X1621846Y260207D01*
X1624279Y259200D01*
X1626890Y258856D01*
X1760001D01*
X1762611Y259200D01*
X1765044Y260207D01*
X1767133Y261810D01*
X1768736Y263899D01*
X1769743Y266332D01*
X1770087Y268942D01*
X1770087Y392674D01*
X1769743Y395284D01*
X1768736Y397717D01*
X1767133Y399806D01*
X1740086Y426853D01*
Y497990D01*
X1868604Y497990D01*
X1871215Y498334D01*
X1873648Y499342D01*
X1875737Y500945D01*
X1877339Y503034D01*
X1878347Y505466D01*
X1878691Y508077D01*
X1878691Y1870775D01*
X1878691Y1870776D01*
X1878347Y1873386D01*
X1877339Y1875819D01*
X1875737Y1877908D01*
X1875737Y1877908D01*
X1834730Y1918914D01*
X1834730Y1918914D01*
X1833624Y1919763D01*
X1832641Y1920517D01*
X1830208Y1921525D01*
X1827598Y1921869D01*
X1810984Y1921868D01*
X1810086Y1922767D01*
X1810086Y1998730D01*
X1811316Y2000000D01*
X2000000D01*
Y0D01*
D02*
G37*
G36*
X579220Y1891781D02*
Y495514D01*
X420896Y495514D01*
X420896Y1804231D01*
X500000Y1883335D01*
Y1925159D01*
X545841D01*
X579220Y1891781D01*
D02*
G37*
G36*
X1740000Y1895050D02*
Y1645981D01*
X1730000Y1635981D01*
Y1414597D01*
X1750000Y1394597D01*
X1760000Y1384597D01*
X1760000Y1148272D01*
X1730000Y1118272D01*
Y914381D01*
X1760000Y884381D01*
X1760000Y643431D01*
X1730000Y613431D01*
X1730000Y422675D01*
X1760001Y392674D01*
X1760001Y268942D01*
X1626890D01*
X1626890Y1888350D01*
X1700000Y1888350D01*
X1700000Y1911700D01*
X1723350D01*
X1740000Y1895050D01*
D02*
G37*
G36*
X1490000D02*
Y1645981D01*
X1480000Y1635981D01*
Y1414597D01*
X1500000Y1394597D01*
X1510000Y1384597D01*
X1510000Y1148272D01*
X1480000Y1118272D01*
Y914381D01*
X1510000Y884381D01*
X1510000Y643431D01*
X1480000Y613431D01*
X1480000Y422675D01*
X1510001Y392674D01*
X1510001Y268942D01*
X1376890D01*
X1376889Y1888350D01*
X1450000Y1888350D01*
X1450000Y1911700D01*
X1473350D01*
X1490000Y1895050D01*
D02*
G37*
G36*
X1240000D02*
Y1645981D01*
X1230000Y1635981D01*
Y1414597D01*
X1250000Y1394597D01*
X1260000Y1384597D01*
X1260000Y1148272D01*
X1230000Y1118272D01*
Y914381D01*
X1260000Y884381D01*
X1260000Y643431D01*
X1230000Y613431D01*
X1230000Y422675D01*
X1260001Y392674D01*
X1260001Y268942D01*
X1126890D01*
Y502447D01*
X1127339Y503034D01*
X1128347Y505466D01*
X1128691Y508077D01*
X1128691Y1870775D01*
X1128691Y1870776D01*
X1128347Y1873386D01*
X1127339Y1875819D01*
D01*
X1127339Y1875819D01*
X1126889Y1876405D01*
Y1888350D01*
X1200000Y1888350D01*
X1200000Y1911700D01*
X1223350D01*
X1240000Y1895050D01*
D02*
G37*
G36*
X990000D02*
Y1645981D01*
X980000Y1635981D01*
Y1414597D01*
X1000000Y1394597D01*
X1010000Y1384597D01*
X1010000Y1148272D01*
X980000Y1118272D01*
Y914381D01*
X1010000Y884381D01*
X1010000Y643431D01*
X980000Y613431D01*
X980000Y422675D01*
X1010001Y392674D01*
X1010001Y268942D01*
X876890D01*
X876890Y1888350D01*
X950000Y1888350D01*
X950000Y1911700D01*
X973350D01*
X990000Y1895050D01*
D02*
G37*
G36*
X829592Y1878885D02*
Y266851D01*
X670982Y266851D01*
X668401Y1775988D01*
X750000Y1857587D01*
X750000Y1925622D01*
X782854Y1925622D01*
X829592Y1878885D01*
D02*
G37*
%LPC*%
G36*
X109540Y1746840D02*
X90460D01*
Y1727760D01*
X109540D01*
Y1746840D01*
D02*
G37*
G36*
Y1496840D02*
X90460D01*
Y1477760D01*
X109540D01*
Y1496840D01*
D02*
G37*
G36*
Y1246840D02*
X90460D01*
Y1227760D01*
X109540D01*
Y1246840D01*
D02*
G37*
G36*
Y996840D02*
X90460D01*
Y977760D01*
X109540D01*
Y996840D01*
D02*
G37*
G36*
Y746840D02*
X90460D01*
Y727760D01*
X109540D01*
Y746840D01*
D02*
G37*
G36*
Y496840D02*
X90460D01*
Y477760D01*
X109540D01*
Y496840D01*
D02*
G37*
G36*
X282854Y1935708D02*
X250000Y1935708D01*
X247389Y1935364D01*
X244957Y1934357D01*
X242868Y1932754D01*
X241265Y1930665D01*
X240257Y1928232D01*
X239914Y1925622D01*
Y1909540D01*
X227760D01*
Y1890460D01*
X239914D01*
Y1861765D01*
X162326Y1784178D01*
X162321Y1784171D01*
X162314Y1784165D01*
X161516Y1783122D01*
X160723Y1782089D01*
X160720Y1782081D01*
X160715Y1782074D01*
X160214Y1780860D01*
X159716Y1779656D01*
X159715Y1779648D01*
X159712Y1779639D01*
X159543Y1778346D01*
X159372Y1777046D01*
X159373Y1777037D01*
X159372Y1777028D01*
X161955Y266834D01*
X162128Y265538D01*
X162299Y264240D01*
X162302Y264232D01*
X162304Y264224D01*
X162808Y263013D01*
X163307Y261808D01*
X163312Y261801D01*
X163315Y261793D01*
X164113Y260757D01*
X164910Y259719D01*
X164916Y259713D01*
X164922Y259707D01*
X165958Y258914D01*
X166999Y258116D01*
X167007Y258113D01*
X167013Y258107D01*
X168220Y257610D01*
X169431Y257108D01*
X169440Y257107D01*
X169448Y257104D01*
X170741Y256936D01*
X172042Y256765D01*
X330075Y256765D01*
X332685Y257108D01*
X335118Y258116D01*
X337207Y259719D01*
X338810Y261808D01*
X339817Y264240D01*
X340161Y266851D01*
Y1878401D01*
X340161Y1878401D01*
X339817Y1881012D01*
X338810Y1883445D01*
X337207Y1885533D01*
X337207Y1885534D01*
X289986Y1932754D01*
X287897Y1934357D01*
X285464Y1935364D01*
X282854Y1935708D01*
D02*
G37*
G36*
X109540Y246840D02*
X90460D01*
Y227760D01*
X109540D01*
Y246840D01*
D02*
G37*
%LPD*%
G36*
X330075Y1878401D02*
Y266851D01*
X172042Y266851D01*
X169459Y1777046D01*
X250000Y1857587D01*
X250000Y1925622D01*
X282854Y1925622D01*
X330075Y1878401D01*
D02*
G37*
D12*
X2000000Y0D02*
Y2000000D01*
X0D02*
X2000000D01*
X0Y0D02*
X2000000D01*
X0D02*
Y2000000D01*
D27*
X40000Y900000D02*
D03*
X1950000D02*
D03*
X1000000Y100000D02*
D03*
X1900000Y1900000D02*
D03*
Y100000D02*
D03*
X100000D02*
D03*
Y1900000D02*
D03*
D28*
X625000Y1772500D02*
D03*
Y1927500D02*
D03*
X375000Y1772500D02*
D03*
Y1927500D02*
D03*
D29*
X100000Y1737300D02*
D03*
Y1487300D02*
D03*
Y1237300D02*
D03*
Y987300D02*
D03*
Y737300D02*
D03*
Y237300D02*
D03*
Y487300D02*
D03*
D30*
Y1762700D02*
D03*
Y1512700D02*
D03*
Y1262700D02*
D03*
Y1012700D02*
D03*
X262700Y1900000D02*
D03*
X762700D02*
D03*
X1212700D02*
D03*
X1712700D02*
D03*
X100000Y762700D02*
D03*
X962700Y1900000D02*
D03*
X1462700D02*
D03*
X512700D02*
D03*
X1062700D02*
D03*
X100000Y262700D02*
D03*
X1562700Y1900000D02*
D03*
X1812700D02*
D03*
X1312700D02*
D03*
X100000Y512700D02*
D03*
D31*
X237300Y1900000D02*
D03*
X737300D02*
D03*
X1187300D02*
D03*
X1687300D02*
D03*
X937300D02*
D03*
X1437300D02*
D03*
X487300D02*
D03*
X1037300D02*
D03*
X1537300D02*
D03*
X1787300D02*
D03*
X1287300D02*
D03*
D32*
X1250000Y790000D02*
D03*
X1499987Y1289664D02*
D03*
X1249839Y1539961D02*
D03*
X1750341Y1541270D02*
D03*
X999908Y1289795D02*
D03*
X1750000Y1290000D02*
D03*
X1500000Y1540000D02*
D03*
X1250000Y1290000D02*
D03*
X1500000Y1040000D02*
D03*
X1750000Y1040505D02*
D03*
X1249839Y1039961D02*
D03*
X1499987Y789664D02*
D03*
X999908Y789795D02*
D03*
X1750000Y790000D02*
D03*
X1750159Y539897D02*
D03*
X1249839Y539961D02*
D03*
X1499987Y289664D02*
D03*
X999908Y289795D02*
D03*
X1750000Y290000D02*
D03*
X1500000Y540000D02*
D03*
X1250000Y290000D02*
D03*
X1000000Y540000D02*
D03*
Y1040000D02*
D03*
Y1540000D02*
D03*
X750000Y1290000D02*
D03*
Y790000D02*
D03*
Y290000D02*
D03*
X500000Y540000D02*
D03*
Y1040000D02*
D03*
Y1540000D02*
D03*
X250000Y290000D02*
D03*
Y790000D02*
D03*
Y1290000D02*
D03*
M02*
