M48
;Layer_Color=9474304
;FILE_FORMAT=4:4
METRIC,LZ
;TYPE=PLATED
T1F00S00C0.7112
T2F00S00C0.8900
T3F00S00C1.9000
T4F00S00C3.2000
%
T01
X00125Y00165
X00625
X00874908Y00164795
X01125Y00165
X01374987Y00164664
X01625Y00165
X01625159Y00414897
X01625Y00665
X01374987Y00664664
X01375Y00415
X01124839Y00414961
X01125Y00665
X00874908Y00664795
X00875Y00415
X00625Y00665
X00375Y00415
X00125Y00665
X00375Y00915
X00875
X01124839Y00914961
X01375Y00915
X01625Y00915505
Y01165
X01625341Y0141627
X01375Y01415
X01124839Y01414961
X01125Y01165
X01374987Y01164664
X00874908Y01164795
X00875Y01415
X00625Y01165
X00375Y01415
X00125Y01165
T02
X00075Y001123
Y001377
Y003623
Y003877
Y006123
Y006377
Y008623
Y008877
Y011123
Y011377
Y013623
Y013877
Y016123
Y016377
X00125192Y0165973
X00150592
X003623Y016
X003877
X00625Y01659431
X006504
X008123Y0166
X008377
X009123
X009377
X010623
X010877
X011623
X011877
X013123
X013377
X014123
X014377
X015623
X015877
X01659842
X01685242
T03
X0025Y015625
Y017175
X005
Y015625
T04
X0004Y0004
X0171
X0004Y0171
X0171
M30
