M48
;Layer_Color=9474304
;FILE_FORMAT=4:4
METRIC,LZ
;TYPE=PLATED
T1F00S00C0.7112
T2F00S00C0.8900
T3F00S00C1.9000
T4F00S00C3.2000
%
T01
X0025Y0029
X0075
X00999908Y00289795
X0125Y0029
X01499987Y00289664
X0175Y0029
X01750159Y00539897
X0175Y0079
X01499987Y00789664
X015Y0054
X01249839Y00539961
X0125Y0079
X00999908Y00789795
X01Y0054
X0075Y0079
X005Y0054
X0025Y0079
X005Y0104
X01
X01249839Y01039961
X015Y0104
X0175Y01040505
Y0129
X01750341Y0154127
X015Y0154
X01249839Y01539961
X0125Y0129
X01499987Y01289664
X00999908Y01289795
X01Y0154
X0075Y0129
X005Y0154
X0025Y0129
T02
X001Y002373
Y002627
Y004873
Y005127
Y007373
Y007627
Y009873
Y010127
Y012373
Y012627
Y014873
Y015127
Y017373
Y017627
X002373Y019
X002627
X004873
X005127
X007373
X007627
X009373
X009627
X010373
X010627
X011873
X012127
X012873
X013127
X014373
X014627
X015373
X015627
X016873
X017127
X017873
X018127
T03
X00375Y017725
Y019275
X00625
Y017725
T04
X001Y001
X01
X019
X0004Y009
X0195
X001Y019
X019
M30
