M48
;Layer_Color=9474304
;FILE_FORMAT=2:5
INCH,LZ
;TYPE=PLATED
T1F00S00C0.02800
T2F00S00C0.03504
T3F00S00C0.07480
T4F00S00C0.12598
%
T01
X0098425Y0114173
X0295276
X0492126
X0688976
X0885827
X1082677
Y0311024
X0984252Y0212598
X0885827Y0311024
X0787402Y0212598
X0688976Y0311024
X0590551Y0212598
X0492126Y0311024
X0393701Y0212598
X0295276Y0311024
X019685Y0212598
X0098425Y0311024
X019685Y0409449
X0393701
X0590551
X0787402
X0984252
Y0606299
X1082677Y0507874
X0885827
X0787402Y0606299
X0688976Y0507874
X0590551Y0606299
X0492126Y0507874
X0393701Y0606299
X0295276Y0507874
X019685Y0606299
X0098425Y0507874
T02
X003937Y0093425
Y0103425
Y019185
Y020185
Y0290276
Y0300276
Y0388701
Y0398701
Y0487126
Y0497126
Y0585551
Y0595551
Y0683976
Y0693976
X0093425Y0748032
X0103425
X019185
X020185
X0290276
X0300276
X0388701
X0398701
X0487126
X0497126
X0585551
X0595551
X0683976
X0693976
X0782402
X0792402
X0880827
X0890827
X0979252
X0989252
X1077677
X1087677
T03
X0147638Y0697835
Y0758858
X0246063
Y0697835
T04
X003937Y003937
X1141732
X003937Y0748032
X1141732
M30
